/* XPM */
static char * test_xpm[] = {
"64 64 478 2",
"  	c #FFFFFF",
". 	c #B6B6B6",
"+ 	c #B7B7B7",
"@ 	c #B8B8B8",
"# 	c #B4B4B4",
"$ 	c #626560",
"% 	c #75786B",
"& 	c #77796C",
"* 	c #777A6C",
"= 	c #7E8A74",
"- 	c #7F8F77",
"; 	c #959E90",
"> 	c #98A094",
", 	c #99A094",
"' 	c #83927C",
") 	c #7F8E76",
"! 	c #787C6D",
"~ 	c #686C64",
"{ 	c #9A9A9A",
"] 	c #B5B5B5",
"^ 	c #A8A8A8",
"/ 	c #ACACAC",
"( 	c #ABABAB",
"_ 	c #17240D",
": 	c #4C5136",
"< 	c #4F5438",
"[ 	c #50583A",
"} 	c #5F7851",
"| 	c #5B6F4A",
"1 	c #5A6E4A",
"2 	c #5A6E49",
"3 	c #5F764F",
"4 	c #576544",
"5 	c #2E3822",
"6 	c #848484",
"7 	c #AAAAAA",
"8 	c #A9A9A9",
"9 	c #A7A8A7",
"0 	c #17240E",
"a 	c #4A5035",
"b 	c #4C5237",
"c 	c #454D33",
"d 	c #566443",
"e 	c #556342",
"f 	c #505639",
"g 	c #4F5338",
"h 	c #4F5337",
"i 	c #546141",
"j 	c #576644",
"k 	c #4F5639",
"l 	c #4E5338",
"m 	c #2E3722",
"n 	c #858685",
"o 	c #A7A7A7",
"p 	c #19250F",
"q 	c #313B25",
"r 	c #435035",
"s 	c #566644",
"t 	c #4A5237",
"u 	c #434C32",
"v 	c #4C5236",
"w 	c #2B3620",
"x 	c #868785",
"y 	c #2D3428",
"z 	c #283521",
"A 	c #506342",
"B 	c #50573A",
"C 	c #51583B",
"D 	c #4F5539",
"E 	c #5A6D49",
"F 	c #283420",
"G 	c #283322",
"H 	c #8A8A89",
"I 	c #737472",
"J 	c #343E29",
"K 	c #515B3C",
"L 	c #586645",
"M 	c #556345",
"N 	c #4F5B43",
"O 	c #867E5D",
"P 	c #837C5B",
"Q 	c #545E45",
"R 	c #515C43",
"S 	c #586946",
"T 	c #556241",
"U 	c #3E4E34",
"V 	c #474946",
"W 	c #6D6D6A",
"X 	c #494D33",
"Y 	c #515B3D",
"Z 	c #80714C",
"` 	c #968262",
" .	c #968062",
"..	c #6A5A4A",
"+.	c #857058",
"@.	c #A08667",
"#.	c #877159",
"$.	c #48413B",
"%.	c #45463B",
"&.	c #556446",
"*.	c #546142",
"=.	c #4F563A",
"-.	c #4B4D42",
";.	c #A2A2A2",
">.	c #A4A4A3",
",.	c #3B4025",
"'.	c #545B3D",
").	c #9A714D",
"!.	c #BF7454",
"~.	c #A78666",
"{.	c #BAA582",
"].	c #8B7A60",
"^.	c #B6A584",
"/.	c #D1BF99",
"(.	c #CAB994",
"_.	c #83735A",
":.	c #85735B",
"<.	c #433D3B",
"[.	c #403937",
"}.	c #494F3E",
"|.	c #556343",
"1.	c #4A4F34",
"2.	c #828381",
"3.	c #ADADAD",
"4.	c #52534C",
"5.	c #555F40",
"6.	c #B3704E",
"7.	c #C6724F",
"8.	c #D28F5C",
"9.	c #DDB487",
"0.	c #E6D5AC",
"a.	c #E7D7AF",
"b.	c #E8D8AF",
"c.	c #E7D7AE",
"d.	c #E1D1AA",
"e.	c #8B7D71",
"f.	c #554D49",
"g.	c #564D40",
"h.	c #5A6A48",
"i.	c #464A37",
"j.	c #949493",
"k.	c #A1A1A1",
"l.	c #4D5045",
"m.	c #4E5337",
"n.	c #5B5539",
"o.	c #B76C4B",
"p.	c #CE8959",
"q.	c #AF784E",
"r.	c #68653E",
"s.	c #7E8E58",
"t.	c #E9E7C1",
"u.	c #EDE5BD",
"v.	c #989F7C",
"w.	c #718A57",
"x.	c #857E67",
"y.	c #DCCDA6",
"z.	c #938265",
"A.	c #464A31",
"B.	c #4A4E38",
"C.	c #848483",
"D.	c #919191",
"E.	c #2D3328",
"F.	c #39412A",
"G.	c #484E34",
"H.	c #4C402B",
"I.	c #C2764F",
"J.	c #D4935E",
"K.	c #D2915D",
"L.	c #BBA76C",
"M.	c #668A4D",
"N.	c #8EB171",
"O.	c #DBD7AA",
"P.	c #E4D8AE",
"Q.	c #B0C78F",
"R.	c #577844",
"S.	c #AEC890",
"T.	c #EAE4BD",
"U.	c #EBDEB6",
"V.	c #D2C09B",
"W.	c #5A4D39",
"X.	c #505538",
"Y.	c #4D5237",
"Z.	c #3D452D",
"`.	c #28301E",
" +	c #666764",
".+	c #9D9D9C",
"++	c #6B6C6A",
"@+	c #464A41",
"#+	c #2F3822",
"$+	c #303622",
"%+	c #7D4D34",
"&+	c #CB8657",
"*+	c #D4925D",
"=+	c #DBA979",
"-+	c #D7C094",
";+	c #D8D0A3",
">+	c #E2D5AA",
",+	c #DFDDBA",
"'+	c #E3D9B2",
")+	c #D9D1A4",
"!+	c #D6CAA1",
"~+	c #E4D9AF",
"{+	c #E9D9B0",
"]+	c #DECDA6",
"^+	c #97866A",
"/+	c #323624",
"(+	c #303A23",
"_+	c #333B29",
":+	c #595B57",
"<+	c #959595",
"[+	c #A3A3A3",
"}+	c #989898",
"|+	c #767775",
"1+	c #343A31",
"2+	c #363931",
"3+	c #7D4D3D",
"4+	c #C8A077",
"5+	c #E3D1A9",
"6+	c #B8AC8A",
"7+	c #DACAA4",
"8+	c #E6D6AD",
"9+	c #DCCCA5",
"0+	c #96856A",
"a+	c #3D3C34",
"b+	c #33382F",
"c+	c #60625F",
"d+	c #8F8F8E",
"e+	c #45433A",
"f+	c #6D6752",
"g+	c #D9CAA3",
"h+	c #DBCCA5",
"i+	c #A4997B",
"j+	c #413F34",
"k+	c #8E8E8D",
"l+	c #B0B0AD",
"m+	c #B5B6B0",
"n+	c #41443E",
"o+	c #272E1E",
"p+	c #833440",
"q+	c #A54152",
"r+	c #5E2E35",
"s+	c #3A2221",
"t+	c #452426",
"u+	c #923F4D",
"v+	c #A3404F",
"w+	c #292A1D",
"x+	c #333A2F",
"y+	c #EFECC7",
"z+	c #EBDFB7",
"A+	c #C5BEAD",
"B+	c #ABACAC",
"C+	c #636362",
"D+	c #26331F",
"E+	c #2A3120",
"F+	c #7D3640",
"G+	c #863F4B",
"H+	c #6D5043",
"I+	c #9C8264",
"J+	c #836953",
"K+	c #733B43",
"L+	c #95404E",
"M+	c #302C20",
"N+	c #3F433C",
"O+	c #A6A6A6",
"P+	c #AAAAAB",
"Q+	c #DCD0B0",
"R+	c #E5D5AC",
"S+	c #BEB5A4",
"T+	c #4C503F",
"U+	c #333C27",
"V+	c #3F2E27",
"W+	c #6A4D41",
"X+	c #A38B6C",
"Y+	c #DAC8A1",
"Z+	c #BFA684",
"`+	c #9A5943",
" @	c #4F2D2C",
".@	c #2D3522",
"+@	c #454B32",
"@@	c #474C34",
"#@	c #7C7C7A",
"$@	c #C4BCAA",
"%@	c #B5A17F",
"&@	c #928E8A",
"*@	c #747572",
"=@	c #494E34",
"-@	c #625540",
";@	c #A79070",
">@	c #DCCBA4",
",@	c #E5D0A7",
"'@	c #CB8159",
")@	c #99573D",
"!@	c #40442D",
"~@	c #56594E",
"{@	c #9FA0A0",
"]@	c #A49380",
"^@	c #82715C",
"/@	c #9A9998",
"(@	c #9D9D9D",
"_@	c #474A3D",
":@	c #4F5538",
"<@	c #4D4733",
"[@	c #A79071",
"}@	c #DFCEA6",
"|@	c #E8D9B0",
"1@	c #DCB285",
"2@	c #D3925E",
"3@	c #C97A52",
"4@	c #8A4F37",
"5@	c #4B5035",
"6@	c #454A32",
"7@	c #3E3F39",
"8@	c #9F8566",
"9@	c #736D66",
"0@	c #6A6B69",
"a@	c #635D48",
"b@	c #DECEA6",
"c@	c #DBAE80",
"d@	c #D4925E",
"e@	c #976441",
"f@	c #4A4F35",
"g@	c #303423",
"h@	c #7B746D",
"i@	c #A4A4A4",
"j@	c #5A5C57",
"k@	c #383F28",
"l@	c #D4C59F",
"m@	c #CDBA95",
"n@	c #E3D2AA",
"o@	c #EEE3BB",
"p@	c #D0BE98",
"q@	c #E4D7AF",
"r@	c #E3C99E",
"s@	c #BD926E",
"t@	c #DBB386",
"u@	c #60543D",
"v@	c #333925",
"w@	c #777675",
"x@	c #909090",
"y@	c #2B3424",
"z@	c #363C26",
"A@	c #CBB994",
"B@	c #A4987B",
"C@	c #F9F5CE",
"D@	c #998164",
"E@	c #E0DBB7",
"F@	c #CEC3A0",
"G@	c #AE9A7B",
"H@	c #EBDBB1",
"I@	c #66624C",
"J@	c #363F28",
"K@	c #6D6D6C",
"L@	c #4D514B",
"M@	c #38412A",
"N@	c #3A3F29",
"O@	c #D3B68E",
"P@	c #E3D3AA",
"Q@	c #9A8E73",
"R@	c #EAECC7",
"S@	c #423E31",
"T@	c #CDCFAE",
"U@	c #B2AE91",
"V@	c #EADAB0",
"W@	c #68634D",
"X@	c #434A30",
"Y@	c #242F1C",
"Z@	c #9E9E9D",
"`@	c #7A7B78",
" #	c #4B5038",
".#	c #7F4A33",
"+#	c #D19261",
"@#	c #E1C49A",
"##	c #D8C7A0",
"$#	c #93866C",
"%#	c #564B3A",
"&#	c #7C735D",
"*#	c #BFAD8A",
"=#	c #E6D6AE",
"-#	c #968467",
";#	c #454931",
">#	c #41482F",
",#	c #5D5E5B",
"'#	c #393E23",
")#	c #474D33",
"!#	c #7B4B38",
"~#	c #DCBD94",
"{#	c #DBC9A2",
"]#	c #D1BE99",
"^#	c #D3C19B",
"/#	c #9D896C",
"(#	c #434730",
"_#	c #4B5136",
":#	c #4C4F3D",
"<#	c #969796",
"[#	c #A0A0A0",
"}#	c #53554C",
"|#	c #424930",
"1#	c #4D5236",
"2#	c #494F34",
"3#	c #6C5A44",
"4#	c #E0CFA7",
"5#	c #9D896B",
"6#	c #484E33",
"7#	c #40472E",
"8#	c #494D3A",
"9#	c #A0A09F",
"0#	c #5F6059",
"a#	c #3E452D",
"b#	c #675641",
"c#	c #DFCEA7",
"d#	c #E5D5AD",
"e#	c #DACBA6",
"f#	c #AD9F87",
"g#	c #DCCDA7",
"h#	c #988669",
"i#	c #4E5143",
"j#	c #8C8C8B",
"k#	c #898988",
"l#	c #3D4331",
"m#	c #3E462D",
"n#	c #3F462E",
"o#	c #444B31",
"p#	c #182414",
"q#	c #EDE2B9",
"r#	c #D8CEAD",
"s#	c #8D7F74",
"t#	c #7D7069",
"u#	c #D5C6A2",
"v#	c #655F4B",
"w#	c #434930",
"x#	c #353E28",
"y#	c #5E6059",
"z#	c #7F807E",
"A#	c #474944",
"B#	c #323B25",
"C#	c #273320",
"D#	c #2F3A24",
"E#	c #333D27",
"F#	c #192717",
"G#	c #AC9A7A",
"H#	c #E4D3AB",
"I#	c #C7B996",
"J#	c #A0947A",
"K#	c #625751",
"L#	c #746862",
"M#	c #9C8F7B",
"N#	c #4D4735",
"O#	c #303A25",
"P#	c #3C4137",
"Q#	c #5B5D5A",
"R#	c #7E7E7D",
"S#	c #70716F",
"T#	c #1B2512",
"U#	c #18240E",
"V#	c #575955",
"W#	c #7E7B78",
"X#	c #95876C",
"Y#	c #AB9F83",
"Z#	c #908B86",
"`#	c #818180",
" $	c #575753",
".$	c #49433D",
"+$	c #675851",
"@$	c #8D7559",
"#$	c #706E6A",
"$$	c #1C2613",
"%$	c #565854",
"&$	c #7F7F7E",
"*$	c #9A9A99",
"=$	c #A5A5A5",
"-$	c #A6A6A5",
";$	c #848281",
">$	c #98897B",
",$	c #E2DEBC",
"'$	c #A8A890",
")$	c #A2A2A1",
"!$	c #A29E95",
"~$	c #B2A996",
"                                                                                                                                ",
"                                                                                                                                ",
"                                                                                                                                ",
"                                                                                                                                ",
"                                    . + @ # $ % & * = - ; > > > > > > > , ' ) ! & * ~ { @ ]                                     ",
"                                    ^ / ( ^ _ : < < [ } | 1 1 1 1 1 1 1 2 3 4 < < < 5 6 / 7                                     ",
"                                    ^ / ( ^ _ : < < [ } | 1 1 1 1 1 1 1 2 3 4 < < < 5 6 / 7                                     ",
"                                    8 ( ( 9 0 a b c d e f g g g g g g g h i j k l < m n / 8                                     ",
"                                    8 ( ( 9 0 a b c d e f g g g g g g g h i j k l < m n / 8                                     ",
"                                    7 ( / o p q r s < < < < < < < < < < < < < t u v w x ( 8                                     ",
"                                    7 ( / o p q r s < < < < < < < < < < < < < t u v w x ( 8                                     ",
"                                    7 ( / ^ y z A B < < < f C C C C C B < < < D E F G H / 8                                     ",
"                                    7 ( / ( I J K < < < L M N N O P Q R S [ < < T U V ^ ( 8                                     ",
"                                    7 ( / ( I J K < < < L M N N O P Q R S [ < < T U V ^ ( 8                                     ",
"                                    8 ( ( ( W X < < Y Z `  ...+.@.@.#.$.%.&.*.D < =.-.;.( 8                                     ",
"                                    8 ( ( ( W X < < Y Z `  ...+.@.@.#.$.%.&.*.D < =.-.;.( 8                                     ",
"                                    7 ( / >.,.< < '.).!.~.{.].^./.(._.:.<.[.}.|.< < 1.2.( 8                                     ",
"                                    7 ( / >.,.< < '.).!.~.{.].^./.(._.:.<.[.}.|.< < 1.2.( 8                                     ",
"                                    ^ 3.;.4.< < < 5.6.7.8.9.0.a.b.b.c.d.e.f.g.h.< < < i.j.(                                     ",
"                                    ^ 3.;.4.< < < 5.6.7.8.9.0.a.b.b.c.d.e.f.g.h.< < < i.j.(                                     ",
"                                    7 k.l.m.< < n.o.p.q.r.s.t.b.b.b.u.v.w.x.y.z.A.< < < B.C.                                    ",
"                                    8 D.E.F.G.< H.I.J.K.L.M.N.O.b.P.Q.R.S.T.U.V.W.X.Y.Z.`. +                                    ",
"                                    8 D.E.F.G.< H.I.J.K.L.M.N.O.b.P.Q.R.S.T.U.V.W.X.Y.Z.`. +                                    ",
"                                    7 7 .+++@+#+$+%+&+*+=+-+;+>+,+'+)+!+~+{+]+^+/+(+_+:+<+[+                                    ",
"                                    7 7 .+++@+#+$+%+&+*+=+-+;+>+,+'+)+!+~+{+]+^+/+(+_+:+<+[+                                    ",
"                                    8 / ( / }+|+1+2+3+4+5+b.b.{+6+7+b.b.8+9+0+a+b+c+d+( / 7                                     ",
"                                    8 / ( / }+|+1+2+3+4+5+b.b.{+6+7+b.b.8+9+0+a+b+c+d+( / 7                                     ",
"                                    7 7 / ( ( ( ^ 8 ^ e+f+g+h+h+h+h+h+h+i+j+k+8 o l+m+/ ( ^                                     ",
"                                    8 / ( / / ( / ( ( n+o+p+q+r+s+t+u+v+w+x+D.( ( y+z+A+B+7                                     ",
"                                    8 / ( / / ( / ( ( n+o+p+q+r+s+t+u+v+w+x+D.( ( y+z+A+B+7                                     ",
"                                    7 ( / ( ( / ( / C+D+E+F+G+H+I+J+K+L+M+D+N+O+P+Q+R+S+( ^                                     ",
"                                    7 ( / ( ( / ( / C+D+E+F+G+H+I+J+K+L+M+D+N+O+P+Q+R+S+( ^                                     ",
"                                    8 / ( / / ( / { T+G.U+V+W+X+Y+Z+`+ @.@+@@@#@/ $@%@&@/ 8                                     ",
"                                    8 / ( / / ( / { T+G.U+V+W+X+Y+Z+`+ @.@+@@@#@/ $@%@&@/ 8                                     ",
"                                    8 / ( / / ( 8 *@1.< =@-@;@>@b.,@'@)@!@< m.~@{@]@^@/@/ 7                                     ",
"                                    8 / ( / / ( 8 *@1.< =@-@;@>@b.,@'@)@!@< m.~@{@]@^@/@/ 7                                     ",
"                                    8 / ( / / ( (@_@< :@<@[@}@b.|@1@2@3@4@5@< 6@7@8@9@8 / 7                                     ",
"                                    8 / ( / / / 0@: < X.a@b@b.b.|@c@J.d@e@f@< < g@h@7 ( / 7                                     ",
"                                    8 / ( / / / 0@: < X.a@b@b.b.|@c@J.d@e@f@< < g@h@7 ( / 7                                     ",
"                                    8 ( / ( ( i@j@v < k@l@m@n@o@p@q@r@s@t@u@< < v@w@( / ( 8                                     ",
"                                    8 ( / ( ( i@j@v < k@l@m@n@o@p@q@r@s@t@u@< < v@w@( / ( 8                                     ",
"                                    8 / ( / / x@y@Y.< z@7+A@B@C@D@E@F@G@H@I@< < J@K@7 ( / 7                                     ",
"                                    8 / ( / / x@y@Y.< z@7+A@B@C@D@E@F@G@H@I@< < J@K@7 ( / 7                                     ",
"                                    7 7 / ( ( L@M@m.< N@O@P@Q@R@S@T@U@l@V@W@l < X@Y@Z@/ ( ^                                     ",
"                                    8 3.( ( `@ #Y.: < .#+#@###$#%#&#*#=#{+-#;#m.m.>#,#8 / 7                                     ",
"                                    8 3.( ( `@ #Y.: < .#+#@###$#%#&#*#=#{+-#;#m.m.>#,#8 / 7                                     ",
"                                    7 7 / ^ '#< m.)#< !#~#b.b.{#]#^#c.b.{+/#(#_#_#< :#<#( ^                                     ",
"                                    7 7 / ^ '#< m.)#< !#~#b.b.{#]#^#c.b.{+/#(#_#_#< :#<#( ^                                     ",
"                                    8 / [#}#|#1#2#l < 3#4#b.b.b.b.b.{+b.{+5#(#< 6#< 7#8#d+(                                     ",
"                                    8 / [#}#|#1#2#l < 3#4#b.b.b.b.b.{+b.{+5#(#< 6#< 7#8#d+(                                     ",
"                                    7 9#0#a#< l 6#m.< b#c#b.b.b.d#e#f#g#{+h#;#< G.Y.< +@i#j#                                    ",
"                                    7 9#0#a#< l 6#m.< b#c#b.b.b.d#e#f#g#{+h#;#< G.Y.< +@i#j#                                    ",
"                                    8 k#l#m#< n#o#< < p#g+b.b.q#r#s#t#u#{+v#w#< < x#1#)#U+y#                                    ",
"                                    8 7 z#A#B#C#D#E#E#F#G#H#c.I#J#K#L#M#m@N#D#E#E#D+O#P#Q#[+                                    ",
"                                    8 7 z#A#B#C#D#E#E#F#G#H#c.I#J#K#L#M#m@N#D#E#E#D+O#P#Q#[+                                    ",
"                                    ^ 3./ ( R#S#T#U#U#V#W#X#Y#Z#`# $.$+$@$#$$$U#U#%$&$*$3.7                                     ",
"                                    ^ 3./ ( R#S#T#U#U#V#W#X#Y#Z#`# $.$+$@$#$$$U#U#%$&$*$3.7                                     ",
"                                    8 ( / ( ( 7 =$i@=$o 7 =$-$( / ;$>$,$'$)$=$i@=$o ( / ( 8                                     ",
"                                    8 ( / ( ( 7 =$i@=$o 7 =$-$( / ;$>$,$'$)$=$i@=$o ( / ( 8                                     ",
"                                    . + @ + + @ + @ @ @ @ + + + @ ] !$~$( @ + @ + @ + @ + ]                                     ",
"                                                                                                                                ",
"                                                                                                                                ",
"                                                                                                                                ",
"                                                                                                                                "};
