/* XPM */
static char * Player_xpm[] = {
"64 64 546 2",
"  	c #777777",
". 	c #6C6C6C",
"+ 	c #686868",
"@ 	c #707070",
"# 	c #767676",
"$ 	c #737373",
"% 	c #6B6B6B",
"& 	c #676767",
"* 	c #6A6A6A",
"= 	c #717171",
"- 	c #787878",
"; 	c #727272",
"> 	c #C2C2C2",
", 	c #959595",
"' 	c #808080",
") 	c #7E7E7E",
"! 	c #A5A5A5",
"~ 	c #BFBFBF",
"{ 	c #C5C5C5",
"] 	c #B3B3B3",
"^ 	c #909090",
"/ 	c #7C7C7C",
"( 	c #8A8A8A",
"_ 	c #AEAEAE",
": 	c #C3C3C3",
"< 	c #AFAFAF",
"[ 	c #7D7D7D",
"} 	c #8C8C8C",
"| 	c #C1C1C1",
"1 	c #C9C9C9",
"2 	c #9A9A9A",
"3 	c #848484",
"4 	c #828282",
"5 	c #AAAAAA",
"6 	c #C6C6C6",
"7 	c #CCCCCC",
"8 	c #BABABA",
"9 	c #7F7F7F",
"0 	c #8E8E8E",
"a 	c #CACACA",
"b 	c #7B7B7C",
"c 	c #8B8B8C",
"d 	c #C2C2C3",
"e 	c #949495",
"f 	c #7E7E7F",
"g 	c #BFBFC0",
"h 	c #C5C5C6",
"i 	c #B4B4B4",
"j 	c #8F8F90",
"k 	c #7A7A7A",
"l 	c #89898A",
"m 	c #C3C3C4",
"n 	c #AEAEAF",
"o 	c #8D8D8D",
"p 	c #818181",
"q 	c #919191",
"r 	c #C7C7C7",
"s 	c #CBCBCB",
"t 	c #A0A0A0",
"u 	c #949494",
"v 	c #939393",
"w 	c #ABABAB",
"x 	c #BDBDBD",
"y 	c #9E9E9E",
"z 	c #929292",
"A 	c #B0B0B0",
"B 	c #BEBEBE",
"C 	c #A0A0A1",
"D 	c #43434B",
"E 	c #44444C",
"F 	c #484850",
"G 	c #5A5A5F",
"H 	c #5B5B60",
"I 	c #5A5A60",
"J 	c #4B4B52",
"K 	c #505057",
"L 	c #59595F",
"M 	c #5B5B61",
"N 	c #55555B",
"O 	c #494951",
"P 	c #48484F",
"Q 	c #535359",
"R 	c #5F5F63",
"S 	c #8C8C8D",
"T 	c #B1B1B1",
"U 	c #9B9B9B",
"V 	c #C0C0C0",
"W 	c #8B8B8B",
"X 	c #B9B9B9",
"Y 	c #C8C8C8",
"Z 	c #ADADAD",
"` 	c #8F8F8F",
" .	c #868686",
"..	c #9D9D9D",
"+.	c #A4A4A4",
"@.	c #858585",
"#.	c #717172",
"$.	c #353540",
"%.	c #363641",
"&.	c #363741",
"*.	c #353641",
"=.	c #363640",
"-.	c #373741",
";.	c #32323D",
">.	c #747478",
",.	c #A9A9A9",
"'.	c #898989",
").	c #A3A3A3",
"!.	c #878787",
"~.	c #BCBCBC",
"{.	c #ACACAC",
"].	c #CDCDCD",
"^.	c #C4C4C4",
"/.	c #6C6C6D",
"(.	c #383640",
"_.	c #443E41",
":.	c #514541",
"<.	c #524641",
"[.	c #524745",
"}.	c #524E51",
"|.	c #525054",
"1.	c #525055",
"2.	c #47464C",
"3.	c #393943",
"4.	c #30303C",
"5.	c #76767A",
"6.	c #ABABAC",
"7.	c #838383",
"8.	c #A2A2A2",
"9.	c #888888",
"0.	c #878788",
"a.	c #727274",
"b.	c #323340",
"c.	c #504441",
"d.	c #997747",
"e.	c #CE9D4D",
"f.	c #D19F4D",
"g.	c #D19F4B",
"h.	c #D0A669",
"i.	c #D0C0B0",
"j.	c #D0C7BF",
"k.	c #D0C8C0",
"l.	c #A39E99",
"m.	c #5B595C",
"n.	c #2D2E3B",
"o.	c #737377",
"p.	c #A8A8A9",
"q.	c #B7B7B7",
"r.	c #B2B2B2",
"s.	c #A3A3A4",
"t.	c #31323F",
"u.	c #564941",
"v.	c #AC8548",
"w.	c #E9B150",
"x.	c #ECB451",
"y.	c #ECB34E",
"z.	c #ECBC73",
"A.	c #EBDAC5",
"B.	c #EBE2D7",
"C.	c #EBE2D8",
"D.	c #EBE2D9",
"E.	c #B9B2AC",
"F.	c #656164",
"G.	c #2F2F3C",
"H.	c #545459",
"I.	c #969696",
"J.	c #574941",
"K.	c #AE8649",
"L.	c #EBB351",
"M.	c #EEB551",
"N.	c #EEB54F",
"O.	c #EEBD72",
"P.	c #EDDAC3",
"Q.	c #EDE2D5",
"R.	c #EDE2D6",
"S.	c #EDE3D7",
"T.	c #EDE4D9",
"U.	c #EDE4DA",
"V.	c #BAB3AD",
"W.	c #656264",
"X.	c #4F4F55",
"Y.	c #828283",
"Z.	c #B5B5B5",
"`.	c #9C9C9C",
" +	c #979797",
".+	c #A5A5A6",
"++	c #EEB550",
"@+	c #EEB962",
"#+	c #EEC793",
"$+	c #EECB9E",
"%+	c #EECB9F",
"&+	c #EECBA0",
"*+	c #EDD4B8",
"=+	c #EDE1D4",
"-+	c #EDE4DB",
";+	c #525258",
">+	c #858586",
",+	c #999999",
"'+	c #B6B6B6",
")+	c #A7A7A7",
"!+	c #7D7D7E",
"~+	c #32333F",
"{+	c #EEB552",
"]+	c #EEB759",
"^+	c #EEB75A",
"/+	c #EEB75B",
"(+	c #EEB85E",
"_+	c #EEC99A",
":+	c #EDDFCF",
"<+	c #EDE5DB",
"[+	c #2C2D3A",
"}+	c #6E6E72",
"|+	c #A8A8A8",
"1+	c #A6A6A6",
"2+	c #B8B8B8",
"3+	c #BBBBBB",
"4+	c #6D6D6E",
"5+	c #333440",
"6+	c #EDB659",
"7+	c #ECB65B",
"8+	c #ECB65A",
"9+	c #EDB555",
"0+	c #EEB655",
"a+	c #EEC794",
"b+	c #EDDCCA",
"c+	c #BAB1A9",
"d+	c #656162",
"e+	c #2C2C3A",
"f+	c #757579",
"g+	c #AAAAAB",
"h+	c #707071",
"i+	c #EDB557",
"j+	c #DEBC94",
"k+	c #D8BEA3",
"l+	c #D9BEA2",
"m+	c #DABE9F",
"n+	c #E5B97D",
"o+	c #EDB558",
"p+	c #EEB965",
"q+	c #EEBF7B",
"r+	c #EEC080",
"s+	c #BB986A",
"t+	c #65564B",
"u+	c #2C2E3C",
"v+	c #A9A9AA",
"w+	c #D9BEA0",
"x+	c #D2C1B1",
"y+	c #D2C1B0",
"z+	c #D4C0AC",
"A+	c #E2BA85",
"B+	c #EEB654",
"C+	c #BB904C",
"D+	c #655343",
"E+	c #2E303E",
"F+	c #616165",
"G+	c #A6A6A7",
"H+	c #554841",
"I+	c #AA8348",
"J+	c #E5AF50",
"K+	c #E9B253",
"L+	c #ECB559",
"M+	c #EDB65A",
"N+	c #EBB660",
"O+	c #D8BEA2",
"P+	c #D2C1B2",
"Q+	c #D4C0AD",
"R+	c #E1BB89",
"S+	c #EBB661",
"T+	c #BB8F4A",
"U+	c #655342",
"V+	c #2F313F",
"W+	c #515156",
"X+	c #838384",
"Y+	c #33333F",
"Z+	c #443D41",
"`+	c #765E44",
" @	c #9D7947",
".@	c #A17D4A",
"+@	c #B08E61",
"@@	c #D8B791",
"#@	c #DDBD96",
"$@	c #DDBD97",
"%@	c #D5C0AB",
"&@	c #D3C1B0",
"*@	c #D8BFA3",
"=@	c #DCBD98",
"-@	c #DDBD95",
";@	c #E4BA82",
">@	c #ECB65D",
",@	c #848485",
"'@	c #8F8F91",
")@	c #34343F",
"!@	c #3D3940",
"~@	c #453E41",
"{@	c #4B4445",
"]@	c #7B7069",
"^@	c #CBB9A9",
"/@	c #D3C1AF",
"(@	c #D3C1AE",
"_@	c #EBB764",
":@	c #2D303E",
"<@	c #646469",
"[@	c #979799",
"}@	c #727273",
"|@	c #44444D",
"1@	c #3E3E47",
"2@	c #3D3C44",
"3@	c #746B68",
"4@	c #C6B6A8",
"5@	c #CFBEAE",
"6@	c #D1C0B0",
"7@	c #CEBEAE",
"8@	c #757578",
"9@	c #8A8A8B",
"0@	c #969698",
"a@	c #919194",
"b@	c #3B3B45",
"c@	c #393942",
"d@	c #5D5758",
"e@	c #998D84",
"f@	c #9F9389",
"g@	c #A1958B",
"h@	c #C8B8A9",
"i@	c #D3C1B1",
"j@	c #D3C2B2",
"k@	c #C4B4A6",
"l@	c #A1948A",
"m@	c #A2968B",
"n@	c #BEAFA1",
"o@	c #D0BFAF",
"p@	c #A1A1A1",
"q@	c #9F9F9F",
"r@	c #8A8A8C",
"s@	c #3A3942",
"t@	c #454249",
"u@	c #47444A",
"v@	c #544F52",
"w@	c #BDAEA1",
"x@	c #B5A79A",
"y@	c #4F4B50",
"z@	c #46444A",
"A@	c #46434A",
"B@	c #575254",
"C@	c #A89A8F",
"D@	c #CEBDAD",
"E@	c #2D2F3D",
"F@	c #6B6B6F",
"G@	c #9F9FA0",
"H@	c #6A6A6C",
"I@	c #3A3A44",
"J@	c #363540",
"K@	c #BCADA0",
"L@	c #B4A599",
"M@	c #424047",
"N@	c #4B474C",
"O@	c #A6988D",
"P@	c #CDBDAD",
"Q@	c #EAB767",
"R@	c #EEB555",
"S@	c #BA8F4D",
"T@	c #525257",
"U@	c #666669",
"V@	c #D9BEA1",
"W@	c #E3BA86",
"X@	c #E6BA7E",
"Y@	c #B49269",
"Z@	c #62544B",
"`@	c #2F313E",
" #	c #717174",
".#	c #3B3B44",
"+#	c #D4C0AE",
"@#	c #D4C1AD",
"##	c #A6988B",
"$#	c #5C5657",
"%#	c #30303D",
"&#	c #58585C",
"*#	c #9A9A9B",
"=#	c #414149",
"-#	c #454349",
";#	c #504C50",
">#	c #A5988E",
",#	c #5C5658",
"'#	c #747477",
")#	c #9C9C9E",
"!#	c #41414A",
"~#	c #5E5858",
"{#	c #9B8F85",
"]#	c #A2958B",
"^#	c #A4978D",
"/#	c #C5B5A6",
"(#	c #A3968C",
"_#	c #A5978D",
":#	c #BFAFA2",
"<#	c #99999B",
"[#	c #404049",
"}#	c #CFBEAF",
"|#	c #6E6E70",
"1#	c #766D6A",
"2#	c #CAB9AB",
"3#	c #55555A",
"4#	c #888889",
"5#	c #666668",
"6#	c #30313D",
"7#	c #3A3A43",
"8#	c #989898",
"9#	c #919193",
"0#	c #3F3F48",
"a#	c #2E2E3B",
"b#	c #A2A2A3",
"c#	c #9B9B9E",
"d#	c #9A9A9C",
"e#	c #808082",
"f#	c #3D3D46",
"g#	c #756D69",
"h#	c #CAB9AA",
"i#	c #2F303C",
"j#	c #616166",
"k#	c #959596",
"l#	c #68686A",
"m#	c #3D3B44",
"n#	c #726966",
"o#	c #C3B2A3",
"p#	c #CBBAAA",
"q#	c #CAB9A9",
"r#	c #9F9288",
"s#	c #595456",
"t#	c #68686B",
"u#	c #383740",
"v#	c #4F4645",
"w#	c #7A6552",
"x#	c #7F6953",
"y#	c #7D6751",
"z#	c #B3A291",
"A#	c #AD9B8A",
"B#	c #7C664F",
"C#	c #67574C",
"D#	c #433E43",
"E#	c #828284",
"F#	c #373640",
"G#	c #4A4140",
"H#	c #6F5842",
"I#	c #735B42",
"J#	c #70583E",
"K#	c #AF9D8D",
"L#	c #A89685",
"M#	c #70573D",
"N#	c #5E4D41",
"O#	c #403B40",
"P#	c #31323E",
"Q#	c #636368",
"R#	c #71593F",
"S#	c #A18E7D",
"T#	c #BBA999",
"U#	c #9C8877",
"V#	c #71583E",
"W#	c #C4C4C5",
"X#	c #9B9B9D",
"Y#	c #786049",
"Z#	c #7B644E",
"`#	c #776048",
" $	c #8E8E90",
".$	c #31313D",
"+$	c #6C6C70",
"@$	c #69696C",
"#$	c #707072",
"$$	c #56565C",
"%$	c #715A42",
"&$	c #705942",
"*$	c #725A42",
"=$	c #5C4C41",
"-$	c #443D40",
";$	c #423C40",
">$	c #463E40",
",$	c #614F41",
"'$	c #3B3840",
")$	c #5F4D41",
"!$	c #6E6E71",
"~$	c #494040",
"{$	c #6D5642",
"]$	c #715942",
"^$	c #725B42",
"/$	c #46464D",
"($	c #4A4A52",
"_$	c #4A4A51",
":$	c #45454E",
"<$	c #3C3C46",
"[$	c #3A3840",
"}$	c #6E5842",
"|$	c #3C3940",
"1$	c #4C4241",
"2$	c #4E4341",
"3$	c #6C5642",
"4$	c #68686C",
"5$	c #9C9C9D",
"6$	c #B1B1B2",
"7$	c #AFAFB0",
"8$	c #46464E",
"9$	c #4D4241",
"0$	c #4F4341",
"a$	c #5D4D41",
"b$	c #3C3840",
"c$	c #695442",
"d$	c #78787A",
"e$	c #4E4E54",
"f$	c #393740",
"g$	c #544641",
"h$	c #6E5742",
"i$	c #929294",
"j$	c #3A3740",
"k$	c #675341",
"l$	c #564841",
"m$	c #3D3D47",
"n$	c #383842",
"o$	c #524541",
"p$	c #5D4C41",
"q$	c #6D6D71",
"r$	c #A1A1A2",
"s$	c #B2B2B3",
"t$	c #5E5E61",
"u$	c #3C3C45",
"v$	c #584A41",
"w$	c #584941",
"x$	c #473F40",
"y$	c #36353F",
"z$	c #909092",
"A$	c #6D6D6F",
"B$	c #646468",
"C$	c #544741",
"D$	c #4B4140",
"E$	c #777778",
"F$	c #42424A",
"G$	c #808081",
"H$	c #47474F",
"I$	c #404048",
"J$	c #848486",
"K$	c #838386",
"L$	c #4C4C53",
"M$	c #65656A",
"N$	c #969697",
"O$	c #757576",
"P$	c #747475",
"Q$	c #989899",
"R$	c #B6B6B8",
"S$	c #757577",
"T$	c #767677",
"U$	c #818182",
"  . + + @ #   $ % & * = -   ; & & * #     . + + @ #   $ % & * = -   ; & & * #     . + + @ #   $ % & * = -   ; & & * #     . + + ",
"> , ' ) ! ~ { ] ^ / ( _ { : < [ [ } | { > , ' ) ! ~ { ] ^ / ( _ { : < [ [ } | { > , ' ) ! ~ { ] ^ / ( _ { : < [ [ } | { > , ' ) ",
"1 2 3 4 5 6 7 8 , 9 0 ] 7 a ] / b c | { d e f [ ! g h i j k l _ 6 m n / b c | { d e f [ ! g h i j b o ] 7 a i p p q r s 1 2 3 4 ",
"~ t u v w x | i y z 2 A | B C D E F G H I J E E K L M N O D P Q M I Q E E F G H I J E E K L M N F R S T | ~ T z z U B V ~ t u v ",
"W X r Y Z `  ...x 1 | +. .@.#.$.$.%.%.%.&.%.$.$.%.%.%.%.*.$.*.%.&.%.%.$.$.$.%.%.%.=.$.$.%.%.-.%.;.>.,.! @.'.).Y 1 ~ o !.W X r Y ",
"@.~.s 7 {.( 9 U ~ ].^.).9 9 /.$.(._.:.<.<.<.<.<.<.<.<.<.<.<.<.<.<.<.<.<.[.}.|.|.|.|.|.|.|.1.2.3.4.5.6.+.9 7.8.7 7 : !.' @.~.s 7 ",
"o X 6 r {.^ 9.y ~.Y V +.9.0.a.b.c.d.e.f.f.f.f.f.f.f.f.f.f.f.f.f.f.f.f.g.h.i.j.k.k.k.k.k.k.k.l.m.n.o.p.! 9.W +.r r B 0 '.o X 6 r ",
": ..o } w > r q.2 ( , r.r ^.s.t.u.v.w.x.x.x.x.x.x.x.x.x.x.x.x.x.x.x.x.y.z.A.B.C.C.C.C.C.C.D.E.F.G.H.0.r.r { r.W ( I.> 6 : ..o } ",
"1 2 7.p 5 6 ].8 , ) 0 ] ].a p.t.J.K.L.M.M.M.M.M.M.M.M.M.M.M.M.M.M.M.M.N.O.P.Q.R.R.R.R.S.T.U.V.W.G.X.Y.i ].a Z.' ' ^ Y 7 1 2 7.p ",
"6 `.9.!.5 ^.1 X  +@.z ] a 6 .+t.J.K.L.M.M.M.M.M.M.M.M.M.M.M.M.M.M.M.M.++@+#+$+%+%+%+&+*+=+-+V.W.G.;+>+] 1 r ]  . .u { 1 6 `.9.!.",
",+i x x {.2 , ).'+B X )+I.u !+~+J.K.L.M.M.M.M.M.M.M.M.M.M.M.M.M.M.M.M.M.{+]+^+^+^+/+(+_+:+<+V.W.[+}+).|+,  +1+B B 2+2 I.,+i x x ",
"!.3+a s {.W ' `.~ 7 : ).' ' 4+5+J.K.L.M.M.M.M.{+6+7+7+7+7+7+7+7+7+7+7+7+7+7+7+8+9+{+0+a+b+R.c+d+e+f+g++.' 3 8.7 s > '.4 !.3+a s ",
"( 8 Y Y {.0 3 ..x a | +.3 3 h+5+J.K.L.M.M.M.M.i+j+k+l+l+l+l+l+l+l+l+l+l+l+l+l+m+n+o+{+p+q+r+s+t+u+>.v+! 3 9.).1 1 V } @.( 8 Y Y ",
"] |++.+.w T ] < )+).1+Z ] T e t.J.K.L.M.M.M.M.o+w+x+y+y+y+y+y+y+y+y+y+y+y+y+y+z+A+6+M.{+B+0+C+D+E+F+e _ ] r.Z +.+.1+r.] ] |++.+.",
"Y U  .3 5 { s X I.4 ^ ] s Y G+t.H+I+J+w.K+L+M+N+O+P+x+x+x+x+x+x+x+x+x+x+x+x+x+Q+R+S+6+i+{+M.T+U+V+W+X+] s 1 i 7.7.z r a Y U  .3 ",
"r U  .@.5 ^.a X I.4 ^ ] a r G+Y+Z+`+ @.@+@@@#@$@%@x+x+x+x+x+x+x+x+x+x+x+x+x+x+&@*@=@-@;@>@++T+U+V+W+,@] a Y i 3 3 v 6 a r U  .@.",
"Z w 5 ,.w Z Z {.5 ,.5 {.Z w '@)@=.!@~@{@]@^@/@/@x+x+x+x+x+x+x+x+x+x+x+x+x+x+x+x+y+/@(@-@_@++T+U+:@<@[@{.Z Z {.,.5 w Z Z Z w 5 ,.",
"'.8 Y 1 {.o 7...x a > +.3 7.}@|@E 1@$.2@3@4@5@5@6@x+x+x+x+x+x+x+x+6@7@7@7@7@7@5@i.x+y+$@_@++T+U+u+8@v+! 7.!.).a a | W @.'.8 Y 1 ",
"9.3+1 a {.} 4 `.B s : ).p 7.9@0@a@8@b@c@d@e@f@g@h@i@x+x+x+x+x+x+j@k@l@f@f@f@f@m@n@o@y+$@_@++T+U+u+f+g++.p @.8.s s > ( 7.9.3+1 a ",
"t T '+q.w p@y 1+r.q.i ,.y q@)+] Z r@1@$.s@t@u@v@w@j@x+x+x+x+x+x+j@x@y@z@A@A@A@B@C@D@&@$@_@++T+U+E@F@G@5 y q@,.q.q.] p@q@t T '+q.",
"6 `.9.!.5 : 1 2+ +3 q r.1 r i  .4 H@I@$.$.$.J@u@K@j@x+x+x+x+x+x+j@L@M@$.$.$.$.N@O@P@&@$@Q@R@S@D+V+T@>+] 1 r i  . .u { 1 6 `.9.!.",
"1 2 7.4 5 6 7 8 , 9 0 ] 7 a Z.p !+U@3.$.$.$.J@u@K@j@x+x+x+x+x+x+j@L@M@$.$.$.$.N@O@P@y+V@W@X@Y@Z@`@X.Y.i 7 a Z.p ' q Y 7 1 2 7.4 ",
"~ t z q w B > Z.`.` ,+T > | r.q }  #.#$.$.$.J@u@K@j@x+x+x+x+x+x+j@L@M@$.$.$.$.N@O@P@x+&@+#@###$#%#&#W r.> | r.q ^ 2 ~ > ~ t z q ",
"W X r Y Z `  ...x 1 | +. .'.).1 > *#=#$.s@-#u@v@w@j@x+x+x+x+x+x+j@x@;#u@u@u@u@B@C@D@x+x+x+x+>#,#n.'#,.!  .'.).Y 1 ~ o !.W X r Y ",
"@.~.s 7 {.( 9 U ~ ].^.).9 7.8.].6 )#!#s@~#{#]#^#h@x+x+x+x+x+x+x+j@/#(#l@l@l@l@_#:#o@x+x+x+x+>#,#n.5.6.+.9 7.8.].7 : !.' @.~.s 7 ",
"} X 6 r {.^ !.y ~.Y V +.!.W +.Y | <#[#2@3@4@}#5@6@x+x+x+x+x+x+x+x+6@5@5@5@5@5@5@i.x+x+x+x+x+>#,#n.o.p.! !.W +.Y Y ~ 0 9.} X 6 r ",
": y o } 5 | 6 q.2 ( , r.6 ^.] } 0.|#I@2@1#2#x+x+x+x+x+x+x+x+x+x+x+x+x+x+x+x+x+x+x+x+x+x+x+x+>#,#%#3#4#r.6 ^.] W W  +> { : y o } ",
"1 2 7.p 5 6 7 8 , ) 0 ] ].a Z.' [ 5#3.2@1#2#x+x+x+x+x+x+x+x+x+x+x+x+x+x+x+x+x+x+x+x+x+x+x+x+>#,#6#X.Y.i ].a Z.' ' ^ Y 7 1 2 7.p ",
"6 U 9.!.5 : 1 2+ +@.q r.1 r ]  .4 H@7#2@1#2#x+x+x+x+x+x+x+x+x+x+x+x+x+x+x+x+x+x+x+x+x+x+x+x+>#,#6#;+>+] 1 r ]  . .u { Y 6 U 9.!.",
"2 i ~.~.{.`.8#+.'+x 2+)+8#,+)+x q.9#0#2@1#2#x+x+x+x+x+x+x+x+x+x+x+x+x+x+x+x+x+x+x+x+x+x+x+x+>#,#a#}+b#|+8#,+)+x x q.U 8#2 i ~.~.",
"!.3+a a {.W p `.~ 7 : ).' 3 8.7 { c#!#2@1#2#x+x+x+x+x+x+x+x+x+x+x+x+x+x+x+x+x+x+x+x+x+x+x+x+>#,#n.f+g++.' 3 8.s s > '.4 !.3+a a ",
"( 8 Y 1 {.o 3 ..x a | +.3 9.).a : d#!#2@1#2#x+x+x+x+x+x+x+x+x+x+x+x+x+x+x+x+x+x+x+x+x+x+x+x+>#,#n.>.v+! 3 9.).a 1 V } @.( 8 Y 1 ",
"T |+1+! w A r._ |+! )+Z r.T Z 1+t e#f#2@g#h#x+x+x+x+x+x+x+x+x+x+x+x+x+x+x+x+x+x+x+x+x+x+x+x+>#,#i#j#k#_ r.T Z ! ! )+T r.T |+1+! ",
"Y U  .3 5 { s X I.4 ^ ] s 1 i 7.' l#3.m#n#o#p#q#q#q#q#5@x+x+D@q#q#q#q#q#q#q#q#q#q#q#q#q#q#p#r#s#6#W+X+] s 1 i 7.7.z 6 a Y U  .3 ",
"r U  .@.5 ^.a X I.4 ^ ] s Y i 3 ' t#3.u#v#w#x#x#x#x#y#z#6@i.A#B#x#x#x#x#x#x#x#x#x#x#x#x#x#x#C#D#Y+W+,@] s Y i 3 3 v 6 a r U  .@.",
"_ 5 ,.,.w _ _ Z 5 |+,.{.< _ {.,.s.E#f#F#G#H#I#I#I#I#J#K#5@5@L#M#I#I#I#I#I#I#I#I#I#I#I#I#I#I#N#O#P#Q#0@Z < _ {.,.,.5 _ _ _ 5 ,.,.",
"'.8 Y 1 {.o 3 ..x a > +.3 !.).a : d#!#F#G#H#I#I#I#I#R#S#T#T#U#V#I#I#I#I#I#I#I#I#I#I#I#I#I#I#N#O#%#>.v+! 3 !.).a a | W @.'.8 Y 1 ",
"!.3+1 a {.W p `.B 7 : ).p @.8.s W#X#!#F#G#H#I#I#I#I#I#Y#Z#Z#`#I#I#I#I#I#I#I#I#I#I#I#I#I#I#I#N#O#%#f+g++.p @.8.s s > '.7.!.3+1 a ",
"y r.2+2+{.t ..1+] X Z.|+..y |+X ]  $0#F#G#H#I#I#I#I#I#I#I#I#I#I#I#I#I#I#I#I#I#I#I#I#I#I#I#I#N#O#.$+$G@,...y |+2+X Z.q@..y r.2+2+",
"6 `.9.!.w : 1 2+ +@.q r.1 r i  .Y.@$7#F#G#H#I#I#I#I#I#I#I#I#I#I#I#I#I#I#I#I#I#I#I#I#I#I#I#I#N#O#Y+T@>+] 1 r i  . .v { Y 6 `.9.!.",
"1 2 7.4 5 6 7 8 , 9 0 ] 7 a Z.p [ 5#3.F#G#H#I#I#I#I#I#I#I#I#I#I#I#I#I#I#I#I#I#I#I#I#I#I#I#I#N#O#Y+X.Y.i 7 a Z.' ' q Y 7 1 2 7.4 ",
"| q@q ` 5 B : '+`.0  +T : > r.` W #$I@F#G#H#I#I#I#I#I#I#I#I#I#I#I#I#I#I#I#I#I#I#I#I#I#I#I#I#N#O#~+$$l r.: > r.` ` ,+V : | q@q ` ",
"W X r Y {.`  .y x 1 | +. .'.).Y > *#=#F#G#H#I#I#I#I#I#%$&$&$&$&$&$&$&$&$&$&$&$&$*$I#I#I#I#I#N#O#%#'#,.!  .'.).Y Y ~ o !.W X r Y ",
"@.~.s 7 {.( 9 U ~ ].^.).) 7.8.].6 )#!#F#G#H#I#I#I#I#I#=$-$;$;$;$;$;$;$;$;$;$;$>$,$%$I#I#I#I#N#O#4.5.6.+.) 7.8.].7 : !.' @.~.s 7 ",
"} X 6 r {.^ !.y ~.Y V +. .( ).Y | <#=#F#G#H#I#I#I#I#I#J.u#$.J@J@$.$.$.J@J@J@J@'$)$%$I#I#I#I#N#O#%#o.p.!  .( ).Y Y ~ o 9.} X 6 r ",
"> y 0 o w V { q.U W I.r.{ : r.} 4#!$I@F#~${$]$&$^$I#I#J.(.$.b@/$($_$:$<$b@-.$.[$=$}$&$%$I#I#N#O#~+N 4#r.{ : r.} } 8#| ^.> y 0 o ",
"1 2 7.p 5 6 7 8 , 9 0 ] ].a Z.' [ 5#3.J@|$1$2$c.3$I#I#J.(.%.4$5$6$7$5$#$H@8$%.F#-$9$0$a$H#I#N#O#Y+X.Y.i ].a Z.' ' ^ Y 7 1 2 7.p ",
"6 U 9.!.5 : 1 2+ +3 q r.1 r ]  .4 @$I@$.J@F#F#b$c$I#I#J.(.-.d$r.r { r.@.!+e$-.$.=.F#f$g$h$I#N#O#Y+;+>+] 1 r ]  .@.u { Y 6 U 9.!.",
"`.] 8 3+{...,+! Z.~.q.)+,+U )+3+'+i$E b@I@=.$.j$k$%$%$l$F#m$r@5 ,+U )+3+7$+$0#.#n$$.=.o$3$%$p$O#.$q$r$|+,+U )+3+3+'+`.2 `.] 8 3+",
"!.3+a a {.W p `.B 7 : ).p @.8.s Y s$!$U@t$u$$.F#:.v$w$x$y$[#z$1+p @.8.7 { s.A$B$X.3.J@-$C$w$D$[$%#f+g++.p @.8.s s > '.4 !.3+a a ",
"( 8 Y 1 {.o 3 ..x a > +.3 !.).a 1 ~ ( Y.E$F$)@$.(.f$u#=.)@[#'@1+3 !.).a 1 B ( G$F+u$$.=.u#f$F#$.%#>.v+! 3 !.).a a | } @.( 8 Y 1 ",
"A 5 )+)+w < A _ ,.)+|+{.A A Z 1+)+,.A < G@H.<$f#E _$J H$I$F$J$_ A A Z 1+)+,.A {.K$L$f#f#E _$J H$1@M$N$Z A A Z 1+)+,.A A A 5 )+)+",
"r U  .@.5 { s X I.4 ^ ] s 1 i 7.7.z 6 a : S O$P$Q$6$R$G+>+}@( ] s 1 i 7.7.z 6 1 x c S$P$Q$6$R$G+>+T$S ] s 1 i 7.7.z 6 a r U  .@.",
"r U  .@.5 { a X I.4 ^ ] s Y i 7.7.z 6 a r 2 @.3 ,.: 1 2+, U$^ ] s Y i 7.7.z 6 a r 2 @.3 ,.: 1 2+, 4 ^ ] s Y i 7.7.z 6 a r U  .@.",
"< ,.|+|+{.< < Z ,.|+,.{.< < {.)+|+,.< < < ,.|+|+{.< < Z ,.|+,.{.< < {.)+|+,.< < < ,.|+|+{.< < Z ,.|+,.{.< < {.)+|+,.< < < ,.|+|+",
"( 8 Y 1 {.o 3 ..x a > +.3 !.).a a | W @.( 8 Y 1 {.o 3 ..x a > +.3 !.).a a | W @.( 8 Y 1 {.o 3 ..x a > +.3 !.).a a | W @.( 8 Y 1 ",
"!.3+1 a {.W p `.B 7 : ).p @.8.s s > '.4 !.3+1 a {.W p `.B 7 : ).p @.8.s s > '.4 !.3+1 a {.W p `.B 7 : ).p @.8.s s > '.4 !.3+1 a ",
"..r.X 8 {.q@U ! i 3+'+|+2 `.|+8 8 '+y U ..r.X 8 {.q@U ! i 3+'+|+2 `.|+8 8 '+y U ..r.X 8 {.q@U ! i 3+'+|+2 `.|+8 8 '+y U ..r.X 8 ",
"6 `.9.!.5 : 1 2+ +3 q r.1 r ] @.@.v { Y 6 `.9.!.5 : 1 2+ +3 q r.1 r ] @.@.v { Y 6 `.9.!.5 : 1 2+ +3 q r.1 r ] @.@.v { Y 6 `.9.!.",
"1 2 7.p 5 6 7 8 , 9 0 ] 7 a Z.' ' ^ Y 7 1 2 7.p 5 6 7 8 , 9 0 ] 7 a Z.' ' ^ Y 7 1 2 7.p 5 6 7 8 , 9 0 ] 7 a Z.' ' ^ Y 7 1 2 7.p ",
"> q@` 0 w ~ ^.'+U } I.T ^.: r.o o 8#| ^.> q@` 0 w ~ ^.'+U } I.T ^.: r.o o 8#| ^.> q@` 0 w ~ ^.'+U } I.T ^.: r.o o 8#| ^.> q@` 0 ",
"} X 6 r {.`  .y ~.Y V +. .( ).Y Y ~ o !.} X 6 r {.`  .y ~.Y V +. .( ).Y Y ~ o !.} X 6 r {.`  .y ~.Y V +. .( ).Y Y ~ o !.} X 6 r ",
"@.~.s s {.( 9 U ~ ].^.).) 7.8.].7 : !.' @.~.s s {.( 9 U ~ ].^.).) 7.8.].7 : !.' @.~.s s {.( 9 U ~ ].^.).) 7.8.].7 : !.' @.~.s s ",
"W X 6 r {.`  .y ~.Y V +. .( ).Y Y ~ o !.W X 6 r {.`  .y ~.Y V +. .( ).Y Y ~ o !.W X 6 r {.`  .y ~.Y V +. .( ).Y Y ~ o !.W X 6 r "};
