/* XPM */
static char * playersize_xpm[] = {
"64 64 671 2",
"  	c #008813",
". 	c #006619",
"+ 	c #005F1A",
"@ 	c #008713",
"# 	c #008A13",
"$ 	c #005C1A",
"% 	c #007317",
"& 	c #008114",
"* 	c #006A18",
"= 	c #007417",
"- 	c #007916",
"; 	c #007B16",
"> 	c #007D15",
", 	c #007816",
"' 	c #00631A",
") 	c #008314",
"! 	c #007217",
"~ 	c #008315",
"{ 	c #009211",
"] 	c #006E18",
"^ 	c #006519",
"/ 	c #007E14",
"( 	c #006819",
"_ 	c #006919",
": 	c #006D18",
"< 	c #008B13",
"[ 	c #00601A",
"} 	c #008C12",
"| 	c #005D1A",
"1 	c #008614",
"2 	c #005B1B",
"3 	c #007617",
"4 	c #008313",
"5 	c #007E15",
"6 	c #007716",
"7 	c #00611A",
"8 	c #007F15",
"9 	c #006F16",
"0 	c #007316",
"a 	c #006C18",
"b 	c #005A1B",
"c 	c #007018",
"d 	c #00621A",
"e 	c #007915",
"f 	c #007A16",
"g 	c #006518",
"h 	c #007615",
"i 	c #008913",
"j 	c #006719",
"k 	c #006818",
"l 	c #005B1A",
"m 	c #006F18",
"n 	c #005E1A",
"o 	c #007814",
"p 	c #006B18",
"q 	c #007115",
"r 	c #008214",
"s 	c #007516",
"t 	c #006419",
"u 	c #006A19",
"v 	c #007715",
"w 	c #007616",
"x 	c #007517",
"y 	c #006E16",
"z 	c #006417",
"A 	c #006C14",
"B 	c #006B17",
"C 	c #007118",
"D 	c #008414",
"E 	c #007315",
"F 	c #007415",
"G 	c #006217",
"H 	c #006913",
"I 	c #007215",
"J 	c #009111",
"K 	c #006E14",
"L 	c #008115",
"M 	c #005A1A",
"N 	c #006516",
"O 	c #006918",
"P 	c #007216",
"Q 	c #007117",
"R 	c #006A15",
"S 	c #005D18",
"T 	c #006814",
"U 	c #006219",
"V 	c #006B19",
"W 	c #006416",
"X 	c #006418",
"Y 	c #006714",
"Z 	c #006317",
"` 	c #006E17",
" .	c #006616",
"..	c #007717",
"+.	c #005A19",
"@.	c #006A16",
"#.	c #006017",
"$.	c #008613",
"%.	c #006517",
"&.	c #00581B",
"*.	c #006319",
"=.	c #00571B",
"-.	c #006A13",
";.	c #00591B",
">.	c #007114",
",.	c #006F14",
"'.	c #007C14",
").	c #00641A",
"!.	c #006B13",
"~.	c #007D16",
"{.	c #007C16",
"].	c #006318",
"^.	c #008514",
"/.	c #006C16",
"(.	c #006C17",
"_.	c #007116",
":.	c #006716",
"<.	c #007815",
"[.	c #006614",
"}.	c #006019",
"|.	c #008B12",
"1.	c #006D15",
"2.	c #006D14",
"3.	c #005F17",
"4.	c #008015",
"5.	c #006515",
"6.	c #006E13",
"7.	c #007515",
"8.	c #007017",
"9.	c #00561B",
"0.	c #008215",
"a.	c #00551B",
"b.	c #006116",
"c.	c #00591A",
"d.	c #006718",
"e.	c #006118",
"f.	c #005C18",
"g.	c #006617",
"h.	c #005F19",
"i.	c #006917",
"j.	c #00561A",
"k.	c #006C13",
"l.	c #006119",
"m.	c #1B8524",
"n.	c #2C6935",
"o.	c #31543A",
"p.	c #345A3D",
"q.	c #46644C",
"r.	c #475D4D",
"s.	c #46604C",
"t.	c #3A5F41",
"u.	c #34593D",
"v.	c #34503E",
"w.	c #415349",
"x.	c #495A50",
"y.	c #4B6B51",
"z.	c #465F4C",
"A.	c #3B5444",
"B.	c #364E3F",
"C.	c #3E5345",
"D.	c #475F4E",
"E.	c #4E6355",
"F.	c #4D5B54",
"G.	c #47564E",
"H.	c #3A5642",
"I.	c #3D5645",
"J.	c #405049",
"K.	c #515D56",
"L.	c #526057",
"M.	c #515B57",
"N.	c #43514A",
"O.	c #3F4B47",
"P.	c #3F4E47",
"Q.	c #4B5352",
"R.	c #535A59",
"S.	c #555A5B",
"T.	c #4F5A55",
"U.	c #42534A",
"V.	c #007C15",
"W.	c #005E18",
"X.	c #276F30",
"Y.	c #353540",
"Z.	c #363641",
"`.	c #363741",
" +	c #353641",
".+	c #363640",
"++	c #373741",
"@+	c #2F383B",
"#+	c #006615",
"$+	c #007817",
"%+	c #2C5F34",
"&+	c #383640",
"*+	c #443E41",
"=+	c #514541",
"-+	c #524641",
";+	c #524745",
">+	c #524E51",
",+	c #525054",
"'+	c #525055",
")+	c #47464C",
"!+	c #393943",
"~+	c #2D393A",
"{+	c #346F3A",
"]+	c #323340",
"^+	c #504441",
"/+	c #997747",
"(+	c #CE9D4D",
"_+	c #D19F4D",
":+	c #D19F4B",
"<+	c #D0A669",
"[+	c #D0C0B0",
"}+	c #D0C7BF",
"|+	c #D0C8C0",
"1+	c #A39E99",
"2+	c #5B595C",
"3+	c #2A3E38",
"4+	c #007B14",
"5+	c #547F58",
"6+	c #31323F",
"7+	c #564941",
"8+	c #AC8548",
"9+	c #E9B150",
"0+	c #ECB451",
"a+	c #ECB34E",
"b+	c #ECBC73",
"c+	c #EBDAC5",
"d+	c #EBE2D7",
"e+	c #EBE2D8",
"f+	c #EBE2D9",
"g+	c #B9B2AC",
"h+	c #656164",
"i+	c #2C3C39",
"j+	c #007D13",
"k+	c #007D14",
"l+	c #5D8860",
"m+	c #574941",
"n+	c #AE8649",
"o+	c #EBB351",
"p+	c #EEB551",
"q+	c #EEB54F",
"r+	c #EEBD72",
"s+	c #EDDAC3",
"t+	c #EDE2D5",
"u+	c #EDE2D6",
"v+	c #EDE3D7",
"w+	c #EDE4D9",
"x+	c #EDE4DA",
"y+	c #BAB3AD",
"z+	c #656264",
"A+	c #2C3D39",
"B+	c #006316",
"C+	c #627E64",
"D+	c #EEB550",
"E+	c #EEB962",
"F+	c #EEC793",
"G+	c #EECB9E",
"H+	c #EECB9F",
"I+	c #EECBA0",
"J+	c #EDD4B8",
"K+	c #EDE1D4",
"L+	c #EDE4DB",
"M+	c #2C3639",
"N+	c #4D6E50",
"O+	c #32333F",
"P+	c #EEB552",
"Q+	c #EEB759",
"R+	c #EEB75A",
"S+	c #EEB75B",
"T+	c #EEB85E",
"U+	c #EEC99A",
"V+	c #EDDFCF",
"W+	c #EDE5DB",
"X+	c #294137",
"Y+	c #006117",
"Z+	c #009011",
"`+	c #006817",
" @	c #00581A",
".@	c #466849",
"+@	c #333440",
"@@	c #EDB659",
"#@	c #ECB65B",
"$@	c #ECB65A",
"%@	c #EDB555",
"&@	c #EEB655",
"*@	c #EEC794",
"=@	c #EDDCCA",
"-@	c #BAB1A9",
";@	c #656162",
">@	c #293937",
",@	c #4B6D4F",
"'@	c #EDB557",
")@	c #DEBC94",
"!@	c #D8BEA3",
"~@	c #D9BEA2",
"{@	c #DABE9F",
"]@	c #E5B97D",
"^@	c #EDB558",
"/@	c #EEB965",
"(@	c #EEBF7B",
"_@	c #EEC080",
":@	c #BB986A",
"<@	c #65564B",
"[@	c #293B39",
"}@	c #006F15",
"|@	c #005B19",
"1@	c #69826C",
"2@	c #D9BEA0",
"3@	c #D2C1B1",
"4@	c #D2C1B0",
"5@	c #D4C0AC",
"6@	c #E2BA85",
"7@	c #EEB654",
"8@	c #BB904C",
"9@	c #655343",
"0@	c #2B433A",
"a@	c #007A15",
"b@	c #7A907C",
"c@	c #554841",
"d@	c #AA8348",
"e@	c #E5AF50",
"f@	c #E9B253",
"g@	c #ECB559",
"h@	c #EDB65A",
"i@	c #EBB660",
"j@	c #D8BEA2",
"k@	c #D2C1B2",
"l@	c #D4C0AD",
"m@	c #E1BB89",
"n@	c #EBB661",
"o@	c #BB8F4A",
"p@	c #655342",
"q@	c #2B413B",
"r@	c #7F9580",
"s@	c #33333F",
"t@	c #443D41",
"u@	c #765E44",
"v@	c #9D7947",
"w@	c #A17D4A",
"x@	c #B08E61",
"y@	c #D8B791",
"z@	c #DDBD96",
"A@	c #DDBD97",
"B@	c #D5C0AB",
"C@	c #D3C1B0",
"D@	c #D8BFA3",
"E@	c #DCBD98",
"F@	c #DDBD95",
"G@	c #E4BA82",
"H@	c #ECB65D",
"I@	c #2B3F3B",
"J@	c #006415",
"K@	c #007218",
"L@	c #707E73",
"M@	c #34343F",
"N@	c #3D3940",
"O@	c #453E41",
"P@	c #4B4445",
"Q@	c #7B7069",
"R@	c #CBB9A9",
"S@	c #D3C1AF",
"T@	c #D3C1AE",
"U@	c #EBB764",
"V@	c #29383A",
"W@	c #4E7451",
"X@	c #424A4B",
"Y@	c #44444C",
"Z@	c #3E3E47",
"`@	c #3D3C44",
" #	c #746B68",
".#	c #C6B6A8",
"+#	c #CFBEAE",
"@#	c #D1C0B0",
"##	c #CEBEAE",
"$#	c #283838",
"%#	c #086C1C",
"&#	c #437349",
"*#	c #576C5C",
"=#	c #3B3B45",
"-#	c #393942",
";#	c #5D5758",
">#	c #998D84",
",#	c #9F9389",
"'#	c #A1958B",
")#	c #C8B8A9",
"!#	c #D3C1B1",
"~#	c #D3C2B2",
"{#	c #C4B4A6",
"]#	c #A1948A",
"^#	c #A2968B",
"/#	c #BEAFA1",
"(#	c #D0BFAF",
"_#	c #283B38",
":#	c #008014",
"<#	c #007416",
"[#	c #006218",
"}#	c #3D6A43",
"|#	c #3A3942",
"1#	c #454249",
"2#	c #47444A",
"3#	c #544F52",
"4#	c #BDAEA1",
"5#	c #B5A79A",
"6#	c #4F4B50",
"7#	c #46444A",
"8#	c #46434A",
"9#	c #575254",
"0#	c #A89A8F",
"a#	c #CEBDAD",
"b#	c #294239",
"c#	c #006715",
"d#	c #2D6235",
"e#	c #3A3A44",
"f#	c #363540",
"g#	c #BCADA0",
"h#	c #B4A599",
"i#	c #424047",
"j#	c #4B474C",
"k#	c #A6988D",
"l#	c #CDBDAD",
"m#	c #EAB767",
"n#	c #EEB555",
"o#	c #BA8F4D",
"p#	c #2B403B",
"q#	c #006C15",
"r#	c #006F17",
"s#	c #2B7133",
"t#	c #D9BEA1",
"u#	c #E3BA86",
"v#	c #E6BA7E",
"w#	c #B49269",
"x#	c #62544B",
"y#	c #2B3A3A",
"z#	c #006717",
"A#	c #007912",
"B#	c #317D37",
"C#	c #3B3B44",
"D#	c #D4C0AE",
"E#	c #D4C1AD",
"F#	c #A6988B",
"G#	c #5C5657",
"H#	c #006813",
"I#	c #007A13",
"J#	c #007B15",
"K#	c #006A17",
"L#	c #006B14",
"M#	c #457C49",
"N#	c #414149",
"O#	c #454349",
"P#	c #504C50",
"Q#	c #A5988E",
"R#	c #5C5658",
"S#	c #293C37",
"T#	c #006A14",
"U#	c #005C19",
"V#	c #007A14",
"W#	c #46754A",
"X#	c #41414A",
"Y#	c #5E5858",
"Z#	c #9B8F85",
"`#	c #A2958B",
" $	c #A4978D",
".$	c #C5B5A6",
"+$	c #A3968C",
"@$	c #A5978D",
"#$	c #BFAFA2",
"$$	c #294736",
"%$	c #006B15",
"&$	c #457449",
"*$	c #404049",
"=$	c #CFBEAF",
"-$	c #283E36",
";$	c #2F6635",
">$	c #766D6A",
",$	c #CAB9AB",
"'$	c #2B3A38",
")$	c #2B6532",
"!$	c #2B4738",
"~$	c #005D19",
"{$	c #007014",
"]$	c #005C1B",
"^$	c #3A3A43",
"/$	c #2B4838",
"($	c #008612",
"_$	c #416D47",
":$	c #3F3F48",
"<$	c #294436",
"[$	c #008A12",
"}$	c #46804B",
"|$	c #458F49",
"1$	c #284736",
"2$	c #387F3D",
"3$	c #3D3D46",
"4$	c #756D69",
"5$	c #CAB9AA",
"6$	c #2A4637",
"7$	c #005E19",
"8$	c #2C7533",
"9$	c #3D3B44",
"0$	c #726966",
"a$	c #C3B2A3",
"b$	c #CBBAAA",
"c$	c #CAB9A9",
"d$	c #9F9288",
"e$	c #595456",
"f$	c #2A4038",
"g$	c #2C8033",
"h$	c #383740",
"i$	c #4F4645",
"j$	c #7A6552",
"k$	c #7F6953",
"l$	c #7D6751",
"m$	c #B3A291",
"n$	c #AD9B8A",
"o$	c #7C664F",
"p$	c #67574C",
"q$	c #433E43",
"r$	c #2D4E39",
"s$	c #39783F",
"t$	c #373640",
"u$	c #4A4140",
"v$	c #6F5842",
"w$	c #735B42",
"x$	c #70583E",
"y$	c #AF9D8D",
"z$	c #A89685",
"A$	c #70573D",
"B$	c #5E4D41",
"C$	c #403B40",
"D$	c #2B4938",
"E$	c #008D12",
"F$	c #45704B",
"G$	c #71593F",
"H$	c #A18E7D",
"I$	c #BBA999",
"J$	c #9C8877",
"K$	c #71583E",
"L$	c #2A4737",
"M$	c #466E4B",
"N$	c #786049",
"O$	c #7B644E",
"P$	c #776048",
"Q$	c #2A4037",
"R$	c #3F7045",
"S$	c #2B3E37",
"T$	c #2D6335",
"U$	c #2C4139",
"V$	c #2B6234",
"W$	c #2C4C38",
"X$	c #306438",
"Y$	c #005919",
"Z$	c #006D17",
"`$	c #45704A",
" %	c #715A42",
".%	c #705942",
"+%	c #725A42",
"@%	c #46894A",
"#%	c #5C4C41",
"$%	c #443D40",
"%%	c #423C40",
"&%	c #463E40",
"*%	c #614F41",
"=%	c #293F36",
"-%	c #007214",
";%	c #007314",
">%	c #457E49",
",%	c #3B3840",
"'%	c #5F4D41",
")%	c #294336",
"!%	c #006216",
"~%	c #008714",
"{%	c #005B18",
"]%	c #006618",
"^%	c #2F6C35",
"/%	c #494040",
"(%	c #6D5642",
"_%	c #715942",
":%	c #725B42",
"<%	c #46464D",
"[%	c #4A4A52",
"}%	c #4A4A51",
"|%	c #45454E",
"1%	c #3C3C46",
"2%	c #3A3840",
"3%	c #6E5842",
"4%	c #2B4E38",
"5%	c #2B6931",
"6%	c #3C3940",
"7%	c #4C4241",
"8%	c #4E4341",
"9%	c #6C5642",
"0%	c #3D6743",
"a%	c #5E8660",
"b%	c #6B8B6E",
"c%	c #6A836C",
"d%	c #5E7A61",
"e%	c #427A46",
"f%	c #3E8142",
"g%	c #424B4A",
"h%	c #4D4241",
"i%	c #4F4341",
"j%	c #5D4D41",
"k%	c #2C4B38",
"l%	c #2D6733",
"m%	c #3C3840",
"n%	c #695442",
"o%	c #3E5645",
"p%	c #393740",
"q%	c #544641",
"r%	c #6E5742",
"s%	c #2B3F38",
"t%	c #417046",
"u%	c #3A3740",
"v%	c #675341",
"w%	c #564841",
"x%	c #3D3D47",
"y%	c #34813A",
"z%	c #304F3A",
"A%	c #2F4F38",
"B%	c #2E5038",
"C%	c #33393E",
"D%	c #524541",
"E%	c #5D4C41",
"F%	c #2A4836",
"G%	c #1D6329",
"H%	c #576F5B",
"I%	c #666669",
"J%	c #5E5E61",
"K%	c #3C3C45",
"L%	c #584A41",
"M%	c #584941",
"N%	c #473F40",
"O%	c #36353F",
"P%	c #2F5039",
"Q%	c #544741",
"R%	c #4B4140",
"S%	c #295235",
"T%	c #007514",
"U%	c #517354",
"V%	c #757776",
"W%	c #42424A",
"X%	c #008311",
"Y%	c #2F5739",
"Z%	c #284D35",
"`%	c #007613",
" &	c #46834A",
".&	c #396F40",
"+&	c #284D34",
"@&	c #2B5036",
"#&	c #31603A",
"$&	c #36553E",
"%&	c #385A40",
"&&	c #375A40",
"*&	c #314E3A",
"=&	c #33543C",
"-&	c #008113",
";&	c #33673B",
">&	c #36513F",
",&	c #364940",
"'&	c #3D4945",
")&	c #42524A",
"!&	c #43534A",
"~&	c #35513E",
"{&	c #007414",
"]&	c #006915",
"^&	c #00651A",
"/&	c #005F18",
"(&	c #006B16",
"_&	c #007015",
":&	c #006916",
"<&	c #00571A",
"[&	c #008E12",
"  . + @ # + $ % & * + = - ; > % , ' ) - + ! ~ $ = { ] + ^ - / + ( - - @ _ - ] : < [ . } | + } 1 + 2 3 4 ^ + 3 - 5 , 3 6 7   ! + ",
"8 3 + 9 8 8 + 0 a 7 : b c , _ [ | d e , + ; f . g h i j k - l m n 7 - % [ [ $ = o j p 5 % + q r f [ s k t u b ! 6 j [ | j v w + ",
"- x + l y 3 z A B t   C $ x + = D 7 E F : 8 - j | G , ( H I + f D n p _ + J 7 c K u L - % + M I = N K O _ i a n % + ; 5 t q P % ",
"Q 2 , t M R n S T U h , + Q V   m + z g 8 , [ ( = l W X M Y Z ` > . ( _ ) 5 [ [  ...- m b ; 7 +.@.| #.Y t 6 3 + Q c $.: + %.* > ",
"&.*., ! ' =.- 3 7 t -.E ; ;.! >.N D ` U - | n Q = ] b . 8 ' _  .,.'.^ ).h !.= ~.Z c a ;.^ - C [ &.{.% ).].-.F , ;.x ,.z ^./.^ 6 ",
"x [ (.8 x ^ {._.= # :.H !.* <.[.9 , 3 + =.x . }.- D + 3 6 g |.h Y H 1.% 2.3.; L + 2 j C }.` 4.c u f y - @ 5.H 6.a 7.5.8.f ! + 9.",
"^._ X I s x , + a 8 0.2 a.n b.c.d.K m + + - {.+ 1.F x , a n - ^.m a.b e.f.l ,.7.[ + k @ d g.I s 3 , $ m 4.4.&.9.h.#.M i.,.: + + ",
"- t n j.Q / k.l.7 % ; _ + ' m.n.o.p.q.r.s.t.u.v.w.x.y.z.A.B.C.D.E.F.G.H.I.J.K.L.M.N.O.P.Q.R.S.T.U.-.}.' = V.t + ( D f z A : }.T ",
"E 3 + } F W.=.n 3 ..( d # 8 X.Y.Y.Z.Z.Z.`.Z.Y.Y.Z.Z.Z.Z. +Y. +Z.`.Z.Z.Y.Y.Y.Z.Z.Z..+Y.Y.Z.Z.++Z.@+=.+ f = . . < {.m a ].T P [ #+",
"q , C x 1 : + + [ 8 $+d - ; %+Y.&+*+=+-+-+-+-+-+-+-+-+-+-+-+-+-+-+-+-+-+;+>+,+,+,+,+,+,+,+'+)+!+~++ + [ D ! ^ - , + 0.V Y I t z ",
"!., L _ % 1 ( + p - x n 7 : {+]+^+/+(+_+_+_+_+_+_+_+_+_+_+_+_+_+_+_+_+:+<+[+}+|+|+|+|+|+|+|+1+2+3+' + ] - % n ' p ! 8 : Z I ( n ",
"3.-.,.U a - ! + a - 4+$.u - 5+6+7+8+9+0+0+0+0+0+0+0+0+0+0+0+0+0+0+0+0+a+b+c+d+e+e+e+e+e+e+f+g+h+i+c + m - j+D _ f c = d }.}._ = ",
"j +.W._ + 3 u + Q 7.-.k+) 5 l+6+m+n+o+p+p+p+p+p+p+p+p+p+p+p+p+p+p+p+p+q+r+s+t+u+u+u+u+v+w+x+y+z+A+j + = F -.& 4.& ! | # p l - L ",
"9 . @ 5 + b | U K H B+j m ! C+6+m+n+o+p+p+p+p+p+p+p+p+p+p+p+p+p+p+p+p+D+E+F+G+H+H+H+I+J+K+L+y+z+M+n X K H b.p a 0 z ^ - ! + x - ",
"* ' x 6 ( 1 = W H B+t ^ ( ! N+O+m+n+o+p+p+p+p+p+p+p+p+p+p+p+p+p+p+p+p+p+P+Q+R+R+R+S+T+U+V+W+y+z+X+m N H Y+j ^ . 0 z n 3 Z+p `+A ",
"z + 2 ! ] u - +  @).i _ j , .@+@m+n+o+p+p+p+p+P+@@#@#@#@#@#@#@#@#@#@#@#@#@#@#@$@%@P+&@*@=@u+-@;@>@- l  @j # ' V h z + ] - : #.H ",
"$ ) ! [ ] p % ' + f _ n * q ,@+@m+n+o+p+p+p+p+'@)@!@~@~@~@~@~@~@~@~@~@~@~@~@~@{@]@^@P+/@(@_@:@<@[@C 7 + > ^ + (.}@(._ ( f + u |@",
"+ x ] [ 7 4.; - {.&.3 ~.h. @1@6+m+n+o+p+p+p+p+^@2@3@4@4@4@4@4@4@4@4@4@4@4@4@4@5@6@@@p+P+7@&@8@9@0@3 ~.$+9.; , h.=.= 8 n 1 x > L ",
"8.a@f j p ; u 3 4.u V., + 7 b@6+c@d@e@9+f@g@h@i@j@k@3@3@3@3@3@3@3@3@3@3@3@3@3@l@m@n@@@'@P+p+o@p@q@j , L j > x + *.% ; p ! @ - r ",
"z H q j - 3 + ' = ( x j + 5 r@s@t@u@v@w@x@y@z@A@B@3@3@3@3@3@3@3@3@3@3@3@3@3@3@C@D@E@F@G@H@D+o@p@I@+ ^ x ( = . + 0.- ).[ ' - $ ( ",
"e.T J@*.u b C } K@n $ : % {.L@M@.+N@O@P@Q@R@S@S@3@3@3@3@3@3@3@3@3@3@3@3@3@3@3@3@4@S@T@F@U@D+o@p@V@3 < ] + 2 c % ; $ 0.) n ).t | ",
"K@].;.5 3 n d ..1 _ + 8 1 1 W@X@Y@Z@Y.`@ #.#+#+#@#3@3@3@3@3@3@3@3@@###########+#[+3@4@A@U@D+o@p@$#d f 1 t + r 1 ^.C 8 4.. $+^ $ ",
"# : + s   ] + = _.l.+ t 6 - c %#&#*#=#-#;#>#,#'#)#!#3@3@3@3@3@3@~#{#]#,#,#,#,#^#/#(#4@A@U@D+o@p@_#+ 6 9 [ + . , - : : ( ^ :#f + ",
"- f + Y+<#8 [#,.a ^   ' + 6 + ^ x }#Z@Y.|#1#2#3#4#~#3@3@3@3@3@3@~#5#6#7#8#8#8#9#0#a#C@A@U@D+o@p@b#Z q ( p ^.[ ' = + u C t q 0 : ",
", . . $ e._.}.J@c#d ; {.+ ! 7 ^., d#e#Y.Y.Y.f#2#g#~#3@3@3@3@3@3@~#h#i#Y.Y.Y.Y.j#k#l#C@A@m#n#o#9@p#h.#+ .. > , + Q ' @ = d q#r#..",
"| 7 L j l +.( _ +.h.2.6 u 7 c a@i.s#!+Y.Y.Y.f#2#g#~#3@3@3@3@3@3@~#h#i#Y.Y.Y.Y.j#k#l#4@t#u#v#w#x#y#u j +.l.K 6 ( 7 x v z#! G ^ V.",
"d }._.) = ' r 6 $+8 T -.A#( > !.@.B#C#Y.Y.Y.f#2#g#~#3@3@3@3@3@3@~#h#i#Y.Y.Y.Y.j#k#l#3@C@D#E#F#G#A+r <#5 a@H#-.I#_ J#-.K#D 3 d ' ",
"|.j d.6 ] ' - X a ^.Q +.|@l.L#W.a M#N#Y.|#O#2#3#4#~#3@3@3@3@3@3@~#5#P#2#2#2#2#9#0#a#3@3@3@3@Q#R#S#- l.m @ p |@|@*.T#U#c F : n $ ",
"- ^ + #.V#  >.l.( - ^.V n [ _ . z W#X#|#Y#Z#`# $)#3@3@3@3@3@3@3@~#.$+$]#]#]#]#@$#$(#3@3@3@3@Q#R#$$,.[ p - @ ^ n 7 _ ^ %.A : + N ",
"h m + ; (.%$S + : ] = ' 8 ] @ ) g &$*$`@ #.#=$+#@#3@3@3@3@3@3@3@3@@#+#+#+#+#+#+#[+3@3@3@3@3@Q#R#-$f.+ ] c ! t 8 c @ 8 g.-.8.}.H#",
"q 6 [ > D l | + u ~ u d > 1 =.j 7 ;$e#`@>$,$3@3@3@3@3@3@3@3@3@3@3@3@3@3@3@3@3@3@3@3@3@3@3@3@Q#R#'$n + ] ) . . 5 L =._ n [.I *.z ",
"K - ^.c V.0.' + t 6 x [ m 6 u } ..)$!+`@>$,$3@3@3@3@3@3@3@3@3@3@3@3@3@3@3@3@3@3@3@3@3@3@3@3@Q#R#!$7 + ^ - Q 7 Q = c |.% #+I t ~$",
"[.{$h *.p 4.! + a - :#3 ]$j a - a d#^$`@>$,$3@3@3@3@3@3@3@3@3@3@3@3@3@3@3@3@3@3@3@3@3@3@3@3@Q#R#/$: + m - r C ]$j m - _ l./.a K@",
"&.B+B+n t 6 ] + ] 6 2.($D ^.{.+ ; _$:$`@>$,$3@3@3@3@3@3@3@3@3@3@3@3@3@3@3@3@3@3@3@3@3@3@3@3@Q#R#<$p + Q 6 k.[$4.  ..[ {.+ =.% {.",
"6 $ ; 5 + j + 7 0 2.H#P ! % :.7 > }$X#`@>$,$3@3@3@3@3@3@3@3@3@3@3@3@3@3@3@3@3@3@3@3@3@3@3@3@Q#R#-$+ U E A T s ] <#g.^ 5 = + x f ",
"O j > 6 + ; : z H Y c.n m ! N [ ] |$X#`@>$,$3@3@3@3@3@3@3@3@3@3@3@3@3@3@3@3@3@3@3@3@3@3@3@3@Q#R#1$_ N H [. @d a 0 z 7 % < . ] E ",
"%.+ d 6 C x x U#b.M ) V | w N + C 2$3$`@4$5$3@3@3@3@3@3@3@3@3@3@3@3@3@3@3@3@3@3@3@3@3@3@3@3@Q#R#6$! |@b.c.  t [ s z + 3 5 a #+H ",
"7$$+^ ' ] d ; j b ; - 7 m v N + p 8$!+9$0$a$b$c$c$c$c$+#3@3@a#c$c$c$c$c$c$c$c$c$c$c$c$c$c$b$d$e$f$> d b 4.x [ % 7.z + ] 3 t c.B+",
"+ f = d _ L $+j ( ' d _ [#W.Q D n g$!+h$i$j$k$k$k$k$l$m$@#[+n$o$k$k$k$k$k$k$k$k$k$k$k$k$k$k$p$q$r$C _ . d ^ j ].U#6 4.| i . 4.. ",
"p ; 3 ^ ).f c 8   . ) r n n p - _ s$3$t$u$v$w$w$w$w$x$y$+#+#z$A$w$w$w$w$w$w$w$w$w$w$w$w$w$w$B$C$D$: ) @ ' 1 5 n n ] - . , # 8 E$",
"z#k.h t Q 6 7 m - ( - ! + 3 > % u F$X#t$u$v$w$w$w$w$G$H$I$I$J$K$w$w$w$w$w$w$w$w$w$w$w$w$w$w$B$C$L$+ ! - ( - c + ; ; ! ( j f [ = ",
"z H -.d.- j u ~.( d d 2 + 3 p u $+M$X#t$u$v$w$w$w$w$w$N$O$O$P$w$w$w$w$w$w$w$w$w$w$w$w$w$w$w$B$C$Q$] ; ( ' [ $ + 6 ( m = 7 Q ^ + ",
"*.W  @u + 2 u 5 ) ' + D E$< d D D R$:$t$u$v$w$w$w$w$w$w$w$w$w$w$w$w$w$w$w$w$w$w$w$w$w$w$w$w$B$C$S$: r 8 7 + i E$@ 7 1 D t 7 [ ;.",
"< . + 0.} d n % k+d.+ m - f - % x T$^$t$u$v$w$w$w$w$w$w$w$w$w$w$w$w$w$w$w$w$w$w$w$w$w$w$w$w$B$C$U$| w j+*.+ Q - V.= 3 % '   x + ",
"; - + @.J#L l.P p d - $ _ , ^ ]$' V$!+t$u$v$w$w$w$w$w$w$w$w$w$w$w$w$w$w$w$w$w$w$w$w$w$w$w$w$B$C$W$l.s j j x 2 a 3 t | d ^ F <#d ",
"- c + M @.s [#T#K#' ) ..n = + {.4.X$e#t$u$v$w$w$w$w$w$w$w$w$w$w$w$w$w$w$w$w$w$w$w$w$w$w$w$w$B$C$/$Z L#`+j D ! + % + 0.; t q P % ",
"u $ 5 ^ c.Z n Y$W l.E 6 + a ] D Z$`$N#t$u$v$w$w$w$w$w$ %.%.%.%.%.%.%.%.%.%.%.%.%+%w$w$w$w$w$B$C$X+| |@B+*.F x + a % r p ' G d.8 ",
"2 U 6 f p | 4.~.V a H {$/ [ 6 K N @%X#t$u$v$w$w$w$w$w$#%$%%%%%%%%%%%%%%%%%%%%%&%*% %w$w$w$w$B$C$=%0.- m * H -%k+[ , A z @ P ^ C ",
"L d O ; c t f (.c |.g.J@5.g ;%J@8.>%N#t$u$v$w$w$w$w$w$m+h$Y.f#f#Y.Y.Y.f#f#f#f#,%'% %w$w$w$w$B$C$)%- i.= # G J@#+d.>.!%! , m n =.",
"8 ( [#q#e 5 h }.a ; ~%d ;.n {%&.]%^%e#t$/%(%_%.%:%w$w$m+&+Y.=#<%[%}%|%1%=#++Y.2%#%3%.% %w$w$B$C$4%7.n m {.~%| ;.n +.M z#2.: + l.",
", . + t a h c#}.' m - ^ _ t < ) Z 5%!+f#6%7%8%^+9%w$w$m+&+Z.0%a%b%c%d%e%f%g%Z.t$$%h%i%j%v$w$B$C$k%#+[ ).C - d _ u < 8 z k.] l.H ",
"I , + @ a@+.&.+ x 5 t ' @ 1 ^ ^ [ l%e#Y.f#t$t$m%n%w$w$m+&+++# a | f < c ^ o%++Y..+t$p%q%r%w$B$C$s%;.+ - {.d j   0.^ ).}.Y I 7 N ",
"{$- f x D 3 + + + {.- 7 , , [ < x t%Y@=#e#.+Y.u%v% % %w%t$x%_ i + m - u ; y%z%A%B%C%.+D%9% %E%C$F%+ + + 4.x *., 3 ^ } m Y I t [#",
"-.h > ^ m ^.] + a - ; j 2 ^ m V.m G%H%I%J%K%Y.t$=+L%M%N%O%*$- - = | 7 7 8 - + c#! P%f#$%Q%M%R%2%S%_ + m - - ^ ]$t ! ; a [#I u j ",
"|@H L#l.u - c + a - T%  x ) = : _ + c.U%V%W%M@Y.&+p%h$.+M@*$- h X%; , L ! j t l ' Y%Y..+h$p%t$Y.Z%: + m - `%@ % ^.% a ( + M a 3 ",
"c  @k C n Q . [ = I -.e 5 - 0 ]$@ x $ x  &.&+&@&#&$&%&&&*&=&6 !.,.^.Q -&;.3 1 | _ ;&>&,&'&)&!&g%~&t [ s {$H > f J#` 7   m | 6 5 ",
"K#( D ; + ).7 [#!.H 3.d m ! N 7 = > ' C , {&+ 8 5 V d ' + ]&-.5.M % _ ,.+ a ; m ^ - h `+: ) , + ^&[ z !.H S . a 0 z *.x ; 7 % , ",
"i.7 m 6 a r x Y+T /&C ( ' ! N + K@} c g.!.K + j 6 x C 1 h.[.[.n 3 ).( ,.+ $ } r h.2.!.d.' c 3 u 1 c G T S x ^ d 0 z + $+< a :.-.",
"[#. n p ] . {.d =.a 1 ^ p a@N + p - a U#T #+[ j + 6 + = = =.&.) ..n {.,.+ + , 3 n B+T e.j 2 m p _ {.n =.C ^.d c v z + ] , u ~$H#",
"| 0.= d ] 3 = 7 + % [ n d.(&Z$$+' 4.d 3 9.l ] ~%n Q ^ 8 ^ + u V n + _&Y+4.^ % x u _  @n @ : ^ p f c [ + x + + i.:&_.= t 4.7 x <&",
"7 6 C d + > , 5 D $ 5 0.n ;.: > d {.L f # : ] , ^ | c ^.u |.: ( |._ l 2 5 c _ 1 - ^.4.' , m [ 7 4.% r L b ) > | ;.c ; 7 4.5 {.< ",
"r#T%- . a f j = {._ f 6 + j 6 - m p L m 5 ( I#h ! [ f ! _ - x ! - _ + % - f ' , {., % 0 F f d m - t 6 V.( ; = + V 3 f a ] r c > ",
"z H K j {.! 7 ( a . ] 7 + > 6 ' ).[ , ' 7 . H -.B x 6 . . j : ] ' 7 p L ( j + : ! b _ N H ,.( {.m d ( ] j : [ + 4.= ' ' d , [ t ",
"7$[.3.[ [ ;.! # ; n | - 4.D &.~ # d 2 d ]$| !%B+7$t 9.+ @ E$n n u 4.) : j [&$+| + [ b 7$Y W.7 n ;...< 3 + | {.4.4.;.~%@ 7 ]$d b "};
