/* XPM */
static char * bomb_xpm[] = {
"64 64 596 2",
"  	c #008115",
". 	c #006E18",
"+ 	c #006918",
"@ 	c #007E15",
"# 	c #006C18",
"$ 	c #006319",
"% 	c #007117",
"& 	c #007716",
"* 	c #006619",
"= 	c #006F18",
"- 	c #007617",
"; 	c #007A16",
"> 	c #007816",
", 	c #007217",
"' 	c #006D18",
") 	c #007616",
"! 	c #006919",
"~ 	c #007317",
"{ 	c #007817",
"] 	c #006A19",
"^ 	c #007417",
"/ 	c #008314",
"( 	c #007717",
"_ 	c #007516",
": 	c #007416",
"< 	c #006819",
"[ 	c #007C15",
"} 	c #007018",
"| 	c #007017",
"1 	c #007C16",
"2 	c #006C19",
"3 	c #006A18",
"4 	c #008015",
"5 	c #006B18",
"6 	c #00641A",
"7 	c #007318",
"8 	c #006519",
"9 	c #007517",
"0 	c #007B16",
"a 	c #007D15",
"b 	c #007218",
"c 	c #006719",
"d 	c #007A15",
"e 	c #006E17",
"f 	c #007715",
"g 	c #006B17",
"h 	c #007116",
"i 	c #006B19",
"j 	c #007118",
"k 	c #007216",
"l 	c #007B15",
"m 	c #006F17",
"n 	c #006419",
"o 	c #006D17",
"p 	c #006817",
"q 	c #006916",
"r 	c #006917",
"s 	c #006E16",
"t 	c #007916",
"u 	c #006816",
"v 	c #006C16",
"w 	c #006818",
"x 	c #006518",
"y 	c #006F16",
"z 	c #006A16",
"A 	c #006618",
"B 	c #006617",
"C 	c #007315",
"D 	c #007316",
"E 	c #006C17",
"F 	c #006717",
"G 	c #007016",
"H 	c #007615",
"I 	c #007915",
"J 	c #006A17",
"K 	c #006318",
"L 	c #006718",
"M 	c #00631A",
"N 	c #006D15",
"O 	c #007115",
"P 	c #007215",
"Q 	c #006D16",
"R 	c #007014",
"S 	c #007015",
"T 	c #006A15",
"U 	c #006915",
"V 	c #00621A",
"W 	c #00601A",
"X 	c #005E1A",
"Y 	c #006019",
"Z 	c #006119",
"` 	c #006418",
" .	c #005E19",
"..	c #006219",
"+.	c #005F19",
"@.	c #006B16",
"#.	c #00651A",
"$.	c #006517",
"%.	c #006B15",
"&.	c #006516",
"*.	c #006616",
"=.	c #006E15",
"-.	c #006B14",
";.	c #006E19",
">.	c #006C15",
",.	c #005F1A",
"'.	c #006815",
").	c #666820",
"!.	c #9C4D16",
"~.	c #BD681F",
"{.	c #D0532E",
"].	c #985918",
"^.	c #006317",
"/.	c #007515",
"(.	c #C87B1F",
"_.	c #F59823",
":.	c #F18F1E",
"<.	c #E96020",
"[.	c #8E6922",
"}.	c #006416",
"|.	c #007815",
"1.	c #4D7419",
"2.	c #E77E22",
"3.	c #F5AD1C",
"4.	c #F3AB1D",
"5.	c #EF8520",
"6.	c #916F1A",
"7.	c #007114",
"8.	c #007514",
"9.	c #9C773D",
"0.	c #EE871D",
"a.	c #F4AD1C",
"b.	c #F3AF1E",
"c.	c #EF8F1C",
"d.	c #C46720",
"e.	c #006A14",
"f.	c #006716",
"g.	c #007415",
"h.	c #006715",
"i.	c #047919",
"j.	c #076F1B",
"k.	c #668767",
"l.	c #BC9186",
"m.	c #E7702B",
"n.	c #F19820",
"o.	c #F19C1E",
"p.	c #EC721B",
"q.	c #CD5421",
"r.	c #006615",
"s.	c #5A7C5C",
"t.	c #869187",
"u.	c #2C5B31",
"v.	c #14691F",
"w.	c #62885D",
"x.	c #999483",
"y.	c #D04739",
"z.	c #B35418",
"A.	c #AF641D",
"B.	c #C46520",
"C.	c #C43D18",
"D.	c #4A6A19",
"E.	c #2B6031",
"F.	c #646464",
"G.	c #9D9E9E",
"H.	c #404241",
"I.	c #343735",
"J.	c #264029",
"K.	c #225628",
"L.	c #0F641E",
"M.	c #587952",
"N.	c #8A8876",
"O.	c #9E624A",
"P.	c #586A1A",
"Q.	c #186A23",
"R.	c #5D615D",
"S.	c #747474",
"T.	c #8F8F8F",
"U.	c #6D6D6D",
"V.	c #404040",
"W.	c #282828",
"X.	c #272826",
"Y.	c #6B6C5F",
"Z.	c #858671",
"`.	c #686F4B",
" +	c #126A18",
".+	c #00661A",
"++	c #0F671F",
"@+	c #4D5F4E",
"#+	c #6E6E6E",
"$+	c #7B7B7B",
"%+	c #7D7D7D",
"&+	c #8D8D8D",
"*+	c #4F4F50",
"=+	c #3B3D3E",
"-+	c #747569",
";+	c #83876F",
">+	c #4A5B40",
",+	c #3E5440",
"'+	c #016A1A",
")+	c #007418",
"!+	c #04691B",
"~+	c #10701E",
"{+	c #1C6C25",
"]+	c #216128",
"^+	c #186E22",
"/+	c #027518",
"(+	c #405F42",
"_+	c #606060",
":+	c #767676",
"<+	c #7C7C7C",
"[+	c #787878",
"}+	c #7F7F7F",
"|+	c #4B4B4B",
"1+	c #52534F",
"2+	c #50514A",
"3+	c #252525",
"4+	c #3B3D3F",
"5+	c #23642A",
"6+	c #00691A",
"7+	c #1E6A26",
"8+	c #426744",
"9+	c #556256",
"0+	c #5E625E",
"a+	c #616262",
"b+	c #626362",
"c+	c #5F6160",
"d+	c #5A5B5A",
"e+	c #4C564D",
"f+	c #365A3A",
"g+	c #25642C",
"h+	c #08691C",
"i+	c #2E6534",
"j+	c #4B4D4C",
"k+	c #616362",
"l+	c #747675",
"m+	c #797B7A",
"n+	c #767877",
"o+	c #6B6D6C",
"p+	c #5A5C5B",
"q+	c #696B6A",
"r+	c #4C4E4D",
"s+	c #424443",
"t+	c #3C3E3D",
"u+	c #333534",
"v+	c #465248",
"w+	c #096E1C",
"x+	c #007518",
"y+	c #0E631F",
"z+	c #395F3D",
"A+	c #656664",
"B+	c #6B6B69",
"C+	c #6E6E6C",
"D+	c #6F6F6E",
"E+	c #6E6E6D",
"F+	c #6C6C6B",
"G+	c #676766",
"H+	c #646463",
"I+	c #5D5F5E",
"J+	c #4A4C4B",
"K+	c #464D47",
"L+	c #3D433E",
"M+	c #474948",
"N+	c #585A59",
"O+	c #636564",
"P+	c #676968",
"Q+	c #595B5A",
"R+	c #545655",
"S+	c #535554",
"T+	c #525453",
"U+	c #484A49",
"V+	c #4D4F4E",
"W+	c #3C5C3F",
"X+	c #007F15",
"Y+	c #016D19",
"Z+	c #375F3A",
"`+	c #5B5E5B",
" @	c #686868",
".@	c #797979",
"+@	c #9E9E9D",
"@@	c #A8A8A6",
"#@	c #8F8F8D",
"$@	c #797876",
"%@	c #787876",
"&@	c #787775",
"*@	c #777674",
"=@	c #747473",
"-@	c #6C6D6C",
";@	c #636463",
">@	c #434544",
",@	c #3D3F3E",
"'@	c #464847",
")@	c #4F5150",
"!@	c #515352",
"~@	c #494B4A",
"{@	c #505150",
"]@	c #445E46",
"^@	c #007D16",
"/@	c #426743",
"(@	c #646663",
"_@	c #70716F",
":@	c #8B8B89",
"<@	c #BCBCBC",
"[@	c #BDBDBD",
"}@	c #B9B9B9",
"|@	c #7B7A78",
"1@	c #7C7B79",
"2@	c #7A7977",
"3@	c #767572",
"4@	c #747271",
"5@	c #636362",
"6@	c #454746",
"7@	c #414342",
"8@	c #3E403F",
"9@	c #3A3C3B",
"0@	c #324633",
"a@	c #056C19",
"b@	c #3B6C3E",
"c@	c #686966",
"d@	c #767674",
"e@	c #B4B4B3",
"f@	c #A9A9A9",
"g@	c #807F7D",
"h@	c #7E7E7C",
"i@	c #7D7C7A",
"j@	c #767573",
"k@	c #6C6D6B",
"l@	c #5C5E5D",
"m@	c #363837",
"n@	c #3B3D3C",
"o@	c #363937",
"p@	c #156920",
"q@	c #317335",
"r@	c #7C7978",
"s@	c #7C7B7A",
"t@	c #ACACAA",
"u@	c #BBBBBB",
"v@	c #A7A7A7",
"w@	c #868686",
"x@	c #858583",
"y@	c #848482",
"z@	c #828280",
"A@	c #81807E",
"B@	c #7E7D7B",
"C@	c #7A7978",
"D@	c #6D6E6C",
"E@	c #4E504F",
"F@	c #484949",
"G@	c #353635",
"H@	c #393B3A",
"I@	c #3F4140",
"J@	c #383A39",
"K@	c #24502A",
"L@	c #276E2D",
"M@	c #666A63",
"N@	c #80807E",
"O@	c #838381",
"P@	c #868684",
"Q@	c #878787",
"R@	c #888888",
"S@	c #868685",
"T@	c #7F7E7C",
"U@	c #686967",
"V@	c #5B5D5C",
"W@	c #484848",
"X@	c #494949",
"Y@	c #363636",
"Z@	c #373938",
"`@	c #2D482F",
" #	c #026A1A",
".#	c #006F15",
"+#	c #006C14",
"@#	c #1D6B27",
"##	c #5F695E",
"$#	c #82817F",
"%#	c #888886",
"&#	c #898989",
"*#	c #878786",
"=#	c #7F7F7D",
"-#	c #71716F",
";#	c #626463",
">#	c #313332",
",#	c #333934",
"'#	c #116C1E",
")#	c #006D14",
"!#	c #126221",
"~#	c #59655A",
"{#	c #737270",
"]#	c #797977",
"^#	c #848381",
"/#	c #878785",
"(#	c #888887",
"_#	c #898988",
":#	c #8A8A8A",
"<#	c #81817F",
"[#	c #7A7A78",
"}#	c #757574",
"|#	c #636563",
"1#	c #646665",
"2#	c #4D4E4E",
"3#	c #3C3D3D",
"4#	c #232524",
"5#	c #1C5823",
"6#	c #036A19",
"7#	c #536555",
"8#	c #6B6C6A",
"9#	c #7B7B79",
"0#	c #757674",
"a#	c #656766",
"b#	c #525353",
"c#	c #232423",
"d#	c #1B1D1C",
"e#	c #1E3320",
"f#	c #316737",
"g#	c #737473",
"h#	c #858585",
"i#	c #737371",
"j#	c #646564",
"k#	c #545454",
"l#	c #2F2F2F",
"m#	c #212322",
"n#	c #212622",
"o#	c #046919",
"p#	c #006515",
"q#	c #00611A",
"r#	c #4A684D",
"s#	c #676967",
"t#	c #838382",
"u#	c #828180",
"v#	c #817F7D",
"w#	c #6D6F6D",
"x#	c #535453",
"y#	c #383838",
"z#	c #0E631B",
"A#	c #566658",
"B#	c #797675",
"C#	c #7D7D7B",
"D#	c #757573",
"E#	c #666765",
"F#	c #4F4F4F",
"G#	c #15571C",
"H#	c #077919",
"I#	c #616662",
"J#	c #696A68",
"K#	c #787674",
"L#	c #7C7C7A",
"M#	c #696967",
"N#	c #636562",
"O#	c #3F3F3F",
"P#	c #1C401F",
"Q#	c #006D19",
"R#	c #006218",
"S#	c #26732D",
"T#	c #777773",
"U#	c #797975",
"V#	c #7A7A77",
"W#	c #7B7A7A",
"X#	c #747373",
"Y#	c #6D6E6D",
"Z#	c #202822",
"`#	c #026816",
" $	c #39663C",
".$	c #636664",
"+$	c #6A6C6A",
"@$	c #6A6A69",
"#$	c #666867",
"$$	c #505251",
"%$	c #3D3D3D",
"&$	c #0B6819",
"*$	c #3B5A3E",
"=$	c #5E605F",
"-$	c #3A3A3A",
";$	c #155A1D",
">$	c #3E543F",
",$	c #606261",
"'$	c #636464",
")$	c #4E4E4E",
"!$	c #323333",
"~$	c #13551D",
"{$	c #006117",
"]$	c #424842",
"^$	c #565857",
"/$	c #535454",
"($	c #262626",
"_$	c #0D5E1C",
":$	c #3A553C",
"<$	c #474848",
"[$	c #424242",
"}$	c #222222",
"|$	c #212522",
"1$	c #036C19",
"2$	c #286B2D",
"3$	c #4D4D4D",
"4$	c #636363",
"5$	c #646565",
"6$	c #575757",
"7$	c #343534",
"8$	c #1F3821",
"9$	c #006E14",
"0$	c #07721A",
"a$	c #454C45",
"b$	c #4B4C4C",
"c$	c #454545",
"d$	c #222323",
"e$	c #1A481E",
"f$	c #37583A",
"g$	c #484948",
"h$	c #555756",
"i$	c #494A49",
"j$	c #333333",
"k$	c #15501C",
"l$	c #00671A",
"m$	c #206E28",
"n$	c #525252",
"o$	c #5A5A5A",
"p$	c #606160",
"q$	c #636665",
"r$	c #5E5E5E",
"s$	c #555555",
"t$	c #4A4A4A",
"u$	c #202221",
"v$	c #0E571B",
"w$	c #008114",
"x$	c #005D1A",
"y$	c #017018",
"z$	c #3C4D3C",
"A$	c #474847",
"B$	c #252726",
"C$	c #06651A",
"D$	c #17531E",
"E$	c #404140",
"F$	c #464746",
"G$	c #292A29",
"H$	c #1E3220",
"I$	c #07621A",
"J$	c #222623",
"K$	c #272928",
"L$	c #222523",
"M$	c #115C1A",
"N$	c #1D3F21",
"O$	c #343635",
"P$	c #464747",
"Q$	c #3D3E3E",
"R$	c #16541D",
"S$	c #0A611A",
"T$	c #203321",
"U$	c #424342",
"V$	c #2D2F2E",
"W$	c #19481F",
"X$	c #016B18",
"Y$	c #056717",
"Z$	c #1C4020",
"`$	c #393939",
" %	c #444444",
".%	c #2D2E2E",
"+%	c #1B4020",
"@%	c #01611A",
"#%	c #016718",
"$%	c #154F1D",
"%%	c #303030",
"&%	c #373737",
"*%	c #292B2A",
"=%	c #1C3E20",
"-%	c #03631A",
";%	c #0E5D1A",
">%	c #1F3021",
",%	c #1E3620",
"'%	c #046917",
")%	c #006417",
"!%	c #056718",
"~%	c #1C3D20",
"{%	c #19491F",
"]%	c #076319",
"^%	c #007A17",
"/%	c #164B1D",
"(%	c #212422",
"_%	c #1B421F",
":%	c #0A6C1A",
"<%	c #0F5A1A",
"[%	c #1A481F",
"}%	c #1B441F",
"|%	c #1C4220",
"1%	c #1D3D20",
"2%	c #1E3321",
"3%	c #1F3121",
"4%	c #202D21",
"5%	c #212722",
"6%	c #1E3721",
"7%	c #0F5C1C",
"8%	c #007A14",
"9%	c #007714",
"0%	c #006F14",
"a%	c #006118",
"b%	c #006415",
"c%	c #007917",
"d%	c #005E1B",
"e%	c #007E16",
"  . + @   # $ % & # * = - ; > , = ' ; ) ! ~ { ] ^ / ( * + _ : < ! ~ ; [ } | ' ~ 1 2 . [ 3 ! 4 4 5 6 7 > ] 8 } > ; 9 ~ = . 0 ~ $ ",
"a b c % d ^ + e . ! # ! = ^ . ] ! ! _ : # - ( ] 3 f ; # g h 3 i ! ] ~ , ! i < % _ # j ; } c k l ~ + m e + i ! = ~ ' ] ] 5 _ , c ",
"( } c n o | p q r 5 & } < . i ~ ^ + s h , t ^ ! 8 r h 5 u v w ~ ) ! 3 i = ; 2 5 s | > & m * x y | p z + ' { . < ' # 9 ~ 3 e % , ",
"2 ! . c $ A A B B w C D ] i } t ~ 5 r E ) ^ ! ] # 8 x A A F F G H ' < # > I 5 w J , 9 ' < . c K L L F B + : , ! # , I % 3 r e & ",
"M * % | * n | } 3 g N O | ! | P y ) m w = ] n # , ' n 3 % 5 o Q R h 3 5 P S , ~ J # # 8 * , } 8 8 j m 5 g N O m ! % O m _ e + | ",
"} ! e ) % ' ^ % ~ ; O z q + s T Q _ % n n ' ] + ^ & # j , . d f N U r E z u _ { c V ! ' c m ) } . : % ^ I S T z + v q e ) m $ W ",
"0 # L m D _ D + . 0 > * X $ J F r s o M 8 ~ b c g k _ ^ ' < & [ m Y Z w F ` y k 8 Z o & + L m : _ k w } 0 & n  .x r L J y # ..+.",
"& 5 $ + % : @.` ] ^ 9 ] c 2 ) , r T E n u h % 8 n ' ) G A #.j - = c ! , _ 3 T s A $.N : ! M 3 D D z ` 5 9 9 < c . ) % r %.g ` &.",
": | # > ) + Y ..' ^ = 2 t t 7 j r U Q A *.=.D ' % d h ..X #.- ~ 3 ~ ; 9 b # u %.J $.-.P m ' ; _ w +.$ = 9 . ' t { ~ | r U E A &.",
"P _ ^ > 0 | $ W ] ( b i 9 9 ;.9 m q >.w $.%.: ^ 9 0 & < ,.M ~ t i = - } ~ ^ p U E x '.O _ ^ t l . ).!.~.{.].i 9 ^ = 9 o q Q L ^.",
">./.) } - t # M 5 & 9 5 ] = j > = F J < L F S ) ^ b ; ^ 6 6 ~ > = ! 2 = > 9 A F ' ! ` @.H & = ( > (._.:.<.[.5 i = , ( ' F g < 8 ",
"}.T Q + ' - = #.# ) I I ~ 9 7 b . * n 5 | p u v g < 9 - * 8 ^ |.l ^ j 9 : } < $ + } + B %.Q < = 1.2.3.4.5.6.t 7 9 ~ j ' 8 x 2 b ",
"A ` r 3 c ' ! 8 o O 7.|.0 ; , 2 ( = 8 % t ~ ` F g * ] ' 8 w k 7.8.[ > |.5 j ^ * 3 ) & + x 3 + c 9.0.a.b.c.d.I ; ; | # ( # 8 ~ 0 ",
"J 5 & 9 < < * x %.e.f.g j , r c - - i | f g.! ~ > ' c * $ q %.h.r , | y * = i.j.5 ^ H E # { ^ k.l.m.n.o.p.q.o % k r ! ( 9 ] % & ",
"w < , ^ = ^ | B *.*.+ < i e F n , @ , J =.N * ' 9 j } 9 + &.r.L 3 ] # @.$ ! s.t.u.v.=.r + , w.x.y.z.A.B.C.D.w 3 e F 8 9 @ | g N ",
"` * < ' . j % 8 Y 5 9 5 3 G r n . > . x r.*.8 < i } ' 7 # Y n b j < m Q n E.F.G.H.I.J.K.L.M.N.O.P.% $ Y # 9 ] 5 G p 8 } ( ' B r.",
"8 , . c 5 } , ] c . } ] + E E # # ^ ' 3 A ` # ^ ! ] ] 7 . c < j ' c E @.Q.R.S.T.U.V.W.X.Y.Z.`. +b j ! c | | + + E E 5 ' ^ ' 3 p ",
"c ~ } * ] ) ( - ^ i b ~ 8 $ m ) = { t > - ' } 9 ! .+% ; 7 9 ' ' 9 5 ..++@+#+$+%+&+*+=+-+;+>+,+'+> - - b i ~ % 8 $ | ^ . > > t 0 ",
"o : ~ 3 . 9 } )+( = - ~ 8 c , 9 . 7 l t { j : _ . !+~+{+]+^+/+, 9 ] 6 (+_+:+<+%+[+}+|+1+2+3+4+5+- = ^ ( . 9 % 8 ! ~ ^ ' ^ [ t l ",
"F >.s 5 j } ] = b 2 = 5 ] ^ ^ = 5 ] j i 6+w 7+8+9+0+a+b+c+d+e+f+g+h+i+j+k+l+m+n+o+p+q+r+s+t+u+v+w+] } , 2 . i 3 - ^ = ] ] j 3 ] ",
"$.*.*.3 2 .+. 0 x+c 8 . 9 > j ( t 3 c y+z+9+A+B+C+D+D+E+F+G+H+I+J+K+L+M+N+O+P+O+Q+R+S+T+M+U+V+T+W+} 0 ^ * #.= - > j > > ! < n W ",
", L n , ~ * ! > t ! 8 ^ X+@ 9 > > Y+Z+`+ @.@+@@@#@$@%@&@*@*@=@-@;@r+>@,@'@)@S+S+T+!@)@~@>@H.U+{@]@] t > c 8 - X+^@^ t { ' } ] ,.",
"X+} * ~ l | c % , w < # 9 { j . ' /@(@_@:@<@[@[@}@|@1@|@2@$@*@3@4@5@J+t+,@>@'@~@J+U+6@7@H.8@9@0@a@c , % c < ' - & } = ' # ) ~ * ",
"0 , * L D : r @.g 5 9 ' ! = ] ' b@c@d@%@e@[@[@[@f@g@g@h@i@|@$@&@j@k@l@M+m@n@8@H.H.H.H.H.8@n@o@p@D r v 3 ' 9 5 ! = ] . ;.3 h k . ",
"% 2 < $ x 5 A *.$.w ) ^ ! 5 2 q@c@$@r@s@t@[@u@v@w@x@y@z@A@B@C@&@3@D@O+E@F@G@H@,@I@I@H.I@t+J@K@A g B B $.5 & , < i ' > , + g m ^ ",
"6 < , ' $ n 3 3 A w y D ' ! L@M@&@|@B@N@O@P@w@Q@R@Q@S@y@z@T@1@&@d@U@O+V@W@X@Y@m@t+8@8@t+Z@`@ #$ n 3 + A r .#k # ] , /.m m J 5 ~ ",
"! L k & = ] 9 ~ , ) =.+#s @###d@|@B@$#y@P@%#&#&#&#&#*#P@O@=#1@&@-#;@O+;#W@W@X@9@>#9@9@J@,#'#> # 3 _ ~ : /.)#>.s # h Q y & % * * ",
"0 # 3 k % } : E % l D $.!#~#{#]#i@A@^#/#(#_#:#:#&#(#/#y@<#h@[#}#A+|#O+1#2#W@W@F@3#4#u+u+5#g k % | D # ~ l k ` ..A r B o D . V ,.",
"t 5 n g /.|.y A 5 { t 6#7#8#&@|@T@z@x@Q@&#:#&#&#&#/#x@<#h@9#0#a#O+O+O+O+b#W@W@W@W@c#d#e#! ` E ) f Q x ' > t + n c ' 5 r v 5 $ ^.",
": ' < , : s ` ..i 7 b f#O+g#$@i@N@O@P@Q@&#R@R@w@h#O@<#h@9#i#j#O+O+O+O+O+k#W@W@W@W@l#m#n#o#w : : v K ..' ^ , # ^ ^ & ^ r T E x p#",
"P ~ = > t 5 W q#2 - = r#s#&@2@B@A@O@P@/#/#P@x@t#u#v#B@9#w#;@j#O+O+O+O+O+x#W@W@W@W@y#m#m#z#} t t + W V ' ( . 5 { { = } r U Q A ^.",
".#H t 9 t ( ! V ! 9 ~ A#8#B#2@i@=#z@O@O@O@z@<#=#C#i@D#E#;#O+O+O+O+O+O+O+F#W@W@W@W@3#m#m#G#t 9 t 9 c V i - , ] = , , t | q v c $ ",
"h..#k 3 m > = #.5 ) H#I#J#K#$@1@C#h@=#=#=#C#L#[#i#M#N#N#O+O+O+O+O+O+O+O+F@W@W@W@W@O#m#m#P#h + j > ' 8 ' & I ~ Q#= 7 9 . A r # } ",
"R#B J c + % # 8 ' D S#1#O+E+T#U#V#9#[#W#.@X#Y#a#|#|#O+O+O+O+O+O+O+O+O+l@W@W@W@W@W@O#m#m#Z#`#c 3 % 3 8 m D 8.[ ; 0 ~ ' b c $ | { ",
"# w D ~ < ] * 8 Q N  $O+O+O+.$s#+$8#@$#$O+O+O+O+O+O+O+O+O+O+O+O+O+O+1#$$W@W@W@W@W@%$m#m#m#&$b < ] * x Q )#%.k ^ : g 3 ) ~ < % > ",
"3 ] ^ 9 2 j # A h.h.*$O+O+O+|#|#O+O+O+O+O+O+O+O+O+O+O+O+O+O+O+O+O+O+=$'@W@W@W@W@W@-$m#m#m#;$~ 5 , 5 $.h.*.F < # y F A 9 1 . e P ",
"x * ] | } b % x R#p >$,$O+O+O+O+O+O+O+O+O+O+O+O+O+O+O+O+O+O+O+O+O+'$)$W@W@W@W@W@W@!$m#m#m#~$} = ~ | ` {$r ~ ! ! y L 8 ~ t ' F U ",
"n . ] ! ' } ~ < n . ]$^$O+O+O+O+O+O+O+O+O+O+O+O+O+O+O+O+O+O+O+O+1#/$W@W@W@W@W@W@X@($m#m#m#_$+ # % ~ * $ | , < 5 e J w = 9 5 x $.",
"c ^ j c i - - = # i :$U+,$O+O+O+O+O+O+O+O+O+O+O+O+O+O+O+O+O+O+O+N+<$W@W@W@W@W@W@[$}$m#m#|$1$* # > ^ . 2 i . 5 A A | ~ = t ^ 9 % ",
"5 : ~ < i 9 ~ ( t | 2$W@3$4$O+O+O+O+O+O+O+O+O+O+O+O+O+O+O+O+5$6$W@W@W@W@W@W@W@W@7$m#m#m#8$b c # 9 b t t = { ^ 8 * j ^ ' - @ ^@4 ",
"r 9$S 3 = % 2 ^ 9 . 0$a$W@b$c+1#O+O+O+O+O+O+O+O+O+O+O+O+O+;#$$W@W@W@W@W@W@W@W@c$d$m#m#m#e$G ] } % # ^ 9 . 7 . c % ^ j 2 . 9 = ~ ",
"&.'.U J = ] # - % c c f$W@W@g$h$k+j#O+O+O+O+O+O+O+O+O+;@N+i$W@W@W@W@W@W@W@W@W@j$m#m#m#m#k$q 5 . ] . - } l$* + . 9 } ~ b ] i * V ",
"E $.R## # 6 i t > < * m$W@W@W@W@X@n$o$p$O+1#q$O+;#r$s$t$W@W@W@W@W@W@W@W@W@<$I@u$m#m#m#m#v$K ' i n # ; & c * t w$a , ; t # ] #.x$",
"^@' * ) 0 2 c ~ ) 3 c y$z$W@W@W@W@W@W@A$W@t$|+i$<$W@W@W@W@W@W@W@W@W@W@W@W@c$B$m#m#m#m#|$C$* > 0 5 c : _ < c , ; ; , ~ j ' ) } V ",
"1 , * o |.- 3 o ' 3 } i D$E$g$W@W@W@W@W@W@X@X@W@W@W@W@W@W@W@W@W@W@W@g$<$F$G$u$m#m#m#m#H$% * y I ^ + e # i = ! ' , 5 ] ! 3 : , < ",
"9 . c $ J m L f.F 3 & b I$J$t+M+M+W@W@W@W@W@W@W@W@W@W@W@W@W@W@W@W@M+M+>@K$m#m#m#m#m#L$M$. c $ g e F f.F # & = < ' Q#- , 3 Q % , ",
"! < } 3 $ x A x $.w k k ] N$m#O$P$W@W@W@W@W@W@W@W@W@W@W@W@W@W@W@W@g$Q$4#m#m#m#m#m#m#R$] < j ! ..x A A B + k k 3 5 , t % 5 r o ( ",
".+c , ^ 3 L ~ ~ . m >..#| S$T$m#K$Q$g$W@W@W@W@W@W@W@W@W@W@W@W@F@U$V$m#m#m#m#m#m#m#W$X$* c ^ ^ < c ^ , m e N S G 5 h .#m & | + ' ",
"- ] # : % e _ | ~ l O u F L Y$Z$m#m#K$`$ %X@W@W@W@W@W@W@F@F$Q$.%u$m#m#m#m#m#m#m#+%@%i % ! ' _ | . : | ^ d S u f.F z f.e _ = M ,.",
"t 5 A Q : & k w ' t t + W $ p #%$%|$m#m#m#B$%%Y@`$`$&%j$*%m#m#m#m#m#m#m#m#m#m#=%-%..o _ ! * e _ ) h w = ; t * Y n w L r N 5 ..Y ",
") # 8 # % G r $ ] ~ ^ ] i = > ^ p ;%>%m#m#m#m#m#m#m#m#m#m#m#m#m#m#m#m#m#m#m#,%'%* )%N D ] n ' , G p $ i ^ ~ ! i j { , q %.g x *.",
"C % . > & + +.... - . i ; 0 , } r U !%~%m#m#m#m#m#m#m#m#m#m#m#m#m#m#m#m#|${%]%%.3 ` T k } . ; _ c ,.V } - ' # ; ^%b = p U Q A &.",
"7.) - > 0 ~ 8 q#] ( ~ i ~ ^ . t , z v #%/%|$m#m#m#m#m#m#m#m#m#m#m#m#(%_%:%> r q o * f.S ) - { 0 j M q#5 > , i ~ ~ } t | z Q c ` ",
"-.C _ . ^ ; . 6 5 & & = ] . j & | A r 3 3 <%e$[%}%Z$|%1%2%>%3%4%5%6%7%. { 9 L B ' # A @.g._ ' 9 ; i M ' & ) . ] . , ( . L g 3 ! ",
")%q @.w # ^ ;..+' _ f l & > ^ = . 8 ..i , J F @.g c ~ ^ 8 * D f 8%> - & , . + $ ! j # B q v c ' 9 # 8 = /.9%d ( t D = ' 8 $ ' ^ ",
"+ x E ' c 2 c 8 e S 0%H ; > | i - % * } > ^ 8 + | < ] i n + h 0%C d & ) 3 j - < ] 9 & g x o # c # c * m S 0%f > > m 2 & = * , ; ",
"+ 3 ) 9 ! 3 c ` T U B + = % r c 9 t # = _ P < , ( . ! ! n f.e.*.w m e Q 8 . ; b 5 D g.g # & ~ ! ] * $.T '.F 3 . h p < - ( 5 | ) ",
"F c = , = ^ % A }.F ' ! ] e F n , ^@% r >.%.8 2 ~ , } ^ + }.&.r . ] # v $ ! ^@t + @.%.F < = b = 9 = $.}.p = ! + y A 8 9 ^@= r +#",
"` ! < 5 . % ~ * W 5 ^ ] 5 G J * . & . A &.$.A ] 3 = ' ^ ' Y n , } < | Q c c - 9 c $.&.$.! c 5 . b b n Z . 9 ] # G r * } ( # x p#",
"* ^ } c # ~ ^ i < # ' ! L J o } Q#- j . w n . 9 + 3 ' - . < ! . # c J z , ' % 9 = # 8 w 9 . c # ^ b ] < . . ! w J e = ' - } . J ",
"< ^ , c ! ) - ( - ' 9 ^ * $ m ^ . ( ; ; t = % _ 3 * % t ~ t j } & # ..< - b } ; ; 0 9 . 9 } * ] - 9 > - ' - ~ 8 n } ^ . > ; ; @ ",
"E P k 3 . ^ = ~ 9 . 9 , * 3 ~ ~ ' } t 9 - = C C o ] ~ , = _ ~ , ^ 3 8 } ) , # _ t ) ~ G k , ! = ^ . ^ ) . 9 j * 2 7 ~ ' b t 9 ; ",
"F T @.3 } . 3 } } ! 2 ] 5 9 ~ } Q#! . ! * A T %.g . = 5 . j . i ] ] | 9 j } ] # ' * c p -.v ] } . i j } ] i ] 2 - b = # ] = < c ",
"a%b%^.$ 6 6 j @ - 8 8 , 0 0 . c%1 ! V q#d%+.^.}.K 8 q#< a X+3 $ i { 0 7 } ^@)+8 V ,.X a%p#^.$ M n 7 e%^ 8 * ^ 0 c%. 0 0 < V q#x$"};
