/* XPM */
static char * collectible_xpm[] = {
"64 64 662 2",
"  	c #008314",
". 	c #006C18",
"+ 	c #006619",
"@ 	c #008015",
"# 	c #008414",
"$ 	c #006919",
"% 	c #00611A",
"& 	c #007217",
"* 	c #007A16",
"= 	c #006B18",
"- 	c #006419",
"; 	c #007018",
"> 	c #007716",
", 	c #007916",
"' 	c #007317",
") 	c #007117",
"! 	c #006B19",
"~ 	c #007D16",
"{ 	c #007B16",
"] 	c #006719",
"^ 	c #007417",
"/ 	c #008713",
"( 	c #007517",
"_ 	c #006319",
": 	c #006819",
"< 	c #007F15",
"[ 	c #006E18",
"} 	c #006D18",
"| 	c #008114",
"1 	c #008215",
"2 	c #007B15",
"3 	c #00641A",
"4 	c #007118",
"5 	c #007816",
"6 	c #007616",
"7 	c #00621A",
"8 	c #007E15",
"9 	c #006519",
"0 	c #007017",
"a 	c #007C15",
"b 	c #006F17",
"c 	c #007516",
"d 	c #007717",
"e 	c #006918",
"f 	c #007815",
"g 	c #006A17",
"h 	c #007615",
"i 	c #006A18",
"j 	c #007216",
"k 	c #007D15",
"l 	c #006D17",
"m 	c #006F18",
"n 	c #007316",
"o 	c #006219",
"p 	c #006717",
"q 	c #006A16",
"r 	c #007016",
"s 	c #006815",
"t 	c #006D16",
"u 	c #006A19",
"v 	c #006E15",
"w 	c #006F16",
"x 	c #006B15",
"y 	c #006917",
"z 	c #007C16",
"A 	c #007617",
"B 	c #007116",
"C 	c #006119",
"D 	c #006418",
"E 	c #006417",
"F 	c #006616",
"G 	c #006618",
"H 	c #007515",
"I 	c #007416",
"J 	c #006517",
"K 	c #006518",
"L 	c #006716",
"M 	c #006617",
"N 	c #00661A",
"O 	c #006718",
"P 	c #006818",
"Q 	c #006817",
"R 	c #00601A",
"S 	c #006C15",
"T 	c #007215",
"U 	c #006B16",
"V 	c #007014",
"W 	c #007415",
"X 	c #007315",
"Y 	c #006F15",
"Z 	c #00631A",
"` 	c #007015",
" .	c #006C16",
"..	c #006E17",
"+.	c #007218",
"@.	c #006915",
"#.	c #006A15",
"$.	c #007715",
"%.	c #006D19",
"&.	c #006816",
"*.	c #005D1A",
"=.	c #005B1A",
"-.	c #006B17",
";.	c #005E1A",
">.	c #006118",
",.	c #006019",
"'.	c #006C17",
").	c #005C1A",
"!.	c #006318",
"~.	c #005F1A",
"{.	c #00651A",
"].	c #006A14",
"^.	c #07611D",
"/.	c #0B6A1D",
"(.	c #0B7A1B",
"_.	c #0A711B",
":.	c #0A661C",
"<.	c #09631D",
"[.	c #09701C",
"}.	c #08771B",
"|.	c #08711B",
"1.	c #07651D",
"2.	c #07671C",
"3.	c #06741A",
"4.	c #067919",
"5.	c #056A1A",
"6.	c #006D15",
"7.	c #006E16",
"8.	c #006E14",
"9.	c #2A4D2D",
"0.	c #363836",
"a.	c #353836",
"b.	c #343734",
"c.	c #333633",
"d.	c #313632",
"e.	c #303830",
"f.	c #2E372F",
"g.	c #2C362D",
"h.	c #2B362C",
"i.	c #29382A",
"j.	c #273728",
"k.	c #253727",
"l.	c #233324",
"m.	c #012404",
"n.	c #475548",
"o.	c #186D24",
"p.	c #006516",
"q.	c #007318",
"r.	c #007817",
"s.	c #006B14",
"t.	c #003706",
"u.	c #000000",
"v.	c #6C6D6C",
"w.	c #4C8050",
"x.	c #007917",
"y.	c #006C14",
"z.	c #005313",
"A.	c #00430B",
"B.	c #004B0A",
"C.	c #085711",
"D.	c #C1B15C",
"E.	c #D0BB5D",
"F.	c #D6B83C",
"G.	c #DAB702",
"H.	c #D8B502",
"I.	c #BD9D01",
"J.	c #B39501",
"K.	c #A38802",
"L.	c #A68E3A",
"M.	c #787F77",
"N.	c #677168",
"O.	c #515F52",
"P.	c #2B4A2D",
"Q.	c #A4B0A5",
"R.	c #167C22",
"S.	c #006316",
"T.	c #007914",
"U.	c #006C19",
"V.	c #00510E",
"W.	c #0B0B0B",
"X.	c #EAD265",
"Y.	c #FDE260",
"Z.	c #FEDB3D",
"`.	c #FFD602",
" +	c #F9D102",
".+	c #D7B201",
"++	c #CDAA02",
"@+	c #BD9E03",
"#+	c #B89902",
"$+	c #100B00",
"%+	c #C1C3C1",
"&+	c #1A7024",
"*+	c #007A14",
"=+	c #006F14",
"-+	c #007A15",
";+	c #1A5022",
">+	c #858F5B",
",+	c #B3A84D",
"'+	c #B2A24E",
")+	c #B3A34C",
"!+	c #F3D550",
"~+	c #FEDD4B",
"{+	c #FFD92F",
"]+	c #FCD302",
"^+	c #E8C201",
"/+	c #E8C101",
"(+	c #DEB801",
"_+	c #D1AD01",
":+	c #C8A602",
"<+	c #C2A102",
"[+	c #8D7401",
"}+	c #8F7601",
"|+	c #8C7401",
"1+	c #A6A295",
"2+	c #195321",
"3+	c #437047",
"4+	c #05661C",
"5+	c #001802",
"6+	c #A99B4A",
"7+	c #FFD82B",
"8+	c #E7C101",
"9+	c #D3AF01",
"0+	c #766201",
"a+	c #7C857D",
"b+	c #08651D",
"c+	c #006914",
"d+	c #006615",
"e+	c #5E9260",
"f+	c #7C7E7C",
"g+	c #BEB378",
"h+	c #F5CE02",
"i+	c #EFC802",
"j+	c #DBB601",
"k+	c #CCA901",
"l+	c #C3A203",
"m+	c #C2A203",
"n+	c #8D7501",
"o+	c #665300",
"p+	c #5C6B36",
"q+	c #006D14",
"r+	c #005E19",
"s+	c #004E12",
"t+	c #000700",
"u+	c #C3C3C3",
"v+	c #FFFFFF",
"w+	c #FDF5D3",
"x+	c #C9A801",
"y+	c #977E00",
"z+	c #B49600",
"A+	c #9A8404",
"B+	c #001501",
"C+	c #00510D",
"D+	c #006715",
"E+	c #447C48",
"F+	c #7B987D",
"G+	c #435F45",
"H+	c #1E1E1E",
"I+	c #C4C4C3",
"J+	c #FCFCFB",
"K+	c #FCF3D0",
"L+	c #FCE15F",
"M+	c #FED82A",
"N+	c #FED502",
"O+	c #987F00",
"P+	c #998000",
"Q+	c #9B8100",
"R+	c #B69800",
"S+	c #D6B101",
"T+	c #BE9F03",
"U+	c #9E8301",
"V+	c #444E42",
"W+	c #34793A",
"X+	c #26562D",
"Y+	c #424342",
"Z+	c #E4E4E4",
"`+	c #F8F8F8",
" @	c #F9EBB3",
".@	c #FCE574",
"+@	c #FCE46E",
"@@	c #F5DA5A",
"#@	c #A28808",
"$@	c #A18707",
"%@	c #A18702",
"&@	c #A18701",
"*@	c #C0A001",
"=@	c #D2AE01",
"-@	c #BF9E01",
";@	c #A08601",
">@	c #A18601",
",@	c #D0AC02",
"'@	c #D5B001",
")@	c #C5A402",
"!@	c #BB9C03",
"~@	c #B59802",
"{@	c #B0941A",
"]@	c #333930",
"^@	c #144419",
"/@	c #558658",
"(@	c #005614",
"_@	c #EBEBEB",
":@	c #FDFDFD",
"<@	c #FEEFB8",
"[@	c #F3D756",
"}@	c #C1A001",
"|@	c #C7A602",
"1@	c #88A589",
"2@	c #0D6D1E",
"3@	c #275F2E",
"4@	c #BAC5BA",
"5@	c #D2D2D2",
"6@	c #F5E8BB",
"7@	c #F9E9AF",
"8@	c #FBE588",
"9@	c #EAD054",
"0@	c #C8AF3D",
"a@	c #C7AD37",
"b@	c #C7A501",
"c@	c #E5C743",
"d@	c #F6D956",
"e@	c #E4C337",
"f@	c #B19401",
"g@	c #AE9101",
"h@	c #BA9C03",
"i@	c #A68A02",
"j@	c #A68B11",
"k@	c #A09E97",
"l@	c #798079",
"m@	c #146920",
"n@	c #000F01",
"o@	c #414141",
"p@	c #FCFCFC",
"q@	c #FDE893",
"r@	c #DCC24B",
"s@	c #EFD14B",
"t@	c #E7C73D",
"u@	c #BC9E03",
"v@	c #483B00",
"w@	c #005716",
"x@	c #005D18",
"y@	c #000400",
"z@	c #CEB33A",
"A@	c #BB9B01",
"B@	c #C2A319",
"C@	c #E9CA46",
"D@	c #E7C943",
"E@	c #E9CA45",
"F@	c #E9CB45",
"G@	c #E2C649",
"H@	c #CCAF2F",
"I@	c #D1AE01",
"J@	c #E5BE01",
"K@	c #BE9E01",
"L@	c #BF9F01",
"M@	c #C4A201",
"N@	c #C6A502",
"O@	c #005915",
"P@	c #008115",
"Q@	c #005B16",
"R@	c #000100",
"S@	c #FEFEFE",
"T@	c #DEBB26",
"U@	c #F8CF02",
"V@	c #005A15",
"W@	c #007915",
"X@	c #4C7D4F",
"Y@	c #7B7B7B",
"Z@	c #87867F",
"`@	c #FDF8E9",
" #	c #FEF9E9",
".#	c #FDE78B",
"+#	c #FDE15C",
"@#	c #FDE058",
"##	c #C8AE37",
"$#	c #997F00",
"%#	c #9C8200",
"&#	c #B29500",
"*#	c #B49601",
"=#	c #A38800",
"-#	c #C1A101",
";#	c #ECC602",
">#	c #DFB901",
",#	c #E0BA01",
"'#	c #776200",
")#	c #347112",
"!#	c #005912",
"~#	c #003007",
"{#	c #A1A2A1",
"]#	c #FCFAED",
"^#	c #FDE261",
"/#	c #A78B00",
"(#	c #D8B301",
"_#	c #705F01",
":#	c #001001",
"<#	c #006218",
"[#	c #004F11",
"}#	c #A1A1A1",
"|#	c #FAF9EF",
"1#	c #FDE262",
"2#	c #B59603",
"3#	c #D6B208",
"4#	c #DEBC27",
"5#	c #FFD82A",
"6#	c #715D01",
"7#	c #000500",
"8#	c #005E11",
"9#	c #FBFBFB",
"0#	c #FCFAF1",
"a#	c #B9A339",
"b#	c #C0A004",
"c#	c #E4C745",
"d#	c #FDE05A",
"e#	c #FFD822",
"f#	c #FFD821",
"g#	c #FFD604",
"h#	c #D4AF01",
"i#	c #AC8F01",
"j#	c #D4B001",
"k#	c #005B12",
"l#	c #FCFBF0",
"m#	c #B29E3A",
"n#	c #E7C945",
"o#	c #FDE15D",
"p#	c #FFD607",
"q#	c #C9A901",
"r#	c #A68A00",
"s#	c #000300",
"t#	c #005C17",
"u#	c #006916",
"v#	c #005914",
"w#	c #FBFAEF",
"x#	c #A88B00",
"y#	c #F2CA02",
"z#	c #F0C902",
"A#	c #E1BB01",
"B#	c #005D17",
"C#	c #006317",
"D#	c #005C14",
"E#	c #FBF9EF",
"F#	c #FDE15E",
"G#	c #E7C001",
"H#	c #005C15",
"I#	c #FFD606",
"J#	c #A18600",
"K#	c #D9B601",
"L#	c #D6B301",
"M#	c #D8B501",
"N#	c #B09300",
"O#	c #B09401",
"P#	c #CFAE01",
"Q#	c #D4B101",
"R#	c #E6C001",
"S#	c #007314",
"T#	c #FEFCEF",
"U#	c #E6BF01",
"V#	c #005F15",
"W#	c #D5B301",
"X#	c #000200",
"Y#	c #006117",
"Z#	c #006215",
"`#	c #FCFBF1",
" $	c #E7CA47",
".$	c #007213",
"+$	c #006514",
"@$	c #FDFBF2",
"#$	c #E7CA48",
"$$	c #006012",
"%$	c #FDFBEE",
"&$	c #DAB501",
"*$	c #006315",
"=$	c #005B15",
"-$	c #FBFAF0",
";$	c #005F16",
">$	c #F0D75A",
",$	c #EDD356",
"'$	c #C7AC33",
")$	c #C8AA2A",
"!$	c #ECCC40",
"~$	c #FDE056",
"{$	c #FFD826",
"]$	c #BC9D01",
"^$	c #BA9A01",
"/$	c #C6A501",
"($	c #006414",
"_$	c #006416",
":$	c #000600",
"<$	c #C8B040",
"[$	c #715E01",
"}$	c #006214",
"|$	c #6C8E6D",
"1$	c #C5C5C5",
"2$	c #C7C6BD",
"3$	c #FDEEB6",
"4$	c #FEEEB6",
"5$	c #FDE578",
"6$	c #FEDE4B",
"7$	c #FEDC43",
"8$	c #C9AD2E",
"9$	c #F0C802",
"0$	c #9A8002",
"a$	c #947B02",
"b$	c #6F8251",
"c$	c #007115",
"d$	c #537755",
"e$	c #006814",
"f$	c #006018",
"g$	c #D4BD4C",
"h$	c #BEA42D",
"i$	c #D2B121",
"j$	c #F5DC5F",
"k$	c #D1BA49",
"l$	c #BDA63A",
"m$	c #FED92E",
"n$	c #FFDA32",
"o$	c #F9D31F",
"p$	c #F7CF02",
"q$	c #CEAA01",
"r$	c #CEAB02",
"s$	c #275D2E",
"t$	c #000901",
"u$	c #EFD14C",
"v$	c #005D16",
"w$	c #005C1B",
"x$	c #005310",
"y$	c #296E2F",
"z$	c #F7F8F7",
"A$	c #998106",
"B$	c #A28806",
"C$	c #EFD14D",
"D$	c #C1A103",
"E$	c #485A0B",
"F$	c #0C6A1E",
"G$	c #404340",
"H$	c #434343",
"I$	c #ECEADC",
"J$	c #FFFCED",
"K$	c #FDEDB0",
"L$	c #FBE05E",
"M$	c #F1D757",
"N$	c #C8A712",
"O$	c #DBB71B",
"P$	c #DCB921",
"Q$	c #DCB920",
"R$	c #D9B410",
"S$	c #C3A201",
"T$	c #BFA003",
"U$	c #B59702",
"V$	c #3F3300",
"W$	c #483D17",
"X$	c #58815A",
"Y$	c #27672F",
"Z$	c #060F07",
"`$	c #0B100B",
" %	c #F3D858",
".%	c #101210",
"+%	c #437548",
"@%	c #07681C",
"#%	c #016718",
"$%	c #016D17",
"%%	c #919E91",
"&%	c #DBD6C2",
"*%	c #FEF7D5",
"=%	c #FEF0B4",
"-%	c #F9DD5A",
";%	c #E3BE04",
">%	c #E2BE02",
",%	c #C5A501",
"'%	c #AB8E02",
")%	c #7D6701",
"!%	c #7D6F33",
"~%	c #0D5618",
"{%	c #015313",
"]%	c #0D651D",
"^%	c #005E0F",
"/%	c #FDF4D2",
"(%	c #9D8301",
"_%	c #01410C",
":%	c #007114",
"<%	c #006515",
"[%	c #005610",
"}%	c #96A296",
"|%	c #C0C0C0",
"1%	c #DDD2A7",
"2%	c #FEDD49",
"3%	c #FFD71A",
"4%	c #E4BF02",
"5%	c #C3A301",
"6%	c #C6A401",
"7%	c #D5B101",
"8%	c #AC8F02",
"9%	c #937A02",
"0%	c #837A37",
"a%	c #025C12",
"b%	c #003207",
"c%	c #005A11",
"d%	c #909041",
"e%	c #E5D05F",
"f%	c #E6D05F",
"g%	c #E6D15F",
"h%	c #FBD943",
"i%	c #FFD81F",
"j%	c #F6CE02",
"k%	c #E4BE01",
"l%	c #CDAA01",
"m%	c #B19402",
"n%	c #7F7846",
"o%	c #005E15",
"p%	c #FEDB3E",
"q%	c #F8D002",
"r%	c #B69802",
"s%	c #798C7A",
"t%	c #007E16",
"u%	c #006016",
"v%	c #003307",
"w%	c #003807",
"x%	c #004308",
"y%	c #084A10",
"z%	c #E6D365",
"A%	c #FCE467",
"B%	c #FDDA3F",
"C%	c #D9B401",
"D%	c #D0AD02",
"E%	c #B69A03",
"F%	c #0E2C04",
"G%	c #002504",
"H%	c #002404",
"I%	c #002803",
"J%	c #347038",
"K%	c #0C761B",
"L%	c #585B39",
"M%	c #4D410C",
"N%	c #4D3F04",
"O%	c #4D3F00",
"P%	c #4B3E00",
"Q%	c #4B3D00",
"R%	c #4A3D00",
"S%	c #3D3200",
"T%	c #433600",
"U%	c #2F500B",
"V%	c #007714",
"W%	c #3C7640",
"X%	c #6A6B6A",
"Y%	c #003F0E",
"Z%	c #638766",
"`%	c #A8B0A8",
" &	c #9AA19A",
".&	c #9EA69F",
"+&	c #929C93",
"@&	c #859086",
"#&	c #879488",
"$&	c #869687",
"%&	c #7A8A7B",
"&&	c #6A806C",
"*&	c #638364",
"=&	c #517653",
"-&	c #417043",
";&	c #3B623F",
">&	c #356A3A",
",&	c #246D2A",
"'&	c #00671A",
")&	c #006217",
"!&	c #005E1B",
"~&	c #005F19",
"  . + @ # $ % & * = - ; > * , ' ) ! ~ > + ' { ] ^ / ( _ : > > + : ^ * < [ & } & @ : . | : +   1 : % ^ 2 : 3 4 5 2 6 ^ ) ! < ' 7 ",
"8 ' 9 0 a > + b [ ] . + [ ( . ] ] ] 6 c $ d 5 $ e f 8 = g ' ] . ] ] ^ ' + $ 9 ) h i ; { 0 - j k ( ] ) l ] ! 9 m ( = : + e 6 n 9 ",
"5 4 9 o l & p q g e a ; 9 ; : ' 5 : r j ) { ( $ _ p n i s t 9 ( * + i u . < $ . v m * 5 ; 9 o w ) p x y . z [ 9 m $ A ( e w B & ",
"} + 0 + C p D E F G H I : . m k ' : p g 5 ^ ] u [ _ J K D L M b 5 . : ! { 2 : + y ' d } N 4 9 C O K J F P c ' ] . & k ) : Q l , ",
"R 9 ' ) 9 % & ) P i S T & + 0 T t , b O ) ] 7 } ' [ % $ ^ e . U V W e $ X Y ' A Q } . 7 + ^ ; Z 7 ' 0 e y S T ) + ) `  ., ..P & ",
"+.+ .., & = d ) ' 8 Y @.#.e r @.t 6 & 7 % [ $ G 6 * $ & ^ . 8 $.x @.q ..U F > * 9 R : [ + b , ; %.A 0 6 k v @.x i w &...> 0 o *.",
"8 ! G w I ( I ] } k * _ =.C Q D Q v [ 7 _ ( ( 9 -.n ( c . 9 5 8 b *.;.G J >.Y n _ ,.'.{ : O r I A n 9 m k , C ).o p !.y Y . % ~.",
"5 e C K ) h S _ ] ^ A $ {.u , A p ].l _ &.T 4 Z ^./.(._.:.<.[.}.|.1.2.3.4.5.#.w 9 D 6.6 ] % O n c #.o $ ( 6 ] + . , ' Q x '._ F ",
"W ) u k h O *.% m ( } u 8 { +.4 O s 7.9 F 8.I . 9.0.a.b.c.d.e.f.g.h.i.j.k.l.m.n.o.E ].X 0 u @ I K *.7 4 ( . = 8 , +.; p @.7.- p.",
"T 6 q.r.8 0 % R : , ^ : A A u r.0 &.6.O E s.6 ^ t.u.u.u.u.u.u.u.u.u.u.u.u.u.u.v.w.- s T 6 ' * 8 } R R u { ) $ A ( = x.} @.w G !.",
"y.h , [ A z ! 7 = > ( : ] m ; { m K U P z.A.B.C.D.E.F.G.G.G.H.I.I.I.I.I.I.J.K.L.M.N.O.P.Q.R.. > z : % } 5 ' : : [ & * } M t : _ ",
"S.#.6.O } > m _ } > T.a +.A q.+.U._ o u V.u.u.W.X.Y.Z.`.`.`. +.+.+.+.+.+.+++@+#+$+u.u.u.%+&+9 [ 5 } 3 m > *+a 4 A & 4 ! _ _ = & ",
"G >.p e 9 m $ _ ..T =+-+k { ' : { m ;+>+,+'+)+)+!+~+{+`.`.`.]+^+/+/+/+(+.+_+:+<+[+}+|+}+1+2+3+4+; : - 0 T V a z a 0 $ z } o ^ ~ ",
"'.i a 5 9 {.Z D S ].F i 4 & Q 9 d A 5+6+Y.Y.Y.Y.7+`.`.`.`.`.`.`.`.`.`.8+.+.+.+9+@+@+@+@+0+u.a+b+9 _ K S c+p.'.b j Q ] 5 ^ ] & 5 ",
"e ] ' ( } x.& M d+p.e ] u 0 M o 7.e+f+g+Y.Y.Y.Y.7+`.h+i+i+i+i+i+i+i+i+j+k+_+.+9+l+m+@+@+n+o+p+. { 0 M d+J i ] $ r M _ A   b y q+",
"D 9 9 [ [ ; ' _ r+i * ! u j Q s+t+u+v+w+Y.Y.Y.Y.7+`.x+y+y+y+y+y+y+y+y+y+y+z+.+.+.+.+@+@+@+@+A+B+C+' C r+. * $ = B p _ m , } E D+",
"_ > m + = m & : + ; m ] e E+F+G+H+I+J+K+Y.Y.L+L+M+N+x+O+O+O+O+O+O+P+Q+O+P+R+.+.+.+S+T+@+@+@+U+$+V+W+] 9 & [ + i  .'.= ! A $ e K ",
"9 ^ ; 3 : , 5 d ( : ' ( - X+Y+Z+`+ @.@+@Y.@@#@$@%@&@*@=@=@=@=@=@=@=@=@=@=@-@;@;@;@>@,@'@)@@+!@~@{@]@^@/@] ( ' _ ,.) d ! z 5 * z ",
"..6 c $ } d m ^ * [ > ^ _ (@W._@:@<@Y.Y.Y.[@O+y+y+y+}@.+.+.+.+.+.+.+.+.+.+}@y+y+y+O+=@.+|@@+@+@+#+$+H+1@2@5 & _ ] ' A . ^ < , k ",
"M y.w i ' 4 ] } +.! ; p 3@4@5@6@7@8@Y.9@0@a@b@b@b@b@c@d@d@d@d@d@d@d@d@e@.+_+b@b@b@b@f@g@)@++|@@+h@i@j@k@l@m@u : 5 ( %.: : ' ] $ ",
"E d+p.P ! Z m < ( - ,.n@o@p@:@q@Y.Y.Y.r@y+;@.+.+.+.+s@Y.Y.Y.Y.Y.Y.Y.Y.t@.+.+.+.+.+.+;@y+b@.+++@+@+@+u@v@u.w@m ( , . { { + : _ ~.",
"& G o ( ( - ] r.z $ x@y@o@p@:@q@Y.9@r@z@A@B@C@D@E@F@G@r@r@r@r@r@r@r@r@H@}@I@/+J@.+.+K@A@L@}@M@:+N@@+u@v@u.O@, P@< ' { * = +.$ ;.",
"1 m - I 8 ; 9 ) & + Q@R@o@p@S@q@Y.0@y+z+.+T@Y.Y.Y.Y.0@y+y+y+y+y+y+y+y+y+y+x+`.U@.+.+.+.+g@y+z+.+=@@+u@v@u.V@= A 5 m [ . i W@( - ",
"{ ^ - K I > O  .-.i X@Y@Z@`@ #.#Y.0@y+z+.+T@Y.Y.+#@###y+$#y+%#&#*#*#&#=#y+-#i+;#>#,#.+.+g@y+z+.+=@@+@+'#o+)#O ] ; ] } [ : B n [ ",
"' = : ,.D l D F !#~#{#p@]#^#Y.Y.Y.0@y+z+.+T@Y.Y.7+`.x+$#y+y+/#N+`.`.`.-#y+y+y+/#N+N+(#.+g@y+z+.+=@@+@+@+@+_#:#<#. ! z ' : U b ( ",
"7 + A . C C e e [#u.}#p@|#1#Y.L+L+0@O+2#3#4#Y.Y.5#`.x+y+y+y+/#N+`.`.`.L@y+y+y+/#N+N+(#.+g@O+z+.+=@@+@+@+@+6#7#M : & h l 0 Q e 6 ",
"] 9 j { ; : 5 ^ 8#u.}#9#0#1#^#a#$@b#=@c#L+d#e#f#g#`.x+$#y+y+/#N+`.`.`.L@y+$#$#/#N+N+(#.+h#=@-@;@i#j#j#@+@+6#7#s.. I S 7.2 & 9 + ",
"@ = e n ) } c = k#u.}#:@l#1#^#m#y+}@.+n#Y.o#p#`.`.`.q#$#$#y+/#N+`.`.`.L@y+$#y+/#N+N+(#.+.+.+}@y+r#.+.+@+@+6#s#t#K u#!.l I } % ;.",
", $ o y h a ` D v#u.}#S@w#1#^#m#$#}@.+n#Y.o#p#`.`.`.q#y+y+$#/#N+`.`.`.L@y+$#O+x#N+`.y#z#A#.+}@y+r#.+.+@+@+6#s#B#9 . e Q S = o C#",
"c [ 9 ^ j t <#C D#u.}#p@E#1#^#m#y+}@.+n#Y.F#p#`.`.`.x+y+$#P+x#N+`.`.`.L@$#y+y+/#N+`.`.`.G#.+}@$#r#.+.+@+@+6#y@` ^ { > Q ].l D d+",
"T ' . , a P ;.R H#u.}#p@0#1#^#m#y+}@.+n#Y.+#I#`.`.`.x+y+$#y+J#K#L#L#M#N#$#O#P#Q#`.`.`.`.R#.+}@y+r#.+.+@+@+6#y@S#* u [ G s 7.K C#",
"=+$.z ^ * * : % V@u.}#S@T#^#^#m#y+}@.+n#Y.F#p#`.`.`.x+$#P+O+y+y+y+y+y+y+y+x+`.`.`.`.`.`.U#.+}@y+r#.+.+@+@+6#s#s & 4 8 ) &.7.G o ",
"D+Y n P [ { ; _ V#R@}#:@]#^#^#m#y+}@.+n#Y.F#p#`.`.`.x+y+y+y+%#&#&#&#&#&#*#W#`.`.`.`.`.`.R#.+}@y+r#.+.+@+@+6#X#Y#} +.A [ D y . ; ",
",.E &.9 ] ' . 3 Z#R@}#:@`#1#^#m#y+}@.+ $Y.+#I#`.`.`.x+y+$#P+x#N+`.`.`.`.`.`.`.`.`.`.`.`.R#.+}@y+r#.+.+@+@+6#s#.$8 ^ u ^ 9 R 4 , ",
"b + c 6 + $ - - +$R@}#p@@$1#^#m#y+}@.+#$Y.F#p#`.`.`.x+$#y+$#/#N+`.`.`.`.`.`.`.`.`.`.`.`.R#.+}@y+r#.+.+@+@+6#X#c+I g : 5 ' 9 & , ",
"i $ > 6 $ ' } J $$X#}#:@%$^#^#m#y+}@.+#$Y.+#I#`.`.`.x+y+$#$#/#N+`.`.`.`.`.`.`.`.`.N+&$j+.+.+}@y+r#.+.+@+@+6#R@*$r M 9 A @ } l T ",
"K 9 : & ; ' & !.=$s#}#S@-$1#^#m#y+}@.+#$Y.o#p#`.`.`.x+y+y+$#x#N+`.`.`.`.`.`.`.`.`.N+(#.+.+.+}@y+r#.+.+@+@+6#R@;$B M _ ' { } F c+",
"_ ; $ ] . } ( ] x@7#}#:@@$1#Y.>$,$'$g@)$t@!$~$~${$`.x+$#y+y+/#N+`.`.`.`.`.`.`.`.`.N+(#.+]$g@^$b@/$:+:+@+@+6#R@($r Q + [ A P <#_$",
"9 A 4 N ! , d } P :$}#p@@$1#Y.Y.Y.<$y+z+.+T@Y.Y.7+`.x+y+$#y+/#N+`.`.`.`.`.`.`.`.`.N+(#.+g@y+z+.+=@@+@+@+@+[$:$=$D & d = ~ & > b ",
"= > ^ ] $ d & * k }$|$1$2$3$4$5$Y.0@y+z+.+T@Y.Y.6$7$8$y+y+y+/#N+`.`.`.`.`.`.`.]+z#9$.+.+g@y+z+.+=@@+@+0$a$b$T o - ) A = 5 P@8 # ",
"Q 8.c$e 0 & $ & A . S s#o@S@S@q@Y.<$$#z+.+T@Y.Y.Y.Y.0@y+O+y+/#N+`.`.`.`.`.`.`.U@.+.+.+.+g@y+z+.+=@@+u@v@u.d$m 9 ^ A & ! . A . ' ",
"J e$@.e ) u U.d m {.f$y@o@:@S@q@Y.g$m#h$k+i$j$j$j$j$k$m#m#m#l$m$7+n$n$o$p$p$p$y#.+.+q$k+J.r#^$=@r$@+u@v@u.s$+ u ( [ +.& ] . 9 7 ",
"e E ,.! u % u * { ] C t$o@:@p@q@Y.Y.^#r@y+;@.+.+.+.+u$^#^#^#^#Y.Y.Y.Y.t@.+.+.+.+.+.+;@y+b@.+++@+@+@+u@v@y@v$k # @ [ ~ ~ $ : 3 w$",
"P@. - * @ u - ' f e 9 x$y$z$S@q@^#^#Y.r@A$B$S+.+.+.+C$Y.Y.Y.Y.Y.Y.Y.Y.t@.+.+.+.+.+S+>@O+b@.+++@+@+D$D$E$H#9 ) * { & ^ & ! { & % ",
"z ^ - l -+5 O ..} : & ] F$G$H$I$J$K$Y.L$L+M$>@;@;@;@N$O$P$Q$P$Q$P$O$O$R$.+S$;@;@;@>@++=@)@T$T+@+U$V$W$X$$ ; + . ' $ ] : P W j ] ",
"A m 9 ,.g B K &.Q : * ' Y$Z$`$_@S@<@Y.Y.Y. %O+y+y+y+}@.+.+.+.+.+.+.+.+.+.+}@y+y+y+O+=@.+|@@+@+@+#+$+.%+%= { ; + [ u , ( P 7.B & ",
"$ + ^ e ,.D - !.J G T I @%#%$%%%}#&%*%=%Y.-%;%>%>%>%,%g@g@g@g@g@g@g@g@g@g@^$b@b@b@b@'@.+:+@+'%)%!%~%{%]%O X & : = ' 2 b e p -., ",
"Z 9 ^ A i 9 d A } ..x V n e j ^%u.1$S@/%Y.F#p#`.`.`.x+$#y+y+y+y+y+y+y+y+y+z+.+.+.+.+.+.+|@@+(%u._%d ^ b ..x :%n e n v  .2 ) P [ ",
", : = 6 4 . 6 b & < w L L G t <%[%}%|%1%Y.Y.2%7$3%`.4%P#P#P#P#P#P#P#P#5%A@6%.+7%++++++++8%9%0%a%L 6 ..^ 8 t F L O  .F b 6 m % *.",
"{ u K t c , n G . { ~ ] ;.C K _ p 8#R@6+Y.Y.Y.Y.7+`.`.`.`.`.`.`.`.`.`./+.+.+.+9+@+@+@+@+0+b%#.> 5 j 9 [ z z - ;.C K !.Q v . C ,.",
"6 i o i 0 j &.o : & ( $ u } ~ 5 p c+c%d%e%f%f%g%h%{+i%`.`.`.N+U@j%U@p$k%.+7%=@l%m%m%m%m%n%,.. ) B p o $ ' ( ] ! ; ~ 6 Q s.'.D d+",
"X ' = a 5 K *.% m 5 . $ k 8 m [ G s 7.o%X#u.u.W.X.Y.p%`.`.`.q%.+.+.+.+.+.+++@+r%$+u.u.u.s%= 8 6 _ *.7 & r.! = 8 z m } K @.7.- p.",
":%> d 5 k ^ _ R ] 5 ( : ^ ( . t%' u#v u%v%w%x%y%z%A%B%N+N+N+ +j+C%(#(#(#C%D%D$E%F%G%H%I%J%d 5 8 4 7 R $ * ' $ ^ ^ [ 8 0 @.w + !.",
"s.W > = ' ~ [ 7 = 5 5 } + = ; , m K U i = L ` K%L%M%N%O%O%O%O%P%Q%R%R%R%Q%S%T%U%... D #.H > $ ( k ! 7 } 5 > . + . & 5 } K l i $ ",
"<#@.x G ! A [ Z } 6 V%8 d { ^ [ } - ,.! ' P p.W%X%u.u.u.u.u.u.u.u.u.u.u.u.u.u.Y%] +.= E @.U 9 } 6 . Z m 6 V%k A z ^ [ . _ C } ^ ",
"i <#-.[ 9 } ] - b c$q+$.{ , 0 : { ' _ 4 * 5 o Z%`% &.&+&@&#&$&%&&&*&=&-&;&>&,&v$$ > * = <#l . 9 [ + - r V q+W@, W@..$ { m _ ' { ",
"g u * d + $ 9 D ].c+E ] m ) Q - ( * u m 6 X + ( , %.'&: o &.].p.K ; } 7._ } { 4 e c H -.. * ( + $ - E ].e$E e } B p + A r.$ ) 6 ",
"p 9 m ^ m 5 & J p.J m : : 0 M _ q.P@) Q y.S _ ! ^ ' 4 , P _$p.O m : = S C + | a O x y.O ] ; q.[ x.; E p.M 0 ] : r M _ A P@[ &.s.",
"D : + = } m ( 9 ;.. , $ = n Q - } 5 } !.p.p.- $ ] ) $ ^ [ ;.o d +.+ ' v 9 - > ( - _$p.D $ {.. . 4 ^ o ;.m , : } j Q - m 5 = D <%",
"_ r.4 + . ^ ^ : + } = + O g l +.! 5 [ m 9 o [ * ] . = 5 . + $ %.$ - -.Q c = ) ( } = _ 9 * [ ] = A +.] + [ = + P g b ; = 5 } m G ",
"+ c +.{.] 5 > , * u > 5 - R m > ! r.z { 8 m ) 6 P _ 4 z 4 k 4 [ a ! ,.9 5 4 [ ~ * 8 5 = 6 ; 3 : , ^ { , u , 6 _ % ; A ! * { { 1 ",
"l X I $ [ ( } ^ d } A ^ - $ ^ ( } m { ^ 5 [ W W ..: ( ' } A ' & A $ - 4 d ^ $ A * > ^ r X I : m ( = c 5 . d ) 3 ! ^ ( . 4 a ^ { ",
"M ].S i ' m : [ m : . : $ > ' } u ] 4 : 9 G ].s.-.; ) $ . m } . : : m 5 [ [ ] . [ 3 ] L ].6.i ' [ : m ; $ = : $ 5 & %.u : 4 + + ",
"f$<%)&o Z % ) P@r.Z _ ^ z k $ z @ ] R % !&~&S.S.<#- ;.9 @   ] % ! * k ) [ 1 A _ % ~.*.f$<%)&7 7 % ^ 1 ( Z _ A z { $ t%< ] % % w$"};
