/* XPM */
static char * flame_xpm[] = {
"64 64 705 2",
"  	c #008115",
". 	c #006E18",
"+ 	c #006918",
"@ 	c #007D15",
"# 	c #006D18",
"$ 	c #006319",
"% 	c #007117",
"& 	c #007716",
"* 	c #006C18",
"= 	c #006619",
"- 	c #006F18",
"; 	c #007617",
"> 	c #007A16",
", 	c #007816",
"' 	c #007217",
") 	c #007616",
"! 	c #006919",
"~ 	c #007317",
"{ 	c #007817",
"] 	c #006A19",
"^ 	c #007417",
"/ 	c #008314",
"( 	c #007717",
"_ 	c #007516",
": 	c #007416",
"< 	c #006819",
"[ 	c #007C15",
"} 	c #007018",
"| 	c #007017",
"1 	c #006C19",
"2 	c #006B19",
"3 	c #008015",
"4 	c #006B18",
"5 	c #00641A",
"6 	c #007318",
"7 	c #006519",
"8 	c #007517",
"9 	c #007B16",
"0 	c #007218",
"a 	c #006719",
"b 	c #007A15",
"c 	c #006E17",
"d 	c #006A18",
"e 	c #007715",
"f 	c #006B17",
"g 	c #007515",
"h 	c #007118",
"i 	c #007216",
"j 	c #007B15",
"k 	c #006F16",
"l 	c #006419",
"m 	c #006D17",
"n 	c #006817",
"o 	c #006916",
"p 	c #006917",
"q 	c #006E16",
"r 	c #007116",
"s 	c #007916",
"t 	c #006816",
"u 	c #006C16",
"v 	c #006818",
"w 	c #006518",
"x 	c #006F17",
"y 	c #006A16",
"z 	c #006618",
"A 	c #006617",
"B 	c #007315",
"C 	c #007316",
"D 	c #006C17",
"E 	c #006717",
"F 	c #006718",
"G 	c #007016",
"H 	c #007615",
"I 	c #007915",
"J 	c #006A17",
"K 	c #00631A",
"L 	c #006D15",
"M 	c #007115",
"N 	c #007215",
"O 	c #006D16",
"P 	c #007014",
"Q 	c #007015",
"R 	c #00651A",
"S 	c #006A15",
"T 	c #006D19",
"U 	c #006915",
"V 	c #2C6D17",
"W 	c #AF7310",
"X 	c #206817",
"Y 	c #00621A",
"Z 	c #00601A",
"` 	c #005E19",
" .	c #006E15",
"..	c #006019",
"+.	c #646517",
"@.	c #DD7908",
"#.	c #EC7B04",
"$.	c #246518",
"%.	c #006119",
"&.	c #006418",
"*.	c #005F19",
"=.	c #006219",
"-.	c #006B16",
";.	c #006B15",
">.	c #006716",
",.	c #986E13",
"'.	c #F07C04",
").	c #F77D02",
"!.	c #F27D04",
"~.	c #3A6B17",
"{.	c #006417",
"].	c #006516",
"^.	c #007917",
"/.	c #006616",
"(.	c #005E1A",
"_.	c #00661A",
":.	c #3A7417",
"<.	c #C3760D",
"[.	c #F67D02",
"}.	c #F77C03",
"|.	c #8A7115",
"1.	c #006517",
"2.	c #006B14",
"3.	c #006E19",
"4.	c #006C15",
"5.	c #005F1A",
"6.	c #467417",
"7.	c #DD7C0A",
"8.	c #F77C02",
"9.	c #BF790F",
"0.	c #006815",
"a.	c #00611A",
"b.	c #006318",
"c.	c #366519",
"d.	c #D97B09",
"e.	c #E77C06",
"f.	c #286718",
"g.	c #006416",
"h.	c #0C6619",
"i.	c #CB760F",
"j.	c #F77D03",
"k.	c #F77C01",
"l.	c #A37112",
"m.	c #007914",
"n.	c #007114",
"o.	c #007815",
"p.	c #7D6B15",
"q.	c #E97C06",
"r.	c #356718",
"s.	c #006A14",
"t.	c #007415",
"u.	c #D5760A",
"v.	c #AB7511",
"w.	c #007E15",
"x.	c #7C7614",
"y.	c #F67C03",
"z.	c #F88F0F",
"A.	c #F67D03",
"B.	c #EC7D04",
"C.	c #3B6B17",
"D.	c #CE7A0B",
"E.	c #F99814",
"F.	c #FDC526",
"G.	c #F8870B",
"H.	c #A57012",
"I.	c #006615",
"J.	c #656D17",
"K.	c #F57D04",
"L.	c #F68206",
"M.	c #FDC025",
"N.	c #FDC928",
"O.	c #F9B21F",
"P.	c #E47A08",
"Q.	c #206818",
"R.	c #BD780D",
"S.	c #F67D01",
"T.	c #FBAF1F",
"U.	c #FCC928",
"V.	c #FDC929",
"W.	c #F88C0C",
"X.	c #F57D02",
"Y.	c #8D7912",
"Z.	c #007418",
"`.	c #156A19",
" +	c #E27B07",
".+	c #F89C17",
"++	c #FEC927",
"@+	c #FEC928",
"#+	c #FFC928",
"$+	c #FEC827",
"%+	c #FAB01E",
"&+	c #DD7C08",
"*+	c #1B7417",
"=+	c #156818",
"-+	c #4A6F17",
";+	c #F78D0E",
">+	c #FDC626",
",+	c #FECA28",
"'+	c #FDC427",
")+	c #F77F03",
"!+	c #957013",
"~+	c #006C14",
"{+	c #007518",
"]+	c #00671A",
"^+	c #21621A",
"/+	c #C8730D",
"(+	c #2F6716",
"_+	c #8C7113",
":+	c #F87D02",
"<+	c #F77D01",
"[+	c #F78509",
"}+	c #FDBF25",
"|+	c #F89A14",
"1+	c #DE7709",
"2+	c #156517",
"3+	c #007F15",
"4+	c #007E16",
"5+	c #A66E12",
"6+	c #9D7311",
"7+	c #C0790D",
"8+	c #FBB622",
"9+	c #FAAF1E",
"0+	c #F77B02",
"a+	c #F67E02",
"b+	c #F67D04",
"c+	c #7C7115",
"d+	c #007D16",
"e+	c #557516",
"f+	c #E57B07",
"g+	c #5C6B17",
"h+	c #336C18",
"i+	c #EC7C07",
"j+	c #FAA81B",
"k+	c #FEC828",
"l+	c #FBBF23",
"m+	c #F87F03",
"n+	c #F79310",
"o+	c #CE7C0A",
"p+	c #7AA07D",
"q+	c #847F46",
"r+	c #9E7610",
"s+	c #F37C03",
"t+	c #D4760B",
"u+	c #F67C02",
"v+	c #F89412",
"w+	c #FDC827",
"x+	c #FEC727",
"y+	c #F68205",
"z+	c #FBB121",
"A+	c #F27D03",
"B+	c #467116",
"C+	c #0D6A1E",
"D+	c #D5BFA9",
"E+	c #EA7C03",
"F+	c #596B16",
"G+	c #0C7716",
"H+	c #CD780C",
"I+	c #F77F05",
"J+	c #F68607",
"K+	c #F78106",
"L+	c #FBC225",
"M+	c #FECA29",
"N+	c #F88D0B",
"O+	c #F67B02",
"P+	c #FBB821",
"Q+	c #F89110",
"R+	c #7E6F14",
"S+	c #7E977E",
"T+	c #F9A981",
"U+	c #F67C04",
"V+	c #D8780A",
"W+	c #236617",
"X+	c #767315",
"Y+	c #8B7812",
"Z+	c #2C6B18",
"`+	c #EB7A07",
" @	c #F99A17",
".@	c #F78307",
"+@	c #F87C02",
"@@	c #F9AD1F",
"#@	c #F67C01",
"$@	c #FBB11E",
"%@	c #FAB11F",
"&@	c #AC7111",
"*@	c #0C741D",
"=@	c #D5C0AA",
"-@	c #F77C04",
";@	c #907014",
">@	c #006F15",
",@	c #C2780D",
"'@	c #D47909",
")@	c #0C6E16",
"!@	c #847513",
"~@	c #FBB220",
"{@	c #F68909",
"]@	c #FDC728",
"^@	c #FECF37",
"/@	c #F9A219",
"(@	c #FBAE1D",
"_@	c #FBC226",
":@	c #CF760C",
"<@	c #739771",
"[@	c #F59E6C",
"}@	c #CB7A0D",
"|@	c #006D14",
"1@	c #006218",
"2@	c #3B6617",
"3@	c #7A6F14",
"4@	c #207216",
"5@	c #D97A09",
"6@	c #F89011",
"7@	c #FAB01F",
"8@	c #FBB020",
"9@	c #FED343",
"0@	c #FDE664",
"a@	c #FDC92A",
"b@	c #FBA61B",
"c@	c #FAAC1C",
"d@	c #FDC828",
"e@	c #F6890A",
"f@	c #EC7A04",
"g@	c #D2A075",
"h@	c #F77D00",
"i@	c #F37C05",
"j@	c #487316",
"k@	c #9E6F13",
"l@	c #F07C06",
"m@	c #CA770B",
"n@	c #F57D01",
"o@	c #F9AD1D",
"p@	c #FAA118",
"q@	c #F78205",
"r@	c #FDC627",
"s@	c #FDE059",
"t@	c #FCF074",
"u@	c #FDD74B",
"v@	c #FFCA28",
"w@	c #FBAA1D",
"x@	c #FBAF1D",
"y@	c #F89711",
"z@	c #F67D09",
"A@	c #9C7313",
"B@	c #006317",
"C@	c #DD7B08",
"D@	c #F79612",
"E@	c #F99A14",
"F@	c #FFC927",
"G@	c #FDEA69",
"H@	c #FFF073",
"I@	c #FDEB6B",
"J@	c #FDCA2C",
"K@	c #FCAA1C",
"L@	c #FCB31F",
"M@	c #FA9F16",
"N@	c #C0760E",
"O@	c #727813",
"P@	c #F88508",
"Q@	c #F78B0C",
"R@	c #FAB120",
"S@	c #FCCD33",
"T@	c #FEF073",
"U@	c #FFEF73",
"V@	c #FCDB54",
"W@	c #FBAB1C",
"X@	c #FCB721",
"Y@	c #F9A41A",
"Z@	c #F87D04",
"`@	c #D97909",
" #	c #BF770D",
".#	c #F88507",
"+#	c #FCBE25",
"@#	c #FED545",
"##	c #FEF074",
"$#	c #FEEF74",
"%#	c #FEEC6B",
"&#	c #FDCB2D",
"*#	c #F77B01",
"=#	c #FCBA21",
"-#	c #FBA91B",
";#	c #F07B03",
">#	c #207617",
",#	c #006715",
"'#	c #387416",
")#	c #EF7C04",
"!#	c #F79413",
"~#	c #FAA41A",
"{#	c #FCC527",
"]#	c #F68003",
"^#	c #F68105",
"/#	c #FEC627",
"(#	c #FDDC55",
"_#	c #FFF072",
":#	c #FCD951",
"<#	c #FBB21E",
"[#	c #FCB821",
"}#	c #FAA91C",
"|#	c #F87E02",
"1#	c #6D7814",
"2#	c #007514",
"3#	c #9F7C0E",
"4#	c #F88B0E",
"5#	c #FDC527",
"6#	c #F78407",
"7#	c #FBB01E",
"8#	c #FCC025",
"9#	c #F88E0E",
"0#	c #FEC929",
"a#	c #FDE15C",
"b#	c #FDE867",
"c#	c #FFC929",
"d#	c #FBB620",
"e#	c #F9AF1E",
"f#	c #FDC927",
"g#	c #F9A519",
"h#	c #F8A81C",
"i#	c #F67F03",
"j#	c #9A7610",
"k#	c #007C14",
"l#	c #DA7908",
"m#	c #F9AE1D",
"n#	c #F9A71B",
"o#	c #FBB920",
"p#	c #FBB722",
"q#	c #F8A117",
"r#	c #FFC827",
"s#	c #FEC829",
"t#	c #FCD23E",
"u#	c #FFC829",
"v#	c #FDE461",
"w#	c #FEEF73",
"x#	c #FCCD35",
"y#	c #FBBA21",
"z#	c #F89413",
"A#	c #F89612",
"B#	c #F78E0F",
"C#	c #FDC727",
"D#	c #F88D0F",
"E#	c #BA750B",
"F#	c #F57D03",
"G#	c #F78104",
"H#	c #FCC528",
"I#	c #FCC226",
"J#	c #F78005",
"K#	c #FDBF24",
"L#	c #FAB21E",
"M#	c #FFC828",
"N#	c #FDD241",
"O#	c #FED648",
"P#	c #FCD748",
"Q#	c #FCBF27",
"R#	c #F88D0D",
"S#	c #F67F05",
"T#	c #FABB23",
"U#	c #F99C16",
"V#	c #D67708",
"W#	c #007C16",
"X#	c #F27C05",
"Y#	c #F99D16",
"Z#	c #F9A31A",
"`#	c #FCBC23",
" $	c #F88B0D",
".$	c #FCE35F",
"+$	c #FDD13E",
"@$	c #FEE764",
"#$	c #FEEF72",
"$$	c #FDDD59",
"%$	c #FDCF42",
"&$	c #F9A318",
"*$	c #FAA418",
"=$	c #EE7B04",
"-$	c #EF7B05",
";$	c #FAB320",
">$	c #FCC326",
",$	c #F7880A",
"'$	c #FEEB6D",
")$	c #FDCE37",
"!$	c #FEC926",
"~$	c #FEE866",
"{$	c #FEF072",
"]$	c #FEE15D",
"^$	c #FDDC56",
"/$	c #F88410",
"($	c #F78C0D",
"_$	c #FBA61A",
":$	c #EC7C06",
"<$	c #F67E03",
"[$	c #FCC526",
"}$	c #F9A21A",
"|$	c #FDCD33",
"1$	c #FDE05C",
"2$	c #F79C2C",
"3$	c #F78206",
"4$	c #FCBF25",
"5$	c #E77B07",
"6$	c #EA7B05",
"7$	c #F88E0F",
"8$	c #FCC628",
"9$	c #F78F0E",
"0$	c #F77E04",
"a$	c #FBBC25",
"b$	c #FCD240",
"c$	c #FEF075",
"d$	c #FDCD32",
"e$	c #FCEC6D",
"f$	c #FDE665",
"g$	c #FDDF5C",
"h$	c #F9C849",
"i$	c #FABB25",
"j$	c #FBAD1D",
"k$	c #F77E03",
"l$	c #D5790A",
"m$	c #006E14",
"n$	c #E67A05",
"o$	c #F9A017",
"p$	c #FBC326",
"q$	c #FDD546",
"r$	c #FDF075",
"s$	c #FECA2A",
"t$	c #FDEE71",
"u$	c #FEE968",
"v$	c #FDE15B",
"w$	c #FCDD56",
"x$	c #FDCA28",
"y$	c #FCB41F",
"z$	c #F89210",
"A$	c #C1770E",
"B$	c #E37909",
"C$	c #FBAC1B",
"D$	c #FED84F",
"E$	c #FEEE71",
"F$	c #FDCA2E",
"G$	c #FCCB2F",
"H$	c #FDF074",
"I$	c #FEEB6C",
"J$	c #FEE460",
"K$	c #FEDF59",
"L$	c #FCBB22",
"M$	c #F77B03",
"N$	c #A97112",
"O$	c #DF7B08",
"P$	c #FDD549",
"Q$	c #FDE765",
"R$	c #FDC829",
"S$	c #FED038",
"T$	c #FDEF73",
"U$	c #FEEE6E",
"V$	c #FEE665",
"W$	c #FDC325",
"X$	c #F88D0E",
"Y$	c #FBAF20",
"Z$	c #8E6E14",
"`$	c #005D1A",
" %	c #DB7A09",
".%	c #FAAE1E",
"+%	c #FECA27",
"@%	c #FCD13A",
"#%	c #FDCB2E",
"$%	c #FCD649",
"%%	c #FDEF71",
"&%	c #FECA2F",
"*%	c #FCC828",
"=%	c #F7890C",
"-%	c #F78408",
";%	c #FBAE1E",
">%	c #686B17",
",%	c #D2770C",
"'%	c #FAAA1C",
")%	c #FDEA6A",
"!%	c #FDD343",
"~%	c #FFCA27",
"{%	c #FDDD55",
"]%	c #FFCE36",
"^%	c #FDC926",
"/%	c #FDDC54",
"(%	c #FCAD1D",
"_%	c #F37D03",
":%	c #256A19",
"<%	c #817515",
"[%	c #FAA117",
"}%	c #FEEF71",
"|%	c #FDEC6F",
"1%	c #FDCE36",
"2%	c #FDE460",
"3%	c #FFF074",
"4%	c #FCD94F",
"5%	c #F9A91A",
"6%	c #E47906",
"7%	c #C8760C",
"8%	c #F99211",
"9%	c #FDD445",
"0%	c #FDEB6C",
"a%	c #FDCE38",
"b%	c #FEED6E",
"c%	c #FEF071",
"d%	c #FDD84C",
"e%	c #FDDB52",
"f%	c #FED74B",
"g%	c #FA9F18",
"h%	c #CF750C",
"i%	c #567116",
"j%	c #F07F06",
"k%	c #FDDE58",
"l%	c #FDED6D",
"m%	c #FEDD58",
"n%	c #FEE35F",
"o%	c #FEDC53",
"p%	c #FDDD56",
"q%	c #FDF073",
"r%	c #FEDA51",
"s%	c #F59011",
"t%	c #8A7313",
"u%	c #AE7110",
"v%	c #FEE25E",
"w%	c #FCCB2C",
"x%	c #FDE15D",
"y%	c #FDEF72",
"z%	c #FFEF72",
"A%	c #FDD74C",
"B%	c #FDC226",
"C%	c #B1770F",
"D%	c #2F6418",
"E%	c #E59515",
"F%	c #FDCA2A",
"G%	c #FDE767",
"H%	c #FDE764",
"I%	c #FDD341",
"J%	c #D3A520",
"K%	c #146818",
"L%	c #8E7912",
"M%	c #FCBC24",
"N%	c #FDCF3B",
"O%	c #FEEF70",
"P%	c #FBDC54",
"Q%	c #FEEC6D",
"R%	c #FDCC32",
"S%	c #ECBE26",
"T%	c #487118",
"U%	c #D39216",
"V%	c #FDCB2F",
"W%	c #FEE762",
"X%	c #FDE967",
"Y%	c #F7C527",
"Z%	c #75801D",
"`%	c #007A17",
" &	c #667914",
".&	c #F6AC1E",
"+&	c #FDE561",
"@&	c #FDD94E",
"#&	c #FDCA29",
"$&	c #A09B1A",
"%&	c #B77810",
"&&	c #FAB823",
"*&	c #FBDB51",
"=&	c #FDED6E",
"-&	c #C4A923",
";&	c #1B6E18",
">&	c #977316",
",&	c #EEB623",
"'&	c #FCCA2E",
")&	c #DFB727",
"!&	c #2E6B1A",
"~&	c #426B19",
"{&	c #C1A521",
"]&	c #FAD245",
"^&	c #FDF071",
"/&	c #FCE25D",
"(&	c #ECBF26",
"_&	c #5B7B1A",
":&	c #006F14",
"<&	c #748819",
"[&	c #DCCE51",
"}&	c #FCF072",
"|&	c #FEE360",
"1&	c #FBC729",
"2&	c #D7B423",
"3&	c #928E1D",
"4&	c #2A6F19",
"5&	c #146C15",
"6&	c #A0A645",
"7&	c #F1E66F",
"8&	c #FDDB53",
"9&	c #EAC028",
"0&	c #B39F20",
"a&	c #5D7A19",
"b&	c #457926",
"c&	c #B2B752",
"d&	c #B8BC53",
"e&	c #B9BB51",
"f&	c #B8BC55",
"g&	c #B9BB54",
"h&	c #B9B854",
"i&	c #B9B953",
"j&	c #B9BD53",
"k&	c #B7BC55",
"l&	c #B9BA54",
"m&	c #B9BC52",
"n&	c #D6D05E",
"o&	c #F8DC58",
"p&	c #CCB231",
"q&	c #8A911C",
"r&	c #167617",
"s&	c #006515",
"t&	c #006118",
"u&	c #006415",
"v&	c #005E1B",
"  . + @   # $ % & * = - ; > , ' - # > ) ! ~ { ] ^ / ( = + _ : < ! ~ > [ } | # ~ [ 1 . [ 2 ! 3 3 4 5 6 , ] 7 - , > 8 ~ - . 9 ~ $ ",
"@ 0 a % b ^ + c c ! * ! . ^ . ] ! ! _ : * ; ( ] d e > * f % d 4 ! ] ~ ' ! 2 < % g * h > } a i j ~ + k c ! 2 ! - ^ # ] ] 4 _ ' a ",
"( } a l m % n o p 4 & } < . 2 6 ^ ! q r ' s ^ ! 7 p % 4 t u v ~ ; ! d 2 - s 1 4 q | , & - = w x | n y + # ( . < # * 8 ~ d c % ' ",
"1 ! . a $ z z A A v B C ] 2 } s ^ 4 + D ) ^ d ] * 7 w z z E F G H . < * , I * v J ' 8 # < . a $ F F E A + : ' ! * 0 I % d p c & ",
"K = % % = l | } d f L M | ! | N k ) x v - d l * ' # l d h 4 m O P r d 4 N Q ' ~ d * * R a ' } 7 7 h x 4 f L M x ! % M x _ c + | ",
"} < c ) % # ^ % ~ > M y o + O S O _ % l l T ] + ^ & * h ' . b e L U p V W X _ ( a Y ! # a x ) } . : % ^ I Q S J + u o c ) x $ Z ",
"9 * F x C _ C + . 9 , = ` $ J E p  .# K 7 ~ 0 a 4 i _ : # < ( [ x ..+.@.#.$.k i 7 %.m ) ! F x : _ r v } 9 & &.*.w p F J k * =.*.",
"& 4 $ + ' : -.l ] ^ ^ ] a 1 ) ' p ;.* l >.r % 7 l m ) G z R h ; - ,.'.).!.~.S O z {. .: ! $ 4 ~ C y &.4 8 ^ < a . _ % p ;.4 &.].",
": | * , ) d ..=.# ^ - 1 s ^.6 h p U u z /. .C # h b r =.(._.; :.<.[.).).}.|.t ;.J 1.2.N - # > _ v *.$ - 8 . # s { ~ | p S D z ].",
"N _ ^ , 9 | $ Z d ( 0 2 8 8 3.8 x o 4.v 1.;.: ^ 8 9 & < 5.K 6.7.).).).).8.9.n U D w 0.M _ ^ s j . a.a.1 , h 2 8 ^ - 8 m U O F b.",
"4.g ) } ; s * K 4 & 8 4 ] - h , - E p < z E Q ) ^ 0 > ^ 5 c.d.).).).).).8.e.f.E # + &.-.g & - ( , ! K * & ^ 2 2 - ' ( # E f < 7 ",
"g.y O + # ; - R * ) I I ~ 8 6 0 . = l 4 | v >.u f < 8 ; h.i.j.).).).).).[.k.l.$ + } d A ;.O < - ) # 7 . ) m.s 6 8 ~ h # 7 7 1 0 ",
"z &.p d a T ! 7 m M n.o.9 > ' 1 ( - 7 h s ' &.E D = ] # p.[.).).).).).).).).q.r.d ; & + w d + < # < = x M n.I b > | * ( # 7 ~ 9 ",
"d 4 & 8 < < = w -.s.>.4 % ' J a ; ; 2 | e t.+ ~ , # a h.u.).).).).).).).).).j.v.4 ^ H D * { ~ a < 7 w ;.s.>.m % i p ! ( 8 ] % & ",
"v < ' ^ - ^ | A /./.d < 2 c E l ~ w.' d L L = # 8 h } x.).).).).8.y.z.j.).).A.B.C.O  .p + ' ~ - ; x A /.E 4 v d c A 7 ; w.} f L ",
"&.a < # . h % 7 ..4 8 2 d G n l . & . w /./.7 < 2 } T D.).).).).[.E.F.G.8.).).).H.].I.1.v < # . 6 % $ ..* 8 d 4 G n 7 } ( # A I.",
"7 ' . a 4 } ' ] a . } ] + D D * * ^ # d z &.* ^ ! ] J.K.).).8.[.L.M.N.O.[.).[.).P.Q.&.F ^ # a 2 0 h ! a x | + + D D 4 T ^ # d n ",
"a ~ } = ] ; ( ; ~ 2 0 ~ 7 $ x _ - { s , ; # } 8 ! _.R.).).).S.8.T.U.N.V.W.X.8.).j.Y.' * _ - _.] , ; ; 0 1 ~ % 7 $ } ^ . , , , 9 ",
"m C ~ d . 8 } Z.( - ; ~ 7 a ' ^ . ~ j s { } : _ . `. +).).).}..+++@+#+$+%+j.[.).[.&+*+% : ~ ] } ; - ^ ( . 8 % 7 ! ~ ^ # ^ [ s 9 ",
"n 4.q 4 h } ] } 0 1 . * ] ~ ^ } 2 ] } 2 ! =+;.L D -+X.).).).;+>+,+#+#+#+'+)+).).).).!+o ~+q 2 h - ] } ' 1 . 2 d 8 ^ - ] ] % d 2 ",
"1././.d 1 _.. 9 {+]+7 . 8 , h & s ] a 7 ^+/+(+/.n _+:+).<+[+}+N.#+#+#+#+$+|+).).).).1+2+/.E 4 4 _.} 9 ^ = R - ; , h { , ] < l Z ",
"' F l ' Z.a ! , s ! 7 ^ 3+4+8 , { T - 4 5+}.6+w D 7+j.).).8+,+#+#+#+#+#+@+9+0+a+[.).b+c+w l ^ ' = ] s , a 7 ; 3+d+^ s { # } ] 5.",
"3+} = ~ 9 | a % ' v < * 8 { h - # 2 ) e+'.).f+g+h+i+y.8.j+k+#+#+#+#+#+#+V.l+[.m+n+8.).o+# = ^ p+q+a ' % a < # ; & } - . * ) ~ = ",
"9 0 = F C ^ p -.f 4 8 # ! - ] # - ! r r+).).}.s+t+u+).v+w+@+#+#+#+#+#+#+@+x+y+8.z+A.:+A+B+7 C+D+E+F+u d # 8 4 ! - ] 3.3.d r i # ",
"% * < $ z 4 z /.1.v ) ^ ! 4 1 G+~ + f H+).).I+J+j.A.K+L+@+@+#+#+#+#+#+#+#+M+N+O+P+Q+[.).R+< S+T+U+V+W+A 4 & ' < 4 # & ' + f x ^ ",
"K a ' # $ l d d z v k C # ! X+Y+G | Z+`+).). @.@8.+@@@@+@+#+#+#+#+#+#+#+#+@+|+#@$@%@8.).&@*@=@-@A.b+;@z p >@i * ] ' g k x J 4 ~ ",
"! F i & . d 8 ~ ' )  .~+O * ,@'@)@& !@<+).[.~@0+8.{@]@@+#+#+N.^@#+#+#+#+#+@+/@).(@_@).).:@<@[@A.j.b+}@: g |@4.O * r L k & % = = ",
"9 * d i % } : D % j C 1.1@2@'.X.3@4@5@).[.6@7@k.).8@$+#+#+#+9@0@a@@+#+#+#+#+b@8.c@d@e@).f@g@h@).).).i@j@[ i &.=.= p A m C # =.5.",
"s 4 l f t.o.k z 4 , s 4 7 k@).).l@m@).).n@o@p@[.q@r@#+#+#+++s@t@u@@+v@#+#+#+w@8.x@N.y@).j.z@).).).).).A@, , d l a # 4 p u 4 $ B@",
": # < ' : q &.=.4 ~ 0 T ~ C@).).).).).).8.}+D@<+E@N.#+#+F@V.G@H@I@J@F@#+#+#+K@#@L@@+M@).).).).).).).y.N@^ ' * ^ ^ ( ~ p S D w ].",
"N ~ - , s 4 Z a.* ( - ] O@A.).).8.).).).P@w+Q@#@R@#+@+#+@+S@T@U@T@V@#+#+#+#+W@#@X@@+Y@[.).).).).).).Z@`@; . 2 { { - } p U O z B@",
">@H s 8 s ( ! Y + ; ~ 2  #).).).u+j.).).v+d@.#u++#@+#+#+@+@###H@$#%#&#F@#+#+(@*#=##+-#[.).).).).).).).;#>#' ] - ' ' s | o u a $ ",
",#>@i d x , - R * ) I '#)#).).8.!##@).).~#{#]#^#/##+@+#+@+(#_#H@T@_#:#@+v@#+<#8.[#@+}#[.|#).).).).).).).1#I ~ 1 - 6 8 . z + * - ",
"1@A y a + % * 7 # B 2#3#).).u+4#5#6#).).7#8##@9#@+#+@+N.0#a#U@H@H@H@b#N.c##+d#0+e#f#g#}.h#i#:+).).).).).j#2#k#> 9 ~ # 0 a $ } { ",
"* v C ~ < ] = 7 O L S l#).).u+m#f#n#).#@o#p#u+q#r##+s#t#u#v#H@H@H@H@w#x##+#+y#8.z#N.A#B#C#D#).).).).).).E#;.i ^ : f d ; ~ < h , ",
"d ] ^ 8 1 } # z ,#>.z F#).).G#H#c#I#J##@K#j+}.L#M##+N#O#@+0@H@H@H@H@$#P#@+@+Q#u+A.R#S#T#$+U#).).).).).).V#E < * k E F 8 W#. m N ",
"w = ] | } 0 % w 1@n ' X#).).Y#f##+@+Z#0+`# $j.8##+#+.$+$++@$H@H@H@H@#$$$0#@+%$j.}.}.&$N.@+*$).).).).).).=$~ ! ! x F 7 ~ s # E U ",
"l . ] ! * } ~ < l . ' -$[.8.;$#+#+#+>$L.L.u+,$d@++V.'$)$!$~$H@H@H@H@{$]$@+#+^$/$).($/##+#+_$).).).).).).8.' < 4 c J v - 8 4 w 1.",
"a ^ h a 1 ( ; - * 4 # :$:+<$[$V.#+#+++}#u+8.}$++@+|$w#|$N.G@H@H@H@H@T@v#0##+1$2$3$4$@+#+#+-#[.).).).).).5$# 4 z z | ~ - , ^ 8 % ",
"4 : ~ < 2 8 ~ ( s | & 6$).7$#+#+#+#+N.8$9$0$a$M+v@b$c$d$M#e$H@H@H@H@##f$@+#+g$h$i$V.#+#+@+j$).).[.k$8.).l${ ^ 7 = h ^ 3.; w.d+3 ",
"o m$Q d - h T ~ 8 . ~ n$[.o$@+#+#+#+,+@+p$9+f#@+,+q$r$d$s$t$_#H@H@H@##u$0##+v$w$x$@+#+#+F@y$u+).:+j.z$).A$6 . a h ^ h 1 . 8 - ~ ",
"/.0.U d - ] * ; % a a B$8.C$#+#+#+#+#+#+#+#+#+#+#+D$E$F$G$H$_#H@H@H@T@I$++w+J$K$#+#+#+#+#+L$M$).j.Z#W@[.N$= + . 8 } ~ 0 ] 4 = Y ",
"D 1.b.* * l ] s , < = O$).x@#+#+#+#+#+#+#+#+#+#+#+P$Q$R$S$T$H@H@H@H@##U$s$@+V$K$#+#+#+#+x$W$).).X${#Y$[.Z$= s   @ ' > s * ] R `$",
"d+# = ) 9 1 a ~ ) d a  %0+.%#+#+#+#+#+#++%++@%++v@J@#%#+$%$#_#H@H@H@##%%&%f#b#K$#+#+#+#+x$*%=%-%4$$+;%[.>%a ' > > ' ~ h # ) } Y ",
"W#' = m o.; d O # d | ,%8.'%#+#+#+#+#+#+@+0#)%!%#+~%#+#+{%{$H@H@H@H@H@H$]%^%0@/%#+#+#+#+#+U.p#8#@+$+(%_%:%- ! # ' 4 ] ! d : ' < ",
"8 - a $ f x E >.E d ) <%X.[%@+#+#+#+#+#+,+|$}%|%1%++@+@+2%{$3%H@H@H@_#{$9@@+4%N#0#x$w+J@@+#+@+#+@+++5%6%* & - < * T ; ' d O % ' ",
"! < } d $ w z w 1.v i i 7%8%#+#+#+#+#+#+x$9%##}%0%a%0##%b%c%H@H@H@H@H@U@d%#+@+++V.$+e%f%0##+#+#+@+d@g%h%+ C i ] 4 ' s % 4 p m ( ",
"_.a ' ^ d F ~ ~ . x L >@i%j%r@V.#+#+#+#+N.k%H@U@T@l%m%n%##H@H@H@H@H@H@H@o%V.++@+N.p%q%r%#+#+#+#+++@+s%t%q L Q G 4 r >@x & | + # ",
"; ] * : % c : % ~ j M t E u%;$++#+#+#+#+f#Q$H@H@U@T@####H@H@H@H@H@H@H@H@v%@+++w%x%y%z%A%#+#+#+#+@+B%C%^ b Q t >.E y >.c _ - $ 5.",
"s 4 z O : & i v # > s v Z D%E%d@#+#+#+#+F%b%H@H@H@H@H@_#H@H@H@H@H@H@H@H@G%++d$H%##H@##I%#+#+#+#+f#J%K%- > , = Z l v F p L f =...",
") * 7 * % G p $ ] ~ ^ ] 2 - L%M%#+#+#+#+N%w#H@H@H@H@H@H@H@H@H@H@H@H@H@H@O%P%Q%w#H@H@}%R%#+#+#+#+S%T%$ 2 ^ ~ ! 2 h ( ' p ;.f w /.",
"B % . , & + *.Y . ; . 2 > 9 ' U%f#N.N.V%W%H$H@H@H@H@H@H@H@H@H@H@H@H@H@H@H@T@H@H@3%T@X%N.#+#+++Y%Z%5.K - ; # * > `%0 - n U m z 1.",
"n.) ; , 9 ~ 7 a.d & ~ 2 ~ ^ -  &.&$++++&q%H@H@H@H@H@H@H@H@H@H@H@H@H@H@H@H@H@H@H@##q%@&++#+#+#&$&h $ a.2 & ' 2 ~ ~ } s x y O F &.",
"2.B _ . ^ > . 5 4 & & - ] . h & %&&&f#*&T@T@H@H@H@H@H@H@H@H@H@H@H@H@H@H@H@H@H@H@{$=&#%@+M+f#-&8 > 2 K # & ) . ] . ~ ( . F f d ! ",
"{.t -.v * ^ 3.R # _ e j ( { ^ } ;&>&,&'&I$#$H@H@H@H@H@H@H@H@H@H@H@H@H@H@H@H@H@H@#$d%F@#+x$)&!&# 8 * 7 - g e b ; s C - # 7 l # 6 ",
"+ w D # a * < 7 c Q  .H > , x 2 ; % ~&{&]&^&q%q%H@H@H@H@H@H@H@H@H@H@H@H@H@H@T@T@/&$+0#x$(&_&* a * a = x :&:&e , , x * ( - = ' > ",
"+ d ) 8 ! ] a w S U A + - % p a 8 s # - <&[&}&$#H@H@H@H@H@H@H@H@H@H@H@H@H@H@T@|&0#1&2&3&4&( ~ < ] = 1.S 0.E d . r n < ; ( 4 | ) ",
"F a - ' - ^ % z g.E # ! ] c E l ' d+% p 4.5&6&7&{$w#3%_#H@H@H@H@_#U@T@U@T@O%8&9&0&a&;.E < - 0 - 8 } 1.].n . < d x z 7 8 d+- o ~+",
"&.! < 4 . % ~ = a.* ^ ] 4 G p = . & . z ].1.z b&c&d&e&f&g&h&i&j&k&l&m&n&o&p&q&r&a 1.].1.! a 4 . 0 0 l %.. 8 ] * G p = } ( * w s&",
"= ^ } a * ~ ~ 2 < * # ! F J m - T ; h . v l c 8 + d # ; . < ! . * a J y ' # % 8 - * 7 < 8 . a * ^ 0 ] < . . ! v J c . # ; } . J ",
"< ^ % a ! ) ; ( ; # 8 ^ = $ x ^ . ( > > s - ' 8 d = % s ~ s % } & 1 =.< ; 0 } > > 9 8 # 8 } _.] ; 8 , ; # ; ~ 7 l } ^ . , > > w.",
"D N i 4 . ^ - ~ 8 . 8 ' _.] ~ ~ # } s ; ; - B B c 4 ~ ' - _ ~ ' ^ ] 7 } ; ' * _ s ) ~ G i ' ! - ^ . ^ ; . 8 h = 1 6 ~ * ' > 8 s ",
"E S -.d } . ] } } ] 2 ] 2 8 C } T ! . ! = F S ;.f . - 4 . h . 2 ] ] | 8 h } ] * # = z t ;.u 2 } . 2 h } ] 2 ] 1 ; 0 - * ] - < a ",
"t&u&B@$ 5 5 h 4+; 7 7 0 9 9 . ^.W#! Y a.v&*.B@g.b.7 a.< d+3+d K 2 { 9 ' } d+Z.7 Y 5.(.t&s&B@$ K l 6 4+^ 7 = ~ 9 ^.. 9 9 < Y a.`$"};
