/* XPM */
static char * floor_xpm[] = {
"64 64 221 2",
"  	c #008813",
". 	c #006619",
"+ 	c #005F1A",
"@ 	c #008713",
"# 	c #008A13",
"$ 	c #005C1A",
"% 	c #007317",
"& 	c #008114",
"* 	c #006A18",
"= 	c #007417",
"- 	c #007916",
"; 	c #007B16",
"> 	c #007D15",
", 	c #007816",
"' 	c #00631A",
") 	c #008314",
"! 	c #007217",
"~ 	c #008315",
"{ 	c #009211",
"] 	c #006E18",
"^ 	c #006519",
"/ 	c #007E14",
"( 	c #006819",
"_ 	c #006919",
": 	c #006D18",
"< 	c #008B13",
"[ 	c #00601A",
"} 	c #008C12",
"| 	c #005D1A",
"1 	c #008614",
"2 	c #005B1B",
"3 	c #007617",
"4 	c #008313",
"5 	c #007E15",
"6 	c #007716",
"7 	c #00611A",
"8 	c #007F15",
"9 	c #006F16",
"0 	c #007316",
"a 	c #006C18",
"b 	c #005A1B",
"c 	c #007018",
"d 	c #00621A",
"e 	c #007915",
"f 	c #007A16",
"g 	c #006518",
"h 	c #007615",
"i 	c #008913",
"j 	c #006719",
"k 	c #006818",
"l 	c #005B1A",
"m 	c #006F18",
"n 	c #005E1A",
"o 	c #007814",
"p 	c #006B18",
"q 	c #007115",
"r 	c #008214",
"s 	c #007516",
"t 	c #006419",
"u 	c #006A19",
"v 	c #007715",
"w 	c #007616",
"x 	c #007517",
"y 	c #006E16",
"z 	c #006417",
"A 	c #006C14",
"B 	c #006B17",
"C 	c #007118",
"D 	c #008414",
"E 	c #007315",
"F 	c #007415",
"G 	c #006217",
"H 	c #006913",
"I 	c #007215",
"J 	c #009111",
"K 	c #006E14",
"L 	c #008115",
"M 	c #005A1A",
"N 	c #006516",
"O 	c #006918",
"P 	c #007216",
"Q 	c #007117",
"R 	c #006A15",
"S 	c #005D18",
"T 	c #006814",
"U 	c #006219",
"V 	c #006B19",
"W 	c #006416",
"X 	c #006418",
"Y 	c #006714",
"Z 	c #006317",
"` 	c #006E17",
" .	c #006616",
"..	c #007717",
"+.	c #005A19",
"@.	c #006A16",
"#.	c #006017",
"$.	c #008613",
"%.	c #006517",
"&.	c #00581B",
"*.	c #006319",
"=.	c #00571B",
"-.	c #006A13",
";.	c #00591B",
">.	c #007114",
",.	c #006F14",
"'.	c #007C14",
").	c #00641A",
"!.	c #006B13",
"~.	c #007D16",
"{.	c #007C16",
"].	c #006318",
"^.	c #008514",
"/.	c #006C16",
"(.	c #006C17",
"_.	c #007116",
":.	c #006716",
"<.	c #007815",
"[.	c #006614",
"}.	c #006019",
"|.	c #008B12",
"1.	c #006D15",
"2.	c #006D14",
"3.	c #005F17",
"4.	c #008015",
"5.	c #006515",
"6.	c #006E13",
"7.	c #007515",
"8.	c #007017",
"9.	c #00561B",
"0.	c #008215",
"a.	c #00551B",
"b.	c #006116",
"c.	c #00591A",
"d.	c #006718",
"e.	c #006118",
"f.	c #005C18",
"g.	c #006617",
"h.	c #005F19",
"i.	c #006917",
"j.	c #00561A",
"k.	c #006C13",
"l.	c #006119",
"m.	c #007E16",
"n.	c #005B19",
"o.	c #007817",
"p.	c #007C15",
"q.	c #005E18",
"r.	c #006216",
"s.	c #00581A",
"t.	c #008714",
"u.	c #006D16",
"v.	c #006615",
"w.	c #005C1B",
"x.	c #007014",
"y.	c #006218",
"z.	c #007B14",
"A.	c #006916",
"B.	c #008A11",
"C.	c #006117",
"D.	c #007D13",
"E.	c #007D14",
"F.	c #008912",
"G.	c #006316",
"H.	c #007B13",
"I.	c #006B16",
"J.	c #005F18",
"K.	c #007A15",
"L.	c #006618",
"M.	c #007015",
"N.	c #008D12",
"O.	c #009011",
"P.	c #006817",
"Q.	c #00571A",
"R.	c #006A17",
"S.	c #005919",
"T.	c #006715",
"U.	c #005C19",
"V.	c #006F15",
"W.	c #006D17",
"X.	c #006415",
"Y.	c #007218",
"Z.	c #005D1B",
"`.	c #005D19",
" +	c #008413",
".+	c #008014",
"++	c #007416",
"@+	c #006E15",
"#+	c #006B15",
"$+	c #007016",
"%+	c #006C15",
"&+	c #006F17",
"*+	c #006018",
"=+	c #006717",
"-+	c #007912",
";+	c #007213",
">+	c #006813",
",+	c #007A13",
"'+	c #007B15",
")+	c #006B14",
"!+	c #006816",
"~+	c #006A14",
"{+	c #007A14",
"]+	c #005E19",
"^+	c #007F14",
"/+	c #006915",
"(+	c #008612",
"_+	c #007613",
":+	c #008E12",
"<+	c #008A12",
"[+	c #008513",
"}+	c #007214",
"|+	c #006D13",
"1+	c #007314",
"2+	c #007C13",
"3+	c #005B18",
"4+	c #007514",
"5+	c #008311",
"6+	c #008113",
"7+	c #007414",
"8+	c #00651A",
"  . + @ # + $ % & * + = - ; > % , ' ) - + ! ~ $ = { ] + ^ - / + ( - - @ _ - ] : < [ . } | + } 1 + 2 3 4 ^ + 3 - 5 , 3 6 7   ! + ",
"8 3 + 9 8 8 + 0 a 7 : b c , _ [ | d e , + ; f . g h i j k - l m n 7 - % [ [ $ = o j p 5 % + q r f [ s k t u b ! 6 j [ | j v w + ",
"- x + l y 3 z A B t   C $ x + = D 7 E F : 8 - j | G , ( H I + f D n p _ + J 7 c K u L - % + M I = N K O _ i a n % + ; 5 t q P % ",
"Q 2 , t M R n S T U h , + Q V   m + z g 8 , [ ( = l W X M Y Z ` > . ( _ ) 5 [ [  ...- m b ; 7 +.@.| #.Y t 6 3 + Q c $.: + %.* > ",
"&.*., ! ' =.- 3 7 t -.E ; ;.! >.N D ` U - | n Q = ] b . 8 ' _  .,.'.^ ).h !.= ~.Z c a ;.^ - C [ &.{.% ).].-.F , ;.x ,.z ^./.^ 6 ",
"x [ (.8 x ^ {._.= # :.H !.* <.[.9 , 3 + =.x . }.- D + 3 6 g |.h Y H 1.% 2.3.; L + 2 j C }.` 4.c u f y - @ 5.H 6.a 7.5.8.f ! + 9.",
"^._ X I s x , + a 8 0.2 a.n b.c.d.K m + + - {.+ 1.F x , a n - ^.m a.b e.f.l ,.7.[ + k @ d g.I s 3 , $ m 4.4.&.9.h.#.M i.,.: + + ",
"- t n j.Q / k.l.7 % ; _ + ' D m.Z -.c + T 7.c + &.n.^.>. .+ u - 3 + + o.^.( H E [ z K - 7 n j.w p.-.}.' = p.t + ( D f z A : }.T ",
"E 3 + } F q.=.n 3 ..( d # 8 m ] U Y I 7 5.A - _ = |.r.s.b [ t.u n f # C m ^  .2.a e.H 7.= + J u.S =.+ f = . . < {.m a ].T P [ v.",
"q , C x 1 : + + [ 8 o.d - ; w.4.c 5.x.j Z -.- = c 5 4.+ + + V # + Q f p c 4.h.H ! + H E 6 m , @ ( + + [ D ! ^ - , + 0.V Y I t z ",
"!., L _ % 1 ( + p - x n 7 : ] L c y.x.( d W E f f ( r f + + , - j n u ^ r f }.T ! j n.A - D ' 6 1 ' + ] - % n ' p ! 8 : Z I ( n ",
"3.-.,.U a - ! + a - z.$.u - c x ).+ h.^ , n.Y K A.[ - > + + - , B.] c = - V + q.' , [ C.!.,.[ m - c + m - D.D _ f c = d }.}._ = ",
"j +.q._ + 3 u + Q 7.-.E.) 5 , ;.i C b ..5 ; s.f.* + u x + . - 2.,.} x F.=.x D 2 p - ) ).f.h.( + , j + = F -.& 4.& ! | # p l - L ",
"9 . @ 5 + b | U K H G.j m ! N 7 - x + % - H.+ 5 ^._ + =.+ I.!.Y J.x _ ,.+ c f . j - K.(.u   f + ;.n X K H b.p a 0 z ^ - ! + x - ",
"* ' x 6 ( 1 = W H G.t ^ ( ! N + m J c L.2.M.+ : - C %   h.H H M V _ ( ,.+ 2 N.^.n M.2.k ^ x x j |.m N H C.j ^ . 0 z n 3 O.p P.A ",
"z + 2 ! ] u - + s.).i _ j , N + p - m J.H H + | ).- d 3 c Q.Q.~.5 l , ,.+ + - - + [.H Z + 2 = p : - l s.j # ' V h z + ] - : #.H ",
"$ ) ! [ ] p % ' + f _ n * q R.p . {.n V S.l a @ | c + ..u + u o.[ + 7.T.% + x : ^ l.U.| i V ' p c C 7 + > ^ + (.V.(._ ( f + u n.",
"+ x ] [ 7 4.; - {.&.3 ~.h.s.m ) n L f {.8 u u - + d ] |.j 1 ' [ 1 j n.&.^.] V @ % 4.f + , p 7 [ ^.3 ~.o.9.; , h.=.= 8 n 1 x > L ",
"8.K.f j p ; u 3 4.u p., + 7 ! f m c $...^._ / , = + f x u ; f % ; _ + _ - f ^ > ) 0.= s v {.d m f j , L j > x + *.% ; p ! @ - r ",
"z H q j - 3 + ' = ( x j + 5 {.^ [ [ - 7 ).( H A W.C - ( [ p Q Q p ' u ^.m d + m Q =.] N H I . f = + ^ x ( = . + 0.- ).[ ' - $ ( ",
"e.T X.*.u b C } Y.n $ : % {.| ~.  n 7 ^ [ | 5.Y C.p Z.+ i ^.| n d % , m 7 O.m + . t &.e.H G.t ( b 3 < ] + 2 c % ; $ 0.) n ).t | ",
"Y.].;.5 3 n d ..1 _ + 8 1 1 x > 5 u = _ l 7 s M a 0.d + a r f + ] 1 1 ) ] 5 ; ^ o.l + 3 `.;.0.Y.n d f 1 t + r 1 ^.C 8 4.. o.^ $ ",
"# : + s   ] + = _.l.+ t 6 - c a u [ 8 5 + ) 5 + O 4.0.+ _ - z + 7 m - f ^ m + 3  +t m i ( + , i _ + 6 9 [ + . , - : : ( ^ .+f + ",
"- f + C.++8 y.,.a ^   ' + 6 + ^ x 7 E ++( > f p h.I.8 a T 6 2 L = b ! _ | f [ c ,.u f - 6 + G 6 {.Z q ( p ^.[ ' = + u C t q 0 : ",
", . . $ e._.}.X.T.d ; {.+ ! 7 ^., [ u.` 3 f ] d ^ M @+j #.-.l.Q ^.d ( _ ! # [ u #+C f 6 ).. $ Z $+h.v. .. > , + Q ' @ = d %+&+..",
"| 7 L j l +.( _ +.h.2.6 u 7 c K.i.% *+l.5 _ b = , n s.n ] }.U.:.7.= [ [ .+I : ).W = % w.' ) d b n.u j +.l.K 6 ( 7 x v =+! G ^ p.",
"d }._.) = ' r 6 o.8 T -.-+( > !.@.4.; [ . ' + =+- @ + ..8 k N.R H ;+P x >.Y x |.n . ' + l.0 ^.] . r ++5 K.>+-.,+_ '+-.R.D 3 d ' ",
"|.j d.6 ] ' - X a ^.Q +.n.l.)+q.a F m + 2 4.; n F , + ! 8.h.; D }.n.`.!+v.=.e 6 [ 2 p < d i.6 p . - l.m @ p n.n.*.~+U.c F : n $ ",
"- ^ + #.{+  >.l.( - ^.V n [ _ . z -.c + z 7.Q + ]+ .N.e !++ 3 5 > n + . u + H E [ y.%+f 7 h.C.^+^.,.[ p - @ ^ n 7 _ ^ %.A : + N ",
"h m + ; (.#+S + : ] = ' 8 ] @ ) g H P + Y x.x ^ : = x.C.`.[ Y.3 ( % , ; @ ] -.x.. Z !.6 : + 8 R./+f.+ ] c ! t 8 c @ 8 g.-.8.}.>+",
"q 6 [ > D l | + u ~ u d > 1 =.j 7 X.x.. Z -.- * p i p 2 + + 5 f | % ) ] n _ `.H Q + H E x + L L ;.n + ] ) . . 5 L =._ n [.I *.z ",
"K - ^.c p.0.' + t 6 x [ m 6 u } ..N x.j `.v.6 > ~.= i V + + m 8 + j 3 _ ^.1 l.H ! + 3.x.- t.] 4.5 7 + ^ - Q 7 Q = c |.% v.I t `.",
"[.x.h *.p 4.! + a - .+3 w.j a - a }.I.( ..G A F ` | - ) + + - - $.| d ' f 6 + W a - l.Y q h + ] & : + m - r C w.j m - _ l./.a Y.",
"&.G.G.n t 6 ] + ] 6 2.(+D ^.{.+ ; ' a.c ; j S 5.J.+ C - + d - I _+N.f :+).V % =.. 3 3 s.5.r.+ . , p + Q 6 k.<+4.  ..[ {.+ =.% {.",
"6 $ ; 5 + j + 7 0 2.>+P ! % :.7 > - + % - [+$ ] 1 t ^ 7 + B I H R ; u }+n ! r d j - 8 ! | 8 f + ( + U E A T s ] ++g.^ 5 = + x f ",
"O j > 6 + ; : z H Y c.n m ! N [ ] } u p E q + - - _ a ; }.H H 3.&.c _ ,.+ ' D 5 [ w q d.a ; = + 5 _ N H [.s.d a 0 z 7 % < . ] E ",
"%.+ d 6 C x x U.b.M ) V | w N + C 8 c N H ~++ n c ; ( p.*.q.q.u ) b : ,.+ + ) ; l.H H X [ ' , ] , ! n.b.c.  t [ s z + 3 5 a v.H ",
"]+o.^ ' ] d ; j b ; - 7 m v N + p , ^ ;.r.C.j ..b % n Q x $ ' ^._ + > K + + , m n U.G.h.; [ . p ^ > d b 4.x [ % 7.z + ] 3 t c.G.",
"+ f = d _ L o.j ( ' d _ y.q.Q D n ^.u 4.^ 7 p L + a p } n m d 2 m + Z s.} p ] 0.m 3 ^ + 5 m t j t.C _ . d ^ j ].U.6 4.| i . 4.. ",
"p ; 3 ^ ).f c 8   . ) r n n p - _ x # ; :+: f - ] | = ; :   - !   : n n - = ( r D # 5 c f 3 7 j f : ) @ ' 1 5 n n ] - . , # 8 N.",
"=+k.h t Q 6 7 m - ( - ! + 3 > % u ' f d ! ( |+>.c . - p . 6 Q Q 6 j ^ ) 6 Q + ! ! ).! A.A 6 7 = 3 + ! - ( - c + ; ; ! ( j f [ = ",
"z H -.d.- j u ~.( d d 2 + 3 p u o.[ m j + 7 H H :...: d ; C t . &.+ u x | m.. j m d | N H -.* ..^ ] ; ( ' [ $ + 6 ( m = 7 Q ^ + ",
"*.W s.u + 2 u 5 ) ' + D N.< d D D j [ d ;.+ g.S [ u a.[ , |.u + C N.N.3 m ^.~.| ).;.| t G.9.a Z.$ : r 8 7 + i N.@ 7 1 D t 7 [ ;.",
"< . + 0.} d n % E.d.+ m - f - % x d D ; + ; 4.| C } 3 + j - h + . 6 - ) _ - _ = # 7 u } + + 1 # [ | w D.*.+ Q - p.= 3 % '   x + ",
"; - + @.'+L l.P p d - $ _ , ^ w.' 7 7.w [ - p.( y.F 1 _ !+- c., t | 3 m | ' | ! 1+_ : ; ..+ %+5 ~.l.s j j x 2 a 3 t | d ^ F ++d ",
"- c + M @.s y.~+R.' ) ..n = + {.4.7 E F m > 3 ^ n `.7.( Y ,.[ = @ + u _ t { 7 c ,.u 4.- ] + c.u.% Z )+P.j D ! + % + 0.; t q P % ",
"u $ 5 ^ c.Z n S.W l.E 6 + a ] D W.t *+l.r % $ : o.| q.l.;.r.e.I.- ( ^ . ^.e ^ w.W , 6 j | 4.7 c.z | n.G.*.F x + a % r p ' G d.8 ",
"2 U 6 f p | 4.~.V a H x./ [ 6 K N D s U % $ + ` 3 ; $ : ^.( o. .A 2+a a F -.! 1 e.] j $ t , ; j n 0.- m * H }+E.[ , A z @ P ^ C ",
"L d O ; c t f (.c |.g.X.5.g 1+X.8.6 ! + =.~.m n , > + % s U ^.p.r.X.%.` A n.5 p.[ b V > [ a {.: j - i.= # G X.v.d.>.r.! , m n =.",
"8 ( y.%+e 5 h }.a ; t.d ;.n 3+&.L.!.m + l.w ..+  .>.0., B + - r o.&.$ `.Q.n A F [ [ i.L d ].1.'+> 7.n m {.t.| ;.n +.M =+2.: + l.",
", . + t a h T.}.' m - ^ _ t < ) Z -.8.+ H F ! + [ U '+1.Z + . - C t t 5 |.V H I d N 2.- ' n ^ &+7.v.[ ).C - d _ u < 8 z k.] l.H ",
"I , + @ K.+.&.+ x 5 t ' @ 1 ^ ^ [ [.I *.W !.- u C } y.=.$ [ # a | f < c ^ 7 G !.] h.H F 3 + } ++c.;.+ - {.d j   0.^ ).}.Y I 7 N ",
"x.- f x D 3 + + + {.- 7 , , [ < x v.x.j e.T , - 3 ;   + + + _ i + m - u ; t.y.H ! + v.I , - 3 1 c + + + 4.x *., 3 ^ } m Y I t y.",
"-.h > ^ m ^.] + a - ; j 2 ^ m p.m }.x._ a 5.>., 3 7 > 0.+ + - - = | 7 7 8 - + T.! c ]+!.6 8 + % $._ + m - - ^ w.t ! ; a y.I u j ",
"n.H )+l.u - c + a - 4+  x ) = : _ + c._ , n X.!.g.[ 6 f + + - h 5+; , L ! j t l ' x ( S H ~+[ : - : + m - _+@ % ^.% a ( + M a 3 ",
"c s.k C n Q . [ = I -.e 5 - 0 w.@ x $ x {.0.;.h...+ _ m + _ 6 !.,.^.Q 6+;.3 1 | _ - r a s.a ] n % t [ s x.H > f '+` 7   m | 6 5 ",
"R.( D ; + ).7 y.!.H 3.d m ! N 7 = > ' C , 7++ 8 5 V d ' + /+-.5.M % _ ,.+ a ; m ^ - h P.: ) , + 8+[ z !.H S . a 0 z *.x ; 7 % , ",
"i.7 m 6 a r x C.T J.C ( ' ! N + Y.} c g.!.K + j 6 x C 1 h.[.[.n 3 ).( ,.+ $ } r h.2.!.d.' c 3 u 1 c G T S x ^ d 0 z + o.< a :.-.",
"y.. n p ] . {.d =.a 1 ^ p K.N + p - a U.T v.[ j + 6 + = = =.&.) ..n {.,.+ + , 3 n G.T e.j 2 m p _ {.n =.C ^.d c v z + ] , u `.>+",
"| 0.= d ] 3 = 7 + % [ n d.I.W.o.' 4.d 3 9.l ] t.n Q ^ 8 ^ + u V n + M.C.4.^ % x u _ s.n @ : ^ p f c [ + x + + i.A._.= t 4.7 x Q.",
"7 6 C d + > , 5 D $ 5 0.n ;.: > d {.L f # : ] , ^ | c ^.u |.: ( |._ l 2 5 c _ 1 - ^.4.' , m [ 7 4.% r L b ) > | ;.c ; 7 4.5 {.< ",
"&+4+- . a f j = {._ f 6 + j 6 - m p L m 5 ( ,+h ! [ f ! _ - x ! - _ + % - f ' , {., % 0 F f d m - t 6 p.( ; = + V 3 f a ] r c > ",
"z H K j {.! 7 ( a . ] 7 + > 6 ' ).[ , ' 7 . H -.B x 6 . . j : ] ' 7 p L ( j + : ! b _ N H ,.( {.m d ( ] j : [ + 4.= ' ' d , [ t ",
"]+[.3.[ [ ;.! # ; n | - 4.D &.~ # d 2 d w.| r.G.]+t 9.+ @ N.n n u 4.) : j :+o.| + [ b ]+Y q.7 n ;...< 3 + | {.4.4.;.t.@ 7 w.d b "};
