/* XPM */
static char * player2_xpm[] = {
"64 64 384 2",
"  	c #008214",
". 	c #006D18",
"+ 	c #006719",
"@ 	c #007F14",
"# 	c #008314",
"$ 	c #006B18",
"% 	c #006219",
"& 	c #007217",
"* 	c #007916",
"= 	c #006519",
"- 	c #006F18",
"; 	c #007717",
"> 	c #007A16",
", 	c #007317",
"' 	c #007018",
") 	c #006C19",
"! 	c #007B16",
"~ 	c #007716",
"{ 	c #007A17",
"] 	c #006819",
"^ 	c #007417",
"/ 	c #008514",
"( 	c #007617",
"_ 	c #006818",
": 	c #007616",
"< 	c #007516",
"[ 	c #007E15",
"} 	c #007117",
"| 	c #006A19",
"1 	c #008115",
"2 	c #006A18",
"3 	c #00621A",
"4 	c #007418",
"5 	c #007A15",
"6 	c #006919",
"7 	c #006419",
"8 	c #007816",
"9 	c #007B15",
"0 	c #007318",
"a 	c #006619",
"b 	c #007017",
"c 	c #007517",
"d 	c #006E16",
"e 	c #006E18",
"f 	c #006C18",
"g 	c #006B19",
"h 	c #007817",
"i 	c #006917",
"j 	c #007815",
"k 	c #007C15",
"l 	c #007316",
"m 	c #006918",
"n 	c #007615",
"o 	c #007118",
"p 	c #007216",
"q 	c #007D15",
"r 	c #006718",
"s 	c #006E17",
"t 	c #00651A",
"u 	c #006319",
"v 	c #006D16",
"w 	c #006717",
"x 	c #006A16",
"y 	c #006F16",
"z 	c #006817",
"A 	c #006815",
"B 	c #007416",
"C 	c #007D16",
"D 	c #006E15",
"E 	c #006F17",
"F 	c #006318",
"G 	c #006119",
"H 	c #006617",
"I 	c #006517",
"J 	c #007415",
"K 	c #006B17",
"L 	c #006418",
"M 	c #006518",
"N 	c #006716",
"O 	c #006618",
"P 	c #007016",
"Q 	c #006A17",
"R 	c #006218",
"S 	c #006616",
"T 	c #007218",
"U 	c #006D17",
"V 	c #00611A",
"W 	c #006C15",
"X 	c #007115",
"Y 	c #2F463B",
"Z 	c #353540",
"` 	c #175B26",
" .	c #006D14",
"..	c #007215",
"+.	c #007015",
"@.	c #2F443A",
"#.	c #136823",
"$.	c #006F15",
"%.	c #006915",
"&.	c #006816",
"*.	c #005E1A",
"=.	c #2F3F3A",
"-.	c #3F3E47",
";.	c #85817F",
">.	c #85807F",
",.	c #787474",
"'.	c #57565B",
").	c #44434B",
"!.	c #0D6F1E",
"~.	c #005D19",
"{.	c #006B15",
"].	c #565458",
"^.	c #EEE5DB",
"/.	c #EDE4DA",
"(.	c #D4CDC5",
"_.	c #918D8D",
":.	c #646266",
"<.	c #06711A",
"[.	c #006516",
"}.	c #005E19",
"|.	c #2E4C39",
"1.	c #176A25",
"2.	c #007C16",
"3.	c #007917",
"4.	c #00601A",
"5.	c #2E4A39",
"6.	c #2C5137",
"7.	c #006317",
"8.	c #007515",
"9.	c #2E4539",
"0.	c #EFE6DB",
"a.	c #7B7776",
"b.	c #7E7A79",
"c.	c #736F6F",
"d.	c #545258",
"e.	c #43424A",
"f.	c #333D3E",
"g.	c #246030",
"h.	c #21582E",
"i.	c #1D562B",
"j.	c #136523",
"k.	c #006C16",
"l.	c #006316",
"m.	c #006A15",
"n.	c #00641A",
"o.	c #007915",
"p.	c #EFE6DC",
"q.	c #292A39",
"r.	c #295035",
"s.	c #007914",
"t.	c #007014",
"u.	c #2D4F38",
"v.	c #295234",
"w.	c #007013",
"x.	c #006A14",
"y.	c #2D4B38",
"z.	c #575458",
"A.	c #F1E7DD",
"B.	c #343440",
"C.	c #252737",
"D.	c #31313D",
"E.	c #295034",
"F.	c #006914",
"G.	c #006615",
"H.	c #2D4838",
"I.	c #414049",
"J.	c #8F8B8C",
"K.	c #8F8B8B",
"L.	c #908C8C",
"M.	c #32323E",
"N.	c #4E4C52",
"O.	c #F0E6DC",
"P.	c #DAD2C9",
"Q.	c #928E8E",
"R.	c #414149",
"S.	c #294C34",
"T.	c #008014",
"U.	c #006D15",
"V.	c #005F19",
"W.	c #D8D0C8",
"X.	c #294835",
"Y.	c #007116",
"Z.	c #2C4838",
"`.	c #EEE4DA",
" +	c #294C35",
".+	c #006C17",
"++	c #2C4738",
"@+	c #CBC3BC",
"#+	c #514F54",
"$+	c #555357",
"%+	c #999594",
"&+	c #989493",
"*+	c #878383",
"=+	c #3F3F47",
"-+	c #7D7A7C",
";+	c #46454D",
">+	c #7A7779",
",+	c #295435",
"'+	c #C8C1B9",
")+	c #3B3A44",
"!+	c #7F7C7D",
"~+	c #7C797A",
"{+	c #928D8D",
"]+	c #3E3D46",
"^+	c #797677",
"/+	c #295734",
"(+	c #00681A",
"_+	c #2C4937",
":+	c #295334",
"<+	c #007618",
"[+	c #2B5037",
"}+	c #C9C1BA",
"|+	c #295434",
"1+	c #00631A",
"2+	c #005F1A",
"3+	c #2B5636",
"4+	c #295834",
"5+	c #008015",
"6+	c #007E16",
"7+	c #2B5136",
"8+	c #006D19",
"9+	c #006B16",
"0+	c #2A4A36",
"a+	c #294F35",
"b+	c #006E19",
"c+	c #2A4B36",
"d+	c #2A4E36",
"e+	c #294B35",
"f+	c #007315",
"g+	c #006B14",
"h+	c #2A5035",
"i+	c #295534",
"j+	c #006C14",
"k+	c #7E7A7C",
"l+	c #424149",
"m+	c #817D7E",
"n+	c #48474F",
"o+	c #7B7779",
"p+	c #006916",
"q+	c #007A14",
"r+	c #00661A",
"s+	c #007715",
"t+	c #285234",
"u+	c #393943",
"v+	c #6B686B",
"w+	c #006715",
"x+	c #006F14",
"y+	c #285034",
"z+	c #007414",
"A+	c #007D14",
"B+	c #285B33",
"C+	c #34373F",
"D+	c #275433",
"E+	c #007E14",
"F+	c #285633",
"G+	c #30303C",
"H+	c #33333F",
"I+	c #323C3D",
"J+	c #136324",
"K+	c #04631B",
"L+	c #275233",
"M+	c #636165",
"N+	c #313F3D",
"O+	c #037219",
"P+	c #006515",
"Q+	c #006118",
"R+	c #274F33",
"S+	c #31403D",
"T+	c #037319",
"U+	c #006117",
"V+	c #323E3D",
"W+	c #036F1A",
"X+	c #006417",
"Y+	c #264F32",
"Z+	c #047818",
"`+	c #047519",
" @	c #008215",
".@	c #006E14",
"+@	c #265032",
"@@	c #323F3D",
"#@	c #047019",
"$@	c #006814",
"%@	c #00671A",
"&@	c #255432",
"*@	c #04691B",
"=@	c #006018",
"-@	c #256430",
";@	c #323D3D",
">@	c #04611C",
",@	c #007F15",
"'@	c #005C1A",
")@	c #255E31",
"!@	c #32403D",
"~@	c #04691A",
"{@	c #255531",
"]@	c #05731A",
"^@	c #245231",
"/@	c #333C3E",
"(@	c #056D1A",
"_@	c #245431",
":@	c #333A3E",
"<@	c #05631B",
"[@	c #245B30",
"}@	c #333B3E",
"|@	c #05641C",
"1@	c #007114",
"2@	c #235430",
"3@	c #056B1B",
"4@	c #234F30",
"5@	c #646165",
"6@	c #848182",
"7@	c #06761A",
"8@	c #006019",
"9@	c #23572F",
"0@	c #066F1A",
"a@	c #005D1A",
"b@	c #22642E",
"c@	c #1F5D2C",
"d@	c #205F2D",
"e@	c #23642F",
"f@	c #265632",
"g@	c #284A34",
"h@	c #294736",
"i@	c #2B4937",
"j@	c #2C5038",
"k@	c #2F433B",
"l@	c #31433C",
"m@	c #353640",
"n@	c #06621C",
"o@	c #225E2E",
"p@	c #7E7B7C",
"q@	c #33333E",
"r@	c #1C6629",
"s@	c #007B17",
"t@	c #34383F",
"u@	c #7F7B7C",
"v@	c #59575C",
"w@	c #06701B",
"x@	c #22552F",
"y@	c #186425",
"z@	c #04681A",
"A@	c #067A1A",
"B@	c #21612E",
"C@	c #135F23",
"D@	c #007C14",
"E@	c #06741A",
"F@	c #007714",
"G@	c #117220",
"H@	c #1E662B",
"I@	c #1E5F2B",
"J@	c #1E5A2C",
"K@	c #1E602B",
"L@	c #1E572C",
"M@	c #1E642B",
"N@	c #0A771B",
"O@	c #21532E",
"P@	c #1E5D2B",
"Q@	c #196127",
"R@	c #106122",
"S@	c #0D6B1E",
"T@	c #47464D",
"U@	c #4E4C53",
"V@	c #373641",
"W@	c #09691D",
"X@	c #006416",
"Y@	c #0F6421",
"Z@	c #06651C",
"`@	c #116123",
" #	c #03681B",
".#	c #09621E",
"+#	c #255431",
"@#	c #265832",
"##	c #285134",
"$#	c #295235",
"%#	c #2A5336",
"&#	c #2B4C37",
"*#	c #2E433A",
"=#	c #2F423A",
"-#	c #007518",
";#	c #006415",
">#	c #006217",
",#	c #007F16",
"'#	c #00611B",
")#	c #005E1B",
"  . + @ # $ % & * $ = - ; > * , ' ) ! ~ + , { ] ^ / ( = _ : < + ] ^ > [ - } . , [ | . [ ] ]   1 2 3 4 5 6 7 ' 8 9 ( , ' . [ , 3 ",
"[ 0 a b 9 c ] d e + f + - < . 6 ] + : < g ~ h 6 i j k g 2 l m g ] 6 ^ & + | + } n $ o ! ' a p q ^ r b s _ g + - ^ f 6 6 2 n & a ",
"h o t u v } w x i 2 > ' a e 6 ^ ~ ] y p & > c 6 u z p 2 A d + B 8 ] $ | . C g f D E * 8 E t F y } w x m . ! e a e g ( c 2 d & & ",
") + - a G H = I H r J B 6 $ - 9 , m _ K ~ ^ ] | . 7 L M M N O P j . ] ) > 5 2 r Q & : . + ' = R O M H S m < & ] f T 9 } 6 z U 8 ",
"V = & } t u } o ] 2 W X Y Z Z Z Z Z Z Z Z Z Z Z Z Z Z Z Z Z Z Z Z Z Z Z Z Z Z Z Z Z Z Z Z Z Z ` u 0 b m i  ...b ] } X U ~ d m } ",
"o ] U ~ & f ( } , k +.x @.Z Z Z Z Z Z Z Z Z Z Z Z Z Z Z Z Z Z Z Z Z Z Z Z Z Z Z Z Z Z Z Z Z Z #.. : b c 9 $.%.x 2 v &.s : - 3 *.",
"C $ r E l < l _ e k * = =.Z Z -.;.>.>.>.>.>.>.>.>.>.,.'.'.'.'.'.'.'.'.'.'.'.'.'.'.'.'.'.).Z Z !.< p r ' k 8 % ~.L z M i $.f % *.",
"~ 2 % r } < {.u 6 ^ ( 6 @.Z Z ].^./././././././././.(._._._._._._._._._._._._._._._._._.:.Z Z <.B x F 2 c : + a . 8 & z {.f F [.",
"J } g > : _ }.G e c e g |.Z Z ].^./././././././././.(._._._._._._._._._._._._._._._._._.:.Z Z 1.O }.% ' c . f 2.3., b _ %.U M [.",
"X < 0 8 k b 3 4.6 h 0 6 5.Z Z ].^./././././././././.(._._._._._._._._._._._._._._._._._.:.Z Z 6.e V 4.| * o | ( ^ . ; . %.y r 7.",
"W 8.8 - : ! $ 3 $ ~ c 6 9.Z Z ].^./.0.a.b.b.b.b.b.b.c.d.d.d.d.d.d.d.d.d.d.d.d.d.d.d.d.d.e.Z Z f.g.h.i.j.8 l 6 6 e & * . w k.] 7 ",
"l.m.d r . ; - n.f ~ o.5 5.Z Z ].^./.p.q.Z Z Z Z Z Z Z Z Z Z Z Z Z Z Z Z Z Z Z Z Z Z Z Z Z Z Z Z Z Z Z r.~ s.> T ( , o ) 7 L ) T ",
"a R _ 2 a e 6 7 s ..t.s.u.Z Z ].^./.p.q.Z Z Z Z Z Z Z Z Z Z Z Z Z Z Z Z Z Z Z Z Z Z Z Z Z Z Z Z Z Z Z v...w.9 9 ! b | > f u ^ C ",
"K 2 5 : a + 7 L {.x.S $ y.Z Z z.p.^.A.q.Z Z B.C.C.C.C.C.C.C.C.C.C.q.D.D.D.D.D.D.D.D.D.D.D.D.D.D.Z Z Z E.F.S U } p z ] ; < ] & 8 ",
"_ + , c e ; } H G.S m + H.Z Z I.J.K.L.M.Z Z N.O.0.0.0.0.0.0.0.0.0.P.Q.Q.Q.Q.Q.Q.Q.Q.Q.Q.Q.Q.Q.Q.R.Z Z S.H 2 r m E H 7 ( T.- Q U.",
"L a + e e o & 7 V.2 h g H.Z Z I._._.Q.M.Z Z N.^./././././././././.W._._._._._._._._._._._._._._.I.Z Z X.f h 6 $ Y.w u - h f I G.",
"7 B e a $ - & 6 a - ' 6 Z.Z Z I._._.Q.M.Z Z N.^./././.`.`.`./././.W._._._._._._._._._._._._._._.I.Z Z  +} b r i k..+$ g c g m O ",
"a , ' = ] 8 8 ; c 6 0 ^ ++Z Z I._._.Q.M.Z Z N.^././.@+#+#+$+%+&+&+*+=+=+=+-+_._._.;+=+=+>+_._._.I.Z Z ,+6 ^ & 7 G o ( f > 8 * 2.",
"U B ^ | e ( ' 4 h e ; ^ ++Z Z I._._.Q.M.Z Z N.^././.'+Z Z )+Q._._.!+Z Z Z ~+_._.{+]+Z Z ^+_._._.I.Z Z /+. : & n.] 0 c f B [ * k ",
"w {.D $ , o (+. T ) - $ _+Z Z I._._.Q.M.Z Z N.^././.'+Z Z )+Q._._.!+Z Z Z ~+_._.{+]+Z Z ^+_._._.I.Z Z :+) - | m h c . ] 6 , ] | ",
"M S S m g n.e C <+t 7 e [+Z Z I._._.Q.M.Z Z N.^././.}+Z Z )+Q._._.!+Z Z Z ~+_._.{+]+Z Z ^+_._._.I.Z Z |+7 1+- c * - * > ] ] u 2+",
"& O u B ^ = ] 3.! | n.( 3+Z Z I._._.Q.M.Z Z ]+J.K.K.>+Z Z )+Q._._.!+Z Z Z ~+_._.{+]+Z Z ^+_._._.I.Z Z 4++ 7 8 5+6+, > > f T 6 *.",
"1 ' = , q b a } & r + g 7+Z Z I._._.Q.M.Z Z ]+{+_._.~+Z Z )+Q._._.!+Z Z Z ~+_._.{+]+Z Z ^+_._._.I.Z Z v.a + f ( 8 - e 8+f 8 ^ = ",
"! , = O l < z 9+K 2 h f 0+Z Z I._._.Q.M.Z Z ]+{+_._.~+Z Z )+Q._._.!+Z Z Z ~+_._.{+]+Z Z ^+_._._.I.Z Z a+. ; | ] - 6 b+b+m X l . ",
"& ) ] G M .+M S I r ~ c c+Z Z I._._.Q.M.Z Z ]+{+_._.~+Z Z )+Q._._.!+Z Z Z ~+_._.{+]+Z Z ^+_._._.I.Z Z S.2 j , + $ f > T _ K E c ",
"3 + c f % % | m L r $.l d+Z Z I._._.Q.M.Z Z ]+{+_._.~+Z Z )+Q._._.!+Z Z Z ~+_._.{+]+Z Z ^+_._._.I.Z Z e+_ $.f+$ 6 & 8.s E i 2 ^ ",
"] a p * - m : , , ~ U.g+h+Z Z I._._.Q.M.Z Z ]+{+_._.~+Z Z )+Q._._.!+Z Z Z ~+_._.{+]+Z Z ^+_._._.I.Z Z i+n j+j+y $ p U.d * & = a ",
"[ f m p } e B $ } q l F X.Z Z I._._.Q.M.Z Z ]+{+_._.k+l+l+;+Q._._.m+l+l+l+k+_._._.n+l+l+o+_._._.I.Z Z :+q Y.R G = p+I . l . 3 *.",
"o.2 u Q 8.q+P M | h 9 $ e+Z Z I._._.Q.M.Z Z ]+{+_._._._._._._._._._._._._._._._._._._._._._._._.I.Z Z r.* 9 m u a f 2 i W $ u 7.",
"< e r+, l v 7.G g T & ) ,+Z Z I._._.Q.M.Z Z ]+{+_._._._._._._._._._._._._._._._._._._._._._._._.I.Z Z r.^ & $ ( ^ > : z x.U M G.",
".., . * 9 m 2+V ) h e ] /+Z Z I._._.Q.M.Z Z ]+{+_._._._._._._._._._._._._._._._._._._._._._._._.I.Z Z r.8 . 2 * * 8+- r A d M 7.",
"$.s+> c > * ] V ] ( , m t+Z Z I._._.Q.M.Z Z u+v+v+v+v+v+v+v+v+v+v+v+v+v+v+v+v+v+v+v+v+v+v+v+v+v+)+Z Z a+; } 6 - & T k b p+v a % ",
"w+x+l m E > - n.$ ~ 9 c y+Z Z I._._.Q.M.Z Z Z Z Z Z Z Z Z Z Z Z Z Z Z Z Z Z Z Z Z Z Z Z Z Z Z Z Z Z Z r.~ 5 0 | e T ( e = i f ' ",
"G I p+a r } f n.. l z+A+B+Z Z I._._.Q.M.Z Z Z Z Z Z Z Z Z Z Z Z Z Z Z Z Z Z Z Z Z Z Z Z Z Z Z Z Z Z C+D+B z+E+! 2., f 0 r+G b 3.",
". r < c a 6 t 7 d U.m.Y.F+Z Z I._._.Q.G+H+H+H+H+H+H+H+H+H+H+H+H+H+H+H+H+H+H+H+H+H+H+H+H+B.Z Z I+J+K+= d j+m.l , B Q m ~ 0 r+} * ",
"2 6 ( < | T . M w+G.L = L+Z Z I._._._.K.K.K.K.K.K.K.K.K.K.K.K.K.K.K.K.K.K.K.K.K.K.K.K.K.M+Z Z N+O+2 I A P+M + $ y H = ( [ . U ..",
"L = 6 } ' 0 } L Q+r c $ R+Z Z I._._._._._._._._._._._._._._._._._._._._._._._._._._._._.:.Z Z S+T+b F U+z ~ 6 ] P O 7 0 > . N F.",
"u - m ] f - ^ ] u ' , 6 L+Z Z I._._._._._._._._._._._._._._._._._._._._._._._._._._._._.:.Z Z V+W+^ = 3 & , + f E i r e ( 6 L X+",
"a ^ o a g h ( e ) | g $ Y+Z Z I._._._._._._._._._._._._._._._._._._._._._._._._._._._._.:.Z Z V+Z+^ e g | f 2 M L } < f > , ( b ",
"$ < ^ _ | ( , 8 ! E * 8 Y+Z Z I._._._._._._._._._._._._._._._._._._._._._._._._._._._._.:.Z Z V+`+o > 2.e { ( 7 = o c ) ; 5+6+ @",
"z .@X 2 - & g , c . ^ ' +@Z Z I._._._._._._._._._._._._._._._._._._._._._._._._._._._._.:.Z Z @@#@| ^ ( . 4 e a & c o g . ( b+, ",
"I $@%.Q } | $ ; b a a %@&@Z Z I._._._._._._._._._._._._._._._._._._._._._._._._._._._._.:.Z Z V+*@. ( - r+= r f c - 0 T ] f = 3 ",
"Q I =@) g 1+| > * ] t 8 -@Z Z I._._._._._._._._._._._._._._._._._._._._._._._._._._._._.:.Z Z ;@>@f ! 8 = = 2.# ,@' 2.! 2 6 n.'@",
",@f = 8 [ g = , ~ 2 a ' )@Z Z I._._._._._._._._._._._._._._._._._._._._._._._._._._._._.:.Z Z !@~@a < s++ a } > 5 & ^ & ) * o 3 ",
"C , 7 .+o.; m d . 6 } 6 {@Z Z I._._._._._._._._._._._._._._._._._._._._._._._._._._._._.:.Z Z @@]@_ s f | ' + f & m + ] m J , %@",
"c - a % Q E O N w 6 * & ^@Z Z I._._._._._._._._._._._._._._._._._._._._._._._._._._._._.:.Z Z /@(@I N w $ * - + . g 8 , m v } & ",
"6 + , 2 % L M F I r p l _@Z Z I._._._._._._._._._._._._._._._._._._._._._._._._._._._._.:.Z Z :@<@= L I _ f+p 6 $ , 5 b 2 z .+8 ",
"n.a B c 2 a c ^ e E {.$.[@Z Z I._._._._._._._._._._._._._._._._._._._._._._._._._._._._.:.Z Z }@|@( , E s W 1@Y.2 p $.U * P _ e ",
"; 6 f < } f : b & q +.A 2@Z Z I._._._._._._._._._._._._._._._._._._._._._._._._._._._._.:.Z Z }@3@: E ^ k D N N w 9+S s : - 3 *.",
"> 2 M v < 8 p r . > ! _ 4@Z Z I._._.Q.5@:.:.:.:.:.:.:.:.:.:.:.:.:.:.:.:.:.6@_._._._._._.:.Z Z /@7@p O e ! ! = *.3 O = i U.$ 3 8@",
": $ u $ } Y.i u 6 0 c 6 9@Z Z I._._.Q.M.Z Z Z Z Z Z Z Z Z Z Z Z Z Z Z Z Z ~+_._._._._._.:.Z Z }@0@z % | ^ ^ ] g ' { ^ z {..+M G.",
"f+& ) > 8 O a@V - ; . | b@Z Z I._._.Q.M.Z Z |+c@d@e@f@g@h@i@j@5.k@l@m@Z Z ~+_._._._._._.:.Z Z /@n@a@3 o ; g f q 2.' 8+O %.s M [.",
"1@n ; 8 k ^ 7 4.6 h ^ | o@Z Z ]+k+-+p@q@Z Z r@; ( s@2.m 2+3 , ! 2 b+t@Z Z ~+_._._.u@-+-+v@Z Z f.w@% 4.| * & | ^ , - k E %.$.+ F ",
"g+J : . 0 9 e 1+$ ~ 8 e x@Z Z Z Z Z Z Z Z Z y@< & ) > * = 1+^ > , z@C+Z Z ~+_._.{+]+Z Z Z Z Z /@A@g 3 . 8 : f ] f & h . O .+| ] ",
"7.A 9+O $ c b+t . : s+k B@Z Z Z Z Z Z Z Z Z C@9+Q a , ( 7 = B s+D@7@t@Z Z ~+_._.{+]+Z Z Z Z Z :@E@f 7 - n F@k ; > l e . 7 % . ^ ",
"m L .+. a ) + 7 E X  .s+G@H@I@J@H@K@L@K@H@M@n@_ } a 6 ) 7 6 Y..@..N@t@Z Z ~+_._.{+]+Z Z O@P@Q@R@f a = P +..@j * * s g * E 7 & ! ",
"i 2 * ( + 6 a L m.%.I _ - } z a c 5 g - : f++ ^ * 8+] 6 u N x.S r S@C+Z Z T@U@U@U@V@Z Z W@* ^ + | = I m.$@I 6 e Y.w + ~ h 2 } ~ ",
"w a - , e : & M X@w e 6 6 E w u T 5+& z W {.7 g ^ & o ~ _ X@[.i e Y@m@Z Z Z Z Z Z Z Z Z Z@' , - ; ' I [.w ' ] m E H 7 c ,@- &.g+",
"L 6 + $ e b ^ = 2+f ; 2 $ p i = . 8 U M [.[.= 6 ] b $ ^ . }.u c o `@m@Z Z Z Z Z Z Z Z Z  #r+$ . T ^ u V.- ~ 6 f Y.z = - h g L P+",
"= ( ' a f ^ 4 6 + f ) + r Q U } ) ; - - = % s h _ $ f ~ f + 6 . 2 .#9@+#@###$#%#&#H.*#=#8 e + f c T ] %@e ) a _ i y - g ; b+e r ",
"+ c & a + ~ ( h 8 f ( : n.G E c 8+h ! > 2.e } : 2 n.o 9 & k o - > f G a 8 o - k > k : f : ' t 6 h ^ > 8 g h c 7 % ' c g * ! ! 5+",
".+..B 2 e c e , ~ e ( , n.m ^ ^ e ' > -#; e J J s 6 ^ & e : , & c 2 n.b : , | : * : ^ P f+, ] - ^ f ^ 8 . ( } n.g 4 c f T ! c > ",
"H m.{.2 T - m - - 6 ) 6 | ( B e ) ] - ] t O m.{.K - b | . ' . g 6 6 E ; ' - ] f e = a z x.k.| o e | ' ' 6 g 6 g ; 0 e $ ] o + a ",
"=@;#>#% n.3 o 5+; 7 7 , 2.2.g { ,#] '#V )#V.7.l.R = 4.a [ 1 ] 3 g 3.C T e 5+-#7 V 2+a@=@P+7.% 1+3 4 5+c 7 7 c 2.> f 2.C + V V '@"};
