/* XPM */
static char * player4_xpm[] = {
"64 64 397 2",
"  	c #008214",
". 	c #006D18",
"+ 	c #006719",
"@ 	c #007F14",
"# 	c #008314",
"$ 	c #006B18",
"% 	c #006219",
"& 	c #007217",
"* 	c #007916",
"= 	c #006519",
"- 	c #006F18",
"; 	c #007717",
"> 	c #007A16",
", 	c #007317",
"' 	c #007018",
") 	c #006C19",
"! 	c #007B16",
"~ 	c #007716",
"{ 	c #007A17",
"] 	c #006819",
"^ 	c #007417",
"/ 	c #008514",
"( 	c #007617",
"_ 	c #006818",
": 	c #007616",
"< 	c #007516",
"[ 	c #007E15",
"} 	c #007117",
"| 	c #006A19",
"1 	c #008115",
"2 	c #006A18",
"3 	c #00621A",
"4 	c #007418",
"5 	c #007A15",
"6 	c #006919",
"7 	c #006419",
"8 	c #007816",
"9 	c #007B15",
"0 	c #007318",
"a 	c #006619",
"b 	c #007017",
"c 	c #007517",
"d 	c #006E16",
"e 	c #006E18",
"f 	c #006C18",
"g 	c #006B19",
"h 	c #007817",
"i 	c #006917",
"j 	c #007815",
"k 	c #007C15",
"l 	c #007316",
"m 	c #006918",
"n 	c #007615",
"o 	c #007118",
"p 	c #007216",
"q 	c #007D15",
"r 	c #006718",
"s 	c #006E17",
"t 	c #00651A",
"u 	c #006319",
"v 	c #006D16",
"w 	c #006717",
"x 	c #006A16",
"y 	c #006F16",
"z 	c #006817",
"A 	c #006815",
"B 	c #007416",
"C 	c #007D16",
"D 	c #006E15",
"E 	c #006F17",
"F 	c #006318",
"G 	c #006119",
"H 	c #006617",
"I 	c #006517",
"J 	c #007415",
"K 	c #006B17",
"L 	c #006418",
"M 	c #006518",
"N 	c #006716",
"O 	c #006618",
"P 	c #007016",
"Q 	c #006A17",
"R 	c #006218",
"S 	c #006616",
"T 	c #007218",
"U 	c #006D17",
"V 	c #00611A",
"W 	c #006C15",
"X 	c #007115",
"Y 	c #285434",
"Z 	c #284E34",
"` 	c #285334",
" .	c #285433",
"..	c #285234",
"+.	c #285834",
"@.	c #284B34",
"#.	c #285134",
"$.	c #285534",
"%.	c #284F34",
"&.	c #285533",
"*.	c #285034",
"=.	c #285333",
"-.	c #285634",
";.	c #284C34",
">.	c #284D34",
",.	c #264F32",
"'.	c #02621A",
").	c #006D14",
"!.	c #007215",
"~.	c #007015",
"{.	c #353540",
"].	c #323F3D",
"^.	c #046C1A",
"/.	c #006F15",
"(.	c #006915",
"_.	c #006816",
":.	c #005E1A",
"<.	c #2F303C",
"[.	c #2F2F3C",
"}.	c #33333F",
"|.	c #343440",
"1.	c #32403D",
"2.	c #047418",
"3.	c #005D19",
"4.	c #006B15",
"5.	c #353640",
"6.	c #E0D7CE",
"7.	c #EAE1D7",
"8.	c #EBE2D8",
"9.	c #8E8A8A",
"0.	c #8F8B8B",
"a.	c #636165",
"b.	c #31413D",
"c.	c #037318",
"d.	c #006516",
"e.	c #005E19",
"f.	c #34373F",
"g.	c #E3DAD1",
"h.	c #EDE4DA",
"i.	c #EEE5DB",
"j.	c #8F8C8C",
"k.	c #918D8D",
"l.	c #646266",
"m.	c #31423C",
"n.	c #03651A",
"o.	c #007C16",
"p.	c #007917",
"q.	c #00601A",
"r.	c #34383F",
"s.	c #31443C",
"t.	c #036D1A",
"u.	c #006317",
"v.	c #007515",
"w.	c #ECE3D9",
"x.	c #908C8C",
"y.	c #646265",
"z.	c #31433C",
"A.	c #037918",
"B.	c #01691A",
"C.	c #01621B",
"D.	c #006C16",
"E.	c #006316",
"F.	c #006A15",
"G.	c #00641A",
"H.	c #007915",
"I.	c #34393F",
"J.	c #EFE6DC",
"K.	c #1B1E32",
"L.	c #2B2C3A",
"M.	c #32333E",
"N.	c #32323E",
"O.	c #34343F",
"P.	c #333D3E",
"Q.	c #333B3E",
"R.	c #333A3E",
"S.	c #146624",
"T.	c #007914",
"U.	c #007014",
"V.	c #343A3F",
"W.	c #292A39",
"X.	c #166625",
"Y.	c #007013",
"Z.	c #006A14",
"`.	c #176225",
" +	c #006914",
".+	c #006615",
"++	c #33343F",
"@+	c #C8C1BA",
"#+	c #D1C9C2",
"$+	c #D2CBC3",
"%+	c #2D2D3B",
"&+	c #403F47",
"*+	c #9E9994",
"=+	c #9E9894",
"-+	c #908B89",
";+	c #656266",
">+	c #3A3A44",
",+	c #195C26",
"'+	c #008014",
")+	c #006D15",
"!+	c #005F19",
"~+	c #33393F",
"{+	c #8B8788",
"]+	c #928E8E",
"^+	c #4E4C52",
"/+	c #D8D0C8",
"(+	c #414049",
"_+	c #1A5528",
":+	c #007116",
"<+	c #1B5A29",
"[+	c #006C17",
"}+	c #E1D9CF",
"|+	c #E1D9D0",
"1+	c #E5DCD3",
"2+	c #D0C9C1",
"3+	c #8A8687",
"4+	c #8F8B8C",
"5+	c #1C642A",
"6+	c #7F7C7D",
"7+	c #7C797A",
"8+	c #827F80",
"9+	c #797577",
"0+	c #1D682A",
"a+	c #00681A",
"b+	c #2D2E3B",
"c+	c #3B3A44",
"d+	c #797677",
"e+	c #1E622B",
"f+	c #007618",
"g+	c #1F612B",
"h+	c #00631A",
"i+	c #005F1A",
"j+	c #33403E",
"k+	c #44434B",
"l+	c #BBB5B0",
"m+	c #BBB4AF",
"n+	c #BCB6B1",
"o+	c #31313D",
"p+	c #1F672B",
"q+	c #008015",
"r+	c #007E16",
"s+	c #323E3E",
"t+	c #3E3D46",
"u+	c #928D8D",
"v+	c #33333E",
"w+	c #205E2D",
"x+	c #006D19",
"y+	c #006B16",
"z+	c #323C3D",
"A+	c #23582F",
"B+	c #006E19",
"C+	c #295633",
"D+	c #323E3D",
"E+	c #32583B",
"F+	c #007315",
"G+	c #006B14",
"H+	c #476C4C",
"I+	c #006C14",
"J+	c #4E6E54",
"K+	c #006916",
"L+	c #007A14",
"M+	c #313D3D",
"N+	c #878484",
"O+	c #888485",
"P+	c #8E8A8B",
"Q+	c #8D8A8A",
"R+	c #556F5A",
"S+	c #00661A",
"T+	c #5B725F",
"U+	c #405E47",
"V+	c #007715",
"W+	c #31413C",
"X+	c #3E3D47",
"Y+	c #938F8F",
"Z+	c #414149",
"`+	c #445E49",
" @	c #006715",
".@	c #006F14",
"+@	c #31403C",
"@@	c #47604C",
"#@	c #007414",
"$@	c #007D14",
"%@	c #31453C",
"&@	c #49614E",
"*@	c #007E14",
"=@	c #758278",
"-@	c #30423C",
";@	c #4C4A51",
">@	c #4E4C53",
",@	c #403F48",
"'@	c #2E4A39",
")@	c #21542E",
"!@	c #3E6F43",
"~@	c #006515",
"{@	c #006118",
"]@	c #30413B",
"^@	c #323D3D",
"/@	c #04721A",
"(@	c #006117",
"_@	c #30423B",
":@	c #323C3E",
"<@	c #056E1B",
"[@	c #006417",
"}@	c #30403B",
"|@	c #333C3E",
"1@	c #057719",
"2@	c #05741A",
"3@	c #008215",
"4@	c #006E14",
"5@	c #056F1A",
"6@	c #006814",
"7@	c #00671A",
"8@	c #2F443B",
"9@	c #05681C",
"0@	c #006018",
"a@	c #2F4C3A",
"b@	c #05611D",
"c@	c #007F15",
"d@	c #005C1A",
"e@	c #2F493A",
"f@	c #333E3E",
"g@	c #05681B",
"h@	c #2F443A",
"i@	c #05731A",
"j@	c #2F433A",
"k@	c #066D1A",
"l@	c #33393E",
"m@	c #06621B",
"n@	c #2E483A",
"o@	c #06641C",
"p@	c #007114",
"q@	c #2E443A",
"r@	c #066B1B",
"s@	c #2E423A",
"t@	c #656366",
"u@	c #06761A",
"v@	c #006019",
"w@	c #2E4639",
"x@	c #7C787A",
"y@	c #827E7F",
"z@	c #066F1A",
"A@	c #005D1A",
"B@	c #2E4E39",
"C@	c #06621C",
"D@	c #2E4B39",
"E@	c #2E4C39",
"F@	c #096B1E",
"G@	c #7D797B",
"H@	c #837F80",
"I@	c #265B31",
"J@	c #285833",
"K@	c #295635",
"L@	c #295835",
"M@	c #04711A",
"N@	c #2D4639",
"O@	c #373742",
"P@	c #373741",
"Q@	c #2E463A",
"R@	c #0E6420",
"S@	c #363641",
"T@	c #2D4D38",
"U@	c #007C14",
"V@	c #117220",
"W@	c #007714",
"X@	c #2D4F38",
"Y@	c #137221",
"Z@	c #2D4A38",
"`@	c #898686",
" #	c #294D35",
".#	c #116D21",
"+#	c #117121",
"@#	c #0E6821",
"##	c #017018",
"$#	c #096B1B",
"%#	c #0B6120",
"&#	c #0D691F",
"*#	c #0F751F",
"=#	c #116A22",
"-#	c #176126",
";#	c #1D6429",
">#	c #225F2D",
",#	c #21592E",
"'#	c #006416",
")#	c #2D4838",
"!#	c #2D4938",
"~#	c #2A4B35",
"{#	c #2D4738",
"]#	c #2E4839",
"^#	c #30433B",
"/#	c #31403D",
"(#	c #265532",
"_#	c #007518",
":#	c #006415",
"<#	c #006217",
"[#	c #007F16",
"}#	c #00611B",
"|#	c #005E1B",
"  . + @ # $ % & * $ = - ; > * , ' ) ! ~ + , { ] ^ / ( = _ : < + ] ^ > [ - } . , [ | . [ ] ]   1 2 3 4 5 6 7 ' 8 9 ( , ' . [ , 3 ",
"[ 0 a b 9 c ] d e + f + - < . 6 ] + : < g ~ h 6 i j k g 2 l m g ] 6 ^ & + | + } n $ o ! ' a p q ^ r b s _ g + - ^ f 6 6 2 n & a ",
"h o t u v } w x i 2 > ' a e 6 ^ ~ ] y p & > c 6 u z p 2 A d + B 8 ] $ | . C g f D E * 8 E t F y } w x m . ! e a e g ( c 2 d & & ",
") + - a G H = I H r J B 6 $ - 9 , m _ K ~ ^ ] | . 7 L M M N O P j . ] ) > 5 2 r Q & : . + ' = R O M H S m < & ] f T 9 } 6 z U 8 ",
"V = & } t u } o ] 2 W X Y Z `  ...+.` Z ` Z @.#.$...@.%.$.%.#.#. .&.%.*.&.=.Y -.%.#.#.;.>.$.` ,.'.0 b m i ).!.b ] } X U ~ d m } ",
"o ] U ~ & f ( } , k ~.x {.{.{.{.{.{.{.{.{.{.{.{.{.{.{.{.{.{.{.{.{.{.{.{.{.{.{.{.{.{.{.{.{.{.{.].^.: b c 9 /.(.x 2 v _.s : - 3 :.",
"C $ r E l < l _ e k * = {.{.{.<.[.[.[.[.[.[.[.[.[.[.}.}.}.}.}.}.}.}.}.}.}.}.}.}.}.}.}.}.|.{.{.1.2.p r ' k 8 % 3.L z M i /.f % :.",
"~ 2 % r } < 4.u 6 ^ ( 6 5.{.}.6.7.7.7.7.7.7.7.7.7.8.9.0.0.0.0.0.0.0.0.0.0.0.0.0.0.0.0.0.a.{.{.b.c.x F 2 c : + a . 8 & z 4.f F d.",
"J } g > : _ e.G e c e g f.{.}.g.h.h.h.h.h.h.h.h.h.i.j.k.k.k.k.k.k.k.k.k.k.k.k.k.k.k.k.k.l.{.{.m.n.e.% ' c . f o.p., b _ (.U M d.",
"X < 0 8 k b 3 q.6 h 0 6 r.{.}.g.h.h.h.h.h.h.h.h.h.i.j.k.k.k.k.k.k.k.k.k.k.k.k.k.k.k.k.k.l.{.{.s.t.V q.| * o | ( ^ . ; . (.y r u.",
"W v.8 - : ! $ 3 $ ~ c 6 f.{.}.g.h.h.h.w.w.w.w.w.w.h.0.x.x.x.x.x.x.x.x.x.x.x.x.x.x.x.x.x.y.{.{.z.A.B.C.f 8 l 6 6 e & * . w D.] 7 ",
"E.F.d r . ; - G.f ~ H.5 I.{.}.g.h.h.J.K.L.L.L.L.L.L.M.N.N.N.N.N.N.N.N.N.N.N.N.N.N.N.N.N.O.{.{.5.P.Q.R.S.~ T.> T ( , o ) 7 L ) T ",
"a R _ 2 a e 6 7 s !.U.T.V.{.}.g.h.h.J.W.{.{.{.{.{.{.{.{.{.{.{.{.{.{.{.{.{.{.{.{.{.{.{.{.{.{.{.{.{.{.{.X.!.Y.9 9 ! b | > f u ^ C ",
"K 2 5 : a + 7 L 4.Z.S $ I.{.}.g.h.h.J.W.{.{.{.{.{.{.{.{.{.{.{.{.{.{.{.{.{.{.{.{.{.{.{.{.{.{.{.{.{.{.{.`. +S U } p z ] ; < ] & 8 ",
"_ + , c e ; } H .+S m + I.{.++@+#+#+$+%+{.{.&+*+=+=+=+=+=+=+=+=+=+-+l.l.l.l.l.l.l.l.l.l.l.l.l.;+>+{.{.,+H 2 r m E H 7 ( '+- Q )+",
"L a + e e o & 7 !+2 h g ~+{.|.{+k.k.]+N.{.{.^+i.h.h.h.h.h.h.h.h.h./+k.k.k.k.k.k.k.k.k.k.k.k.k.k.(+{.{._+f h 6 $ :+w u - h f I .+",
"7 B e a $ - & 6 a - ' 6 R.{.|.{+k.k.]+N.{.{.^+i.h.h.h.h.h.h.h.h.h./+k.k.k.k.k.k.k.k.k.k.k.k.k.k.(+{.{.<+} b r i D.[+$ g c g m O ",
"a , ' = ] 8 8 ; c 6 0 ^ R.{.|.{+k.k.]+N.{.{.^+i.h.h.}+|+|+|+1+1+1+2+3+3+3+0.k.k.4+3+3+3+0.k.k.k.(+{.{.5+6 ^ & 7 G o ( f > 8 * o.",
"U B ^ | e ( ' 4 h e ; ^ R.{.|.{+k.k.]+N.{.{.^+i.h.J.%+{.{.>+]+k.k.6+{.{.{.7+k.k.8+{.{.{.9+k.k.k.(+{.{.0+. : & G.] 0 c f B [ * k ",
"w 4.D $ , o a+. T ) - $ Q.{.|.{+k.k.]+N.{.{.^+i.h.J.b+{.{.c+]+k.k.6+{.{.{.7+k.k.8+{.{.{.d+k.k.k.(+{.{.e+) - | m h c . ] 6 , ] | ",
"M S S m g G.e C f+t 7 e P.{.|.{+k.k.]+N.{.{.^+i.h.J.b+{.{.c+]+k.k.6+{.{.{.7+k.k.8+{.{.{.d+k.k.k.(+{.{.g+7 h+- c * - * > ] ] u i+",
"& O u B ^ = ] p.! | G.( j+{.|.{+k.k.]+N.{.{.k+l+m+n+o+{.{.c+]+k.k.6+{.{.{.7+k.k.8+{.{.{.d+k.k.k.(+{.{.p++ 7 8 q+r+, > > f T 6 :.",
"1 ' = , q b a } & r + g s+{.|.{+k.k.]+N.{.{.t+u+k.]+v+{.{.c+]+k.k.6+{.{.{.7+k.k.8+{.{.{.d+k.k.k.(+{.{.w+a + f ( 8 - e x+f 8 ^ = ",
"! , = O l < z y+K 2 h f z+{.|.{+k.k.]+N.{.{.t+u+k.]+v+{.{.c+]+k.k.6+{.{.{.7+k.k.8+{.{.{.d+k.k.k.(+{.{.A+. ; | ] - 6 B+B+m X l . ",
"& ) ] G M [+M S I r ~ c z+{.|.{+k.k.]+N.{.{.t+u+k.]+v+{.{.c+]+k.k.6+{.{.{.7+k.k.8+{.{.{.d+k.k.k.(+{.{.C+2 j , + $ f > T _ K E c ",
"3 + c f % % | m L r /.l D+{.|.{+k.k.]+N.{.{.t+u+k.]+v+{.{.c+]+k.k.6+{.{.{.7+k.k.8+{.{.{.d+k.k.k.(+{.{.E+_ /.F+$ 6 & v.s E i 2 ^ ",
"] a p * - m : , , ~ )+G+].{.|.{+k.k.]+N.{.{.t+u+k.]+v+{.{.c+]+k.k.6+{.{.{.7+k.k.8+{.{.{.d+k.k.k.(+{.{.H+n I+I+y $ p )+d * & = a ",
"[ f m p } e B $ } q l F z+{.|.{+k.k.]+N.{.{.t+u+k.]+v+{.{.c+]+k.k.6+{.{.{.7+k.k.8+{.{.{.d+k.k.k.(+{.{.J+q :+R G = K+I . l . 3 :.",
"H.2 u Q v.L+P M | h 9 $ M+{.|.{+k.k.]+N.{.{.t+u+k.k.N+N+N+O+k.k.k.P+N+N+N+9.k.k.0.N+N+N+Q+k.k.k.(+{.{.R+* 9 m u a f 2 i W $ u u.",
"< e S+, l v u.G g T & ) m.{.|.{+k.k.]+N.{.{.t+u+k.k.k.k.k.k.k.k.k.k.k.k.k.k.k.k.k.k.k.k.k.k.k.k.(+{.{.T+^ & $ ( ^ > : z Z.U M .+",
"!., . * 9 m i+V ) h e ] z.{.|.{+k.k.]+N.{.{.t+u+k.k.k.k.k.k.k.k.k.k.k.k.k.k.k.k.k.k.k.k.k.k.k.k.(+{.{.U+8 . 2 * * x+- r A d M u.",
"/.V+> c > * ] V ] ( , m W+{.|.{+k.k.]+N.{.{.X+Y+]+]+]+]+]+]+]+]+]+]+]+]+]+]+]+]+]+]+]+]+]+]+]+]+Z+{.{.`+; } 6 - & T k b K+v a % ",
" @.@l m E > - G.$ ~ 9 c +@{.|.{+k.k.]+N.{.{.{.o+o+o+o+o+o+o+o+o+o+o+o+o+o+o+o+o+o+o+o+o+o+o+o+o+{.{.{.@@~ 5 0 | e T ( e = i f ' ",
"G I K+a r } f G.. l #@$@%@{.|.{+k.k.]+N.{.{.{.{.{.{.{.{.{.{.{.{.{.{.{.{.{.{.{.{.{.{.{.{.{.{.{.{.{.{.{.&@B #@*@! o., f 0 S+G b p.",
". r < c a 6 t 7 d )+F.:+z.{.|.{+k.k.]+N.{.{.{.{.{.{.{.{.{.{.{.{.{.{.{.{.{.{.{.{.{.{.{.{.{.{.{.{.{.{.{.=@I+F.l , B Q m ~ 0 S+} * ",
"2 6 ( < | T . M  @.+L = -@{.|.{+k.k.]+;@>@>@>@>@>@>@>@>@>@>@>@>@>@>@>@>@>@>@>@>@>@>@>@>@,@{.{.5.'@*.)@!@~@M + $ y H = ( [ . U !.",
"L = 6 } ' 0 } L {@r c $ ]@{.|.{+k.k.k.k.k.k.k.k.k.k.k.k.k.k.k.k.k.k.k.k.k.k.k.k.k.k.k.k.l.{.{.^@/@b F (@z ~ 6 ] P O 7 0 > . N  +",
"u - m ] f - ^ ] u ' , 6 _@{.|.{+k.k.k.k.k.k.k.k.k.k.k.k.k.k.k.k.k.k.k.k.k.k.k.k.k.k.k.k.l.{.{.:@<@^ = 3 & , + f E i r e ( 6 L [@",
"a ^ o a g h ( e ) | g $ }@{.|.{+k.k.k.k.k.k.k.k.k.k.k.k.k.k.k.k.k.k.k.k.k.k.k.k.k.k.k.k.l.{.{.|@1@^ e g | f 2 M L } < f > , ( b ",
"$ < ^ _ | ( , 8 ! E * 8 ]@{.|.{+k.k.k.k.k.k.k.k.k.k.k.k.k.k.k.k.k.k.k.k.k.k.k.k.k.k.k.k.l.{.{.|@2@o > o.e { ( 7 = o c ) ; q+r+3@",
"z 4@X 2 - & g , c . ^ ' ]@{.|.{+k.k.k.k.k.k.k.k.k.k.k.k.k.k.k.k.k.k.k.k.k.k.k.k.k.k.k.k.l.{.{.P.5@| ^ ( . 4 e a & c o g . ( B+, ",
"I 6@(.Q } | $ ; b a a 7@8@{.|.{+k.k.k.k.k.k.k.k.k.k.k.k.k.k.k.k.k.k.k.k.k.k.k.k.k.k.k.k.l.{.{.|@9@. ( - S+= r f c - 0 T ] f = 3 ",
"Q I 0@) g h+| > * ] t 8 a@{.|.{+k.k.k.k.k.k.k.k.k.k.k.k.k.k.k.k.k.k.k.k.k.k.k.k.k.k.k.k.l.{.{.Q.b@f ! 8 = = o.# c@' o.! 2 6 G.d@",
"c@f = 8 [ g = , ~ 2 a ' e@{.|.{+k.k.k.k.k.k.k.k.k.k.k.k.k.k.k.k.k.k.k.k.k.k.k.k.k.k.k.k.l.{.{.f@g@a < V++ a } > 5 & ^ & ) * o 3 ",
"C , 7 [+H.; m d . 6 } 6 h@{.|.{+k.k.k.k.k.k.k.k.k.k.k.k.k.k.k.k.k.k.k.k.k.k.k.k.k.k.k.k.l.{.{.P.i@_ s f | ' + f & m + ] m J , 7@",
"c - a % Q E O N w 6 * & j@{.|.{+k.k.k.k.k.k.k.k.k.k.k.k.k.k.k.k.k.k.k.k.k.k.k.k.k.k.k.k.l.{.{.Q.k@I N w $ * - + . g 8 , m v } & ",
"6 + , 2 % L M F I r p l h@{.|.{+k.k.k.k.k.k.k.k.k.k.k.k.k.k.k.k.k.k.k.k.k.k.k.k.k.k.k.k.l.{.{.l@m@= L I _ F+p 6 $ , 5 b 2 z [+8 ",
"G.a B c 2 a c ^ e E 4./.n@{.|.{+k.k.k.k.k.k.k.k.k.k.k.k.k.k.k.k.k.k.k.k.k.k.k.k.k.k.k.k.l.{.{.R.o@( , E s W p@:+2 p /.U * P _ e ",
"; 6 f < } f : b & q ~.A q@{.|.{+k.k.k.k.k.k.k.k.k.k.k.k.k.k.k.k.k.k.k.k.k.k.k.k.k.k.k.k.l.{.{.R.r@: E ^ k D N N w y+S s : - 3 :.",
"> 2 M v < 8 p r . > ! _ s@{.|.{+k.k.k.k.k.k.k.]+]+]+]+]+]+]+]+]+]+]+]+]+]+k.k.k.k.]+]+]+t@{.{.Q.u@p O e ! ! = :.3 O = i )+$ 3 v@",
": $ u $ } :+i u 6 0 c 6 w@{.|.{+k.k.k.k.k.k.9.[.o+o+o+o+o+o+o+o+o+o+o+o+o+x@k.k.y@o+o+o+++{.{.V.z@z % | ^ ^ ] g ' { ^ z 4.[+M .+",
"F+& ) > 8 O A@V - ; . | B@{.|.{+k.k.k.k.k.k.9.}.{.{.{.{.5.r.V.Q.R.P.5.{.{.7+k.k.8+{.{.{.{.{.{.V.C@A@3 o ; g f q o.' x+O (.s M d.",
"p@n ; 8 k ^ 7 q.6 h ^ | D@{.|.{+k.k.k.]+]+]+0.}.{.E@o.m i+3 , ! 2 F@r.{.{.G@]+]+H@{.{.5.I@J@K@L@M@% q.| * & | ^ , - k E (./.+ F ",
"G+J : . 0 9 e h+$ ~ 8 e N@{.|.{+k.k.]+O.O@O@P@{.{.Q@> * = h+^ > , R@5.{.{.S@O@O@P@{.{.l@J : g c o.g 3 . 8 : f ] f & h . O [+| ] ",
"u.A y+O $ c B+t . : V+k T@{.|.{+k.k.]+N.{.{.{.{.{.q@, ( 7 = B V+U@V@5.{.{.{.{.{.{.{.{.z+(.y+a . ( f 7 - n W@k ; > l e . 7 % . ^ ",
"m L [+. a ) + 7 E X ).V+X@{.|.{+k.k.]+N.{.{.{.{.{.q@6 ) 7 6 :+4@!.Y@Q.I.f.f.5.{.{.{.{.+@u U f a f a = P ~.4@j * * s g * E 7 & ! ",
"i 2 * ( + 6 a L F.(.I _ Z@{.|.`@0.0.x.N.{.{. #.#+#@#] 6 u N Z.S r ##r@$#%#&#*#=#-#;#>#,#f * ^ + | = I F.6@I 6 e :+w + ~ h 2 } ~ ",
"w a - , e : & M '#w e 6 )#{.{.}.}.}.}.{.{.{.,.g ^ & o ~ _ '#d.i e 6 f D.V + c@> _ y+G+w + ' , - ; ' I d.w ' ] m E H 7 c c@- _.G+",
"L 6 + $ e b ^ = i+f ; 2 !#{.{.{.{.{.{.{.{.{.,.6 ] b $ ^ . e.u c o + & d a a ~ c a I d.[@6 S+$ . T ^ u !+- ~ 6 f :+z = - h g L ~@",
"= ( ' a f ^ 4 6 + f ) + ~#{#]#n@^#s./#^@R.f.(#h _ $ f ~ f + 6 . 2 = K x B f } ( e | u a 8 e + f c T ] 7@e ) a _ i y - g ; B+e r ",
"+ c & a + ~ ( h 8 f ( : G.G E c x+h ! > o.e } : 2 G.o 9 & k o - > f G a 8 o - k > k : f : ' t 6 h ^ > 8 g h c 7 % ' c g * ! ! q+",
"[+!.B 2 e c e , ~ e ( , G.m ^ ^ e ' > _#; e J J s 6 ^ & e : , & c 2 G.b : , | : * : ^ P F+, ] - ^ f ^ 8 . ( } G.g 4 c f T ! c > ",
"H F.4.2 T - m - - 6 ) 6 | ( B e ) ] - ] t O F.4.K - b | . ' . g 6 6 E ; ' - ] f e = a z Z.D.| o e | ' ' 6 g 6 g ; 0 e $ ] o + a ",
"0@:#<#% G.3 o q+; 7 7 , o.o.g { [#] }#V |#!+u.E.R = q.a [ 1 ] 3 g p.C T e q+_#7 V i+A@0@~@u.% h+3 4 q+c 7 7 c o.> f o.C + V V d@"};
