/* XPM */
static char * player1_xpm[] = {
"64 64 416 2",
"  	c #008214",
". 	c #006D18",
"+ 	c #006719",
"@ 	c #007F14",
"# 	c #008314",
"$ 	c #006B18",
"% 	c #006219",
"& 	c #007217",
"* 	c #007916",
"= 	c #006519",
"- 	c #006F18",
"; 	c #007717",
"> 	c #007A16",
", 	c #007317",
"' 	c #007018",
") 	c #006C19",
"! 	c #007B16",
"~ 	c #007716",
"{ 	c #007A17",
"] 	c #006819",
"^ 	c #007417",
"/ 	c #008514",
"( 	c #007617",
"_ 	c #006818",
": 	c #007616",
"< 	c #007516",
"[ 	c #007E15",
"} 	c #007117",
"| 	c #006A19",
"1 	c #008115",
"2 	c #006A18",
"3 	c #00621A",
"4 	c #007418",
"5 	c #007A15",
"6 	c #006919",
"7 	c #006419",
"8 	c #007816",
"9 	c #007B15",
"0 	c #007318",
"a 	c #006619",
"b 	c #007017",
"c 	c #007517",
"d 	c #006E16",
"e 	c #006E18",
"f 	c #006C18",
"g 	c #006B19",
"h 	c #007817",
"i 	c #006917",
"j 	c #007815",
"k 	c #007C15",
"l 	c #007316",
"m 	c #006918",
"n 	c #007615",
"o 	c #007118",
"p 	c #007216",
"q 	c #007D15",
"r 	c #006718",
"s 	c #006E17",
"t 	c #00651A",
"u 	c #006319",
"v 	c #006D16",
"w 	c #006717",
"x 	c #006A16",
"y 	c #006F16",
"z 	c #006817",
"A 	c #006815",
"B 	c #007416",
"C 	c #007D16",
"D 	c #006E15",
"E 	c #006F17",
"F 	c #006318",
"G 	c #006119",
"H 	c #006617",
"I 	c #006517",
"J 	c #007415",
"K 	c #1A5E28",
"L 	c #1A5F28",
"M 	c #1C6129",
"N 	c #1C6B28",
"O 	c #1C6429",
"P 	c #1D5B2A",
"Q 	c #1D5A2B",
"R 	c #1D5D2A",
"S 	c #1D662A",
"T 	c #1F622B",
"U 	c #1F592C",
"V 	c #1F5A2C",
"W 	c #205C2D",
"X 	c #20552D",
"Y 	c #22542E",
"Z 	c #22552E",
"` 	c #235B2F",
" .	c #235F2F",
"..	c #235830",
"+.	c #235430",
"@.	c #255531",
"#.	c #255E31",
"$.	c #255E30",
"%.	c #265332",
"&.	c #265032",
"*.	c #265232",
"=.	c #265732",
"-.	c #285733",
";.	c #285234",
">.	c #284E34",
",.	c #285334",
"'.	c #294B35",
").	c #125C22",
"!.	c #006618",
"~.	c #006518",
"{.	c #006616",
"].	c #007218",
"^.	c #006D17",
"/.	c #00611A",
"(.	c #006C15",
"_.	c #007115",
":.	c #353540",
"<.	c #165C26",
"[.	c #006D14",
"}.	c #007215",
"|.	c #007015",
"1.	c #353640",
"2.	c #30313D",
"3.	c #31323E",
"4.	c #34343F",
"5.	c #343540",
"6.	c #146824",
"7.	c #006F15",
"8.	c #006915",
"9.	c #006816",
"0.	c #005E1A",
"a.	c #34363F",
"b.	c #555357",
"c.	c #E8DFD6",
"d.	c #E8DFD5",
"e.	c #D0C8C1",
"f.	c #8E8A8A",
"g.	c #636064",
"h.	c #116D20",
"i.	c #005D19",
"j.	c #006418",
"k.	c #006B15",
"l.	c #34373F",
"m.	c #565458",
"n.	c #EEE5DB",
"o.	c #EDE4DA",
"p.	c #D4CDC5",
"q.	c #918D8D",
"r.	c #646266",
"s.	c #0E6E1E",
"t.	c #006516",
"u.	c #005E19",
"v.	c #34393F",
"w.	c #0A711C",
"x.	c #007C16",
"y.	c #007917",
"z.	c #00601A",
"A.	c #D5CDC6",
"B.	c #656266",
"C.	c #057A18",
"D.	c #006317",
"E.	c #007515",
"F.	c #EFE6DC",
"G.	c #13182E",
"H.	c #272837",
"I.	c #2A2B39",
"J.	c #31313D",
"K.	c #2D4E38",
"L.	c #2D5038",
"M.	c #2D4838",
"N.	c #2D4538",
"O.	c #22592F",
"P.	c #006C16",
"Q.	c #006316",
"R.	c #006A15",
"S.	c #00641A",
"T.	c #007915",
"U.	c #343A3F",
"V.	c #292A39",
"W.	c #295035",
"X.	c #007914",
"Y.	c #006218",
"Z.	c #007014",
"`.	c #333C3E",
" +	c #295135",
".+	c #007013",
"++	c #006B17",
"@+	c #006A14",
"#+	c #333B3E",
"$+	c #525055",
"%+	c #DDD5CC",
"&+	c #DCD4CC",
"*+	c #DED6CE",
"=+	c #2B2C3A",
"-+	c #3C3B44",
";+	c #817D7C",
">+	c #817D7B",
",+	c #777373",
"'+	c #555459",
")+	c #565459",
"!+	c #383842",
"~+	c #2A4E35",
"{+	c #006914",
"]+	c #006615",
"^+	c #414049",
"/+	c #928E8E",
"(+	c #32323E",
"_+	c #4E4C52",
":+	c #D8D0C8",
"<+	c #2A4B35",
"[+	c #008014",
"}+	c #006A17",
"|+	c #006D15",
"1+	c #005F19",
"2+	c #2A4636",
"3+	c #007116",
"4+	c #ECE3D9",
"5+	c #EBE2D8",
"6+	c #EBE3D9",
"7+	c #D7CFC7",
"8+	c #908C8C",
"9+	c #2B4936",
"0+	c #006C17",
"a+	c #323B3D",
"b+	c #C8C0B9",
"c+	c #2C2D3B",
"d+	c #33343F",
"e+	c #8F8B8C",
"f+	c #7E7A7C",
"g+	c #33333E",
"h+	c #7C797A",
"i+	c #928D8D",
"j+	c #3C3B45",
"k+	c #787577",
"l+	c #2B5037",
"m+	c #323C3D",
"n+	c #C8C1B9",
"o+	c #3B3A44",
"p+	c #7F7C7D",
"q+	c #3E3D46",
"r+	c #797677",
"s+	c #2B5236",
"t+	c #00681A",
"u+	c #323D3D",
"v+	c #2B4E37",
"w+	c #007618",
"x+	c #32403D",
"y+	c #49474E",
"z+	c #D3CCC4",
"A+	c #D2CBC3",
"B+	c #B2ACA7",
"C+	c #2C4E37",
"D+	c #00631A",
"E+	c #005F1A",
"F+	c #31443D",
"G+	c #2C5137",
"H+	c #008015",
"I+	c #007E16",
"J+	c #31423C",
"K+	c #2C4C38",
"L+	c #006D19",
"M+	c #006B16",
"N+	c #313E3C",
"O+	c #2C4938",
"P+	c #006E19",
"Q+	c #313F3C",
"R+	c #2D4638",
"S+	c #31413C",
"T+	c #007315",
"U+	c #006B14",
"V+	c #30423B",
"W+	c #2D4C39",
"X+	c #006C14",
"Y+	c #303E3C",
"Z+	c #878384",
"`+	c #6E6C6E",
" @	c #706D6F",
".@	c #888585",
"+@	c #706E70",
"@@	c #858283",
"#@	c #2E4A39",
"$@	c #006916",
"%@	c #007A14",
"&@	c #007016",
"*@	c #30403B",
"=@	c #2E4739",
"-@	c #00661A",
";@	c #30463B",
">@	c #2E473A",
",@	c #30483B",
"'@	c #928E8D",
")@	c #414149",
"!@	c #2E463A",
"~@	c #007715",
"{@	c #2F453B",
"]@	c #363641",
"^@	c #43424A",
"/@	c #2F453A",
"(@	c #006715",
"_@	c #006F14",
":@	c #2F443B",
"<@	c #007414",
"[@	c #007D14",
"}@	c #2F4B3A",
"|@	c #007E14",
"1@	c #2F483A",
"2@	c #2E2F3B",
"3@	c #31403C",
"4@	c #156125",
"5@	c #135D24",
"6@	c #115F22",
"7@	c #0C6A1D",
"8@	c #656366",
"9@	c #2F433B",
"0@	c #006515",
"a@	c #006118",
"b@	c #2E443A",
"c@	c #006117",
"d@	c #006716",
"e@	c #2E4639",
"f@	c #2F443A",
"g@	c #006417",
"h@	c #2E4439",
"i@	c #2E4539",
"j@	c #008215",
"k@	c #006E14",
"l@	c #2D4539",
"m@	c #2F463A",
"n@	c #006814",
"o@	c #00671A",
"p@	c #2D4839",
"q@	c #006018",
"r@	c #2D5338",
"s@	c #007F15",
"t@	c #005C1A",
"u@	c #2F4A3A",
"v@	c #2F493A",
"w@	c #2C4738",
"x@	c #2F413B",
"y@	c #2C4D37",
"z@	c #007114",
"A@	c #2C4937",
"B@	c #2B4537",
"C@	c #8F8B8B",
"D@	c #555358",
"E@	c #817E7F",
"F@	c #006019",
"G@	c #2B4B37",
"H@	c #33333F",
"I@	c #005D1A",
"J@	c #2B5536",
"K@	c #284935",
"L@	c #284934",
"M@	c #274E33",
"N@	c #265D31",
"O@	c #255A31",
"P@	c #245431",
"Q@	c #265832",
"R@	c #2F473A",
"S@	c #2B5136",
"T@	c #757274",
"U@	c #737072",
"V@	c #1F682B",
"W@	c #116723",
"X@	c #777476",
"Y@	c #545358",
"Z@	c #2A4B36",
"`@	c #1C6A29",
" #	c #0F6421",
".#	c #2A5335",
"+#	c #186726",
"@#	c #007C14",
"##	c #0D741E",
"$#	c #007714",
"%#	c #2A5635",
"&#	c #20542E",
"*#	c #06661C",
"=#	c #076F1B",
"-#	c #07641D",
";#	c #01691A",
">#	c #0B771C",
",#	c #155C25",
"'#	c #116621",
")#	c #04651B",
"!#	c #2A5035",
"~#	c #373741",
"{#	c #49484F",
"]#	c #1C5B2A",
"^#	c #086D1C",
"/#	c #323C3E",
"(#	c #006416",
"_#	c #294D35",
":#	c #185B27",
"<#	c #05671C",
"[#	c #294F35",
"}#	c #145E24",
"|#	c #02661A",
"1#	c #34383F",
"2#	c #06671D",
"3#	c #1F582C",
"4#	c #294E35",
"5#	c #295235",
"6#	c #295535",
"7#	c #294A35",
"8#	c #0B6A1D",
"9#	c #2A5236",
"0#	c #275133",
"a#	c #254F31",
"b#	c #23542F",
"c#	c #057619",
"d#	c #007518",
"e#	c #006415",
"f#	c #006217",
"g#	c #007F16",
"h#	c #00611B",
"i#	c #005E1B",
"  . + @ # $ % & * $ = - ; > * , ' ) ! ~ + , { ] ^ / ( = _ : < + ] ^ > [ - } . , [ | . [ ] ]   1 2 3 4 5 6 7 ' 8 9 ( , ' . [ , 3 ",
"[ 0 a b 9 c ] d e + f + - < . 6 ] + : < g ~ h 6 i j k g 2 l m g ] 6 ^ & + | + } n $ o ! ' a p q ^ r b s _ g + - ^ f 6 6 2 n & a ",
"h o t u v } w x i 2 > ' a e 6 ^ ~ ] y p & > c 6 u z p 2 A d + B 8 ] $ | . C g f D E * 8 E t F y } w x m . ! e a e g ( c 2 d & & ",
") + - a G H = I H r J B K L M N O P Q R S T U V W X X X Y Z Z `  ...+.@.#.$.%.&.*.=.-.;.>.,.'.).!.~.H {.m < & ] f ].9 } 6 z ^.8 ",
"/.= & } t u } o ] 2 (._.:.:.:.:.:.:.:.:.:.:.:.:.:.:.:.:.:.:.:.:.:.:.:.:.:.:.:.:.:.:.:.:.:.:.:.<.u 0 b m i [.}.b ] } _.^.~ d m } ",
"o ] ^.~ & f ( } , k |.x 1.:.:.:.2.2.2.2.2.2.2.2.2.2.3.4.4.4.4.4.4.4.4.4.4.4.4.4.4.4.4.4.5.:.:.6.. : b c 9 7.8.x 2 v 9.s : - 3 0.",
"C $ r E l < l _ e k * = a.:.:.b.c.d.d.d.d.d.d.d.d.d.e.f.f.f.f.f.f.f.f.f.f.f.f.f.f.f.f.f.g.:.:.h.< p r ' k 8 % i.j.z ~.i 7.f % 0.",
"~ 2 % r } < k.u 6 ^ ( 6 l.:.:.m.n.o.o.o.o.o.o.o.o.o.p.q.q.q.q.q.q.q.q.q.q.q.q.q.q.q.q.q.r.:.:.s.B x F 2 c : + a . 8 & z k.f F t.",
"J } g > : _ u.G e c e g v.:.:.m.n.o.o.o.o.o.o.o.o.o.p.q.q.q.q.q.q.q.q.q.q.q.q.q.q.q.q.q.r.:.:.w.!.u.% ' c . f x.y., b _ 8.^.~.t.",
"_.< 0 8 k b 3 z.6 h 0 6 v.:.:.m.n.o.o.n.n.n.n.n.n.n.A.q.q.q.q.q.q.q.q.q.q.q.q.q.q.q.q.q.B.:.:.C.e /.z.| * o | ( ^ . ; . 8.y r D.",
"(.E.8 - : ! $ 3 $ ~ c 6 v.:.:.m.n.o.F.G.H.H.H.H.H.H.I.J.J.J.J.J.J.J.J.J.J.J.J.J.J.J.J.J.4.:.:.K.L.M.N.O.8 l 6 6 e & * . w P.] 7 ",
"Q.R.d r . ; - S.f ~ T.5 U.:.:.m.n.o.F.V.:.:.:.:.:.:.:.:.:.:.:.:.:.:.:.:.:.:.:.:.:.:.:.:.:.:.:.:.:.:.:.W.~ X.> ].( , o ) 7 j.) ].",
"a Y._ 2 a e 6 7 s }.Z.X.`.:.:.m.n.o.F.V.:.:.:.:.:.:.:.:.:.:.:.:.:.:.:.:.:.:.:.:.:.:.:.:.:.:.:.:.:.:.:. +}..+9 9 ! b | > f u ^ C ",
"++2 5 : a + 7 j.k.@+{.$ #+:.:.$+%+&+*+=+:.:.-+;+>+>+>+>+>+>+>+>+>+,+'+'+'+'+'+'+'+'+'+'+'+'+'+)+!+:.:.~+{+{.^.} p z ] ; < ] & 8 ",
"_ + , c e ; } H ]+{.m + #+:.:.^+q.q./+(+:.:._+n.o.o.o.o.o.o.o.o.o.:+q.q.q.q.q.q.q.q.q.q.q.q.q.q.^+:.:.<+H 2 r m E H 7 ( [+- }+|+",
"j.a + e e o & 7 1+2 h g #+:.:.^+q.q./+(+:.:._+n.o.o.o.o.o.o.o.o.o.:+q.q.q.q.q.q.q.q.q.q.q.q.q.q.^+:.:.2+f h 6 $ 3+w u - h f I ]+",
"7 B e a $ - & 6 a - ' 6 `.:.:.^+q.q./+(+:.:._+n.o.o.4+5+5+5+6+6+6+7+8+8+8+q.q.q.q.8+8+8+q.q.q.q.^+:.:.9+} b r i P.0+$ g c g m !.",
"a , ' = ] 8 8 ; c 6 0 ^ a+:.:.^+q.q./+(+:.:._+n.o.o.b+c+c+d+8+e+e+f+g+g+g+h+q.q.i+j+g+g+k+q.q.q.^+:.:.l+6 ^ & 7 G o ( f > 8 * x.",
"^.B ^ | e ( ' 4 h e ; ^ m+:.:.^+q.q./+(+:.:._+n.o.o.n+:.:.o+/+q.q.p+:.:.:.h+q.q.i+q+:.:.r+q.q.q.^+:.:.s+. : & S.] 0 c f B [ * k ",
"w k.D $ , o t+. ].) - $ u+:.:.^+q.q./+(+:.:._+n.o.o.n+:.:.o+/+q.q.p+:.:.:.h+q.q.i+q+:.:.r+q.q.q.^+:.:.v+) - | m h c . ] 6 , ] | ",
"~.{.{.m g S.e C w+t 7 e x+:.:.^+q.q./+(+:.:.y+z+A+A+B+:.:.o+/+q.q.p+:.:.:.h+q.q.i+q+:.:.r+q.q.q.^+:.:.C+7 D+- c * - * > ] ] u E+",
"& !.u B ^ = ] y.! | S.( F+:.:.^+q.q./+(+:.:.q+i+q.q.h+:.:.o+/+q.q.p+:.:.:.h+q.q.i+q+:.:.r+q.q.q.^+:.:.G++ 7 8 H+I+, > > f ].6 0.",
"1 ' = , q b a } & r + g J+:.:.^+q.q./+(+:.:.q+i+q.q.h+:.:.o+/+q.q.p+:.:.:.h+q.q.i+q+:.:.r+q.q.q.^+:.:.K+a + f ( 8 - e L+f 8 ^ = ",
"! , = !.l < z M+++2 h f N+:.:.^+q.q./+(+:.:.q+i+q.q.h+:.:.o+/+q.q.p+:.:.:.h+q.q.i+q+:.:.r+q.q.q.^+:.:.O+. ; | ] - 6 P+P+m _.l . ",
"& ) ] G ~.0+~.{.I r ~ c Q+:.:.^+q.q./+(+:.:.q+i+q.q.h+:.:.o+/+q.q.p+:.:.:.h+q.q.i+q+:.:.r+q.q.q.^+:.:.R+2 j , + $ f > ]._ ++E c ",
"3 + c f % % | m j.r 7.l S+:.:.^+q.q./+(+:.:.q+i+q.q.h+:.:.o+/+q.q.p+:.:.:.h+q.q.i+q+:.:.r+q.q.q.^+:.:.N._ 7.T+$ 6 & E.s E i 2 ^ ",
"] a p * - m : , , ~ |+U+V+:.:.^+q.q./+(+:.:.q+i+q.q.h+:.:.o+/+q.q.p+:.:.:.h+q.q.i+q+:.:.r+q.q.q.^+:.:.W+n X+X+y $ p |+d * & = a ",
"[ f m p } e B $ } q l F Y+:.:.^+q.q./+(+:.:.q+i+q.q.Z+`+`+ @q.q.q..@`+`+`+Z+q.q.q.+@`+`+@@q.q.q.^+:.:.#@q 3+Y.G = $@I . l . 3 0.",
"T.2 u }+E.%@&@~.| h 9 $ *@:.:.^+q.q./+(+:.:.q+i+q.q.q.q.q.q.q.q.q.q.q.q.q.q.q.q.q.q.q.q.q.q.q.q.^+:.:.=@* 9 m u a f 2 i (.$ u D.",
"< e -@, l v D.G g ].& ) ;@:.:.^+q.q./+(+:.:.q+i+q.q.q.q.q.q.q.q.q.q.q.q.q.q.q.q.q.q.q.q.q.q.q.q.^+:.:.>@^ & $ ( ^ > : z @+^.~.]+",
"}., . * 9 m E+/.) h e ] ,@:.:.^+q.q./+(+:.:.q+/+q.q.q.q.q.q.q.q.q.q.q.q.q.q.q.q.q.q.q.q.q.q.q.'@)@:.:.!@8 . 2 * * L+- r A d ~.D.",
"7.~@> c > * ] /.] ( , m {@:.:.^+q.q./+(+:.:.]@^@^@^@^@^@^@^@^@^@^@^@^@^@^@^@^@^@^@^@^@^@^@^@^@^@]@:.:./@; } 6 - & ].k b $@v a % ",
"(@_@l m E > - S.$ ~ 9 c :@:.:.^+q.q./+(+:.:.:.:.:.:.:.:.:.:.:.:.:.:.:.:.:.:.:.:.:.:.:.:.:.:.:.:.:.:.:./@~ 5 0 | e ].( e = i f ' ",
"G I $@a r } f S.. l <@[@}@:.:.^+q.q./+(+:.:.:.:.:.:.:.:.:.:.:.:.:.:.:.:.:.:.:.:.:.:.:.:.:.:.:.:.:.:.:./@B <@|@! x., f 0 -@G b y.",
". r < c a 6 t 7 d |+R.3+1@:.:.^+q.q./+2@(+(+(+(+(+(+(+(+(+(+(+(+(+(+(+(+(+(+(+(+(+(+(+(+4.:.:.3@4@5@6@7@X+R.l , B }+m ~ 0 -@} * ",
"2 6 ( < | ].. ~.(@]+j.= /@:.:.^+q.q.q./+/+/+/+/+/+/+/+/+/+/+/+/+/+/+/+/+/+/+/+/+/+/+/+/+8@:.:.9@, 2 I A 0@~.+ $ y H = ( [ . ^.}.",
"j.= 6 } ' 0 } j.a@r c $ b@:.:.^+q.q.q.q.q.q.q.q.q.q.q.q.q.q.q.q.q.q.q.q.q.q.q.q.q.q.q.q.r.:.:./@^ b F c@z ~ 6 ] &@!.7 0 > . d@{+",
"u - m ] f - ^ ] u ' , 6 e@:.:.^+q.q.q.q.q.q.q.q.q.q.q.q.q.q.q.q.q.q.q.q.q.q.q.q.q.q.q.q.r.:.:.f@' ^ = 3 & , + f E i r e ( 6 j.g@",
"a ^ o a g h ( e ) | g $ h@:.:.^+q.q.q.q.q.q.q.q.q.q.q.q.q.q.q.q.q.q.q.q.q.q.q.q.q.q.q.q.r.:.:.f@* ^ e g | f 2 ~.j.} < f > , ( b ",
"$ < ^ _ | ( , 8 ! E * 8 i@:.:.^+q.q.q.q.q.q.q.q.q.q.q.q.q.q.q.q.q.q.q.q.q.q.q.q.q.q.q.q.r.:.:.f@( o > x.e { ( 7 = o c ) ; H+I+j@",
"z k@_.2 - & g , c . ^ ' l@:.:.^+q.q.q.q.q.q.q.q.q.q.q.q.q.q.q.q.q.q.q.q.q.q.q.q.q.q.q.q.r.:.:.m@} | ^ ( . 4 e a & c o g . ( P+, ",
"I n@8.}+} | $ ; b a a o@p@:.:.^+q.q.q.q.q.q.q.q.q.q.q.q.q.q.q.q.q.q.q.q.q.q.q.q.q.q.q.q.r.:.:./@| . ( - -@= r f c - 0 ].] f = 3 ",
"}+I q@) g D+| > * ] t 8 r@:.:.^+q.q.q.q.q.q.q.q.q.q.q.q.q.q.q.q.q.q.q.q.q.q.q.q.q.q.q.q.r.:.:.9@3 f ! 8 = = x.# s@' x.! 2 6 S.t@",
"s@f = 8 [ g = , ~ 2 a ' L.:.:.^+q.q.q.q.q.q.q.q.q.q.q.q.q.q.q.q.q.q.q.q.q.q.q.q.q.q.q.q.r.:.:.u@2 a < ~@+ a } > 5 & ^ & ) * o 3 ",
"C , 7 0+T.; m d . 6 } 6 O+:.:.^+q.q.q.q.q.q.q.q.q.q.q.q.q.q.q.q.q.q.q.q.q.q.q.q.q.q.q.q.r.:.:.v@c _ s f | ' + f & m + ] m J , o@",
"c - a % }+E !.d@w 6 * & w@:.:.^+q.q.q.q.q.q.q.q.q.q.q.q.q.q.q.q.q.q.q.q.q.q.q.q.q.q.q.q.r.:.:.f@E I d@w $ * - + . g 8 , m v } & ",
"6 + , 2 % j.~.F I r p l O+:.:.^+q.q.q.q.q.q.q.q.q.q.q.q.q.q.q.q.q.q.q.q.q.q.q.q.q.q.q.q.r.:.:.x@j.= j.I _ T+p 6 $ , 5 b 2 z 0+8 ",
"S.a B c 2 a c ^ e E k.7.y@:.:.^+q.q.q.q.q.q.q.q.q.q.q.q.q.q.q.q.q.q.q.q.q.q.q.q.q.q.q.q.r.:.:.9@a ( , E s (.z@3+2 p 7.^.* &@_ e ",
"; 6 f < } f : b & q |.A A@:.:.^+q.q.q.q.q.q.q.q.q.q.q.q.q.q.q.q.q.q.q.q.q.q.q.q.q.q.q.q.r.:.:./@. : E ^ k D d@d@w M+{.s : - 3 0.",
"> 2 ~.v < 8 p r . > ! _ B@:.:.^+q.q.q.q.q.q.C@D@'+'+'+'+'+'+'+'+'+'+'+'+'+E@q.q.q.q.q.q.r.:.:.1@8 p !.e ! ! = 0.3 !.= i |+$ 3 F@",
": $ u $ } 3+i u 6 0 c 6 G@:.:.^+q.q.q.q.q.q.f.H@:.:.:.:.:.:.:.:.:.:.:.:.:.h+q.q.q.q.q.q.r.:.:.m@3+z % | ^ ^ ] g ' { ^ z k.0+~.]+",
"T+& ) > 8 !.I@/.- ; . | J@:.:.^+q.q.q.q.q.q.f.H@:.:./@K@L@M@N@O@P@Q@1.:.:.h+q.q.q.q.q.q.r.:.:.R@7 I@3 o ; g f q x.' L+!.8.s ~.t.",
"z@n ; 8 k ^ 7 z.6 h ^ | S@:.:.^+q.q.i+T@T@T@U@4.:.:.V@m E+3 , ! 2 W@1.:.:.h+q.q.q.X@T@T@Y@:.:.u@].% z.| * & | ^ , - k E 8.7.+ F ",
"U+J : . 0 9 e D+$ ~ 8 e Z@:.:.^+q.q./+(+:.:.:.:.:.:.`@* = D+^ > ,  #1.:.:.h+q.q.i+q+:.:.:.:.:.R@x.g 3 . 8 : f ] f & h . !.0+| ] ",
"D.A M+!.$ c P+t . : ~@k .#:.:.^+q.q./+(+:.:.:.:.:.:.+#( 7 = B ~@@###l.:.:.h+q.q.i+q+:.1.:.:.:.=@( f 7 - n $#k ; > l e . 7 % . ^ ",
"m j.0+. a ) + 7 E _.[.~@%#:.:.)@q.q./+(+:.:.&#*#=#-#;#) 7 6 3+k@}.>#l.:.:.h+q.q.'@q+:.:@,#O.'#)#f a = &@|.k@j * * s g * E 7 & ! ",
"i 2 * ( + 6 a j.R.8.I _ !#:.:.~#{#{#{#:.:.:.]#^ * L+] 6 u d@@+{.r ^#l.:.:.^@{#{#{#]@:./#f * ^ + | = I R.n@I 6 e 3+w + ~ h 2 } ~ ",
"w a - , e : & ~.(#w e 6 _#:.:.:.:.:.:.:.:.:.:#g ^ & o ~ _ (#t.i e <#l.:.:.:.:.:.:.:.:.1.+ ' , - ; ' I t.w ' ] m E H 7 c s@- 9.U+",
"j.6 + $ e b ^ = E+f ; 2 [#:.:.:.:.:.:.:.:.:.}#6 ] b $ ^ . u.u c o |#1#:.:.:.:.:.:.:.:.:.2#-@$ . ].^ u 1+- ~ 6 f 3+z = - h g j.0@",
"= ( ' a f ^ 4 6 + f ) + 3#4#W.5#[#6# + +'.7#8#h _ $ f ~ f + 6 . 2 = /@9@R@=@K+9# +0#a#b#c#e + f c ].] o@e ) a _ i y - g ; P+e r ",
"+ c & a + ~ ( h 8 f ( : S.G E c L+h ! > x.e } : 2 S.o 9 & k o - > f G a 8 o - k > k : f : ' t 6 h ^ > 8 g h c 7 % ' c g * ! ! H+",
"0+}.B 2 e c e , ~ e ( , S.m ^ ^ e ' > d#; e J J s 6 ^ & e : , & c 2 S.b : , | : * : ^ &@T+, ] - ^ f ^ 8 . ( } S.g 4 c f ].! c > ",
"H R.k.2 ].- m - - 6 ) 6 | ( B e ) ] - ] t !.R.k.++- b | . ' . g 6 6 E ; ' - ] f e = a z @+P.| o e | ' ' 6 g 6 g ; 0 e $ ] o + a ",
"q@e#f#% S.3 o H+; 7 7 , x.x.g { g#] h#/.i#1+D.Q.Y.= z.a [ 1 ] 3 g y.C ].e H+d#7 /.E+I@q@0@D.% D+3 4 H+c 7 7 c x.> f x.C + /./.t@"};
