/* XPM */
static char * slime3_xpm[] = {
"64 64 531 2",
"  	c #008314",
". 	c #006C18",
"+ 	c #006619",
"@ 	c #008014",
"# 	c #008414",
"$ 	c #006919",
"% 	c #006119",
"& 	c #007217",
"* 	c #007A16",
"= 	c #006B18",
"- 	c #00641A",
"; 	c #007018",
"> 	c #007716",
", 	c #007916",
"' 	c #007317",
") 	c #007117",
"! 	c #006A19",
"~ 	c #007C16",
"{ 	c #007B16",
"] 	c #006819",
"^ 	c #007417",
"/ 	c #008713",
"( 	c #007517",
"_ 	c #006818",
": 	c #007616",
"< 	c #007F15",
"[ 	c #006E18",
"} 	c #007218",
"| 	c #006719",
"1 	c #008215",
"2 	c #00611A",
"3 	c #007B15",
"4 	c #006319",
"5 	c #007118",
"6 	c #007C15",
"7 	c #007617",
"8 	c #006C19",
"9 	c #00621A",
"0 	c #007E15",
"a 	c #006419",
"b 	c #007016",
"c 	c #007717",
"d 	c #006718",
"e 	c #006F17",
"f 	c #0B681E",
"g 	c #155F26",
"h 	c #166525",
"i 	c #176A26",
"j 	c #196127",
"k 	c #1A5D28",
"l 	c #1C5B2A",
"m 	c #1C5A2A",
"n 	c #1D652A",
"o 	c #1F632B",
"p 	c #1F5A2C",
"q 	c #20632C",
"r 	c #21632D",
"s 	c #21572E",
"t 	c #22552F",
"u 	c #235F2F",
"v 	c #23632F",
"w 	c #255531",
"x 	c #265332",
"y 	c #265931",
"z 	c #275033",
"A 	c #285134",
"B 	c #294D35",
"C 	c #294C35",
"D 	c #2A5335",
"E 	c #2B5036",
"F 	c #2B4937",
"G 	c #2B4A37",
"H 	c #2D4638",
"I 	c #2D4A38",
"J 	c #2D4C39",
"K 	c #2F453A",
"L 	c #2F463A",
"M 	c #2F493A",
"N 	c #30433C",
"O 	c #303F3C",
"P 	c #31423C",
"Q 	c #32413D",
"R 	c #323F3D",
"S 	c #33393E",
"T 	c #343A3F",
"U 	c #30443B",
"V 	c #0A651E",
"W 	c #006B19",
"X 	c #006519",
"Y 	c #006F18",
"Z 	c #006A18",
"` 	c #007615",
" .	c #007816",
"..	c #00651A",
"+.	c #006219",
"@.	c #006D16",
"#.	c #006717",
"$.	c #006A15",
"%.	c #006917",
"&.	c #006918",
"*.	c #353540",
"=.	c #323E3D",
"-.	c #0B691E",
";.	c #007D16",
">.	c #006D18",
",.	c #006F16",
"'.	c #007216",
").	c #006518",
"!.	c #006417",
"~.	c #006616",
"{.	c #006618",
"].	c #235E2F",
"^.	c #353740",
"/.	c #333B3E",
"(.	c #0B641E",
"_.	c #007516",
":.	c #007017",
"<.	c #006817",
"[.	c #006D17",
"}.	c #00601A",
"|.	c #007316",
"1.	c #24572F",
"2.	c #5F5D5F",
"3.	c #A59F9A",
"4.	c #A49E99",
"5.	c #969289",
"6.	c #626645",
"7.	c #646847",
"8.	c #656847",
"9.	c #444542",
"0.	c #34393F",
"a.	c #0C651E",
"b.	c #006C14",
"c.	c #007215",
"d.	c #007115",
"e.	c #006C17",
"f.	c #006E16",
"g.	c #245830",
"h.	c #353640",
"i.	c #84807E",
"j.	c #EFE6DC",
"k.	c #EEE5DB",
"l.	c #D9D3C2",
"m.	c #898F4B",
"n.	c #8B9150",
"o.	c #8C9250",
"p.	c #545744",
"q.	c #0D771D",
"r.	c #006E14",
"s.	c #006915",
"t.	c #006B16",
"u.	c #006816",
"v.	c #006E17",
"w.	c #005D1A",
"x.	c #007416",
"y.	c #007D15",
"z.	c #255E31",
"A.	c #847F7E",
"B.	c #EDE4DA",
"C.	c #D8D2C1",
"D.	c #0E771E",
"E.	c #005C1A",
"F.	c #006418",
"G.	c #006F15",
"H.	c #005E1A",
"I.	c #006C15",
"J.	c #255B31",
"K.	c #126E21",
"L.	c #006B15",
"M.	c #006318",
"N.	c #007415",
"O.	c #007715",
"P.	c #265532",
"Q.	c #E9DFD2",
"R.	c #D6CEBA",
"S.	c #8F914B",
"T.	c #919350",
"U.	c #156B24",
"V.	c #007318",
"W.	c #006516",
"X.	c #005F1A",
"Y.	c #275833",
"Z.	c #BDA352",
"`.	c #BCA14B",
" +	c #BCA24D",
".+	c #BEA351",
"++	c #BDA351",
"@+	c #186E26",
"#+	c #007817",
"$+	c #006317",
"%+	c #275733",
"&+	c #BEA557",
"*+	c #BCA351",
"=+	c #1B6928",
"-+	c #006617",
";+	c #006316",
">+	c #006E15",
",+	c #00631A",
"'+	c #285933",
")+	c #1E652B",
"!+	c #007A14",
"~+	c #006118",
"{+	c #285234",
"]+	c #F0E7DD",
"^+	c #BEA451",
"/+	c #8D9350",
"(+	c #205E2C",
"_+	c #007013",
":+	c #007C14",
"<+	c #006B17",
"[+	c #00661A",
"}+	c #006A14",
"|+	c #294C34",
"1+	c #585A4A",
"2+	c #959962",
"3+	c #949861",
"4+	c #7B6C46",
"5+	c #494341",
"6+	c #4C4641",
"7+	c #BCA251",
"8+	c #BBA251",
"9+	c #414141",
"0+	c #3F4041",
"a+	c #383840",
"b+	c #23562E",
"c+	c #007917",
"d+	c #006615",
"e+	c #746646",
"f+	c #393840",
"g+	c #373640",
"h+	c #255131",
"i+	c #008214",
"j+	c #006D15",
"k+	c #005E19",
"l+	c #2A5535",
"m+	c #275333",
"n+	c #006614",
"o+	c #2A4F36",
"p+	c #295334",
"q+	c #006C16",
"r+	c #2A4A36",
"s+	c #2B5236",
"t+	c #2C4A38",
"u+	c #006B14",
"v+	c #2B4E37",
"w+	c #2E4639",
"x+	c #2C4737",
"y+	c #30413B",
"z+	c #01691A",
"A+	c #2C4738",
"B+	c #8D7B49",
"C+	c #716445",
"D+	c #726545",
"E+	c #585B45",
"F+	c #313F3C",
"G+	c #008115",
"H+	c #02651A",
"I+	c #007A15",
"J+	c #03691A",
"K+	c #2C5038",
"L+	c #333A3F",
"M+	c #006E19",
"N+	c #04651B",
"O+	c #2C4F38",
"P+	c #057619",
"Q+	c #05651B",
"R+	c #BAA050",
"S+	c #BAA151",
"T+	c #BAA150",
"U+	c #BBA151",
"V+	c #898F50",
"W+	c #8A9050",
"X+	c #535644",
"Y+	c #0A6B1B",
"Z+	c #06761A",
"`+	c #2D4938",
" @	c #373840",
".@	c #333440",
"+@	c #2D2F40",
"@@	c #A38D4C",
"#@	c #A6904D",
"$@	c #2C2F40",
"%@	c #373740",
"&@	c #6F6245",
"*@	c #746645",
"=@	c #363540",
"-@	c #343440",
";@	c #0E671D",
">@	c #007315",
",@	c #008015",
"'@	c #067C19",
")@	c #2D4B39",
"!@	c #393940",
"~@	c #2F3140",
"{@	c #2E3040",
"]@	c #706345",
"^@	c #126921",
"/@	c #006019",
"(@	c #006916",
"_@	c #007515",
":@	c #007015",
"<@	c #07761A",
"[@	c #2E4E39",
"}@	c #157223",
"|@	c #006218",
"1@	c #076F1C",
"2@	c #2E4A39",
"3@	c #555744",
"4@	c #8D9351",
"5@	c #BFA451",
"6@	c #C0A552",
"7@	c #716345",
"8@	c #176726",
"9@	c #08771B",
"0@	c #2E4739",
"a@	c #3B3B41",
"b@	c #4A4C43",
"c@	c #363640",
"d@	c #5B5143",
"e@	c #5B5243",
"f@	c #5C5243",
"g@	c #423E41",
"h@	c #1A6028",
"i@	c #006815",
"j@	c #006F14",
"k@	c #007815",
"l@	c #09721C",
"m@	c #2E4939",
"n@	c #34383F",
"o@	c #1C6329",
"p@	c #0A731C",
"q@	c #2E4B3A",
"r@	c #1E682B",
"s@	c #006A17",
"t@	c #006517",
"u@	c #06721A",
"v@	c #30493B",
"w@	c #32433D",
"x@	c #333F3E",
"y@	c #A48E4C",
"z@	c #333C3E",
"A@	c #333A3E",
"B@	c #333D3E",
"C@	c #20612B",
"D@	c #006D14",
"E@	c #007116",
"F@	c #09711C",
"G@	c #136B22",
"H@	c #22582E",
"I@	c #323340",
"J@	c #7D6E47",
"K@	c #8E7C49",
"L@	c #8C7A49",
"M@	c #165B26",
"N@	c #155C25",
"O@	c #186425",
"P@	c #196126",
"Q@	c #10651F",
"R@	c #145F23",
"S@	c #33393F",
"T@	c #343540",
"U@	c #2A5136",
"V@	c #026919",
"W@	c #006515",
"X@	c #006017",
"Y@	c #116121",
"Z@	c #323C3D",
"`@	c #285534",
" #	c #006117",
".#	c #006716",
"+#	c #006914",
"@#	c #0E631F",
"##	c #255731",
"$#	c #06691C",
"%#	c #0D671F",
"&#	c #0E6120",
"*#	c #0F5F21",
"=#	c #2F483A",
"-#	c #34373F",
";#	c #255F30",
">#	c #0B701E",
",#	c #066B1C",
"'#	c #016A1A",
")#	c #1F672B",
"!#	c #31433C",
"~#	c #2B5337",
"{#	c #265F31",
"]#	c #196128",
"^#	c #225F2E",
"/#	c #2D4839",
"(#	c #006814",
"_#	c #22542F",
":#	c #34363F",
"<#	c #313D3D",
"[#	c #005F18",
"}#	c #22532F",
"|#	c #04631B",
"1#	c #008514",
"2#	c #005C1B",
"3#	c #0D6020",
"4#	c #0D6E1E",
"5#	c #0D731E",
"6#	c #0C651F",
"7#	c #245131",
"8#	c #007915",
"9#	c #07761B",
"0#	c #31413C",
"a#	c #31403C",
"b#	c #295135",
"c#	c #265032",
"d#	c #265432",
"e#	c #235C2F",
"f#	c #07671C",
"g#	c #136922",
"h#	c #0D6520",
"i#	c #1A5928",
"j#	c #0F6D20",
"k#	c #20562D",
"l#	c #106D20",
"m#	c #0C641F",
"n#	c #30423B",
"o#	c #595C45",
"p#	c #8B9050",
"q#	c #7C814C",
"r#	c #323140",
"s#	c #767B4B",
"t#	c #333240",
"u#	c #156323",
"v#	c #07641A",
"w#	c #076C1B",
"x#	c #07731A",
"y#	c #066D1C",
"z#	c #196326",
"A#	c #005D1B",
"B#	c #176126",
"C#	c #5A5D45",
"D#	c #7D824D",
"E#	c #777C4B",
"F#	c #2E4439",
"G#	c #2C4638",
"H#	c #2C4838",
"I#	c #2C4B37",
"J#	c #2A4836",
"K#	c #5D7961",
"L#	c #186127",
"M#	c #33333E",
"N#	c #657D68",
"O#	c #196527",
"P#	c #333340",
"Q#	c #323240",
"R#	c #7C824C",
"S#	c #2A2C3F",
"T#	c #303240",
"U#	c #2F2F3F",
"V#	c #3A6241",
"W#	c #007114",
"X#	c #1A6928",
"Y#	c #6F7349",
"Z#	c #7D824C",
"`#	c #81864E",
" $	c #93914F",
".$	c #A9914D",
"+$	c #A8914D",
"@$	c #3A3940",
"#$	c #313240",
"$$	c #927F4A",
"%$	c #94814A",
"&$	c #695D44",
"*$	c #A9924D",
"=$	c #A7904D",
"-$	c #868C4F",
";$	c #7B804C",
">$	c #35633C",
",$	c #1C6528",
"'$	c #999650",
")$	c #3C3A40",
"!$	c #2E6437",
"~$	c #1D5A29",
"{$	c #266530",
"]$	c #1E562B",
"^$	c #1C6A28",
"/$	c #1F5B2C",
"($	c #949450",
"_$	c #AD9D51",
":$	c #AC9C51",
"<$	c #646647",
"[$	c #616547",
"}$	c #606446",
"|$	c #9B8F4E",
"1$	c #9D904E",
"2$	c #5F6446",
"3$	c #636647",
"4$	c #7B7749",
"5$	c #7E794A",
"6$	c #AB9C50",
"7$	c #626547",
"8$	c #83884E",
"9$	c #156724",
"0$	c #8A9150",
"a$	c #146123",
"b$	c #135D23",
"c$	c #22602E",
"d$	c #136823",
"e$	c #878C4F",
"f$	c #858B4E",
"g$	c #333E3E",
"h$	c #127321",
"i$	c #136B21",
"j$	c #32403D",
"k$	c #116E21",
"l$	c #10651E",
"m$	c #313F3D",
"n$	c #343B3F",
"o$	c #323D3D",
"p$	c #30413C",
"q$	c #30423C",
"r$	c #30453C",
"s$	c #30403C",
"t$	c #2F443A",
"u$	c #2F473A",
"v$	c #2E4D39",
"w$	c #2D4939",
"x$	c #2D4739",
"y$	c #0C6320",
"z$	c #006018",
"A$	c #006415",
"B$	c #006217",
"C$	c #007C17",
"D$	c #00601B",
"E$	c #005E1B",
"F$	c #007E16",
"  . + @ # $ % & * = - ; > * , ' ) ! ~ > + ' { ] ^ / ( - _ > : + ] ^ * < [ & [ } < ] . @ | | # 1 ] 2 ^ 3 $ 4 5 , 6 7 ^ ) 8 < ' 9 ",
"0 ' a b 6 c d e [ + f g h i j k l m n o p q r s t u v w x y z A B C D E F G H I J K L M N O P Q R S T U V W X Y ( = ] | Z ` ' X ",
" .5 ..+.@.& #.$.%.&.v *.*.*.*.*.*.*.*.*.*.*.*.*.*.*.*.*.*.*.*.*.*.*.*.*.*.*.*.*.*.*.*.*.*.*.*.*.*.*.*.=.-.;.>.+ e ! c 7 Z ,.'.& ",
">.| ; + % #.).!.~.{.].^.*.*.*.*.*.*.*.*.*.*.*.*.*.*.*.*.*.*.*.*.*.*.*.*.*.*.*.*.*.*.*.*.*.*.*.*.*.*.*./.(._.' ] >.} 6 :._ <.[., ",
"}.X |.) ..% & ) ] &.1.^.*.*.2.3.4.4.4.4.4.4.4.4.4.4.4.5.6.7.7.7.7.7.7.7.7.7.7.7.7.7.7.7.7.7.7.7.8.9.*.0.a.b.c.:.X ) d.e., f._ & ",
"} | [., & W 7 ) ^ 0 g.h.*.*.i.j.k.k.k.k.k.k.k.k.k.k.k.l.m.n.n.n.n.n.n.n.n.n.n.n.n.n.n.n.n.n.n.n.o.p.*.^.q.r.s.t.Z f.u.v.> :.+.w.",
"0 = {.,.x.( x.| >.y.z.h.*.*.A.j.B.B.B.B.B.B.B.B.B.B.B.C.m.n.n.n.n.n.n.n.n.n.n.n.n.n.n.n.n.n.n.n.o.p.*.*.D., % E.4 <.F.%.G.. % H.",
"> $ }.).) ` I.+.| ^ J.h.*.*.A.j.B.B.B.B.B.B.B.B.B.B.B.C.m.n.n.n.n.n.n.n.n.n.n.n.n.n.n.n.n.n.n.n.o.p.*.*.K.: | X . * ^ <.L.. M.~.",
"N.) $ ~ O.d w.% Y ( P.h.*.*.A.j.B.B.B.Q.Q.Q.Q.Q.Q.Q.Q.R.S.T.T.T.T.T.T.T.T.T.T.T.T.T.T.T.T.n.n.n.o.p.*.*.U.. W ;., V.:.d s.v.X W.",
"d.: V. .0 ; 2 X.] , Y.h.*.*.A.j.B.B.B.Z.`.`.`.`.`.`.`. +.+.+.+.+.+.+.+.+.+.+.+.+.+.+.+.+++n.n.n.o.p.*.*.@+5 $ 7 ( 8 #+>.s.G.d $+",
"b.` * [ 7 ~ = 2 Z > %+h.*.*.A.j.B.B.B.&+++++++++++++++++++++++++++++++++++++++++++++++++*+n.n.n.o.p.*.*.=+' ] ] [ & * >.-+@.] 4 ",
";+$.>+| >.#+Y ,+. > '+h.*.*.A.j.B.B.B.&+++++++++++++++++++++++++++++++++++++++++++++++++*+n.n.n.o.p.*.*.)+!+6 } 7 ' } W a F.W } ",
"+ ~+{.&.X Y ! ,+v.c.{+*.*.*.i.]+k.k.k.&+++++++^+^+^+^+^+^+^+^+^+++++++++++++++++++++++++*+o.o.o./+p.*.*.(+_+:+y.6 :.$ ~ >.+.^ 0 ",
"<+Z 3 > X [+- F.L.}+|+*.*.*.1+2+3+3+3+*+++++^+4+5+5+5+5+5+5+5+6+7+++++++++++++++++++++++8+9+0+0+0+a+*.*.b+W.[.:.|.<.|  ._.+ &  .",
"&.| V._.>.c+& -+d+W.B *.*.*.p.o.n.n.n.*+++++^+e+*.*.*.*.*.*.*.f+7+++++++++++++++++++++++8+g+*.*.*.*.*.*.h+Z | &.b -+4 7 i+Y %.j+",
"F.X ..[ [ ; ' 4 k+Z l+*.*.*.p.o.n.n.n.*+++++^+e+*.*.*.*.*.*.*.f+7+++++++++++++++++++++++8+g+*.*.*.*.*.*.m+* ] = '.#.4 Y  .. !.n+",
"4 : Y + = Y & ] + 5 o+*.*.*.p.o.n.n.n.*+++++^+e+*.*.*.*.*.*.*.f+7+++++++++++++++++++++++8+g+*.*.*.*.*.*.p+e + &.q+e.= W ( $ &.).",
"X ' ; a ] , , c ( | E *.*.*.p.o.n.n.n.*+++++^+e+*.*.*.*.*.*.*.f+7+++++++++++++++++++++++8+g+*.*.*.*.*.*.r+( ' 4 }.) c = { c * ;.",
"v._.( ! [ c Y ^ , >.s+*.*.*.p.o.n.n.n.*+++++^+e+*.*.*.*.*.*.*.f+7+++++++++++++++++++++++8+g+*.*.*.*.*.*.t+> & 4 ] ' 7 = ^ < , y.",
"-+u+G.= ' } | 8 5 W v+*.*.*.p.o.n.n.n.*+++++^+e+*.*.*.*.*.*.*.f+7+++++++++++++++++++++++8+g+*.*.*.*.*.*.w+Y $ ] , ( 8 | ] ' | $ ",
"F.d+W.&.8 ,+[ < 7 ..x+*.*.*.p.o.n.n.n.*+++++^+e+*.*.*.*.*.*.*.f+7+++++++++++++++++++++++8+g+*.*.*.*.*.*.y+9 ; ( * >.* { | ] 4 X.",
"& {.% _.( a | , ~ z+A+*.*.*.p.o.n.n.n.*+++++^+B+C+C+C+C+C+C+C+D+7+++++++++++++++++++++++7+E+E+E+E+0+*.*.F+,+, G+< ' { { . V.$ H.",
"1 ; - x.< :.+ ) & H+A+*.*.*.p.o.n.n.n.*+++++++^+^+^+^+^+^+^+^+^+++++++++++++++++++++++++*+o.o.o./+p.*.*./...= 7  .Y [ . = I+( a ",
"~ ^ 4 {.x.> #.q+<+J+K+*.*.*.p.o.n.n.n.*+++++++++++++++++++++++++++++++++++++++++++++++++*+n.n.n.o.p.*.*.L+, $ ] ; ] [ M+_ d.|.>.",
"' W ] % F.e.).~.W.N+O+*.*.*.p.o.n.n.n.*+++++++++++++++++++++++++++++++++++++++++++++++++*+n.n.n.o.p.*.*.0.P+^ | >.. 6 ' _ t.e ( ",
"9 + 7 . % % Z Z M.Q+I *.*.*.p.o.n.n.n.R+S+S+T+7+++++++7+T+S+S+S+++++++++U+S+S+S+U+++++++*+V+V+V+W+X+*.*.0.Y+|.= ] & ` [.e %.Z ( ",
"| X '.* ; ]  .^ ^ Z+`+*.*.*.p.o.n.n.n. @.@.@+@@@++++++#@$@.@.@%@7+++++^+&@.@.@.@*@^+++++8+=@-@-@-@*.*.*.T ;@u+b = >@j+[.* & X X ",
",@= &.|.:.>.x.Z :.'@)@*.*.*.p.o.n.n.n.!@*.*.~@@@++++++#@{@*.*.f+7+++++^+]@*.*.*.e+^+++++8+g+*.*.*.*.*.*.T ^@~+/@X (@M.>.|.>.% H.",
"* &.+.%._@6 :@F.Z <@[@*.*.*.p.o.n.n.n.!@*.*.~@@@++++++#@{@*.*.f+7+++++^+]@*.*.*.e+^+++++8+g+*.*.*.*.*.*.0.}@] ,+X . Z <.I.= +.$+",
"_@>...^ '.q+|@2 W 1@2@*.*.*.3@4@o.o.o.!@*.*.~@@@++++++#@{@*.*.f+^+5@5@6@7@*.*.*.e+^+++++8+g+*.*.*.*.*.*.0.8@! 7 ^ 6  .<.}+[.F.d+",
"c.' . , 3 _ H.2 8 9@0@*.*.*.a@b@b@b@b@c@*.*.~@@@++++++#@{@*.*.=@d@e@e@f@g@*.*.*.e+^+++++8+g+*.*.*.*.*.*.0.h@$ * * . Y {.i@f.).$+",
"j@k@~ ( * * ] 2 ] l@m@*.*.*.*.*.*.*.*.*.*.*.~@@@++++++#@{@*.*.*.*.*.*.*.*.*.*.*.e+^+++++8+g+*.*.*.*.*.*.n@o@] Y ' } 0 ) u.f.{.% ",
"d+j@>@_ v.{ :.,+= p@q@*.*.*.*.*.*.*.*.*.*.*.~@@@++++++#@{@*.*.*.*.*.*.*.*.*.*.*.e+^+++++8+g+*.*.*.*.*.*.n@r@V.$ >.} 7 >.a s@. ; ",
"/@t@u.X | & . ,+>.u@y v@w@x@T *.*.*.*.*.*.*.~@y@++++++#@{@*.*.*.*.*.*.*.*.*.*.*.e+^+++++7+g+*.*.n@z@A@/.B@C@@ ~ 0 ' ! ^ + }.) , ",
"e + : 7 X $ a ,+,.D@$.E@F@G@H@*.*.*.*.*.*.*.I@4+B+B+B+J@I@*.*.*.*.*.*.*.*.*.*.*.e@K@B+B+L@c@*.*.w+M@N@O@P@Q@|.' x.s@&. .' ..5 , ",
"Z $ > _.$ V.>.F.i@~.F.X . :.R@S@*.*.*.*.*.*.*.*.T@T@T@*.*.*.*.*.*.*.*.*.*.*.*.*.*.T@T@T@T@*.*.*.U@V@t@i@W@F.+ = b {.X 7 < . [.c.",
"F.- ] ) ; V.& +.X@).7 W + b Y@Z@*.*.*.*.*.*.*.*.*.*.*.*.*.*.*.*.*.*.*.*.*.*.*.*.*.*.*.*.*.*.*.*.`@) |@ ##., ] | E@{.4 ^ * >..#+#",
"4 ; $ | . M+( | 9 5 ^ ] = E@@#y+*.*.*.*.*.*.*.*.*.*.*.*.*.*.*.*.*.*.*.*.*.*.*.*.*.*.*.*.*.*.*.h.##7 X 2 ^ ' + . b <.+ [ ( | M.!.",
"X ( & [+W c+c >.W $ $#%#&#*#h =#*.*.*.*.*.*.*.*.*.*.*.*.*.*.*.*.*.*.*.*.*.*.*.*.*.*.*.*.*.*.*.-#;#>#,#'#$ 8 Z ).M.& 7 = { ) c e ",
"= : ^ | $ c ' * y.[ )#!#A@n@h.*.*.*.*.*.*.*.*.*.*.*.*.*.*.*.*.*.*.*.*.*.*.*.*.*.*.*.*.*.*.*.*.*.n@N ~#{#]#~ c a a ; 7 W > G+< # ",
"<.r.d.&.; ' ! V.7 . ^#-#*.*.*.*.*.*.*.*.*.*.*.*.*.*.*.*.*.*.*.*.*.*.*.*.*.*.*.*.*.*.*.*.*.*.*.*.*.*.*.*./#^ [ X ' 7 & W . c >.^ ",
"t@(#+#Z & ! W #+Y .._#:#*.*.*.*.*.*.*.*.*.*.*.*.*.*.*.*.*.*.*.*.*.*.*.*.*.*.*.*.*.*.*.*.*.*.*.*.*.*.*.*.<#- X ! : [ & & ] >.+ 2 ",
"s@!.[#W Z 2 ! * { | }#-#*.*.*.*.*.*.*.*.*.*.*.*.*.*.*.*.*.*.*.*.*.*.*.*.*.*.*.*.*.*.*.*.*.*.*.*.*.*.*.*.S@|#y.1#@ Y ;.~ Z $ - 2#",
"G+. - , < ! 3#4#5#6#7#^.*.*.*.*.*.*.*.*.*.*.*.*.*.*.*.*.*.*.*.*.*.*.*.*.*.*.*.*.*.*.*.*.*.*.*.*.*.*.*.*.n@&#& * 3 & ^ } 8 3 & 2 ",
"~ ^ a q+8#9#y+0#a#F+B@*.*.*.*.*.*.*.*.*.*.*.*.*.*.*.*.*.*.*.*.*.*.*.*.*.*.*.*.*.*.*.*.*.*.*.*.*.*.*.*.*.-#b#c#d#e#f#+ | &.N.& + ",
"7 Y + % s@g#-#*.*.*.*.*.*.*.*.*.*.*.*.*.*.*.*.*.*.*.*.*.*.*.*.*.*.*.*.*.*.*.*.*.*.*.*.*.*.*.*.*.*.*.*.*.*.*.*.*.R h##+^ _ f.E@& ",
"$ + ^ &./@i#:#*.*.*.*.*.*.*.*.*.*.*.*.*.*.*.*.*.*.*.*.*.*.*.*.*.*.*.*.*.*.*.*.*.*.*.*.*.*.*.*.*.*.*.*.*.*.*.*.*./.j#3 e _ #.<+, ",
",+X x._.Z k#h.*.*.*.*.*.*.*.*.*.*.*.*.*.*.*.*.*.*.*.*.*.*.*.*.*.*.*.*.*.*.*.*.*.*.*.*.*.*.*.*.*.*.*.*.*.*.*.*.*.n@l#G.e.I+b _ [ ",
", m#w Y.b#n#*.*.*.o#p#W+W+W+q#r#*.*.*.*.*.*.*.*.*.*.*.*.*.*.*.f+T+U+U+*+&@*.*.*.*.*.*.*.*.*.*.*.r#q#W+W+W+s#t#*.h.u#v#w#x#y#z#A#",
"{ B#*.*.*.*.*.*.*.C#o.n.n.n.D#r#*.*.*.*.*.*.*.*.*.*.*.*.*.*.*.f+7+++++^+]@*.*.*.*.*.*.*.*.*.*.*.r#D#n.n.n.E#t#*.*.F#G#H#I#J#K#/@",
": L#*.*.*.*.*.*.*.C#o.n.n.n.D#r#*.*.*.*.*.*.*.*.*.*.*.*.*.*.*.f+7+++++^+]@*.*.*.*.*.*.*.*.*.*.*.r#D#n.n.n.E#t#*.*.*.*.*.*.M#N#d+",
">@O#*.*.*.P#Q#Q#Q#o#o.n.n.n.R#S#{@{@{@*.*.*.*.T#{@{@{@T#*.*.*.f+7+++++^+]@*.*.*..@{@{@{@{@*.*.*.r#D#n.n.n.E#U#Q#Q#Q#*.*.*.-@V#W.",
"W#X#*.*.P#Y#Z#Z#Z#`#n.n.n.n. $.$+$+$+$@$*.*.#$$$+$+$+$%$T#*.*.f+7+++++^+]@*.*.*.&$*$+$+$=$c@*.*.r#D#n.n.n.-$q#Z#Z#;$*.*.*.*.>$4 ",
"}+,$*.*.Q#;$n.n.n.n.n.n.n.n.'$.+++++++)$*.*.~@@@++++++#@{@*.*.f+7+++++^+]@*.*.*.e+^+++++8+g+*.*.r#D#n.n.n.n.n.n.n.V+*.*.*.*.!$] ",
"|@~$*.*.Q#;$n.n.n.n.n.n.n.n.'$.+++++++)$*.*.~@@@++++++#@{@*.*.f+7+++++^+]@*.*.*.e+^+++++8+g+*.*.r#D#n.n.n.n.n.n.n.V+*.*.*.*.{$^ ",
"Z ]$*.*.Q#;$n.n.n.n.n.n.n.n.'$.+++++++)$*.*.~@@@++++++#@{@*.*.f+7+++++^+]@*.*.*.e+^+++++8+g+*.*.r#D#n.n.n.n.n.n.n.V+*.*.*.*.^${ ",
"s@/$*.*.Q#;$n.n.n.n.n.n.n.n.($_$:$:$:$<$[$[$}$|$:$:$:$1$2$[$[$3$:$:$:$_$4$[$[$[$5$_$:$:$6$7$[$[$}$8$n.n.n.n.n.n.n.V+*.*.*.*.9$> ",
"#.k#*.*.Q#;$n.n.n.n.n.n.n.n.n.0$0$0$0$n.n.n.n.n.0$0$0$n.n.n.n.n.0$0$0$0$n.n.n.n.n.0$0$0$0$n.n.n.n.n.n.n.n.n.n.n.n.V+*.*.*.h.a$b.",
"M.s *.*.Q#;$n.n.n.n.n.n.n.n.n.n.n.n.n.n.n.n.n.n.n.n.n.n.n.n.n.n.n.n.n.n.n.n.n.n.n.n.n.n.n.n.n.n.n.n.n.n.n.n.n.n.n.V+*.*.*.n@b$W@",
"a c$*.*.Q#;$n.n.n.n.n.n.n.n.n.n.n.n.n.n.n.n.n.n.n.n.n.n.n.n.n.n.n.n.n.n.n.n.n.n.n.n.n.n.n.n.n.n.n.n.n.n.n.n.n.n.n.V+*.*.*.A@d$).",
"+ ^#*.*.Q#E#e$e$e$e$e$e$e$e$e$e$e$e$e$e$e$e$e$e$e$e$e$e$e$e$e$e$e$e$e$e$e$e$e$e$e$e$e$e$e$e$e$e$e$e$e$e$e$e$e$e$e$f$*.*.*.g$h$G+",
"[.i$n@*.*.t#r#r#r#r#r#r#r#r#r#r#r#r#r#r#r#r#r#r#r#r#r#r#r#r#r#r#r#r#r#r#r#r#r#r#r#r#r#r#r#r#r#r#r#r#r#r#r#r#r#r#r#Q#*.*.*.j$k$* ",
"-+l$m$*.*.*.*.h.0.0.0.0.0.n$T 0.0.0.T S Z@Z@o$o$o$=.R o$=.R =.=.a#p$q$r$q$q$s$p$q$O s$s$t$K t$u$L t$L L t$K t$t$v$)@w$x$x$U@y$+ ",
"z$A$B$+.,+2 ) 1 #+,+4 ' ~ ;.] C$,@| D$2 E$k+;+;+% a H.X <   ] 2 W { 0 5 >.1 7 ,+2 X.A#z$d+B$9 9 2 ^ G+( 4 a 7 ;.~ ! F$0 | 2 2 2#"};
