/* XPM */
static char * slime1_xpm[] = {
"64 64 539 2",
"  	c #008314",
". 	c #006C18",
"+ 	c #006619",
"@ 	c #008014",
"# 	c #008414",
"$ 	c #006919",
"% 	c #006119",
"& 	c #007217",
"* 	c #007A16",
"= 	c #006B18",
"- 	c #00641A",
"; 	c #007018",
"> 	c #007716",
", 	c #007916",
"' 	c #007317",
") 	c #007117",
"! 	c #006A19",
"~ 	c #007C16",
"{ 	c #007B16",
"] 	c #006819",
"^ 	c #007417",
"/ 	c #008713",
"( 	c #007517",
"_ 	c #006818",
": 	c #007616",
"< 	c #007F15",
"[ 	c #006E18",
"} 	c #007218",
"| 	c #006719",
"1 	c #008215",
"2 	c #00611A",
"3 	c #007B15",
"4 	c #006319",
"5 	c #007118",
"6 	c #007C15",
"7 	c #007617",
"8 	c #006C19",
"9 	c #00621A",
"0 	c #007E15",
"a 	c #006419",
"b 	c #007016",
"c 	c #007717",
"d 	c #006718",
"e 	c #006F17",
"f 	c #00671A",
"g 	c #00661A",
"h 	c #007516",
"i 	c #007815",
"j 	c #006A18",
"k 	c #007416",
"l 	c #007615",
"m 	c #006519",
"n 	c #007216",
"o 	c #007D15",
"p 	c #007017",
"q 	c #006D17",
"r 	c #006B19",
"s 	c #006F18",
"t 	c #007816",
"u 	c #00651A",
"v 	c #006219",
"w 	c #006D16",
"x 	c #006717",
"y 	c #006A15",
"z 	c #006917",
"A 	c #006918",
"B 	c #006F16",
"C 	c #007316",
"D 	c #006915",
"E 	c #006E15",
"F 	c #008015",
"G 	c #006D18",
"H 	c #006B16",
"I 	c #007D16",
"J 	c #006518",
"K 	c #006417",
"L 	c #006616",
"M 	c #006618",
"N 	c #007515",
"O 	c #006A17",
"P 	c #006418",
"Q 	c #006716",
"R 	c #006118",
"S 	c #006517",
"T 	c #006817",
"U 	c #00601A",
"V 	c #006C15",
"W 	c #007215",
"X 	c #007115",
"Y 	c #007014",
"Z 	c #007415",
"` 	c #006C14",
" .	c #006C17",
"..	c #006E16",
"+.	c #007015",
"@.	c #007715",
"#.	c #006B15",
"$.	c #006A16",
"%.	c #006E17",
"&.	c #006516",
"*.	c #006D19",
"=.	c #006E14",
"-.	c #006816",
";.	c #005D1A",
">.	c #005B1A",
",.	c #006916",
"'.	c #005F1A",
").	c #006218",
"!.	c #006F15",
"~.	c #00631A",
"{.	c #006019",
"].	c #005C1A",
"^.	c #005E1A",
"/.	c #006A14",
"(.	c #006617",
"_.	c #006318",
":.	c #017517",
"<.	c #136623",
"[.	c #186027",
"}.	c #186F26",
"|.	c #186D26",
"1.	c #186827",
"2.	c #186527",
"3.	c #185D27",
"4.	c #185E26",
"5.	c #186226",
"6.	c #185A27",
"7.	c #185C26",
"8.	c #186325",
"9.	c #186726",
"0.	c #186427",
"a.	c #186E25",
"b.	c #186426",
"c.	c #185727",
"d.	c #185528",
"e.	c #185A28",
"f.	c #186C27",
"g.	c #186627",
"h.	c #185E27",
"i.	c #186927",
"j.	c #186727",
"k.	c #185F27",
"l.	c #185D26",
"m.	c #186225",
"n.	c #185B27",
"o.	c #186025",
"p.	c #186327",
"q.	c #187025",
"r.	c #185C27",
"s.	c #185527",
"t.	c #185927",
"u.	c #166A25",
"v.	c #046B1A",
"w.	c #007318",
"x.	c #027918",
"y.	c #2A5236",
"z.	c #333A3E",
"A.	c #333E3E",
"B.	c #333D3E",
"C.	c #333B3E",
"D.	c #333C3E",
"E.	c #33393E",
"F.	c #33383E",
"G.	c #2F4A3A",
"H.	c #0F6A20",
"I.	c #007817",
"J.	c #006317",
"K.	c #027717",
"L.	c #2D4F38",
"M.	c #353440",
"N.	c #353540",
"O.	c #31443C",
"P.	c #106C20",
"Q.	c #006316",
"R.	c #027617",
"S.	c #10731E",
"T.	c #027216",
"U.	c #2D4938",
"V.	c #383842",
"W.	c #696567",
"X.	c #686567",
"Y.	c #636061",
"Z.	c #474941",
"`.	c #484942",
" +	c #484A42",
".+	c #363640",
"++	c #31413C",
"@+	c #106A1E",
"#+	c #007C14",
"$+	c #006B17",
"%+	c #026916",
"&+	c #2D4638",
"*+	c #49474E",
"=+	c #F0E7DD",
"-+	c #EFE6DC",
";+	c #E0D9CA",
">+	c #89904A",
",+	c #8C9250",
"'+	c #8D9350",
")+	c #3B3C41",
"!+	c #313F3C",
"~+	c #10601F",
"{+	c #007917",
"]+	c #006615",
"^+	c #026418",
"/+	c #2D4738",
"(+	c #EEE5DB",
"_+	c #EDE4DA",
":+	c #DED7C8",
"<+	c #888F4A",
"[+	c #8B9150",
"}+	c #106521",
"|+	c #008214",
"1+	c #006D15",
"2+	c #005E19",
"3+	c #026919",
"4+	c #2D4E39",
"5+	c #31433C",
"6+	c #107320",
"7+	c #006614",
"8+	c #027019",
"9+	c #2D4939",
"0+	c #EDE4DB",
"a+	c #DED7C9",
"b+	c #106821",
"c+	c #006C16",
"d+	c #02661B",
"e+	c #EEE5DC",
"f+	c #C6B076",
"g+	c #BFA65B",
"h+	c #BEA559",
"i+	c #BBA251",
"j+	c #B6A051",
"k+	c #8A9150",
"l+	c #31403C",
"m+	c #107020",
"n+	c #026C19",
"o+	c #2E4B39",
"p+	c #C4AD70",
"q+	c #BDA351",
"r+	c #B8A151",
"s+	c #107220",
"t+	c #006B14",
"u+	c #026A1A",
"v+	c #2E483A",
"w+	c #106A21",
"x+	c #02641B",
"y+	c #2E423A",
"z+	c #EFE6DD",
"A+	c #313D3C",
"B+	c #105E22",
"C+	c #02691A",
"D+	c #2F413A",
"E+	c #3F3F45",
"F+	c #AEAE89",
"G+	c #ADAD89",
"H+	c #ADAD8A",
"I+	c #BBA45B",
"J+	c #105F22",
"K+	c #008115",
"L+	c #02651A",
"M+	c #2F433A",
"N+	c #313E3C",
"O+	c #106122",
"P+	c #007A15",
"Q+	c #02681A",
"R+	c #2F4B3A",
"S+	c #006E19",
"T+	c #2F493A",
"U+	c #31423C",
"V+	c #10731F",
"W+	c #2F453A",
"X+	c #AD954E",
"Y+	c #9D884B",
"Z+	c #9E884B",
"`+	c #B69E50",
" @	c #73794B",
".@	c #757A4B",
"+@	c #393940",
"@@	c #106A1F",
"#@	c #887748",
"$@	c #313240",
"%@	c #BCA251",
"&@	c #B29A4F",
"*@	c #2A2D3F",
"=@	c #333340",
"-@	c #10651E",
";@	c #007315",
">@	c #027D17",
",@	c #2F483A",
"'@	c #897748",
")@	c #393840",
"!@	c #B39A4F",
"~@	c #2D2F40",
"{@	c #31453C",
"]@	c #106920",
"^@	c #027718",
"/@	c #31463C",
"(@	c #10741F",
"_@	c #027119",
":@	c #2F463B",
"<@	c #8E7B49",
"[@	c #4B4641",
"}@	c #4C4641",
"|@	c #4E4742",
"1@	c #B39B4F",
"2@	c #3A3E41",
"3@	c #414241",
"4@	c #353640",
"5@	c #106B20",
"6@	c #30443B",
"7@	c #BEA451",
"8@	c #8B9250",
"9@	c #006815",
"0@	c #006F14",
"a@	c #027518",
"b@	c #30453B",
"c@	c #027618",
"d@	c #30473B",
"e@	c #027317",
"f@	c #106E1E",
"g@	c #04681B",
"h@	c #06621D",
"i@	c #06611D",
"j@	c #066D1A",
"k@	c #096B1A",
"l@	c #B19B50",
"m@	c #B69D50",
"n@	c #BAA050",
"o@	c #B79E50",
"p@	c #B9A050",
"q@	c #B7A051",
"r@	c #848B4F",
"s@	c #868C4F",
"t@	c #3B3B41",
"u@	c #146322",
"v@	c #07711B",
"w@	c #08701C",
"x@	c #08711B",
"y@	c #05681A",
"z@	c #016919",
"A@	c #236B2D",
"B@	c #2F443A",
"C@	c #2E433A",
"D@	c #2E453A",
"E@	c #34373F",
"F@	c #434642",
"G@	c #2D3040",
"H@	c #2B2F40",
"I@	c #937F4A",
"J@	c #BFA451",
"K@	c #615743",
"L@	c #887648",
"M@	c #282B3F",
"N@	c #323140",
"O@	c #30413B",
"P@	c #235230",
"Q@	c #017018",
"R@	c #286832",
"S@	c #353340",
"T@	c #333440",
"U@	c #94804A",
"V@	c #645944",
"W@	c #254E32",
"X@	c #006914",
"Y@	c #016C19",
"Z@	c #2E6537",
"`@	c #255131",
" #	c #026B1A",
".#	c #3B7542",
"+#	c #353240",
"@#	c #323240",
"##	c #343440",
"$#	c #255B31",
"%#	c #20612C",
"&#	c #2E4539",
"*#	c #2D4838",
"=#	c #31493C",
"-#	c #393A40",
";#	c #888E4F",
">#	c #888D4F",
",#	c #AE964E",
"'#	c #433F41",
")#	c #484341",
"!#	c #4A4541",
"~#	c #868B4F",
"{#	c #565945",
"]#	c #323D3D",
"^#	c #30463B",
"/#	c #30423B",
"(#	c #23672E",
"_#	c #007F14",
":#	c #245630",
"<#	c #343340",
"[#	c #898F4F",
"}#	c #585B45",
"|#	c #275932",
"1#	c #245330",
"2#	c #275333",
"3#	c #245230",
"4#	c #383840",
"5#	c #474942",
"6#	c #272C3F",
"7#	c #2F3040",
"8#	c #575A45",
"9#	c #275133",
"0#	c #005C1B",
"a#	c #008114",
"b#	c #245A30",
"c#	c #4C4E43",
"d#	c #787D4B",
"e#	c #777C4B",
"f#	c #787C4B",
"g#	c #8D9150",
"h#	c #AF9D51",
"i#	c #AE9D51",
"j#	c #B09F51",
"k#	c #534D42",
"l#	c #9F8A4C",
"m#	c #A08B4C",
"n#	c #8C9150",
"o#	c #7D824D",
"p#	c #656947",
"q#	c #275D32",
"r#	c #245E30",
"s#	c #555844",
"t#	c #8D9250",
"u#	c #574F42",
"v#	c #275832",
"w#	c #275432",
"x#	c #007116",
"y#	c #245131",
"z#	c #274F33",
"A#	c #245031",
"B#	c #B09E51",
"C#	c #B19F51",
"D#	c #6A6947",
"E#	c #5A5D45",
"F#	c #91864C",
"G#	c #A3944F",
"H#	c #585C45",
"I#	c #5C5E45",
"J#	c #726E48",
"K#	c #8A804B",
"L#	c #245631",
"M#	c #275433",
"N#	c #005D1B",
"O#	c #245830",
"P#	c #245730",
"Q#	c #275233",
"R#	c #245B30",
"S#	c #545644",
"T#	c #898F50",
"U#	c #73774A",
"V#	c #007113",
"W#	c #245D30",
"X#	c #353740",
"Y#	c #006B13",
"Z#	c #006217",
"`#	c #22552E",
" $	c #313E3D",
".$	c #323F3D",
"+$	c #323E3D",
"@$	c #323C3D",
"#$	c #32403D",
"$$	c #32423D",
"%$	c #323B3D",
"&$	c #32413D",
"*$	c #323E3E",
"=$	c #323B3E",
"-$	c #323C3E",
";$	c #323A3E",
">$	c #323D3E",
",$	c #323F3E",
"'$	c #32403E",
")$	c #254E31",
"!$	c #08611D",
"~$	c #0F6720",
"{$	c #0F6821",
"]$	c #0F5F21",
"^$	c #0F6721",
"/$	c #0F6221",
"($	c #0F5E21",
"_$	c #0F6920",
":$	c #0F6B1F",
"<$	c #0F671F",
"[$	c #0F701F",
"}$	c #0F741F",
"|$	c #0F721F",
"1$	c #116222",
"2$	c #127221",
"3$	c #126B22",
"4$	c #125E23",
"5$	c #126A22",
"6$	c #127021",
"7$	c #125D23",
"8$	c #126222",
"9$	c #126023",
"0$	c #126223",
"a$	c #126522",
"b$	c #126A21",
"c$	c #126620",
"d$	c #126920",
"e$	c #127321",
"f$	c #126D21",
"g$	c #126F21",
"h$	c #146923",
"i$	c #157023",
"j$	c #145E25",
"k$	c #146124",
"l$	c #146D23",
"m$	c #147023",
"n$	c #146323",
"o$	c #145C24",
"p$	c #146624",
"q$	c #146524",
"r$	c #146424",
"s$	c #145E24",
"t$	c #145D25",
"u$	c #146823",
"v$	c #146722",
"w$	c #146422",
"x$	c #146E22",
"y$	c #146F23",
"z$	c #146523",
"A$	c #176F24",
"B$	c #176625",
"C$	c #0F5E22",
"D$	c #006416",
"E$	c #006515",
"F$	c #005D19",
"G$	c #007418",
"H$	c #007514",
"I$	c #006018",
"J$	c #006415",
"K$	c #007C17",
"L$	c #00601B",
"M$	c #005E1B",
"N$	c #007E16",
"  . + @ # $ % & * = - ; > * , ' ) ! ~ > + ' { ] ^ / ( - _ > : + ] ^ * < [ & [ } < ] . @ | | # 1 ] 2 ^ 3 $ 4 5 , 6 7 ^ ) 8 < ' 9 ",
"0 ' a b 6 c d e [ + . f [ ( . ] | g : h $ c , $ _ i 0 = j k _ . | ] ^ & + ! + ) l j ; { ; m n o ( + p q ] r m s ( = ] | j l ' m ",
"t 5 u v w & x y z A 6 5 m s ] ^ t | B n ) { : $ 4 x C j D E + ( * | = ! 8 F r G E [ { t e a % b ) x H A G I G + e ! c 7 j B n & ",
"G | ; + % x J K L M N k ] = [ o ' _ d O t ^ | ! [ 4 P J P Q M B i G ] = * 3 $ | z ' 7 G m p m R d J S L _ h ' ] G } 6 p _ T q , ",
"U m C ) u % & ) ] A V W ' + p X w , e + ) | 9 G ' G % $ ^ _ . H Y Z A $ Z E ' 7 z G . 9 m ^ ; 4 9 ^ p A z ` W p m ) X  ., .._ & ",
"} | q , & r 7 ) ^ 0 +.D y A b D w > & 9 2 [ $ | h * ! } ' = 0 @.#.D $.%.$.&.: { m U ] [ m e , ; *.> p ( o =.D H j ..-.%.> p v ;.",
"0 = M B k ( k | G o * a >.% ,.P T E [ 2 4 ( ^ m  .C ( : G m t 0 e ;.'.M S ).!.Z ~.{. .* | M b k : C M s o , % ].4 T P z !.. % ^.",
"> $ U J ) l V v | ^ 7 $ u ! * 7 T /.q 4 -.n ) 4 U A * b (.9 s > 5 m | ^ * j y +.J K E h + U + ' h y ).$ ( : | m . * ^ T #.. _.L ",
"Z ) $ ~ @.d ;.% s :.<.[.}.|.1.2.3.4.5.6.7.8.9.[.0.a.b.c.d.e.f.g.h.1.}.i.j.k.l.m.k.n.o.9.p.k.q.9.r.s.t.2.u.v.r I , w.p d D %.m &.",
"X : w.t 0 ; 2 '.] x.y.z.A.B.z.C.z.z.C.z.z.C.D.C.D.A.C.E.E.E.D.D.z.D.A.C.C.C.z.z.C.E.z.D.D.C.A.D.E.F.E.C.G.H.$ 7 ( 8 I.G D !.d J.",
"` l * [ 7 ~ = 2 j K.L.M.N.N.N.N.N.N.N.N.N.N.N.N.N.N.N.N.N.N.N.N.N.N.N.N.N.N.N.N.N.N.N.N.N.N.N.N.N.N.N.N.O.P.] ] [ & * G (.w ] 4 ",
"Q.y E | G I.s ~.. R.L.M.N.N.N.N.N.N.N.N.N.N.N.N.N.N.N.N.N.N.N.N.N.N.N.N.N.N.N.N.N.N.N.N.N.N.N.N.N.N.N.N.O.S.6 } 7 ' } r a P r } ",
"+ R M A m s ! ~.%.T.U.M.N.N.V.W.X.X.X.X.X.X.X.X.X.X.X.Y.Z.`.`.`.`.`.`.`.`.`.`.`.`.`.`.`.`.`.`.`. +.+N.N.++@+#+o 6 p $ ~ G v ^ 0 ",
"$+j 3 > m g - P #.%+&+N.N.N.*+=+-+-+-+-+-+-+-+-+-+-+-+;+>+,+,+,+,+,+,+,+,+,+,+,+,+,+,+,+,+,+,+,+'+)+N.N.!+~+q p C T | t h + & t ",
"A | w.h G {+& (.]+^+/+N.N.N.*+(+_+_+_+_+_+_+_+_+_+_+_+:+<+[+[+[+[+[+[+[+[+[+[+[+[+[+[+[+[+[+[+[+[+)+N.N.!+}+| A b (.4 7 |+s z 1+",
"P m u [ [ ; ' 4 2+3+4+M.N.N.*+(+_+_+_+_+_+_+_+_+_+_+_+:+<+[+[+[+[+[+[+[+[+[+[+[+[+[+[+[+[+[+[+[+[+)+N.N.5+6+] = n x 4 s t . K 7+",
"4 : s + = s & ] + 8+9+M.N.N.*+(+_+_+_+0+0+0+0+0+0+0+0+a+<+[+[+[+[+[+[+[+[+[+[+[+[+[+[+[+[+[+[+[+[+)+N.N.5+b++ A c+ .= r ( $ A J ",
"m ' ; a ] , , c ( d+9+M.N.N.*+(+_+_+e+f+g+g+g+g+g+g+g+h+i+i+i+i+i+i+i+i+i+i+i+i+i+i+i+i+j+k+[+[+[+)+N.N.l+m+' 4 U ) c = { c * I ",
"%.h ( ! [ c s ^ , n+o+M.N.N.*+(+_+_+e+p+q+q+q+q+q+q+q+q+q+q+q+q+q+q+q+q+q+q+q+q+q+q+q+q+r+k+[+[+[+)+N.N.++s+& 4 ] ' 7 = ^ < , o ",
"(.t+!.= ' } | 8 5 u+v+N.N.N.*+(+_+_+e+p+q+q+q+q+q+q+q+q+q+q+q+q+q+q+q+q+q+q+q+q+q+q+q+q+r+k+[+[+[+)+N.N.++w+$ ] , ( 8 | ] ' | $ ",
"P ]+&.A 8 ~.[ < 7 x+y+N.N.N.*+-+(+(+z+p+q+q+q+q+q+q+q+q+q+q+q+q+q+q+q+q+q+q+q+q+q+q+q+q+r+k+[+[+[+)+N.N.A+B+; ( * G * { | ] 4 '.",
"& M % h ( a | , ~ C+D+N.N.N.E+F+G+G+H+I+q+q+q+q+q+q+q+q+q+q+q+q+q+q+q+q+q+q+q+q+q+q+q+q+r+k+[+[+[+)+N.N.A+J+, K+< ' { { . w.$ ^.",
"1 ; - k < p + ) & L+M+N.N.N.)+[+[+[+k+r+q+q+q+q+q+q+q+q+q+q+q+q+q+q+q+q+q+q+q+q+q+q+q+q+r+k+[+[+[+)+N.N.N+O+= 7 t s [ . = P+( a ",
"~ ^ 4 M k > x c+$+Q+R+M.N.N.)+[+[+[+k+r+q+q+q+q+q+q+q+q+q+q+q+q+q+q+q+q+q+q+q+q+q+q+q+q+r+k+[+[+[+)+N.N.5+s+$ ] ; ] [ S+_ X C G ",
"' r ] % P  .J L &.L+T+M.N.N.)+[+[+[+k+r+q+q+q+q+q+q+q+q+q+q+q+q+q+q+q+q+q+q+q+q+q+q+q+q+r+k+[+[+[+)+N.N.U+V+^ | G . 6 ' _ H e ( ",
"9 + 7 . % % j j _.L+W+N.N.N.)+[+[+[+k+r+q+q+q+X+Y+Y+Y+Y+Y+Y+Y+Z+q+q+q+q+q+q+q+q+q+q+q+q+`+ @.@.@.@+@N.N.l+@@C = ] & l q e z j ( ",
"| m n * ; ] t ^ ^ K.W+N.N.N.)+[+[+[+k+r+q+q+q+#@$@$@$@$@$@$@$@N.%@q+q+q+q+q+q+q+q+q+q+q+&@*@=@=@=@N.N.N.U+-@t+b = ;@1+q * & m m ",
"F = A C p G k j p >@,@N.N.N.)+[+[+[+k+r+q+q+q+'@N.N.N.N.N.N.N.)@%@q+q+q+q+q+q+q+q+q+q+q+!@~@N.N.N.N.N.N.{@]@R {.m ,._.G C G % ^.",
"* A v z N 6 +.P j ^@G.M.N.N.)+[+[+[+k+r+q+q+q+'@N.N.N.N.N.N.N.)@%@q+q+q+q+q+q+q+q+q+q+q+!@~@N.N.N.N.N.N./@(@] ~.m . j T V = v J.",
"N G u ^ n c+).2 r _@:@N.N.N.)+[+[+[+k+r+q+q+q+<@[@}@}@}@}@}@}@|@%@q+q+q+q+q+q+q+q+q+q+q+1@2@3@3@3@4@N.N.5+5@! 7 ^ 6 t T /.q P ]+",
"W ' . , 3 _ ^.2 8 x.6@N.N.N.)+[+[+[+k+r+q+q+q+7@7@7@7@7@7@7@7@7@q+q+q+q+q+q+q+q+q+q+q+q+r+8@,+,+,+)+N.N.O.}+$ * * . s M 9@..J J.",
"0@i ~ ( * * ] 2 ] a@b@N.N.N.)+[+[+[+k+r+q+q+q+q+q+q+q+q+q+q+q+q+q+q+q+q+q+q+q+q+q+q+q+q+r+k+[+[+[+)+N.N.O.5@] s ' } 0 ) -...M % ",
"]+0@;@_ %.{ p ~.= c@d@N.N.N.)+[+[+[+k+r+q+q+q+q+q+q+q+q+q+q+q+q+q+q+q+q+q+q+q+q+q+q+q+q+r+k+[+[+[+)+N.N.{@(@w.$ G } 7 G a O . ; ",
"{.S -.m | & . ~.G e@6@N.N.N.)+[+[+[+k+r+q+q+q+q+q+q+q+q+q+q+q+q+q+q+q+q+q+q+q+q+q+q+q+q+r+k+[+[+[+)+N.N.U+f@@ ~ 0 ' ! ^ + U ) , ",
"e + : 7 m g@h@i@j@k@l+N.N.N.)+[+[+[+k+l@m@m@m@n@q+q+q+q+q+q+q+q+q+q+q+q+o@m@m@m@p@q+q+q+q@r@s@s@s@t@N.N.l+u@v@w@x@y@A t ' u 5 , ",
"j $ > h z@A@B@C@D@B@E@N.N.N.)+[+[+[+,+F@G@G@H@I@q+q+q+q+q+q+q+q+q+q+q+J@K@G@G@G@L@q+q+q+&@M@N@N@N@N.N.N.E@N+O@++++P@J 7 < . q W ",
"P - ] ) Q@R@S@N.N.N.N.N.N.N.)+[+[+[+,+`.N.N.T@U@q+q+q+q+q+q+q+q+q+q+q+J@V@N.N.N.'@q+q+q+!@~@N.N.N.N.N.N.N.N.N.N.4@W@P ^ * G Q X@",
"4 ; $ | Y@Z@S@N.N.N.N.N.N.N.)+[+[+[+,+`.N.N.T@U@q+q+q+q+q+q+q+q+q+q+q+J@V@N.N.N.'@q+q+q+!@~@N.N.N.N.N.N.N.N.N.N.4@`@M [ ( | _.K ",
"m : n +  #.#+#N.N.N.@#@#@#@#+@[+[+[+,+`.N.N.T@U@q+q+q+q+7@7@7@7@q+q+q+J@V@N.N.N.'@q+q+q+!@~@N.N.N.@#@#@#@###N.N.4@$#@.= 6 & c e ",
" .%#,@&#*#=#M.N.N.-#;#>#>#>#;#[+[+[+,+`.N.N.T@U@q+q+q+,#'#)#)#!#%@q+q+J@V@N.N.N.'@q+q+q+!@~@N.N.##~#>#>#;#{#N.N.N.]#^#/#^#(#_## ",
",.:#4@N.N.N.N.N.N.-#[+[+[+[+[+[+[+[+,+`.N.N.T@U@q+q+q+X+G@N.N.)@%@q+q+J@V@N.N.N.'@q+q+q+!@~@N.N.<#[#[+[+,+}#N.N.N.N.N.N.M.|#G ^ ",
"&.1#4@N.N.N.N.N.N.-#[+[+[+[+[+[+[+[+,+`.N.N.T@U@q+q+q+X+G@N.N.)@%@q+q+J@V@N.N.N.'@q+q+q+!@~@N.N.<#[#[+[+,+}#N.N.N.N.N.N.M.2#+ 2 ",
"O 3#4@N.N.M.=@=@=@4#[+[+[+[+[+k+k+k+8@5#N.N.T@U@q+q+q+X+G@N.N.)@%@q+q+J@V@N.N.N.'@q+q+q+&@6#$@$@7#[#[+[+,+8#=@=@=@##N.N.M.9#a 0#",
"a#b#4@N.N.c#d#e#e#f#[+[+[+[+g#h#i#i#j#k#N.N.T@U@q+q+q+X+G@N.N.)@%@q+q+J@V@N.N.N.'@q+q+q+n@l#m#m#m#n#[+[+[+o#e#e#e#p###N.M.q#& 2 ",
"o r#4@N.N.s#,+[+[+[+[+[+[+[+t#q+q+q+J@u#N.N.T@U@q+q+q+X+G@N.N.)@%@q+q+J@V@N.N.N.'@q+q+q+q+q+q+q+q+t#[+[+[+[+[+[+[+.@=@N.M.v#C + ",
": b#4@N.N.s#,+[+[+[+[+[+[+[+t#q+q+q+J@u#N.N.T@U@q+q+q+X+G@N.N.)@%@q+q+J@V@N.N.N.'@q+q+q+q+q+q+q+q+t#[+[+[+[+[+[+[+.@=@N.M.w#x#& ",
"$ y#4@N.N.s#,+[+[+[+[+[+[+[+t#q+q+q+J@u#N.N.T@U@q+q+q+X+G@N.N.)@%@q+q+J@V@N.N.N.'@q+q+q+q+q+q+q+q+t#[+[+[+[+[+[+[+.@=@N.M.z# ., ",
"- A#4@N.N.s#,+[+[+[+[+[+[+[+t#B#B#B#C#D#E#E#E#F#B#B#B#G#H#E#E#I#h#B#B#C#J#E#E#E#K#B#B#B#B#B#B#B#B#t#[+[+[+[+[+[+[+.@=@N.M.w#_ [ ",
", L#4@N.N.s#,+[+[+[+[+[+[+[+[+k+k+k+k+,+,+,+,+[+k+k+k+k+,+,+,+,+k+k+k+k+8@,+,+,+[+k+k+k+k+k+k+k+k+[+[+[+[+[+[+[+[+.@=@N.M.M#v N#",
"3 O#4@N.N.s#,+[+[+[+[+[+[+[+[+[+[+[+[+[+[+[+[+[+[+[+[+[+[+[+[+[+[+[+[+[+[+[+[+[+[+[+[+[+[+[+[+[+[+[+[+[+[+[+[+[+[+.@=@N.M.9#v {.",
"> P#4@N.N.s#,+[+[+[+[+[+[+[+[+[+[+[+[+[+[+[+[+[+[+[+[+[+[+[+[+[+[+[+[+[+[+[+[+[+[+[+[+[+[+[+[+[+[+[+[+[+[+[+[+[+[+.@=@N.M.Q#P ]+",
";@R#4@N.N.S#T#;#;#;#;#;#;#;#;#;#;#;#;#;#;#;#;#;#;#;#;#;#;#;#;#;#;#;#;#;#;#;#;#;#;#;#;#;#;#;#;#;#;#;#;#;#;#;#;#;#;#U#=@N.M.w#J &.",
"V#W#X#N.N.##=@=@=@=@=@=@=@=@=@=@=@=@=@=@=@=@=@=@=@=@=@=@=@=@=@=@=@=@=@=@=@=@=@=@=@=@=@=@=@=@=@=@=@=@=@=@=@=@=@=@=@##N.N.M.w#d 4 ",
"Y#b#X#N.N.N.N.N.N.N.N.N.N.N.N.N.N.N.N.N.N.N.N.N.N.N.N.N.N.N.N.N.N.N.N.N.N.N.N.N.N.N.N.N.N.N.N.N.N.N.N.N.N.N.N.N.N.N.N.N.M.2#j ] ",
"Z#`# $]#]#.$+$@$.$#$#$$$$$$$#$]##$]#%$+$#$.$%$@$]#@$+$+$@$@$.$.$#$&$#$#$]#]#*$=$-$*$*$-$;$-$-$-$>$-$=$>$+$+$#$,$'$>$-$B.C.)$q ^ ",
"j !$~${$]$^$/$($_$:$<$[$}$|$H.1$2$3$4$5$2$6$7$8$3$9$0$a$7$8$b$c$d$e$f$g$9$h$i$j$k$l$m$n$o$p$q$j$r$s$t$u$v$w$x$y$y$z$k$A$B$C$' { ",
"O = { c g ] m P /.X@D$| s ) T m ^ * ! s : W m 7 * G g ] 4 -./.&.P s . w 4 G * 5 ! h N $+. * ( + $ a S t+9@K $ %.n x + 7 t ] p > ",
"x + s ^ [ > & K D$S [ ] ] e (.4 } 1 ) T ` #.4 r ^ ' ; , _ D$D$_ s $ = c+% + F 6 d #.#.x | ; ' [ I.; S &.(.p | ] b J 4 7 F [ -.` ",
"_.] m = G s ( a ^.. {+j = n T m G , G P E$&.a $ | p $ ( [ F$v c & | ' ..m m : ( m K &.P $ u . G 5 ( 4 ^.s , ] G n T a s I.r P E$",
"a > 5 + . ^ ^ ] + G ! + d O q & r , s ; a % [ {++ = = t . + $ G $ a  .z : = ) 7 G = v m * [ | . 7 } | + [ = + _ z e ; r c . s J ",
"+ ( & u | t c , , ! c t a {.%.> 8 I.~ * I [ ) 7 A a 5 6 & 0 5 [ 6 . % m , 5 s I { o > = > ; a $ , ^ * , ! , 7 4 2 ; 7 r , { { K+",
"q ;@k ! [ ( G ' > 8 7 ' ~.$ h h [ s * G$> [ H$N %.$ ( & G : ' & : ! ~.; > ^ ! > , : ^ b ;@^ f s ( = ( t G c & - 8 G$7 . ) 6 ( * ",
"(./.V j w.s ] s s ] . $ $ c ' G r + ; | m M /.t+$+s ) A . ; G . ] $ e I.s [ | . [ a | Q /.1+! ' [ ] s ; $ = ] ! {+w.*.! ] & | + ",
"I$J$Z#v ~.2 ) 1 I.~.4 ' ~ I ] K$F | L$2 M$2+Q.Q.% a ^.m <   ] 2 r { 0 5 G 1 7 ~.2 '.N#I$]+Z#9 9 2 ^ K+( 4 a 7 I ~ ! N$0 | 2 2 0#"};
