/* XPM */
static char * slime2_xpm[] = {
"64 64 523 2",
"  	c #008314",
". 	c #006C18",
"+ 	c #006619",
"@ 	c #008014",
"# 	c #008414",
"$ 	c #006919",
"% 	c #006119",
"& 	c #007217",
"* 	c #007A16",
"= 	c #006B18",
"- 	c #00641A",
"; 	c #007018",
"> 	c #007716",
", 	c #007916",
"' 	c #007317",
") 	c #007117",
"! 	c #006A19",
"~ 	c #007C16",
"{ 	c #007B16",
"] 	c #006819",
"^ 	c #007417",
"/ 	c #008713",
"( 	c #007517",
"_ 	c #006818",
": 	c #007616",
"< 	c #007F15",
"[ 	c #006E18",
"} 	c #007218",
"| 	c #006719",
"1 	c #008215",
"2 	c #00611A",
"3 	c #007B15",
"4 	c #006319",
"5 	c #007118",
"6 	c #007C15",
"7 	c #007617",
"8 	c #006C19",
"9 	c #00621A",
"0 	c #007E15",
"a 	c #006419",
"b 	c #007016",
"c 	c #007717",
"d 	c #006718",
"e 	c #006F17",
"f 	c #00671A",
"g 	c #00661A",
"h 	c #007516",
"i 	c #007815",
"j 	c #006A18",
"k 	c #007416",
"l 	c #007615",
"m 	c #006519",
"n 	c #007216",
"o 	c #007D15",
"p 	c #007017",
"q 	c #006D17",
"r 	c #006B19",
"s 	c #006F18",
"t 	c #007816",
"u 	c #00651A",
"v 	c #006219",
"w 	c #006D16",
"x 	c #006717",
"y 	c #006A15",
"z 	c #006917",
"A 	c #006918",
"B 	c #006F16",
"C 	c #007316",
"D 	c #006915",
"E 	c #006E15",
"F 	c #008015",
"G 	c #006D18",
"H 	c #006B16",
"I 	c #007D16",
"J 	c #006518",
"K 	c #006417",
"L 	c #006616",
"M 	c #006618",
"N 	c #007515",
"O 	c #006A17",
"P 	c #006418",
"Q 	c #006716",
"R 	c #006118",
"S 	c #006517",
"T 	c #006817",
"U 	c #00601A",
"V 	c #006C15",
"W 	c #007215",
"X 	c #007115",
"Y 	c #007014",
"Z 	c #007415",
"` 	c #006C14",
" .	c #006C17",
"..	c #006E16",
"+.	c #0C6B1D",
"@.	c #136321",
"#.	c #136421",
"$.	c #136322",
"%.	c #136A21",
"&.	c #136621",
"*.	c #136F22",
"=.	c #136B22",
"-.	c #135C24",
";.	c #145B25",
">.	c #146524",
",.	c #146024",
"'.	c #146D23",
").	c #147022",
"!.	c #146124",
"~.	c #146923",
"{.	c #146B23",
"].	c #146423",
"^.	c #147422",
"/.	c #146C22",
"(.	c #146322",
"_.	c #156623",
":.	c #156423",
"<.	c #155E23",
"[.	c #156D23",
"}.	c #157124",
"|.	c #155E25",
"1.	c #155925",
"2.	c #155F25",
"3.	c #156325",
"4.	c #155D25",
"5.	c #156724",
"6.	c #156F23",
"7.	c #156625",
"8.	c #156824",
"9.	c #166B25",
"0.	c #157123",
"a.	c #056B18",
"b.	c #006816",
"c.	c #006E17",
"d.	c #005D1A",
"e.	c #017C16",
"f.	c #265E32",
"g.	c #333A3E",
"h.	c #333B3E",
"i.	c #333C3E",
"j.	c #333D3E",
"k.	c #33393F",
"l.	c #33393E",
"m.	c #33383E",
"n.	c #34383F",
"o.	c #34373F",
"p.	c #34393F",
"q.	c #353640",
"r.	c #32413D",
"s.	c #146E23",
"t.	c #005C1A",
"u.	c #006F15",
"v.	c #005E1A",
"w.	c #017318",
"x.	c #285734",
"y.	c #353440",
"z.	c #353540",
"A.	c #333E3E",
"B.	c #006B15",
"C.	c #006318",
"D.	c #007715",
"E.	c #017518",
"F.	c #285334",
"G.	c #146323",
"H.	c #007318",
"I.	c #006516",
"J.	c #005F1A",
"K.	c #017917",
"L.	c #363640",
"M.	c #44434A",
"N.	c #424148",
"O.	c #393A40",
"P.	c #3A3A40",
"Q.	c #333F3D",
"R.	c #146723",
"S.	c #007817",
"T.	c #006317",
"U.	c #017717",
"V.	c #49474E",
"W.	c #EEE5DB",
"X.	c #EDE4DA",
"Y.	c #DED7C9",
"Z.	c #888F4A",
"`.	c #8B9150",
" +	c #8C9250",
".+	c #3B3C41",
"++	c #146A23",
"@+	c #006617",
"#+	c #006316",
"$+	c #00631A",
"%+	c #017617",
"&+	c #285834",
"*+	c #DED7C8",
"=+	c #323F3E",
"-+	c #137121",
";+	c #017216",
">+	c #285234",
",+	c #323E3D",
"'+	c #136820",
")+	c #007C14",
"!+	c #006B17",
"~+	c #016915",
"{+	c #284C34",
"]+	c #EEE5DC",
"^+	c #DFD8CA",
"/+	c #878E4A",
"(+	c #8A9150",
"_+	c #323C3D",
":+	c #135F22",
"<+	c #007917",
"[+	c #006615",
"}+	c #016417",
"|+	c #284E34",
"1+	c #CBB787",
"2+	c #C5AF74",
"3+	c #C2AC6E",
"4+	c #B6A050",
"5+	c #B7A051",
"6+	c #B29F51",
"7+	c #136323",
"8+	c #008214",
"9+	c #006D15",
"0+	c #005E19",
"a+	c #016919",
"b+	c #285934",
"c+	c #C4AD70",
"d+	c #BDA351",
"e+	c #B8A151",
"f+	c #323F3D",
"g+	c #137222",
"h+	c #006614",
"i+	c #017019",
"j+	c #136723",
"k+	c #006C16",
"l+	c #01661A",
"m+	c #323D3D",
"n+	c #126E22",
"o+	c #016C19",
"p+	c #285634",
"q+	c #424247",
"r+	c #C3C0A6",
"s+	c #C3BFA6",
"t+	c #C3C0A7",
"u+	c #BEA761",
"v+	c #A58F4D",
"w+	c #8D7A49",
"x+	c #8D7B49",
"y+	c #B59D50",
"z+	c #676C48",
"A+	c #6A6E48",
"B+	c #383840",
"C+	c #127021",
"D+	c #006B14",
"E+	c #016A1A",
"F+	c #8A9050",
"G+	c #897748",
"H+	c #343540",
"I+	c #383740",
"J+	c #BCA251",
"K+	c #B39A4F",
"L+	c #2C2F40",
"M+	c #126922",
"N+	c #01641B",
"O+	c #284A34",
"P+	c #393840",
"Q+	c #2D2F40",
"R+	c #125D24",
"S+	c #01691A",
"T+	c #323B3D",
"U+	c #125E23",
"V+	c #008115",
"W+	c #016519",
"X+	c #284D34",
"Y+	c #126023",
"Z+	c #007A15",
"`+	c #32403D",
" @	c #127121",
".@	c #006E19",
"+@	c #127220",
"@@	c #285134",
"#@	c #126920",
"$@	c #017817",
"%@	c #3A3840",
"&@	c #2D3040",
"*@	c #31403D",
"=@	c #116420",
"-@	c #007315",
";@	c #017D16",
">@	c #B7A151",
",@	c #899050",
"'@	c #31433D",
")@	c #116821",
"!@	c #006019",
"~@	c #006916",
"{@	c #007015",
"]@	c #285B34",
"^@	c #31443C",
"/@	c #117320",
"(@	c #006218",
"_@	c #017119",
":@	c #285534",
"<@	c #31423C",
"[@	c #116B21",
"}@	c #006A14",
"|@	c #B9A251",
"1@	c #BEA451",
"2@	c #8B9250",
"3@	c #8C9350",
"4@	c #106522",
"5@	c #006815",
"6@	c #006F14",
"7@	c #6E6546",
"8@	c #695D44",
"9@	c #685C44",
"0@	c #9E894C",
"a@	c #B0984F",
"b@	c #665B44",
"c@	c #6A5E44",
"d@	c #7F6F47",
"e@	c #685D44",
"f@	c #96834A",
"g@	c #B49C4F",
"h@	c #4E5244",
"i@	c #525544",
"j@	c #363740",
"k@	c #31433C",
"l@	c #106A21",
"m@	c #484942",
"n@	c #333440",
"o@	c #94804A",
"p@	c #AD954E",
"q@	c #BFA451",
"r@	c #645944",
"s@	c #10741F",
"t@	c #017417",
"u@	c #285434",
"v@	c #106D1F",
"w@	c #016D15",
"x@	c #31403C",
"y@	c #10651F",
"z@	c #006813",
"A@	c #8D9351",
"B@	c #484A42",
"C@	c #C0A652",
"D@	c #655A44",
"E@	c #313E3C",
"F@	c #0F6020",
"G@	c #0A6F1D",
"H@	c #235B2F",
"I@	c #274D34",
"J@	c #2A4836",
"K@	c #2D4539",
"L@	c #505244",
"M@	c #4F5243",
"N@	c #363540",
"O@	c #423E41",
"P@	c #295634",
"Q@	c #275033",
"R@	c #284E35",
"S@	c #295234",
"T@	c #116021",
"U@	c #006914",
"V@	c #106622",
"W@	c #31413D",
"X@	c #185E26",
"Y@	c #107121",
"Z@	c #31423D",
"`@	c #1A6627",
" #	c #107021",
".#	c #1B6428",
"+#	c #166523",
"@#	c #225E2E",
"##	c #21572E",
"$#	c #205C2D",
"%#	c #235D2F",
"&#	c #373740",
"*#	c #676B48",
"=#	c #666A48",
"-#	c #343440",
";#	c #756746",
">#	c #877648",
",#	c #313240",
"'#	c #373640",
")#	c #887748",
"!#	c #8A7848",
"~#	c #4F4842",
"{#	c #6D6045",
"]#	c #8C7A49",
"^#	c #686C48",
"/#	c #474942",
"(#	c #343740",
"_#	c #275833",
":#	c #1D622A",
"<#	c #1E5C2B",
"[#	c #1E5E2B",
"}#	c #176C25",
"|#	c #284E33",
"1#	c #353740",
"2#	c #898F50",
"3#	c #343340",
"4#	c #BFA551",
"5#	c #585B45",
"6#	c #2A4D36",
"7#	c #898F4F",
"8#	c #2B4A37",
"9#	c #005C1B",
"0#	c #008114",
"a#	c #2A5436",
"b#	c #3A3B41",
"c#	c #4A4C43",
"d#	c #8A8F50",
"e#	c #574E42",
"f#	c #574F42",
"g#	c #584F43",
"h#	c #3B3940",
"i#	c #4A4541",
"j#	c #524B42",
"k#	c #474241",
"l#	c #584F42",
"m#	c #544C42",
"n#	c #606446",
"o#	c #424341",
"p#	c #2A5235",
"q#	c #555844",
"r#	c #8D9250",
"s#	c #95814A",
"t#	c #AE964E",
"u#	c #B49B4F",
"v#	c #767B4B",
"w#	c #333340",
"x#	c #2A4F35",
"y#	c #284B35",
"z#	c #757A4B",
"A#	c #294C35",
"B#	c #284A35",
"C#	c #295035",
"D#	c #BEA351",
"E#	c #323240",
"F#	c #2B2E3F",
"G#	c #BDA251",
"H#	c #2B2D3F",
"I#	c #005D1B",
"J#	c #8B9050",
"K#	c #8C9150",
"L#	c #8D9150",
"M#	c #294F35",
"N#	c #295034",
"O#	c #007113",
"P#	c #8D9350",
"Q#	c #767A4B",
"R#	c #285333",
"S#	c #006B13",
"T#	c #404141",
"U#	c #4D4F43",
"V#	c #275333",
"W#	c #006217",
"X#	c #274C33",
"Y#	c #284B34",
"Z#	c #264E33",
"`#	c #255232",
" $	c #007116",
".$	c #1F552D",
"+$	c #2A4C36",
"@$	c #2A5035",
"#$	c #2A5435",
"$$	c #2A5335",
"%$	c #2A4A35",
"&$	c #2A4935",
"*$	c #2A4C35",
"=$	c #2A4E35",
"-$	c #2A4D35",
";$	c #2A5135",
">$	c #2A4B35",
",$	c #2A4936",
"'$	c #2A5935",
")$	c #284F33",
"!$	c #265832",
"~$	c #265532",
"{$	c #265B32",
"]$	c #265232",
"^$	c #264D32",
"/$	c #254F31",
"($	c #245630",
"_$	c #245930",
":$	c #245331",
"<$	c #245631",
"[$	c #245730",
"}$	c #235030",
"|$	c #235330",
"1$	c #23652E",
"2$	c #23622E",
"3$	c #23542F",
"4$	c #21582D",
"5$	c #21592D",
"6$	c #21562D",
"7$	c #21552E",
"8$	c #215A2E",
"9$	c #205F2D",
"0$	c #1E5E2C",
"a$	c #1E652C",
"b$	c #1E602C",
"c$	c #1E562C",
"d$	c #1E562B",
"e$	c #1D5A2A",
"f$	c #1D632A",
"g$	c #1D5B2A",
"h$	c #1D6229",
"i$	c #1C592A",
"j$	c #1A5929",
"k$	c #1A6728",
"l$	c #1A7028",
"m$	c #116722",
"n$	c #007915",
"o$	c #006515",
"p$	c #007418",
"q$	c #007514",
"r$	c #006D19",
"s$	c #006018",
"t$	c #006415",
"u$	c #007C17",
"v$	c #00601B",
"w$	c #005E1B",
"x$	c #007E16",
"  . + @ # $ % & * = - ; > * , ' ) ! ~ > + ' { ] ^ / ( - _ > : + ] ^ * < [ & [ } < ] . @ | | # 1 ] 2 ^ 3 $ 4 5 , 6 7 ^ ) 8 < ' 9 ",
"0 ' a b 6 c d e [ + . f [ ( . ] | g : h $ c , $ _ i 0 = j k _ . | ] ^ & + ! + ) l j ; { ; m n o ( + p q ] r m s ( = ] | j l ' m ",
"t 5 u v w & x y z A 6 5 m s ] ^ t | B n ) { : $ 4 x C j D E + ( * | = ! 8 F r G E [ { t e a % b ) x H A G I G + e ! c 7 j B n & ",
"G | ; + % x J K L M N k ] = [ o ' _ d O t ^ | ! [ 4 P J P Q M B i G ] = * 3 $ | z ' 7 G m p m R d J S L _ h ' ] G } 6 p _ T q , ",
"U m C ) u % & ) ] A V W ' + p X w , e + ) | 9 G ' G % $ ^ _ . H Y Z A $ Z E ' 7 z G . 9 m ^ ; 4 9 ^ p A z ` W p m ) X  ., .._ & ",
"} | q , & r 7 ) ^ 0 +.@.#.$.%.#.&.*.=.-.;.>.,.,.'.).!.~.{.].^./.(.(.]._.:.<.[.}.|.1.2.3.4.5.6.7.3.[.8.9.0.a.D H j ..b.c.> p v d.",
"0 = M B k ( k | G e.f.g.g.h.h.g.i.j.j.g.k.h.h.l.h.h.h.h.g.l.i.j.g.m.m.n.o.o.n.p.o.o.n.p.n.n.p.p.p.p.o.q.r.s.% t.4 T P z u.. % v.",
"> $ U J ) l V v | w.x.y.z.z.z.z.z.z.z.z.z.z.z.z.z.z.z.z.z.z.z.z.z.z.z.z.z.z.z.z.z.z.z.z.z.z.z.z.z.z.z.z.A.'.| m . * ^ T B.. C.L ",
"Z ) $ ~ D.d d.% s E.F.y.z.z.z.z.z.z.z.z.z.z.z.z.z.z.z.z.z.z.z.z.z.z.z.z.z.z.z.z.z.z.z.z.z.z.z.z.z.z.z.z.j.G.r I , H.p d D c.m I.",
"X : H.t 0 ; 2 J.] K.x.y.z.z.L.M.M.M.M.M.M.M.M.M.M.M.M.N.O.O.O.O.O.O.O.O.O.O.O.O.O.O.O.O.O.O.O.O.P.z.z.z.Q.R.$ 7 ( 8 S.G D u.d T.",
"` l * [ 7 ~ = 2 j U.x.y.z.z.V.W.X.X.X.X.X.X.X.X.X.X.X.Y.Z.`.`.`.`.`.`.`.`.`.`.`.`.`.`.`.`.`.`.`. +.+z.z.Q.++] ] [ & * G @+w ] 4 ",
"#+y E | G S.s $+. %+&+y.z.z.V.W.X.X.X.X.X.X.X.X.X.X.X.*+Z.`.`.`.`.`.`.`.`.`.`.`.`.`.`.`.`.`.`.`.`..+z.z.=+-+6 } 7 ' } r a P r } ",
"+ R M A m s ! $+c.;+>+y.z.z.V.W.X.X.X.X.X.X.X.X.X.X.X.*+Z.`.`.`.`.`.`.`.`.`.`.`.`.`.`.`.`.`.`.`.`..+z.z.,+'+)+o 6 p $ ~ G v ^ 0 ",
"!+j 3 > m g - P B.~+{+y.z.z.V.W.X.X.X.]+]+]+]+]+]+]+]+^+/+(+(+(+(+(+(+(+(+(+(+(+(+(+(+(+(+`.`.`.`..+z.z._+:+q p C T | t h + & t ",
"A | H.h G <+& @+[+}+|+y.z.z.V.W.X.X.]+1+2+2+2+2+2+2+2+3+4+5+5+5+5+5+5+5+5+5+5+5+5+5+5+5+6+(+`.`.`..+z.z._+7+| A b @+4 7 8+s z 9+",
"P m u [ [ ; ' 4 0+a+b+y.z.z.V.W.X.X.]+c+d+d+d+d+d+d+d+d+d+d+d+d+d+d+d+d+d+d+d+d+d+d+d+d+e+(+`.`.`..+z.z.f+g+] = n x 4 s t . K h+",
"4 : s + = s & ] + i+F.y.z.z.V.W.X.X.]+c+d+d+d+d+d+d+d+d+d+d+d+d+d+d+d+d+d+d+d+d+d+d+d+d+e+(+`.`.`..+z.z.f+j++ A k+ .= r ( $ A J ",
"m ' ; a ] , , c ( l+F.y.z.z.V.W.X.X.]+c+d+d+d+d+d+d+d+d+d+d+d+d+d+d+d+d+d+d+d+d+d+d+d+d+e+(+`.`. +.+z.z.m+n+' 4 U ) c = { c * I ",
"c.h ( ! [ c s ^ , o+p+y.z.z.q+r+s+s+t+u+d+d+d+v+w+w+w+w+w+w+w+x+d+d+d+d+d+d+d+d+d+d+d+d+y+z+A+A+A+B+z.z.,+C+& 4 ] ' 7 = ^ < , o ",
"@+D+u.= ' } | 8 5 E+F.y.z.z..+`.`.`.F+e+d+d+d+G+H+H+H+H+H+H+H+I+J+d+d+d+d+d+d+d+d+d+d+d+K+L+z.z.z.z.z.z.,+M+$ ] , ( 8 | ] ' | $ ",
"P [+I.A 8 $+[ < 7 N+O+y.z.z..+`.`.`.(+e+d+d+d+G+z.z.z.z.z.z.z.P+J+d+d+d+d+d+d+d+d+d+d+d+K+Q+z.z.z.z.z.z._+R+; ( * G * { | ] 4 J.",
"& M % h ( a | , ~ S+O+y.z.z..+`.`.`.(+e+d+d+d+G+z.z.z.z.z.z.z.P+J+d+d+d+d+d+d+d+d+d+d+d+K+Q+z.z.z.z.z.z.T+U+, V+< ' { { . H.$ v.",
"1 ; - k < p + ) & W+X+y.z.z..+`.`.`.(+e+d+d+d+G+z.z.z.z.z.z.z.P+J+d+d+d+d+d+d+d+d+d+d+d+K+Q+z.z.z.z.z.z._+Y+= 7 t s [ . = Z+( a ",
"~ ^ 4 M k > x k+!+a+b+y.z.z..+`.`.`.(+e+d+d+d+G+z.z.z.z.z.z.z.P+J+d+d+d+d+d+d+d+d+d+d+d+K+Q+z.z.z.z.z.z.`+ @$ ] ; ] [ .@_ X C G ",
"' r ] % P  .J L I.l+p+y.z.z..+`.`.`.(+e+d+d+d+G+z.z.z.z.z.z.z.P+J+d+d+d+d+d+d+d+d+d+d+d+K+Q+z.z.z.z.z.z.f++@^ | G . 6 ' _ H e ( ",
"9 + 7 . % % j j C.W+@@y.z.z..+`.`.`.(+e+d+d+d+G+z.z.z.z.z.z.z.P+J+d+d+d+d+d+d+d+d+d+d+d+K+Q+z.z.z.z.z.z.,+#@C = ] & l q e z j ( ",
"| m n * ; ] t ^ ^ $@@@y.z.z..+`.`.`.(+e+d+d+d+G+L.L.L.L.L.L.L.%@J+d+d+d+d+d+d+d+d+d+d+d+K+&@L.L.L.z.z.z.*@=@D+b = -@9+q * & m m ",
"F = A C p G k j p ;@p+y.z.z..+`.`.`.(+e+d+d+d+J+J+J+J+J+J+J+J+J+d+d+d+d+d+d+d+d+d+d+d+d+>@,@F+F+F+.+z.z.'@)@R !@m ~@C.G C G % v.",
"* A v z N 6 {@P j $@]@y.z.z..+`.`.`.(+e+d+d+d+d+d+d+d+d+d+d+d+d+d+d+d+d+d+d+d+d+d+d+d+d+e+(+`.`.`..+z.z.^@/@] $+m . j T V = v T.",
"N G u ^ n k+(@2 r _@:@y.z.z..+`.`.`.(+e+d+d+d+d+d+d+d+d+d+d+d+d+d+d+d+d+d+d+d+d+d+d+d+d+e+(+`.`.`..+z.z.<@[@! 7 ^ 6 t T }@q P [+",
"W ' . , 3 _ v.2 8 K.F.y.z.z..+`.`.`.(+|@1@1@1@1@d+d+d+d+1@1@1@1@d+d+d+d+1@1@1@1@1@d+d+d+e+2@ + +3@.+z.z.<@4@$ * * . s M 5@..J T.",
"6@i ~ ( * * ] 2 ] %+p+y.z.z..+`.`.`. +7@8@8@9@0@d+d+d+a@b@8@8@c@J+d+d+1@d@8@8@e@f@d+d+d+g@h@i@i@i@j@z.z.k@l@] s ' } 0 ) b...M % ",
"[+6@-@_ c.{ p $+= U.b+y.z.z..+`.`.`. +m@z.z.n@o@d+d+d+p@&@z.z.P+J+d+d+q@r@z.z.z.G+d+d+d+K+Q+z.z.z.z.z.z.^@s@H.$ G } 7 G a O . ; ",
"!@S b.m | & . $+G t@u@y.z.z..+`.`.`. +m@z.z.n@o@d+d+d+p@&@z.z.P+J+d+d+q@r@z.z.z.G+d+d+d+K+Q+z.z.z.z.z.z.<@v@@ ~ 0 ' ! ^ + U ) , ",
"e + : 7 m $ a $+B w@|+y.z.z..+`.`.`. +m@z.z.n@o@d+d+d+p@&@z.z.P+J+d+d+q@r@z.z.z.G+d+d+d+K+Q+z.z.z.z.z.z.x@y@C ' k O A t ' u 5 , ",
"j $ > h $ ' q S z@[+{+y.z.z..+3@ + +A@B@z.z.n@o@d+d+d+p@&@z.z.P+1@q@q@C@D@z.z.z.G+d+d+d+K+Q+z.z.z.z.z.z.E@F@d  .X @+m 7 < . q W ",
"P - ] ) ; G@H@I@J@K@i.z.z.z.L.L@M@M@L@O.z.z.n@o@d+d+d+p@&@z.z.N@r@r@r@D@O@z.z.z.G+d+d+d+K+Q+z.z.z.z.z.z.h.P@Q@R@S@T@4 ^ * G Q U@",
"4 ; $ | . V@W@z.z.z.z.z.z.z.z.z.z.z.z.z.z.z.n@o@d+d+d+p@&@z.z.z.z.z.z.z.z.z.z.z.G+d+d+d+K+Q+z.z.z.z.z.z.z.z.z.z.n.X@M [ ( | C.K ",
"m ( & g r Y@Z@z.z.z.z.z.z.z.z.z.z.z.z.z.z.z.n@o@d+d+d+p@&@z.z.z.z.z.z.z.z.z.z.z.G+d+d+d+K+Q+z.z.z.z.z.z.z.z.z.z.n.`@> = { ) c e ",
"= : ^ d $  #W@z.z.z.z.z.z.z.z.z.z.z.z.z.z.z.n@o@d+d+d+p@&@z.z.z.z.z.z.z.z.z.z.z.G+d+d+d+K+Q+z.z.z.z.z.z.z.z.z.z.n..#7 r > 1 < # ",
"b.+#@###$#%#i.z.z.&#*#*#*#*#=#-#z.z.z.z.z.z.-#;#o@o@o@>#,#z.z.'#)#G+G+!#~#z.z.z.{#o@o@o@]#,#z.z.-#=#*#*#^#/#z.z.(#_#:#<#[#}#G ^ ",
"I.|#z.z.1#o.z.z.z.P.`.`.`.`.2#3#z.z.z.z.z.z.z.-#n@n@n@-#z.z.z.P+d+d+d+4#r@z.z.z.H+n@n@n@-#z.z.z.3#2#`.`. +5#z.z.z.o.n.n.o.6#+ 2 ",
"O |+z.z.z.z.z.z.z.O.`.`.`.`.7#3#z.z.z.z.z.z.z.z.z.z.z.z.z.z.z.P+J+d+d+q@r@z.z.z.z.z.z.z.z.z.z.z.3#7#`.`. +5#z.z.z.z.z.z.z.8#a 9#",
"0#:@z.z.z.z.z.z.z.O.`.`.`.`.7#3#z.z.z.z.z.z.z.z.z.z.z.z.z.z.z.P+J+d+d+q@r@z.z.z.z.z.z.z.z.z.z.z.3#7#`.`. +5#z.z.z.z.z.z.y.a#C 2 ",
"o &+z.z.z.b#B@m@m@c#`.`.`.`.d#e#f#f#g#h#z.z.z.i#f#f#f#j#-#z.z.P+J+d+d+q@r@z.z.z.k#l#f#f#m#-#z.z.3#7#`.`. +n#m@m@m@o#z.z.y.p#C + ",
": u@z.z.z.q#A@ + + +`.`.`.`.r#4#q@q@C@g#z.z.n@s#q@q@q@t#&@z.z.P+J+d+d+q@r@z.z.z.!#4#q@q@u#L+z.z.3#7#`.`.`. + + + +v#w#z.y.x#X & ",
"A y#z.z.z.q# +`.`.`.`.`.`.`.r#d+d+d+q@f#z.z.n@o@d+d+d+p@&@z.z.P+J+d+d+q@r@z.z.z.G+d+d+d+K+Q+z.z.3#7#`.`.`.`.`.`.`.z#w#z.y.A# ., ",
"- B#z.z.z.q# +`.`.`.`.`.`.`.r#d+d+d+q@f#z.z.n@o@d+d+d+p@&@z.z.P+J+d+d+q@r@z.z.z.G+d+d+d+K+Q+z.z.3#7#`.`.`.`.`.`.`.z#w#z.y.C#_ [ ",
", @@z.z.z.q# +`.`.`.`.`.`.`.r#D#d+d+4#e#3#3#E#o@d+d+d+p@F#3#3#'#G#d+d+q@r@3#3#w#G+D#d+d+K+H#3#3#E#7#`.`.`.`.`.`.`.z#w#z.y.C#v I#",
"3 F.z.z.z.q# +`.`.`.`.`.`.`.`.r#r#r#r#d#7#7#7#J#r#r#r#K#7#7#7#7#r#r#r#r#d#7#7#7#J#r#r#r#L#7#7#7#7#`.`.`.`.`.`.`.`.z#w#z.y.M#v !@",
"> >+z.z.z.q# +`.`.`.`.`.`.`.`.`.`.`.`.`.`.`.`.`.`.`.`.`.`.`.`.`.`.`.`.`.`.`.`.`.`.`.`.`.`.`.`.`.`.`.`.`.`.`.`.`.`.z#w#z.y.N#P [+",
"-@:@z.z.z.q# +`.`.`.`.`.`.`.`.`.`.`.`.`.`.`.`.`.`.`.`.`.`.`.`.`.`.`.`.`.`.`.`.`.`.`.`.`.`.`.`.`.`.`.`.`.`.`.`.`.`.z#w#z.y.>+J I.",
"O#:@z.z.z.q#P# + + + + + + + + + + + + + + + + + + + + + + + + + + + + + + + + + + + + + + + + + + + + + + + + + +Q#w#z.y.R#d 4 ",
"S#>+z.z.z.T#5#5#5#5#5#5#5#5#5#5#5#5#5#5#5#5#5#5#5#5#5#5#5#5#5#5#5#5#5#5#5#5#5#5#5#5#5#5#5#5#5#5#5#5#5#5#5#5#5#5#5#U#y.z.y.V#j ] ",
"W#{+z.z.z.z.z.z.z.z.z.z.z.z.z.z.z.z.z.z.z.z.z.z.z.z.z.z.z.z.z.z.z.z.z.z.z.z.z.z.z.z.z.z.z.z.z.z.z.z.z.z.z.z.z.z.z.z.z.z.y.X#q ^ ",
"j Y#z.z.z.z.z.z.z.z.z.z.z.z.z.z.z.z.z.z.z.z.z.z.z.z.z.z.z.z.z.z.z.z.z.z.z.z.z.z.z.z.z.z.z.z.z.z.z.z.z.z.z.z.z.z.z.z.z.z.y.Z#C { ",
"O X+z.z.z.z.z.z.z.z.z.z.z.z.z.z.z.z.z.z.z.z.z.z.q.q.q.q.q.q.q.q.q.q.q.q.q.q.1#1#q.o.o.o.o.o.o.o.n.o.o.o.o.n.o.o.n.o.o.p.p.`# $> ",
"x .$+$@$@$#$$$%$&$*$#$=$-$;$>$,$;$'$;${+)$)$Y#X+F.!$~${$]$^$/$($_$:$<$[$}$|$1$2$3$4$5$6$7$8$9$0$a$b$c$d$e$f$e$g$h$i$j$k$l$m$b.` ",
"C._ M = c.p h m 0+. , j !+-@b.J q n$c.K o$I.J $ d p j h c.0+v > & | k E J m > : J I.o$K A u . G ) ( 4 0+s , ] G n T a e t = P o$",
"a > 5 + . ^ ^ ] + G ! + d O q & r , s ; a % [ <++ = = t . + $ G $ a  .z : = ) 7 G = v m * [ | . 7 } | + [ = + _ z e ; r c . s J ",
"+ ( & u | t c , , ! c t a !@c.> 8 S.~ * I [ ) 7 A a 5 6 & 0 5 [ 6 . % m , 5 s I { o > = > ; a $ , ^ * , ! , 7 4 2 ; 7 r , { { V+",
"q -@k ! [ ( G ' > 8 7 ' $+$ h h [ s * p$> [ q$N c.$ ( & G : ' & : ! $+; > ^ ! > , : ^ b -@^ f s ( = ( t G c & - 8 p$7 . ) 6 ( * ",
"@+}@V j H.s ] s s ] . $ $ c ' G r + ; | m M }@D+!+s ) A . ; G . ] $ e S.s [ | . [ a | Q }@9+! ' [ ] s ; $ = ] ! <+H.r$! ] & | + ",
"s$t$W#v $+2 ) 1 S.$+4 ' ~ I ] u$F | v$2 w$0+#+#+% a v.m <   ] 2 r { 0 5 G 1 7 $+2 J.I#s$[+W#9 9 2 ^ V+( 4 a 7 I ~ ! x$0 | 2 2 9#"};
