/* XPM */
static char * slime4_xpm[] = {
"64 64 518 2",
"  	c #008314",
". 	c #006C18",
"+ 	c #006619",
"@ 	c #008014",
"# 	c #008414",
"$ 	c #006919",
"% 	c #006119",
"& 	c #007217",
"* 	c #007A16",
"= 	c #006B18",
"- 	c #00641A",
"; 	c #007018",
"> 	c #007716",
", 	c #007916",
"' 	c #007317",
") 	c #007117",
"! 	c #006A19",
"~ 	c #007C16",
"{ 	c #007B16",
"] 	c #006819",
"^ 	c #007417",
"/ 	c #008713",
"( 	c #007517",
"_ 	c #006818",
": 	c #007616",
"< 	c #007F15",
"[ 	c #006E18",
"} 	c #007218",
"| 	c #006719",
"1 	c #008215",
"2 	c #00611A",
"3 	c #007B15",
"4 	c #006319",
"5 	c #007118",
"6 	c #007C15",
"7 	c #007617",
"8 	c #006C19",
"9 	c #00621A",
"0 	c #007E15",
"a 	c #006419",
"b 	c #007016",
"c 	c #007717",
"d 	c #006718",
"e 	c #006F17",
"f 	c #00671A",
"g 	c #00661A",
"h 	c #007516",
"i 	c #007815",
"j 	c #006A18",
"k 	c #007416",
"l 	c #007615",
"m 	c #006519",
"n 	c #007216",
"o 	c #007D15",
"p 	c #007017",
"q 	c #006D17",
"r 	c #006B19",
"s 	c #006F18",
"t 	c #007816",
"u 	c #00651A",
"v 	c #006219",
"w 	c #006D16",
"x 	c #006717",
"y 	c #006A15",
"z 	c #006917",
"A 	c #006918",
"B 	c #006F16",
"C 	c #007316",
"D 	c #006915",
"E 	c #006E15",
"F 	c #008015",
"G 	c #006D18",
"H 	c #006B16",
"I 	c #007D16",
"J 	c #006518",
"K 	c #006417",
"L 	c #006616",
"M 	c #006618",
"N 	c #007515",
"O 	c #006A17",
"P 	c #006418",
"Q 	c #006716",
"R 	c #006617",
"S 	c #007A15",
"T 	c #007B14",
"U 	c #006916",
"V 	c #006118",
"W 	c #006517",
"X 	c #006817",
"Y 	c #00601A",
"Z 	c #016C16",
"` 	c #027116",
" .	c #027218",
"..	c #02661A",
"+.	c #026F19",
"@.	c #026D17",
"#.	c #07761A",
"$.	c #086C1C",
"%.	c #08641D",
"&.	c #086E1C",
"*.	c #08651E",
"=.	c #085F1E",
"-.	c #086A1D",
";.	c #09701C",
">.	c #0E681F",
",.	c #0E5C21",
"'.	c #0E6420",
").	c #0E6E1F",
"!.	c #0E671F",
"~.	c #0E661F",
"{.	c #0F6B1E",
"].	c #126C21",
"^.	c #126223",
"/.	c #126323",
"(.	c #126821",
"_.	c #126B22",
":.	c #126D22",
"<.	c #146123",
"[.	c #166425",
"}.	c #166325",
"|.	c #165A26",
"1.	c #165C26",
"2.	c #166925",
"3.	c #166525",
"4.	c #165B26",
"5.	c #185928",
"6.	c #196628",
"7.	c #196327",
"8.	c #195E27",
"9.	c #07671B",
"0.	c #006C14",
"a.	c #007215",
"b.	c #007115",
"c.	c #006C17",
"d.	c #006E16",
"e.	c #017E16",
"f.	c #245A30",
"g.	c #353440",
"h.	c #353540",
"i.	c #34393F",
"j.	c #157123",
"k.	c #006E14",
"l.	c #006816",
"m.	c #006E17",
"n.	c #005D1A",
"o.	c #017C16",
"p.	c #23632F",
"q.	c #157223",
"r.	c #007915",
"s.	c #005C1A",
"t.	c #006F15",
"u.	c #005E1A",
"v.	c #006C15",
"w.	c #017418",
"x.	c #22612E",
"y.	c #34383F",
"z.	c #156B24",
"A.	c #006B15",
"B.	c #006318",
"C.	c #007415",
"D.	c #007715",
"E.	c #017518",
"F.	c #215C2E",
"G.	c #3F3E47",
"H.	c #ABA49F",
"I.	c #AAA49F",
"J.	c #A09B93",
"K.	c #656A45",
"L.	c #676B48",
"M.	c #686C48",
"N.	c #383840",
"O.	c #007318",
"P.	c #006516",
"Q.	c #005F1A",
"R.	c #017917",
"S.	c #20622D",
"T.	c #49474E",
"U.	c #EEE5DB",
"V.	c #EDE4DA",
"W.	c #DFD7C9",
"X.	c #888F4A",
"Y.	c #8B9150",
"Z.	c #8C9250",
"`.	c #3B3C41",
" +	c #157023",
".+	c #007817",
"++	c #006317",
"@+	c #017717",
"#+	c #1F642C",
"$+	c #353340",
"%+	c #DED7C8",
"&+	c #156E24",
"*+	c #006316",
"=+	c #00631A",
"-+	c #1E662A",
";+	c #156D23",
">+	c #007A13",
",+	c #1D5F29",
"'+	c #E8DED0",
")+	c #E8DDCF",
"!+	c #DAD1BE",
"~+	c #90924B",
"{+	c #939350",
"]+	c #929350",
"^+	c #156823",
"/+	c #007013",
"(+	c #007C14",
"_+	c #006B17",
":+	c #1C5929",
"<+	c #EEE5DC",
"[+	c #C3AC6C",
"}+	c #BCA14B",
"|+	c #BCA24C",
"1+	c #BEA351",
"2+	c #B8A151",
"3+	c #8A9150",
"4+	c #156123",
"5+	c #006515",
"6+	c #007917",
"7+	c #006615",
"8+	c #1B5C29",
"9+	c #C4AD70",
"0+	c #BDA351",
"a+	c #34373F",
"b+	c #155E24",
"c+	c #008214",
"d+	c #006D15",
"e+	c #005E19",
"f+	c #1A6D27",
"g+	c #156524",
"h+	c #006614",
"i+	c #196527",
"j+	c #EEE4DB",
"k+	c #EEE6DC",
"l+	c #BEA451",
"m+	c #156924",
"n+	c #006C16",
"o+	c #186527",
"p+	c #3C3C41",
"q+	c #91965B",
"r+	c #90955A",
"s+	c #8F955B",
"t+	c #B8A152",
"u+	c #8B7949",
"v+	c #413E41",
"w+	c #444041",
"x+	c #BCA251",
"y+	c #B39A4F",
"z+	c #343740",
"A+	c #156025",
"B+	c #186B26",
"C+	c #353640",
"D+	c #897748",
"E+	c #393840",
"F+	c #2D2F40",
"G+	c #006B14",
"H+	c #176626",
"I+	c #156325",
"J+	c #175926",
"K+	c #155C25",
"L+	c #165926",
"M+	c #155E25",
"N+	c #008115",
"O+	c #155D26",
"P+	c #33393F",
"Q+	c #155D25",
"R+	c #333B3E",
"S+	c #006E19",
"T+	c #146D23",
"U+	c #333E3E",
"V+	c #156224",
"W+	c #146522",
"X+	c #9E894C",
"Y+	c #7D6E47",
"Z+	c #7E6E47",
"`+	c #B49D50",
" @	c #5C6146",
".@	c #606346",
"+@	c #373840",
"@@	c #155F24",
"#@	c #136621",
"$@	c #323C3D",
"%@	c #156C23",
"&@	c #007315",
"*@	c #157323",
"=@	c #007116",
"-@	c #006019",
";@	c #007015",
">@	c #127520",
",@	c #32403D",
"'@	c #156F24",
")@	c #006218",
"!@	c #116D21",
"~@	c #313F3D",
"{@	c #B29C50",
"]@	c #B79E50",
"^@	c #BAA150",
"/@	c #B89F50",
"(@	c #BAA050",
"_@	c #B7A051",
":@	c #858C4F",
"<@	c #878D4F",
"[@	c #3B3B41",
"}@	c #156A24",
"|@	c #006A14",
"1@	c #106921",
"2@	c #313E3C",
"3@	c #434742",
"4@	c #2E3040",
"5@	c #2C2F40",
"6@	c #937F4A",
"7@	c #AC954E",
"8@	c #242A3F",
"9@	c #323340",
"0@	c #BFA451",
"a@	c #625743",
"b@	c #887648",
"c@	c #B29A4F",
"d@	c #292B3F",
"e@	c #323140",
"f@	c #156E23",
"g@	c #006815",
"h@	c #006F14",
"i@	c #0F6E20",
"j@	c #31403C",
"k@	c #484942",
"l@	c #333440",
"m@	c #94804A",
"n@	c #AD954E",
"o@	c #2D3040",
"p@	c #645944",
"q@	c #156C24",
"r@	c #0F751E",
"s@	c #30453B",
"t@	c #0E6E1D",
"u@	c #30473B",
"v@	c #8D9351",
"w@	c #484A42",
"x@	c #C0A552",
"y@	c #655A44",
"z@	c #156A23",
"A@	c #007413",
"B@	c #006D14",
"C@	c #0D651D",
"D@	c #30433B",
"E@	c #414241",
"F@	c #373740",
"G@	c #4B4641",
"H@	c #4C4641",
"I@	c #3A3940",
"J@	c #156423",
"K@	c #0C601F",
"L@	c #2F413B",
"M@	c #155D23",
"N@	c #006017",
"O@	c #0C721E",
"P@	c #2F473A",
"Q@	c #156024",
"R@	c #006914",
"S@	c #0A721C",
"T@	c #0E6F1F",
"U@	c #2F443B",
"V@	c #94814A",
"W@	c #AD964E",
"X@	c #897848",
"Y@	c #B39B4F",
"Z@	c #1D632B",
"`@	c #417E46",
" #	c #2E6E36",
".#	c #027818",
"+#	c #1F5C2C",
"@#	c #245231",
"##	c #2E5139",
"$#	c #2D4838",
"%#	c #343540",
"&#	c #655944",
"*#	c #746645",
"=#	c #5E5443",
"-#	c #776846",
";#	c #33373E",
">#	c #5A635F",
",#	c #475A4E",
"'#	c #255232",
")#	c #195A28",
"!#	c #08731C",
"~#	c #2D4C38",
"{#	c #323C3E",
"]#	c #2E4739",
"^#	c #333C3E",
"/#	c #006814",
"(#	c #09671E",
"_#	c #2E4539",
":#	c #006018",
"<#	c #2E443A",
"[#	c #333340",
"}#	c #313240",
"|#	c #303240",
"1#	c #343440",
"2#	c #005C1B",
"3#	c #0A691E",
"4#	c #185A27",
"5#	c #1B6928",
"6#	c #1D6A2A",
"7#	c #22562F",
"8#	c #313D3D",
"9#	c #777C4B",
"0#	c #757A4B",
"a#	c #9F8A4C",
"b#	c #A08B4C",
"c#	c #A18C4C",
"d#	c #584F43",
"e#	c #787D4B",
"f#	c #4E5043",
"g#	c #1F632C",
"h#	c #353740",
"i#	c #393A40",
"j#	c #898F4F",
"k#	c #343340",
"l#	c #585B45",
"m#	c #333A3E",
"n#	c #04681B",
"o#	c #07631D",
"p#	c #09661D",
"q#	c #06721A",
"r#	c #205E2C",
"s#	c #34363F",
"t#	c #2B4A37",
"u#	c #2D4D38",
"v#	c #2E4A39",
"w#	c #2F433A",
"x#	c #265532",
"y#	c #20562D",
"z#	c #2B4A36",
"A#	c #20552D",
"B#	c #5B5E45",
"C#	c #5A5D45",
"D#	c #5C5F46",
"E#	c #8A9050",
"F#	c #756746",
"G#	c #766846",
"H#	c #423E41",
"I#	c #5F5543",
"J#	c #6C6045",
"K#	c #595043",
"L#	c #6F6245",
"M#	c #6A6F48",
"N#	c #4F5243",
"O#	c #2B4C37",
"P#	c #205A2D",
"Q#	c #555844",
"R#	c #8D9350",
"S#	c #8D9250",
"T#	c #584F42",
"U#	c #AE964E",
"V#	c #8A7848",
"W#	c #B49B4F",
"X#	c #767A4B",
"Y#	c #2C4A38",
"Z#	c #005D1B",
"`#	c #205C2C",
" $	c #574F42",
".$	c #205B2C",
"+$	c #2D4739",
"@$	c #20602C",
"#$	c #BBA251",
"$$	c #5B5443",
"%$	c #3D3E41",
"&$	c #3C3D41",
"*$	c #93814A",
"=$	c #AB954E",
"-$	c #373941",
";$	c #404041",
">$	c #BAA251",
",$	c #BCA351",
"'$	c #675D44",
")$	c #897949",
"!$	c #B19A4F",
"~$	c #363941",
"{$	c #2E473A",
"]$	c #007113",
"^$	c #20622C",
"/$	c #8B9250",
"($	c #2E463A",
"_$	c #006B13",
":$	c #205F2C",
"<$	c #2F443A",
"[$	c #006217",
"}$	c #20572C",
"|$	c #30403B",
"1$	c #20542D",
"2$	c #767B4B",
"3$	c #30403C",
"4$	c #20582D",
"5$	c #454742",
"6$	c #404141",
"7$	c #313F3C",
"8$	c #313E3D",
"9$	c #1C6629",
"0$	c #2F483A",
"a$	c #2F423B",
"b$	c #2F433B",
"c$	c #2F463A",
"d$	c #2F493A",
"e$	c #2F453A",
"f$	c #2F453B",
"g$	c #2F4A3A",
"h$	c #2D4C39",
"i$	c #007914",
"j$	c #007D14",
"k$	c #007E14",
"l$	c #007418",
"m$	c #007514",
"n$	c #006D19",
"o$	c #006415",
"p$	c #007C17",
"q$	c #00601B",
"r$	c #005E1B",
"s$	c #007E16",
"  . + @ # $ % & * = - ; > * , ' ) ! ~ > + ' { ] ^ / ( - _ > : + ] ^ * < [ & [ } < ] . @ | | # 1 ] 2 ^ 3 $ 4 5 , 6 7 ^ ) 8 < ' 9 ",
"0 ' a b 6 c d e [ + . f [ ( . ] | g : h $ c , $ _ i 0 = j k _ . | ] ^ & + ! + ) l j ; { ; m n o ( + p q ] r m s ( = ] | j l ' m ",
"t 5 u v w & x y z A 6 5 m s ] ^ t | B n ) { : $ 4 x C j D E + ( * | = ! 8 F r G E [ { t e a % b ) x H A G I G + e ! c 7 j B n & ",
"G | ; + % x J K L M N k ] = [ o ' _ x O t k | ! [ 4 K J P Q R B i G ] = S T A d U C > G m ) m V x W L L _ h ' ] G } 6 p _ X q , ",
"Y m C ) u % & ) ] A Z `  ...+.` @.#.$.%.&.*.=.-.;.>.,.'.).'.!.~.{.].^./.].(._.:.<.[.}.|.1.2.3.4.5.6.7.8.9.0.a.p m ) b.c., d._ & ",
"} | q , & r 7 ) ^ e.f.g.h.h.h.h.h.h.h.h.h.h.h.h.h.h.h.h.h.h.h.h.h.h.h.h.h.h.h.h.h.h.h.h.h.h.h.h.h.h.h.i.j.k.D H j d.l.m.> p v n.",
"0 = M B k ( k | G o.p.g.h.h.h.h.h.h.h.h.h.h.h.h.h.h.h.h.h.h.h.h.h.h.h.h.h.h.h.h.h.h.h.h.h.h.h.h.h.h.h.i.q.r.% s.4 X P z t.. % u.",
"> $ Y J ) l v.v | w.x.g.h.h.h.h.h.h.h.h.h.h.h.h.h.h.h.h.h.h.h.h.h.h.h.h.h.h.h.h.h.h.h.h.h.h.h.h.h.h.h.y.z.: | m . * ^ X A.. B.L ",
"C.) $ ~ D.d n.% s E.F.g.h.h.G.H.I.I.I.I.I.I.I.I.I.I.I.J.K.L.L.L.L.L.L.L.L.L.L.L.L.L.L.L.L.L.L.L.M.N.h.i.z.q r I , O.p d D m.m P.",
"b.: O.t 0 ; 2 Q.] R.S.g.h.h.T.U.V.V.V.V.V.V.V.V.V.V.V.W.X.Y.Y.Y.Y.Y.Y.Y.Y.Y.Y.Y.Y.Y.Y.Y.Y.Y.Y.Y.Z.`.h.i. +& $ 7 ( 8 .+G D t.d ++",
"0.l * [ 7 ~ = 2 j @+#+$+h.h.T.U.V.V.V.V.V.V.V.V.V.V.V.%+X.Y.Y.Y.Y.Y.Y.Y.Y.Y.Y.Y.Y.Y.Y.Y.Y.Y.Y.Y.Y.`.h.i.&+^ ] ] [ & * G R w ] 4 ",
"*+y E | G .+s =+. > -+$+h.h.T.U.V.V.V.V.V.V.V.V.V.V.V.%+X.Y.Y.Y.Y.Y.Y.Y.Y.Y.Y.Y.Y.Y.Y.Y.Y.Y.Y.Y.Y.`.h.i.;+>+6 } 7 ' } r a P r } ",
"+ V M A m s ! =+m.a.,+g.h.h.T.U.V.V.V.'+)+)+)+)+)+)+)+!+~+{+{+{+{+{+{+{+{+{+{+{+{+{+{+{+]+Y.Y.Y.Y.`.h.y.^+/+(+o 6 p $ ~ G v ^ 0 ",
"_+j 3 > m g - P A.D :+g.h.h.T.U.V.V.<+[+}+}+}+}+}+}+}+|+1+1+1+1+1+1+1+1+1+1+1+1+1+1+1+1+2+3+Y.Y.Y.`.h.y.4+5+q p C X | t h + & t ",
"A | O.h G 6+& R 7+W 8+g.h.h.T.U.V.V.<+9+0+0+0+0+0+0+0+0+0+0+0+0+0+0+0+0+0+0+0+0+0+0+0+0+2+3+Y.Y.Y.`.h.a+b+O | A b R 4 7 c+s z d+",
"P m u [ [ ; ' 4 e+j f+$+h.h.T.U.V.V.<+9+0+0+0+0+0+0+0+0+0+0+0+0+0+0+0+0+0+0+0+0+0+0+0+0+2+3+Y.Y.Y.`.h.y.g+* ] = n x 4 s t . K h+",
"4 : s + = s & ] + 5 i+g.h.h.T.U.j+j+k+9+0+0+0+0+l+l+l+l+l+l+l+l+0+0+0+0+0+0+0+0+0+0+0+0+2+3+Y.Y.Z.`.h.y.m+e + A n+c.= r ( $ A J ",
"m ' ; a ] , , c ( | o+h.h.h.p+q+r+r+s+t+0+0+0+u+v+v+v+v+v+v+v+w+x+0+0+0+0+0+0+0+0+0+0+0+y+z+`.`.`.h.h.a+A+h ' 4 Y ) c = { c * I ",
"m.h ( ! [ c s ^ , G B+C+h.h.`.Y.Y.Y.3+2+0+0+0+D+h.h.h.h.h.h.h.E+x+0+0+0+0+0+0+0+0+0+0+0+y+F+h.h.h.h.h.y.g+> & 4 ] ' 7 = ^ < , o ",
"R G+t.= ' } | 8 5 r H+a+h.h.`.Y.Y.Y.3+2+0+0+0+D+h.h.h.h.h.h.h.E+x+0+0+0+0+0+0+0+0+0+0+0+y+F+h.h.h.h.h.y.I+; $ ] , ( 8 | ] ' | $ ",
"P 7+P.A 8 =+[ < 7 u J+y.h.h.`.Y.Y.Y.3+2+0+0+0+D+h.h.h.h.h.h.h.E+x+0+0+0+0+0+0+0+0+0+0+0+y+F+h.h.h.h.h.a+K+=+; ( * G * { | ] 4 Q.",
"& M % h ( a | , ~ $ L+i.h.h.`.Y.Y.Y.3+2+0+0+0+D+h.h.h.h.h.h.h.E+x+0+0+0+0+0+0+0+0+0+0+0+y+F+h.h.h.h.h.y.M+4 , N+< ' { { . O.$ u.",
"1 ; - k < p + ) & + O+P+h.h.`.Y.Y.Y.3+2+0+0+0+D+h.h.h.h.h.h.h.E+x+0+0+0+0+0+0+0+0+0+0+0+y+F+h.h.h.h.h.a+Q+m = 7 t s [ . = S ( a ",
"~ ^ 4 M k > x n+_+j  +R+h.h.`.Y.Y.Y.3+2+0+0+0+D+h.h.h.h.h.h.h.E+x+0+0+0+0+0+0+0+0+0+0+0+y+F+h.h.h.h.h.y.g+, $ ] ; ] [ S+_ b.C G ",
"' r ] % P c.J L P.+ T+U+h.h.`.Y.Y.Y.3+2+0+0+0+D+h.h.h.h.h.h.h.E+x+0+0+0+0+0+0+0+0+0+0+0+y+F+h.h.h.h.h.a+V+r.^ | G . 6 ' _ H e ( ",
"9 + 7 . % % j j B.M W+U+h.h.`.Y.Y.Y.3+2+0+0+0+X+Y+Y+Y+Y+Y+Y+Y+Z+0+0+0+0+0+0+0+0+0+0+0+0+`+ @.@.@.@+@h.a+@@t.C = ] & l q e z j ( ",
"| m n * ; ] t ^ ^ t #@$@h.h.`.Y.Y.Y.3+2+0+0+0+0+l+l+l+l+l+l+l+l+0+0+0+0+0+0+0+0+0+0+0+0+2+3+Z.Z.Z.`.h.i.%@0.G+b = &@d+q * & m m ",
"F = A C p G k j p 0 :.$@h.h.`.Y.Y.Y.3+2+0+0+0+0+0+0+0+0+0+0+0+0+0+0+0+0+0+0+0+0+0+0+0+0+2+3+Y.Y.Y.`.h.i.*@=@V -@m U B.G C G % u.",
"* A v z N 6 ;@P j , >@,@h.h.`.Y.Y.Y.3+2+0+0+0+0+0+0+0+0+0+0+0+0+0+0+0+0+0+0+0+0+0+0+0+0+2+3+Y.Y.Y.`.h.i.'@6 ] =+m . j X v.= v ++",
"N G u ^ n n+)@2 r } !@~@h.h.`.Y.Y.Y.3+{@]@]@]@^@0+0+0+x+]@]@]@]@0+0+0+0+/@]@]@]@(@0+0+0+_@:@<@<@<@[@h.y.}@& ! 7 ^ 6 t X |@q P 7+",
"a.' . , 3 _ u.2 8 * 1@2@h.h.`.Y.Y.Y.Z.3@4@4@5@6@0+0+0+7@8@4@4@9@x+0+0+0@a@4@4@4@b@0+0+0+c@d@e@e@e@h.h.i.f@G $ * * . s M g@d.J ++",
"h@i ~ ( * * ] 2 ] : i@j@h.h.`.Y.Y.Y.Z.k@h.h.l@m@0+0+0+n@o@h.h.E+x+0+0+0@p@h.h.h.D+0+0+0+y+F+h.h.h.h.h.i.q@& ] s ' } 0 ) l.d.M % ",
"7+h@&@_ m.{ p =+= > r@s@h.h.`.Y.Y.Y.Z.k@h.h.l@m@0+0+0+n@o@h.h.E+x+0+0+0@p@h.h.h.D+0+0+0+y+F+h.h.h.h.h.i.&+3 O.$ G } 7 G a O . ; ",
"-@W l.m | & . =+G k t@u@h.h.`.Z.Z.Z.v@w@h.h.l@m@0+0+0+n@o@h.h.E+1+l+l+x@y@h.h.h.D+0+0+0+y+F+h.h.h.h.h.y.z@A@@ ~ 0 ' ! ^ + Y ) , ",
"e + : 7 m $ a =+B B@C@D@h.h.C+E@E@E@E@F@h.h.l@m@0+0+0+n@o@h.h.h.G@H@H@H@I@h.h.h.D+0+0+0+y+F+h.h.h.h.h.y.J@y C ' k O A t ' u 5 , ",
"j $ > h $ O.G P g@L K@L@h.h.h.h.h.h.h.h.h.h.l@m@0+0+0+n@o@h.h.h.h.h.h.h.h.h.h.h.D+0+0+0+y+F+h.h.h.h.h.a+M@K + = b M m 7 < . q a.",
"P - ] ) ; O.& v N@J O@P@h.h.h.h.h.h.h.h.h.h.l@m@0+0+0+n@o@h.h.h.h.h.h.h.h.h.h.h.D+0+0+0+y+F+h.h.h.h.h.a+Q@, ] | =@M 4 ^ * G Q R@",
"4 ; $ | . S+( | v S@T@U@h.h.h.h.h.h.h.h.h.h.l@V@l+l+l+W@o@h.h.h.h.h.h.h.h.h.h.h.X@l+l+l+Y@5@h.h.h.h.h.y.Z@`@ #G b X + [ ( | B.K ",
"m ( & g r .#T++#@###$#P+h.h.h.h.h.h.h.h.h.h.%#&#Y+Y+Y+*#9@h.h.h.h.h.h.h.h.h.h.h.=#Z+Y+Y+-#9@h.h.h.h.h.h.;#>#,#'#)#n 7 = { ) c e ",
"= : ^ | $ !#~#a+C+h.h.h.h.h.h.h.h.h.h.h.h.h.h.h.h.h.h.h.h.h.h.h.h.h.h.h.h.h.h.h.h.h.h.h.h.h.h.h.h.h.h.h.h.h.h.C+{#=@7 r > N+< # ",
"X k.b.A ; ;.]#h.h.h.h.h.h.h.h.h.h.h.h.h.h.h.h.h.h.h.h.h.h.h.h.h.h.h.h.h.h.h.h.h.h.h.h.h.h.h.h.h.h.h.h.h.h.h.h.h.^#: & r . c G ^ ",
"W /#R@j & (#_#h.h.h.h.h.h.h.h.h.h.h.h.h.h.h.h.h.h.h.h.h.h.h.h.h.h.h.h.h.h.h.h.h.h.h.h.h.h.h.h.h.h.h.h.h.h.h.h.h.R+e & & ] G + 2 ",
"O K :#= = =.<#h.h.h.[#[#[#[#[#h.h.h.h.h.h.h.h.h.h.h.h.h.h.h.h.h.}#}#}#|#1#h.h.h.h.h.h.h.h.h.h.h.h.[#[#[#[#1#h.h.R+p I ~ j $ - 2#",
"N+3#4#5#6#7#8#h.h.N.9#9#9#9#0#1#h.h.h.h.h.h.h.h.h.h.h.h.h.h.h.F@a#b#b#c#d#h.h.h.h.h.h.h.h.h.h.h.1#0#9#9#e#f#h.h.R+C ^ } 8 3 & 2 ",
"I g#i.y.y.h#h.h.h.i#Y.Y.Y.Y.j#k#h.h.h.h.h.h.h.h.h.h.h.h.h.h.h.E+x+0+0+0@p@h.h.h.h.h.h.h.h.h.h.h.k#j#Y.Y.Z.l#h.h.m#n#o#%.p#q#& + ",
": r#a+h.h.h.h.h.h.i#Y.Y.Y.Y.j#k#h.h.h.h.h.h.h.h.h.h.h.h.h.h.h.E+x+0+0+0@p@h.h.h.h.h.h.h.h.h.h.h.k#j#Y.Y.Z.l#h.h.s#t#u#v#w#x#=@& ",
"$ y#a+h.h.h.h.h.h.i#Y.Y.Y.Y.j#k#h.h.h.h.h.h.h.h.h.h.h.h.h.h.h.E+x+0+0+0@p@h.h.h.h.h.h.h.h.h.h.h.k#j#Y.Y.Z.l#h.h.h.h.h.h.g.z#c., ",
"=+A#a+h.h.E@B#C#C#D#Y.Y.Y.Y.E#F#F#F#G#H#h.h.h.I#F#F#F#J#[#h.h.E+x+0+0+0@p@h.h.h.K#F#F#F#L#[#h.h.k#j#Y.Y.Z.M#C#C#C#N#1#h.g.O#_ [ ",
", P#a+h.h.Q#R#Z.Z.Z.Y.Y.Y.Y.S#l+l+l+x@T#h.h.l@V@l+l+l+U#o@h.h.E+x+0+0+0@p@h.h.h.V#l+l+l+W#5@h.h.k#j#Y.Y.Y.Z.Z.Z.Z.X#[#h.h.Y#v Z#",
"3 `#a+h.h.Q#Z.Y.Y.Y.Y.Y.Y.Y.S#0+0+0+0@ $h.h.l@m@0+0+0+n@o@h.h.E+x+0+0+0@p@h.h.h.D+0+0+0+y+F+h.h.k#j#Y.Y.Y.Y.Y.Y.Y.0#[#h.h.$#)@-@",
"> .$a+h.h.Q#Z.Y.Y.Y.Y.Y.Y.Y.S#0+0+0+0@ $h.h.l@m@0+0+0+n@o@h.h.E+x+0+0+0@p@h.h.h.D+0+0+0+y+F+h.h.k#j#Y.Y.Y.Y.Y.Y.Y.0#[#h.h.+$W 7+",
"&@@$a+h.h.Q#Z.Y.Y.Y.Y.Y.Y.Y.S##$#$#$0+$$%$%$&$*$#$#$#$=$-$%$%$;$>$#$#$,$'$%$%$%$)$#$#$#$!$~$%$%$p+j#Y.Y.Y.Y.Y.Y.Y.0#[#h.h.{$J P.",
"]$^$y.h.h.Q#Z.Y.Y.Y.Y.Y.Y.Y.Y.3+3+3+3+/$Z.Z.Z.Y.3+3+3+Y.Z.Z.Z.Z.3+3+3+3+/$Z.Z.Z.Y.3+3+3+3+Z.Z.Z.Z.Y.Y.Y.Y.Y.Y.Y.Y.0#[#h.h.($x 4 ",
"_$:$y.h.h.Q#Z.Y.Y.Y.Y.Y.Y.Y.Y.Y.Y.Y.Y.Y.Y.Y.Y.Y.Y.Y.Y.Y.Y.Y.Y.Y.Y.Y.Y.Y.Y.Y.Y.Y.Y.Y.Y.Y.Y.Y.Y.Y.Y.Y.Y.Y.Y.Y.Y.Y.Y.0#[#h.h.<$_+] ",
"[$}$a+h.h.Q#Z.Y.Y.Y.Y.Y.Y.Y.Y.Y.Y.Y.Y.Y.Y.Y.Y.Y.Y.Y.Y.Y.Y.Y.Y.Y.Y.Y.Y.Y.Y.Y.Y.Y.Y.Y.Y.Y.Y.Y.Y.Y.Y.Y.Y.Y.Y.Y.Y.Y.Y.0#[#h.h.|$q ^ ",
"j 1$a+h.h.Q#v@Z.Z.Z.Z.Z.Z.Z.Z.Z.Z.Z.Z.Z.Z.Z.Z.Z.Z.Z.Z.Z.Z.Z.Z.Z.Z.Z.Z.Z.Z.Z.Z.Z.Z.Z.Z.Z.Z.Z.Z.Z.Z.Z.Z.Z.Z.Z.Z.Z.Z.2$[#h.h.3$C { ",
"O 4$a+h.h.i#5$5$5$5$5$5$5$5$5$5$5$5$5$5$5$5$5$5$5$5$5$5$5$5$5$5$5$5$5$5$5$5$5$5$5$5$5$5$5$5$5$5$5$5$5$5$5$5$5$5$5$6$h.h.h.7$=@> ",
"x y#a+h.h.h.h.h.h.h.h.h.h.h.h.h.h.h.h.h.h.h.h.h.h.h.h.h.h.h.h.h.h.h.h.h.h.h.h.h.h.h.h.h.h.h.h.h.h.h.h.h.h.h.h.h.h.h.h.h.h.8$D 0.",
"B.4$a+h.h.h.h.h.h.h.h.h.h.h.h.h.h.h.h.h.h.h.h.h.h.h.h.h.h.h.h.h.h.h.h.h.h.h.h.h.h.h.h.h.h.h.h.h.h.h.h.h.h.h.h.h.h.h.h.h.h.$@K 5+",
"a 9$0$a$b$0$0$P@P@U@c$c$L@L@<$P@U@d$0$0$P@b$e$d$a$a$f$g$e$0$f$U@P@b$L@a$d$f$c$g$0$0$e$b$d$f$L@b$d$P@P@c$U@c$c$a$L@e$P@b$d$h$e J ",
"+ : C M _ i$i r.S _+D.i P V B D.q r.6 T j$e n D.z J n j$C k$n e (+c.V M S n p k$T k$D.c.i =@P z r.N 3 r._+r.l P )@=@D._+S (+{ N+",
"q &@k ! [ ( G ' > 8 7 ' =+$ h h [ s * l$> [ m$N m.$ ( & G : ' & : ! =+; > ^ ! > , : ^ b &@^ f s ( = ( t G c & - 8 l$7 . ) 6 ( * ",
"R |@v.j O.s ] s s ] . $ $ c ' G r + ; | m M |@G+_+s ) A . ; G . ] $ e .+s [ | . [ a | Q |@d+! ' [ ] s ; $ = ] ! 6+O.n$! ] & | + ",
":#o$[$v =+2 ) 1 .+=+4 ' ~ I ] p$F | q$2 r$e+*+*+% a u.m <   ] 2 r { 0 5 G 1 7 =+2 Q.Z#:#7+[$9 9 2 ^ N+( 4 a 7 I ~ ! s$0 | 2 2 2#"};
